<svg xmlns="http://www.w3.org/2000/svg" xmlns:xlink="http://www.w3.org/1999/xlink" width="610" height="419" viewBox="0 0 610 419">
  <defs>
    <clipPath id="clip-path">
      <rect id="Rectángulo_46407" data-name="Rectángulo 46407" width="16.45" height="16.294" fill="#727997"/>
    </clipPath>
  </defs>
  <g id="Grupo_160358" data-name="Grupo 160358" transform="translate(6695 10591)">
    <g id="Grupo_160357" data-name="Grupo 160357">
      <rect id="Rectángulo_46403" data-name="Rectángulo 46403" width="610" height="419" transform="translate(-6695 -10591)" fill="#fff"/>
      <g id="Trazado_600399" data-name="Trazado 600399" transform="translate(-6485 -10571)" fill="#f5f6ff">
        <path d="M 388.5 331.5 L 0.5 331.5 L 0.5 0.5 L 388.5 0.5 L 388.5 331.5 Z" stroke="none"/>
        <path d="M 1 1 L 1 331 L 388 331 L 388 1 L 1 1 M 0 0 L 389 0 L 389 332 L 0 332 L 0 0 Z" stroke="none" fill="#4462fe"/>
      </g>
      <text id="Fase_febril" data-name="Fase febril" transform="translate(-6451 -10216)" fill="#12263f" font-size="16" font-family="Roboto-Bold, Roboto" font-weight="700"><tspan x="0" y="0">Fase febril</tspan></text>
      <text id="Viremia_" data-name="Viremia " transform="translate(-6447 -10296)" fill="#12263f" font-size="16" font-family="Roboto-Medium, Roboto" font-weight="500"><tspan x="0" y="0">Viremia </tspan></text>
      <text id="Plaquetas" transform="translate(-6178 -10363)" fill="#0235c1" font-size="16" font-family="Roboto-Medium, Roboto" font-weight="500"><tspan x="0" y="0">Plaquetas</tspan></text>
      <text id="IgM_IgG" data-name="IgM/IgG" transform="translate(-6237 -10303)" fill="#12263f" font-size="16" font-family="Roboto-Regular, Roboto"><tspan x="0" y="0">IgM/IgG</tspan></text>
      <text id="Hematocrito" transform="translate(-6474 -10336)" fill="#ae40ce" font-size="16" font-family="Roboto-Medium, Roboto" font-weight="500"><tspan x="0" y="0">Hematocrito</tspan></text>
      <text id="Deshidratación" transform="translate(-6474 -10429)" fill="#12263f" font-size="16" font-family="Roboto-Medium, Roboto" font-weight="500"><tspan x="0" y="0">Deshidratación</tspan></text>
      <text id="_40" data-name="40" transform="translate(-6461 -10497)" fill="#12263f" font-size="16" font-family="Roboto-Bold, Roboto" font-weight="700"><tspan x="0" y="0">40</tspan></text>
      <text id="Reabsorción_de_líquidos" data-name="Reabsorción
de líquidos" transform="translate(-6182 -10437)" fill="#12263f" font-size="16" font-family="Roboto-Medium, Roboto" font-weight="500"><tspan x="-44.773" y="0">Reabsorción</tspan><tspan x="-39.176" y="16">de líquidos</tspan></text>
      <text id="Fase_crítica" data-name="Fase crítica" transform="translate(-6351 -10216)" fill="#12263f" font-size="16" font-family="Roboto-Bold, Roboto" font-weight="700"><tspan x="0" y="0">Fase crítica</tspan></text>
      <text id="Fase_de_recuperación" data-name="Fase de recuperación" transform="translate(-6250 -10217)" fill="#12263f" font-size="16" font-family="Roboto-Bold, Roboto" font-weight="700"><tspan x="0" y="0">Fase de recuperación</tspan></text>
      <rect id="Rectángulo_46399" data-name="Rectángulo 46399" width="88" height="328" transform="translate(-6357 -10569)" fill="#f2fbe6"/>
      <path id="Trazado_600383" data-name="Trazado 600383" d="M-7541-10314.652s47.408.439,50.96-15.949,10.327-24.136,20.636-23.241,45.362,48.27,56.849,48.866,15.611-4.767,27.982-8.045,50.369-1.631,50.369-1.631" transform="translate(1139.218 -14.255)" fill="none" stroke="#ae40ce" stroke-linecap="round" stroke-width="4"/>
      <path id="Trazado_600384" data-name="Trazado 600384" d="M-7614.492-10182.316s32.7-42.906,46.54-41.119,22.94,11.324,51.235,43.8" transform="translate(1165.895 -60.636)" fill="none" stroke="#c12525" stroke-linecap="round" stroke-width="4"/>
      <path id="Trazado_600385" data-name="Trazado 600385" d="M-7518.312-10190.766s48.9-2.98,70.4-13.707,43.887-27.412,52.725-28.6,146.1-16.687,146.1-16.687" transform="translate(1130.982 -51.293)" fill="none" stroke="#489d34" stroke-linecap="round" stroke-width="4"/>
      <path id="Trazado_600375" data-name="Trazado 600375" d="M-6524-10447.449h158.086v-10.46l33.7,26.341-33.7,25.564v-9.3H-6524" transform="translate(-161.998 -119.091)" fill="#e2e7fe" stroke="#4462fe" stroke-width="1"/>
      <path id="Trazado_600386" data-name="Trazado 600386" d="M-6525-10447.449h158.723v-10.46l33.7,26.341-33.7,25.564v-9.3H-6525" transform="translate(-161.634 -55.298)" fill="#e2e7fe" stroke="#4462fe" stroke-width="1"/>
      <path id="Trazado_600387" data-name="Trazado 600387" d="M-6525.04-10447.449h158.748v-10.46l33.7,26.341-33.7,25.564v-9.3H-6525.04" transform="translate(-161.62 8.494)" fill="#e2e7fe" stroke="#4462fe" stroke-width="1"/>
      <path id="Trazado_600388" data-name="Trazado 600388" d="M-6525.04-10447.449h158.748v-10.46l33.7,26.341-33.7,25.564v-9.3H-6525.04" transform="translate(-161.62 72.288)" fill="#e2e7fe" stroke="#4462fe" stroke-width="1"/>
      <path id="Trazado_600389" data-name="Trazado 600389" d="M-6525.821-10447.449h159.246v-10.46l33.7,26.341-33.7,25.564v-9.3h-159.246" transform="translate(-161.336 139.984)" fill="#e2e7fe" stroke="#4462fe" stroke-width="1"/>
      <path id="Trazado_600390" data-name="Trazado 600390" d="M-6525.821-10447.449h159.246v-10.46l33.7,26.341-33.7,25.564v-9.3h-159.246" transform="translate(-161.336 207.681)" fill="#54397c"/>
      <text id="Temperatura" transform="translate(-6674.857 -10481.5)" fill="#12263f" font-size="15" font-family="Roboto-Medium, Roboto" font-weight="500"><tspan x="0" y="0">Temperatura</tspan></text>
      <text id="Eventos_clínicos_potenciales" data-name="Eventos clínicos
potenciales" transform="translate(-6674.857 -10425.963)" fill="#12263f" font-size="15" font-family="Roboto-Medium, Roboto" font-weight="500"><tspan x="0" y="0">Eventos clínicos</tspan><tspan x="0" y="16">potenciales</tspan></text>
      <text id="Cambios_de_laboratorio" data-name="Cambios de laboratorio" transform="translate(-6674.857 -10354.169)" fill="#12263f" font-size="15" font-family="Roboto-Medium, Roboto" font-weight="500"><tspan x="0" y="0">Cambios de laboratorio</tspan></text>
      <text id="Serología_y_virología" data-name="Serología y virología" transform="translate(-6674.857 -10286.473)" fill="#12263f" font-size="15" font-family="Roboto-Medium, Roboto" font-weight="500"><tspan x="0" y="0">Serología y virología</tspan></text>
      <text id="Curso_de_la_enfermedad" data-name="Curso de la enfermedad" transform="translate(-6674.857 -10219.5)" fill="#fff" font-size="15" font-family="Roboto-Medium, Roboto" font-weight="500"><tspan x="0" y="0">Curso de la enfermedad</tspan></text>
      <text id="Día_de_enfermedad" data-name="Día de enfermedad" transform="translate(-6674.857 -10545.547)" fill="#12263f" font-size="15" font-family="Roboto-Medium, Roboto" font-weight="500"><tspan x="0" y="0">Día de enfermedad</tspan></text>
      <text id="_1" data-name="1" transform="translate(-6420.255 -10550.728)" fill="#12263f" font-size="16" font-family="Roboto-Bold, Roboto" font-weight="700"><tspan x="0" y="0">1</tspan></text>
      <text id="_2" data-name="2" transform="translate(-6389.679 -10550.728)" fill="#12263f" font-size="16" font-family="Roboto-Bold, Roboto" font-weight="700"><tspan x="0" y="0">2</tspan></text>
      <text id="_3" data-name="3" transform="translate(-6357.192 -10550.728)" fill="#12263f" font-size="16" font-family="Roboto-Bold, Roboto" font-weight="700"><tspan x="0" y="0">3</tspan></text>
      <text id="_4" data-name="4" transform="translate(-6332.349 -10550.728)" fill="#12263f" font-size="16" font-family="Roboto-Bold, Roboto" font-weight="700"><tspan x="0" y="0">4</tspan></text>
      <text id="_8" data-name="8" transform="translate(-6293.492 -10550.728)" fill="#12263f" font-size="16" font-family="Roboto-Bold, Roboto" font-weight="700"><tspan x="0" y="0">8</tspan></text>
      <text id="_6" data-name="6" transform="translate(-6257.82 -10550.728)" fill="#12263f" font-size="16" font-family="Roboto-Bold, Roboto" font-weight="700"><tspan x="0" y="0">6</tspan></text>
      <text id="_7" data-name="7" transform="translate(-6227.244 -10550.728)" fill="#12263f" font-size="16" font-family="Roboto-Bold, Roboto" font-weight="700"><tspan x="0" y="0">7</tspan></text>
      <text id="_8-2" data-name="8" transform="translate(-6201.127 -10550.728)" fill="#12263f" font-size="16" font-family="Roboto-Bold, Roboto" font-weight="700"><tspan x="0" y="0">8</tspan></text>
      <text id="_9" data-name="9" transform="translate(-6173.099 -10550.728)" fill="#12263f" font-size="16" font-family="Roboto-Bold, Roboto" font-weight="700"><tspan x="0" y="0">9</tspan></text>
      <path id="Trazado_600391" data-name="Trazado 600391" d="M-7642-10504.849h360.178" transform="translate(1175.881 39.423)" fill="none" stroke="#707070" stroke-width="1"/>
      <path id="Trazado_600392" data-name="Trazado 600392" d="M-7642-10504.849h360.178" transform="translate(1175.881 121.258)" fill="none" stroke="#707070" stroke-width="1"/>
      <path id="Trazado_600393" data-name="Trazado 600393" d="M-7642-10504.849h360.178" transform="translate(1175.881 181.829)" fill="none" stroke="#707070" stroke-width="1"/>
      <path id="Trazado_600394" data-name="Trazado 600394" d="M-7640.215-10558.335h8.489" transform="translate(1166.233 58.444)" fill="none" stroke="#707070" stroke-linecap="round" stroke-width="2"/>
      <path id="Trazado_600395" data-name="Trazado 600395" d="M-7640.215-10558.335h8.489" transform="translate(1166.233 70.043)" fill="none" stroke="#707070" stroke-linecap="round" stroke-width="2"/>
      <path id="Trazado_600396" data-name="Trazado 600396" d="M-7640.215-10558.335h8.489" transform="translate(1166.233 79.708)" fill="none" stroke="#707070" stroke-linecap="round" stroke-width="2"/>
      <path id="Trazado_600397" data-name="Trazado 600397" d="M-7640.215-10558.335h8.489" transform="translate(1166.233 88.729)" fill="none" stroke="#707070" stroke-linecap="round" stroke-width="2"/>
      <path id="Trazado_601225" data-name="Trazado 601225" d="M0,0H92V42H0Z" transform="translate(-6359 -10456)" fill="#841b1b"/>
      <path id="Trazado_600381" data-name="Trazado 600381" d="M-7615.891-10534.007a143.085,143.085,0,0,0,8.383-19.253c4.079-11.46,14.728-20.629,29.229-19.941s40.785,13.753,44.41,14.44,3.852-1.375,7.93,1.834,9.969,16.731,16.541,22.92,20.846,11.919,37.159,0,13.368-14.9,19.486-13.064,24.244,13.064,24.244,13.064" transform="translate(1166.404 63.743)" fill="none" stroke="#af2323" stroke-linecap="round" stroke-width="4"/>
      <rect id="Rectángulo_46401" data-name="Rectángulo 46401" width="135" height="21" transform="translate(-6381 -10406)" fill="#ffcfcf"/>
      <text id="Daño_de_órganos" data-name="Daño de órganos" transform="translate(-6374 -10391)" fill="#12263f" font-size="16" font-family="Roboto-Medium, Roboto" font-weight="500"><tspan x="0" y="0">Daño de órganos</tspan></text>
      <path id="Trazado_600382" data-name="Trazado 600382" d="M-7560.853-10352.492s23.27-5.959,29.75,0,27.1,34.563,38.881,36.054,60.383,2.085,64.507,0,31.517-26.519,38.292-27.412,11.488,1.787,20.324,1.787,33.285-8.641,33.285-8.641" transform="translate(1146.424 -13.818)" fill="none" stroke="#0235c1" stroke-linecap="round" stroke-width="4"/>
      <text id="Choque_Hemorragia" data-name="Choque
Hemorragia" transform="translate(-6314 -10439)" fill="#fff" font-size="15" font-family="Roboto-Medium, Roboto" font-weight="500"><tspan x="-25.781" y="0">Choque</tspan><tspan x="-39.595" y="16">Hemorragia</tspan></text>
      <g id="Grupo_160355" data-name="Grupo 160355" transform="translate(-6144.346 -10514.081) rotate(-41)" clip-path="url(#clip-path)">
        <path id="Trazado_600402" data-name="Trazado 600402" d="M12.705,10.081A8.343,8.343,0,0,1,8.874,6.712c-.088.241-.172.461-.245.685-.012.038.017.092.032.136.106.3.208.6.322.9a.6.6,0,0,0,.151.227c.542.488,1.084.975,1.637,1.45a.439.439,0,0,1,.162.459q-.221,1.267-.423,2.538a.365.365,0,0,0,.06.222q.789,1.3,1.586,2.6c.035.058.069.117.109.185l-.33.178-.6-.973c-.373-.61-.739-1.224-1.123-1.827a.661.661,0,0,1-.089-.511c.142-.808.274-1.617.406-2.427a.208.208,0,0,0-.04-.163c-.446-.406-.9-.806-1.348-1.207-.007-.006-.022,0-.051-.008,0,.35.015.7,0,1.046a12.187,12.187,0,0,1-.685,3.242c-.024.072-.126.169-.186.166s-.157-.1-.183-.176A12.166,12.166,0,0,1,7.4,10.7c-.048-.5-.059-1.01-.086-1.513a.3.3,0,0,0-.06.039c-.413.368-.828.733-1.233,1.11a.311.311,0,0,0-.079.24c.136.847.285,1.692.424,2.538a.339.339,0,0,1-.032.215q-.9,1.47-1.8,2.933s-.01.007-.029.019L4.2,16.1c.037-.065.069-.123.1-.179.526-.862,1.054-1.723,1.574-2.588a.483.483,0,0,0,.071-.3q-.2-1.271-.422-2.538a.346.346,0,0,1,.124-.362C6.2,9.658,6.74,9.181,7.273,8.693a.968.968,0,0,0,.205-.339c.112-.264.212-.534.307-.805A.417.417,0,0,0,7.8,7.311c-.058-.2-.136-.4-.213-.612A8.347,8.347,0,0,1,3.746,10.08c.065.191.127.378.191.564.191.55.382,1.1.576,1.648a.3.3,0,0,1-.037.315q-.865,1.129-1.723,2.263c-.015.02-.034.036-.062.065L2.4,14.707l1.212-1.6c.16-.21.323-.417.475-.632a.234.234,0,0,0,.032-.183c-.234-.68-.476-1.358-.716-2.036a.777.777,0,0,0-.033-.07,4.314,4.314,0,0,1-2.6-.086,5.192,5.192,0,0,1-.6-.266c-.207-.1-.22-.186-.079-.365A9.574,9.574,0,0,1,2.378,7.356,8.967,8.967,0,0,1,6.487,5.9C6.854,5.866,7.228,5.9,7.6,5.9l.044-.057a.771.771,0,0,0-.115-.18q-.99-.872-1.989-1.735a.326.326,0,0,1-.122-.358A2.9,2.9,0,0,0,5.427,2.1a1.224,1.224,0,0,0-.343-.563C4.611,1.152,4.1.814,3.609.459c-.06-.043-.125-.081-.2-.127L3.588,0A9,9,0,0,1,5.451,1.33a1.558,1.558,0,0,1,.424,1.117c.01.355-.041.712-.057,1.068a.276.276,0,0,0,.056.2c.643.562,1.292,1.118,1.982,1.655-.012-.036-.013-.084-.037-.107a.666.666,0,0,1,.141-1.138.241.241,0,0,0,.078-.179c.006-.464,0-.929,0-1.394V2.354h.377v.519c0,.364,0,.728,0,1.092a.223.223,0,0,0,.079.162A.672.672,0,0,1,8.583,5.3l.074.1c.656-.565,1.306-1.12,1.947-1.684a.294.294,0,0,0,.059-.229A3.852,3.852,0,0,1,10.681,2a1.465,1.465,0,0,1,.452-.765A10.066,10.066,0,0,1,12.9,0l.167.319c-.373.248-.736.483-1.091.728-.165.114-.312.254-.473.374a1.325,1.325,0,0,0-.518,1.138,6.989,6.989,0,0,0,.106,1.025.305.305,0,0,1-.11.326c-.64.538-1.275,1.08-1.912,1.621a1.926,1.926,0,0,0-.184.161.418.418,0,0,0-.054.127.508.508,0,0,0,.13.044c.395.022.792.019,1.185.063a8.891,8.891,0,0,1,4.328,1.7,9.529,9.529,0,0,1,1.863,1.8c.165.209.155.277-.082.407a4.181,4.181,0,0,1-2.974.4l-.214-.047c-.2.587-.389,1.178-.617,1.753a.711.711,0,0,0,.128.819c.485.584.927,1.2,1.386,1.809.03.039.056.08.1.136l-.3.228c-.041-.045-.08-.083-.112-.125-.548-.719-1.092-1.441-1.644-2.158a.369.369,0,0,1-.06-.4c.258-.718.5-1.441.757-2.178" transform="translate(0 0)" fill="#727997"/>
      </g>
      <g id="Grupo_160356" data-name="Grupo 160356" transform="translate(-6461.557 -10203.314) rotate(47)" clip-path="url(#clip-path)">
        <path id="Trazado_600403" data-name="Trazado 600403" d="M12.705,10.081A8.343,8.343,0,0,1,8.874,6.712c-.088.241-.172.461-.245.685-.012.038.017.092.032.136.106.3.208.6.322.9a.6.6,0,0,0,.151.227c.542.488,1.084.975,1.637,1.45a.439.439,0,0,1,.162.459q-.221,1.267-.423,2.538a.365.365,0,0,0,.06.222q.789,1.3,1.586,2.6c.035.058.069.117.109.185l-.33.178-.6-.973c-.373-.61-.739-1.224-1.123-1.827a.661.661,0,0,1-.089-.511c.142-.808.274-1.617.406-2.427a.208.208,0,0,0-.04-.163c-.446-.406-.9-.806-1.348-1.207-.007-.006-.022,0-.051-.008,0,.35.015.7,0,1.046a12.187,12.187,0,0,1-.685,3.242c-.024.072-.126.169-.186.166s-.157-.1-.183-.176A12.166,12.166,0,0,1,7.4,10.7c-.048-.5-.059-1.01-.086-1.513a.3.3,0,0,0-.06.039c-.413.368-.828.733-1.233,1.11a.311.311,0,0,0-.079.24c.136.847.285,1.692.424,2.538a.339.339,0,0,1-.032.215q-.9,1.47-1.8,2.933s-.01.007-.029.019L4.2,16.1c.037-.065.069-.123.1-.179.526-.862,1.054-1.723,1.574-2.588a.483.483,0,0,0,.071-.3q-.2-1.271-.422-2.538a.346.346,0,0,1,.124-.362C6.2,9.658,6.74,9.181,7.273,8.693a.968.968,0,0,0,.205-.339c.112-.264.212-.534.307-.805A.417.417,0,0,0,7.8,7.311c-.058-.2-.136-.4-.213-.612A8.347,8.347,0,0,1,3.746,10.08c.065.191.127.378.191.564.191.55.382,1.1.576,1.648a.3.3,0,0,1-.037.315q-.865,1.129-1.723,2.263c-.015.02-.034.036-.062.065L2.4,14.707l1.212-1.6c.16-.21.323-.417.475-.632a.234.234,0,0,0,.032-.183c-.234-.68-.476-1.358-.716-2.036a.777.777,0,0,0-.033-.07,4.314,4.314,0,0,1-2.6-.086,5.192,5.192,0,0,1-.6-.266c-.207-.1-.22-.186-.079-.365A9.574,9.574,0,0,1,2.378,7.356,8.967,8.967,0,0,1,6.487,5.9C6.854,5.866,7.228,5.9,7.6,5.9l.044-.057a.771.771,0,0,0-.115-.18q-.99-.872-1.989-1.735a.326.326,0,0,1-.122-.358A2.9,2.9,0,0,0,5.427,2.1a1.224,1.224,0,0,0-.343-.563C4.611,1.152,4.1.814,3.609.459c-.06-.043-.125-.081-.2-.127L3.588,0A9,9,0,0,1,5.451,1.33a1.558,1.558,0,0,1,.424,1.117c.01.355-.041.712-.057,1.068a.276.276,0,0,0,.056.2c.643.562,1.292,1.118,1.982,1.655-.012-.036-.013-.084-.037-.107a.666.666,0,0,1,.141-1.138.241.241,0,0,0,.078-.179c.006-.464,0-.929,0-1.394V2.354h.377v.519c0,.364,0,.728,0,1.092a.223.223,0,0,0,.079.162A.672.672,0,0,1,8.583,5.3l.074.1c.656-.565,1.306-1.12,1.947-1.684a.294.294,0,0,0,.059-.229A3.852,3.852,0,0,1,10.681,2a1.465,1.465,0,0,1,.452-.765A10.066,10.066,0,0,1,12.9,0l.167.319c-.373.248-.736.483-1.091.728-.165.114-.312.254-.473.374a1.325,1.325,0,0,0-.518,1.138,6.989,6.989,0,0,0,.106,1.025.305.305,0,0,1-.11.326c-.64.538-1.275,1.08-1.912,1.621a1.926,1.926,0,0,0-.184.161.418.418,0,0,0-.054.127.508.508,0,0,0,.13.044c.395.022.792.019,1.185.063a8.891,8.891,0,0,1,4.328,1.7,9.529,9.529,0,0,1,1.863,1.8c.165.209.155.277-.082.407a4.181,4.181,0,0,1-2.974.4l-.214-.047c-.2.587-.389,1.178-.617,1.753a.711.711,0,0,0,.128.819c.485.584.927,1.2,1.386,1.809.03.039.056.08.1.136l-.3.228c-.041-.045-.08-.083-.112-.125-.548-.719-1.092-1.441-1.644-2.158a.369.369,0,0,1-.06-.4c.258-.718.5-1.441.757-2.178" transform="translate(0 0)" fill="#727997"/>
      </g>
    </g>
  </g>
</svg>
