<svg xmlns="http://www.w3.org/2000/svg" xmlns:xlink="http://www.w3.org/1999/xlink" width="1030" height="622" viewBox="0 0 1030 622">
  <defs>
    <clipPath id="clip-path">
      <rect id="Rectángulo_46405" data-name="Rectángulo 46405" width="26" height="25.754" fill="#727997"/>
    </clipPath>
  </defs>
  <g id="Grupo_160350" data-name="Grupo 160350" transform="translate(-285 -1013)">
    <rect id="Rectángulo_46402" data-name="Rectángulo 46402" width="1030" height="622" transform="translate(285 1013)" fill="#fff"/>
    <g id="Trazado_600398" data-name="Trazado 600398" transform="translate(705 1031)" fill="#f5f6ff">
      <path d="M 609 515 L 1 515 L 1 1 L 609 1 L 609 515 Z" stroke="none"/>
      <path d="M 2 2 L 2 514 L 608 514 L 608 2 L 2 2 M 0 0 L 610 0 L 610 516 L 0 516 L 0 0 Z" stroke="none" fill="#4462fe"/>
    </g>
    <path id="Trazado_600375" data-name="Trazado 600375" d="M-6639-10441.678h363.173v-16.231l52.9,40.878-52.9,39.674v-14.427H-6639" transform="translate(6924 11479.909)" fill="#e2e7fe" stroke="#4462fe" stroke-width="2"/>
    <path id="Trazado_600386" data-name="Trazado 600386" d="M-6639-10441.678h363.173v-16.231l52.9,40.878-52.9,39.674v-14.427H-6639" transform="translate(6924 11578.909)" fill="#e2e7fe" stroke="#4462fe" stroke-width="2"/>
    <path id="Trazado_600387" data-name="Trazado 600387" d="M-6639-10441.678h363.173v-16.231l52.9,40.878-52.9,39.674v-14.427H-6639" transform="translate(6924 11677.908)" fill="#e2e7fe" stroke="#4462fe" stroke-width="2"/>
    <path id="Trazado_600388" data-name="Trazado 600388" d="M-6639-10441.678h363.173v-16.231l52.9,40.878-52.9,39.674v-14.427H-6639" transform="translate(6924 11776.909)" fill="#e2e7fe" stroke="#4462fe" stroke-width="2"/>
    <path id="Trazado_600389" data-name="Trazado 600389" d="M-6639-10441.678h363.173v-16.231l52.9,40.878-52.9,39.674v-14.427H-6639" transform="translate(6924 11881.967)" fill="#e2e7fe" stroke="#4462fe" stroke-width="2"/>
    <path id="Trazado_600390" data-name="Trazado 600390" d="M-6639-10441.678h363.173v-16.231l52.9,40.878-52.9,39.674v-14.427H-6639" transform="translate(6924 11987.024)" fill="#69489b"/>
    <text id="Temperatura" transform="translate(363 1168.599)" fill="#12263f" font-size="17" font-family="Roboto-Bold, Roboto" font-weight="700"><tspan x="0" y="0">Temperatura</tspan></text>
    <text id="Eventos_clínicos_potenciales" data-name="Eventos clínicos potenciales" transform="translate(363 1266.275)" fill="#12263f" font-size="17" font-family="Roboto-Bold, Roboto" font-weight="700"><tspan x="0" y="0">Eventos clínicos potenciales</tspan></text>
    <text id="Cambios_de_laboratorio" data-name="Cambios de laboratorio" transform="translate(363 1365.275)" fill="#12263f" font-size="17" font-family="Roboto-Bold, Roboto" font-weight="700"><tspan x="0" y="0">Cambios de laboratorio</tspan></text>
    <text id="Serología_y_virología" data-name="Serología y virología" transform="translate(363 1471)" fill="#12263f" font-size="17" font-family="Roboto-Bold, Roboto" font-weight="700"><tspan x="0" y="0">Serología y virología</tspan></text>
    <text id="Curso_de_la_enfermedad" data-name="Curso de la enfermedad" transform="translate(363 1575.391)" fill="#fff" font-size="17" font-family="Roboto-Bold, Roboto" font-weight="700"><tspan x="0" y="0">Curso de la enfermedad</tspan></text>
    <text id="Fase_febril" data-name="Fase febril" transform="translate(768 1582)" fill="#12263f" font-size="17" font-family="Roboto-Bold, Roboto" font-weight="700"><tspan x="0" y="0">Fase febril</tspan></text>
    <text id="Viremia_" data-name="Viremia " transform="translate(768 1460)" fill="#12263f" font-size="17" font-family="Roboto-Bold, Roboto" font-weight="700"><tspan x="0" y="0">Viremia </tspan></text>
    <text id="Plaquetas" transform="translate(1200 1355)" fill="#0235c1" font-size="17" font-family="Roboto-Bold, Roboto" font-weight="700"><tspan x="0" y="0">Plaquetas</tspan></text>
    <text id="IgM_IgG" data-name="IgM/IgG" transform="translate(1093 1447)" fill="#12263f" font-size="17" font-family="Roboto-Regular, Roboto"><tspan x="0" y="0">IgM/IgG</tspan></text>
    <text id="Hematocrito" transform="translate(753 1400)" fill="#ae40ce" font-size="17" font-family="Roboto-Bold, Roboto" font-weight="700"><tspan x="0" y="0">Hematocrito</tspan></text>
    <text id="Deshidratación" transform="translate(743 1256)" fill="#12263f" font-size="17" font-family="Roboto-Bold, Roboto" font-weight="700"><tspan x="0" y="0">Deshidratación</tspan></text>
    <text id="_40" data-name="40" transform="translate(756 1146)" fill="#12263f" font-size="17" font-family="Roboto-Bold, Roboto" font-weight="700"><tspan x="0" y="0">40</tspan></text>
    <text id="Reabsorción_de_líquidos" data-name="Reabsorción de líquidos" transform="translate(1092 1246)" fill="#12263f" font-size="17" font-family="Roboto-Bold, Roboto" font-weight="700"><tspan x="0" y="0">Reabsorción de líquidos</tspan></text>
    <text id="Fase_crítica" data-name="Fase crítica" transform="translate(932 1582)" fill="#12263f" font-size="17" font-family="Roboto-Bold, Roboto" font-weight="700"><tspan x="0" y="0">Fase crítica</tspan></text>
    <text id="Fase_de_recuperación" data-name="Fase de recuperación" transform="translate(1091 1582)" fill="#12263f" font-size="17" font-family="Roboto-Bold, Roboto" font-weight="700"><tspan x="0" y="0">Fase de recuperación</tspan></text>
    <rect id="Rectángulo_46399" data-name="Rectángulo 46399" width="139" height="511" transform="translate(905 1033)" fill="#f2fbe6"/>
    <path id="Trazado_600383" data-name="Trazado 600383" d="M-7541-10292.984s74.424.681,80-24.752,16.211-37.456,32.4-36.068,71.211,74.91,89.245,75.835,24.507-7.4,43.929-12.484,79.072-2.53,79.072-2.53" transform="translate(8376 11700)" fill="none" stroke="#ae40ce" stroke-linecap="round" stroke-width="4"/>
    <path id="Trazado_600384" data-name="Trazado 600384" d="M-7614.493-10159.593s51.328-66.587,73.061-63.812,36.013,17.572,80.432,67.975" transform="translate(8376 11700)" fill="none" stroke="#c12525" stroke-linecap="round" stroke-width="4"/>
    <path id="Trazado_600385" data-name="Trazado 600385" d="M-7518.312-10158.205s76.76-4.625,110.516-21.271,68.9-42.541,82.771-44.391,229.355-25.9,229.355-25.9" transform="translate(8376 11700)" fill="none" stroke="#489d34" stroke-linecap="round" stroke-width="4"/>
    <text id="Día_de_enfermedad" data-name="Día de enfermedad" transform="translate(363 1067.909)" fill="#12263f" font-size="17" font-family="Roboto-Bold, Roboto" font-weight="700"><tspan x="0" y="0">Día de enfermedad</tspan></text>
    <circle id="Elipse_5642" data-name="Elipse 5642" cx="3.5" cy="3.5" r="3.5" transform="translate(347 1059)" fill="#69489b"/>
    <circle id="Elipse_5643" data-name="Elipse 5643" cx="3.5" cy="3.5" r="3.5" transform="translate(347 1161)" fill="#69489b"/>
    <circle id="Elipse_5644" data-name="Elipse 5644" cx="3.5" cy="3.5" r="3.5" transform="translate(347 1258)" fill="#69489b"/>
    <circle id="Elipse_5645" data-name="Elipse 5645" cx="3.5" cy="3.5" r="3.5" transform="translate(347 1357)" fill="#69489b"/>
    <circle id="Elipse_5646" data-name="Elipse 5646" cx="3.5" cy="3.5" r="3.5" transform="translate(347 1463)" fill="#69489b"/>
    <circle id="Elipse_5647" data-name="Elipse 5647" cx="3.5" cy="3.5" r="3.5" transform="translate(347 1566)" fill="#fff"/>
    <text id="_1" data-name="1" transform="translate(806 1067.909)" fill="#12263f" font-size="17" font-family="Roboto-Bold, Roboto" font-weight="700"><tspan x="0" y="0">1</tspan></text>
    <text id="_2" data-name="2" transform="translate(854 1067.909)" fill="#12263f" font-size="17" font-family="Roboto-Bold, Roboto" font-weight="700"><tspan x="0" y="0">2</tspan></text>
    <text id="_3" data-name="3" transform="translate(905 1067.909)" fill="#12263f" font-size="17" font-family="Roboto-Bold, Roboto" font-weight="700"><tspan x="0" y="0">3</tspan></text>
    <text id="_4" data-name="4" transform="translate(944 1067.909)" fill="#12263f" font-size="17" font-family="Roboto-Bold, Roboto" font-weight="700"><tspan x="0" y="0">4</tspan></text>
    <text id="_8" data-name="8" transform="translate(1005 1067.909)" fill="#12263f" font-size="17" font-family="Roboto-Bold, Roboto" font-weight="700"><tspan x="0" y="0">8</tspan></text>
    <text id="_6" data-name="6" transform="translate(1061 1067.909)" fill="#12263f" font-size="17" font-family="Roboto-Bold, Roboto" font-weight="700"><tspan x="0" y="0">6</tspan></text>
    <text id="_7" data-name="7" transform="translate(1109 1067.909)" fill="#12263f" font-size="17" font-family="Roboto-Bold, Roboto" font-weight="700"><tspan x="0" y="0">7</tspan></text>
    <text id="_8-2" data-name="8" transform="translate(1150 1067.909)" fill="#12263f" font-size="17" font-family="Roboto-Bold, Roboto" font-weight="700"><tspan x="0" y="0">8</tspan></text>
    <text id="_9" data-name="9" transform="translate(1194 1067.909)" fill="#12263f" font-size="17" font-family="Roboto-Bold, Roboto" font-weight="700"><tspan x="0" y="0">9</tspan></text>
    <path id="Trazado_600391" data-name="Trazado 600391" d="M-7642-10504.849h565.429" transform="translate(8376 11700)" fill="none" stroke="#707070" stroke-width="2"/>
    <path id="Trazado_600392" data-name="Trazado 600392" d="M-7642-10504.849h565.429" transform="translate(8376 11827)" fill="none" stroke="#707070" stroke-width="2"/>
    <path id="Trazado_600393" data-name="Trazado 600393" d="M-7642-10504.849h565.429" transform="translate(8376 11921)" fill="none" stroke="#707070" stroke-width="2"/>
    <path id="Trazado_600394" data-name="Trazado 600394" d="M-7640.215-10558.335h13.326" transform="translate(8376 11700)" fill="none" stroke="#707070" stroke-linecap="round" stroke-width="2"/>
    <path id="Trazado_600395" data-name="Trazado 600395" d="M-7640.215-10558.335h13.326" transform="translate(8376 11718)" fill="none" stroke="#707070" stroke-linecap="round" stroke-width="2"/>
    <path id="Trazado_600396" data-name="Trazado 600396" d="M-7640.215-10558.335h13.326" transform="translate(8376 11733)" fill="none" stroke="#707070" stroke-linecap="round" stroke-width="2"/>
    <path id="Trazado_600397" data-name="Trazado 600397" d="M-7640.215-10558.335h13.326" transform="translate(8376 11747)" fill="none" stroke="#707070" stroke-linecap="round" stroke-width="2"/>
    <rect id="Rectángulo_46400" data-name="Rectángulo 46400" width="123" height="53" transform="translate(912 1217)" fill="#af2323"/>
    <text id="Choque_Hemorragia" data-name="Choque
Hemorragia" transform="translate(975 1237)" fill="#fff" font-size="17" font-family="Roboto-Bold, Roboto" font-weight="700"><tspan x="-29.277" y="0">Choque</tspan><tspan x="-45.061" y="22">Hemorragia</tspan></text>
    <path id="Trazado_600381" data-name="Trazado 600381" d="M-7615.891-10512.355a220.778,220.778,0,0,0,13.161-29.879c6.4-17.785,23.12-32.014,45.885-30.946s64.026,21.342,69.717,22.409,6.047-2.134,12.45,2.846,15.65,25.967,25.966,35.57,32.725,18.5,58.335,0,20.986-23.121,30.59-20.275,38.06,20.275,38.06,20.275" transform="translate(8376 11700)" fill="none" stroke="#af2323" stroke-linecap="round" stroke-width="4"/>
    <rect id="Rectángulo_46401" data-name="Rectángulo 46401" width="159" height="32" transform="translate(895 1288)" fill="#ffcfcf"/>
    <text id="Daño_de_órganos" data-name="Daño de órganos" transform="translate(910 1311)" fill="#12263f" font-size="17" font-family="Roboto-Bold, Roboto" font-weight="700"><tspan x="0" y="0">Daño de órganos</tspan></text>
    <path id="Trazado_600382" data-name="Trazado 600382" d="M-7560.853-10351.03s36.531-9.248,46.7,0,42.541,53.639,61.038,55.951,94.793,3.236,101.268,0,49.478-41.153,60.113-42.541,18.034,2.774,31.906,2.774,52.252-13.41,52.252-13.41" transform="translate(8376 11700)" fill="none" stroke="#0235c1" stroke-linecap="round" stroke-width="4"/>
    <g id="Grupo_160353" data-name="Grupo 160353" transform="translate(1262.911 1083.115) rotate(-41)" clip-path="url(#clip-path)">
      <path id="Trazado_600400" data-name="Trazado 600400" d="M20.082,15.934c-2.7-1.028-4.484-3.044-6.056-5.325-.139.382-.271.729-.387,1.082-.02.06.026.145.051.215.167.475.329.951.509,1.421a.956.956,0,0,0,.239.359c.856.771,1.713,1.541,2.587,2.292a.693.693,0,0,1,.256.726q-.349,2-.668,4.012a.576.576,0,0,0,.094.35q1.247,2.061,2.507,4.115c.056.092.109.186.172.293l-.522.281-.941-1.537c-.59-.964-1.168-1.935-1.776-2.888a1.045,1.045,0,0,1-.141-.808c.224-1.277.434-2.556.641-3.835a.329.329,0,0,0-.063-.257c-.7-.642-1.419-1.274-2.131-1.908-.011-.01-.035-.006-.081-.013,0,.554.023,1.105,0,1.654a19.263,19.263,0,0,1-1.083,5.124c-.038.114-.2.268-.295.262s-.248-.16-.289-.279a19.23,19.23,0,0,1-1.01-4.355c-.076-.8-.093-1.6-.136-2.391a.468.468,0,0,0-.1.062c-.653.581-1.309,1.159-1.949,1.754a.491.491,0,0,0-.124.379c.215,1.338.45,2.674.671,4.011a.536.536,0,0,1-.051.339Q8.589,23.391,7.155,25.7c0,.008-.016.011-.046.03l-.466-.29c.059-.1.109-.194.164-.283.831-1.363,1.666-2.723,2.488-4.09a.763.763,0,0,0,.112-.467q-.313-2.009-.666-4.012a.546.546,0,0,1,.2-.572c.858-.754,1.717-1.508,2.559-2.279a1.529,1.529,0,0,0,.325-.536c.177-.418.336-.844.485-1.272a.66.66,0,0,0,.017-.377c-.092-.317-.215-.626-.336-.967-1.57,2.284-3.359,4.313-6.066,5.344.1.3.2.6.3.892.3.869.6,1.738.91,2.605a.477.477,0,0,1-.059.5Q5.707,21.712,4.35,23.5c-.024.031-.053.057-.1.1L3.8,23.246l1.915-2.522c.252-.332.511-.659.751-1a.37.37,0,0,0,.051-.289c-.37-1.075-.752-2.147-1.131-3.219a1.228,1.228,0,0,0-.053-.111,6.819,6.819,0,0,1-4.107-.135,8.207,8.207,0,0,1-.95-.421c-.327-.165-.347-.293-.125-.577a15.132,15.132,0,0,1,3.611-3.347,14.173,14.173,0,0,1,6.5-2.3c.58-.057,1.17-.009,1.756-.009l.069-.091a1.218,1.218,0,0,0-.182-.285Q10.331,7.565,8.752,6.2a.515.515,0,0,1-.193-.565,4.578,4.578,0,0,0,.019-2.323,1.934,1.934,0,0,0-.542-.89C7.288,1.82,6.486,1.286,5.7.726c-.1-.068-.2-.127-.312-.2l.279-.52A14.228,14.228,0,0,1,8.615,2.1a2.463,2.463,0,0,1,.67,1.765c.015.561-.065,1.125-.09,1.688a.436.436,0,0,0,.088.312c1.016.889,2.042,1.766,3.133,2.616-.019-.058-.021-.133-.059-.17a1.053,1.053,0,0,1,.223-1.8.381.381,0,0,0,.124-.283c.01-.734.006-1.468.006-2.2V3.721h.6v.82c0,.576-.005,1.151.006,1.726a.353.353,0,0,0,.125.257,1.063,1.063,0,0,1,.13,1.856l.117.161c1.038-.893,2.063-1.77,3.077-2.661a.464.464,0,0,0,.093-.361,6.088,6.088,0,0,1,.03-2.362A2.316,2.316,0,0,1,17.6,1.947,15.909,15.909,0,0,1,20.391,0l.264.5c-.589.392-1.163.763-1.724,1.151-.261.18-.493.4-.747.591a2.094,2.094,0,0,0-.818,1.8,11.046,11.046,0,0,0,.167,1.62.483.483,0,0,1-.174.516c-1.011.85-2.016,1.708-3.022,2.563A3.044,3.044,0,0,0,14.046,9a.661.661,0,0,0-.085.2.8.8,0,0,0,.206.07c.624.035,1.252.031,1.873.1a14.053,14.053,0,0,1,6.84,2.688,15.061,15.061,0,0,1,2.944,2.852c.261.331.246.438-.129.643a6.609,6.609,0,0,1-4.7.632l-.338-.075c-.322.928-.614,1.862-.975,2.77a1.123,1.123,0,0,0,.2,1.3c.767.923,1.465,1.9,2.19,2.859.047.062.089.127.15.215l-.469.36c-.064-.071-.126-.131-.177-.2-.866-1.137-1.726-2.278-2.6-3.41a.583.583,0,0,1-.094-.625c.408-1.135.794-2.277,1.2-3.442" transform="translate(0)" fill="#727997"/>
    </g>
    <g id="Grupo_160354" data-name="Grupo 160354" transform="translate(723.836 1582.084) rotate(47)" clip-path="url(#clip-path)">
      <path id="Trazado_600401" data-name="Trazado 600401" d="M20.082,15.934c-2.7-1.028-4.484-3.044-6.056-5.325-.139.382-.271.729-.387,1.082-.02.06.026.145.051.215.167.475.329.951.509,1.421a.956.956,0,0,0,.239.359c.856.771,1.713,1.541,2.587,2.292a.693.693,0,0,1,.256.726q-.349,2-.668,4.012a.576.576,0,0,0,.094.35q1.247,2.061,2.507,4.115c.056.092.109.186.172.293l-.522.281-.941-1.537c-.59-.964-1.168-1.935-1.776-2.888a1.045,1.045,0,0,1-.141-.808c.224-1.277.434-2.556.641-3.835a.329.329,0,0,0-.063-.257c-.7-.642-1.419-1.274-2.131-1.908-.011-.01-.035-.006-.081-.013,0,.554.023,1.105,0,1.654a19.263,19.263,0,0,1-1.083,5.124c-.038.114-.2.268-.295.262s-.248-.16-.289-.279a19.23,19.23,0,0,1-1.01-4.355c-.076-.8-.093-1.6-.136-2.391a.468.468,0,0,0-.1.062c-.653.581-1.309,1.159-1.949,1.754a.491.491,0,0,0-.124.379c.215,1.338.45,2.674.671,4.011a.536.536,0,0,1-.051.339Q8.589,23.391,7.155,25.7c0,.008-.016.011-.046.03l-.466-.29c.059-.1.109-.194.164-.283.831-1.363,1.666-2.723,2.488-4.09a.763.763,0,0,0,.112-.467q-.313-2.009-.666-4.012a.546.546,0,0,1,.2-.572c.858-.754,1.717-1.508,2.559-2.279a1.529,1.529,0,0,0,.325-.536c.177-.418.336-.844.485-1.272a.66.66,0,0,0,.017-.377c-.092-.317-.215-.626-.336-.967-1.57,2.284-3.359,4.313-6.066,5.344.1.3.2.6.3.892.3.869.6,1.738.91,2.605a.477.477,0,0,1-.059.5Q5.707,21.712,4.35,23.5c-.024.031-.053.057-.1.1L3.8,23.246l1.915-2.522c.252-.332.511-.659.751-1a.37.37,0,0,0,.051-.289c-.37-1.075-.752-2.147-1.131-3.219a1.228,1.228,0,0,0-.053-.111,6.819,6.819,0,0,1-4.107-.135,8.207,8.207,0,0,1-.95-.421c-.327-.165-.347-.293-.125-.577a15.132,15.132,0,0,1,3.611-3.347,14.173,14.173,0,0,1,6.5-2.3c.58-.057,1.17-.009,1.756-.009l.069-.091a1.218,1.218,0,0,0-.182-.285Q10.331,7.565,8.752,6.2a.515.515,0,0,1-.193-.565,4.578,4.578,0,0,0,.019-2.323,1.934,1.934,0,0,0-.542-.89C7.288,1.82,6.486,1.286,5.7.726c-.1-.068-.2-.127-.312-.2l.279-.52A14.228,14.228,0,0,1,8.615,2.1a2.463,2.463,0,0,1,.67,1.765c.015.561-.065,1.125-.09,1.688a.436.436,0,0,0,.088.312c1.016.889,2.042,1.766,3.133,2.616-.019-.058-.021-.133-.059-.17a1.053,1.053,0,0,1,.223-1.8.381.381,0,0,0,.124-.283c.01-.734.006-1.468.006-2.2V3.721h.6v.82c0,.576-.005,1.151.006,1.726a.353.353,0,0,0,.125.257,1.063,1.063,0,0,1,.13,1.856l.117.161c1.038-.893,2.063-1.77,3.077-2.661a.464.464,0,0,0,.093-.361,6.088,6.088,0,0,1,.03-2.362A2.316,2.316,0,0,1,17.6,1.947,15.909,15.909,0,0,1,20.391,0l.264.5c-.589.392-1.163.763-1.724,1.151-.261.18-.493.4-.747.591a2.094,2.094,0,0,0-.818,1.8,11.046,11.046,0,0,0,.167,1.62.483.483,0,0,1-.174.516c-1.011.85-2.016,1.708-3.022,2.563A3.044,3.044,0,0,0,14.046,9a.661.661,0,0,0-.085.2.8.8,0,0,0,.206.07c.624.035,1.252.031,1.873.1a14.053,14.053,0,0,1,6.84,2.688,15.061,15.061,0,0,1,2.944,2.852c.261.331.246.438-.129.643a6.609,6.609,0,0,1-4.7.632l-.338-.075c-.322.928-.614,1.862-.975,2.77a1.123,1.123,0,0,0,.2,1.3c.767.923,1.465,1.9,2.19,2.859.047.062.089.127.15.215l-.469.36c-.064-.071-.126-.131-.177-.2-.866-1.137-1.726-2.278-2.6-3.41a.583.583,0,0,1-.094-.625c.408-1.135.794-2.277,1.2-3.442" transform="translate(0)" fill="#727997"/>
    </g>
  </g>
</svg>
