<svg xmlns="http://www.w3.org/2000/svg" xmlns:xlink="http://www.w3.org/1999/xlink" width="1240" height="930" viewBox="0 0 1240 930">
  <defs>
    <clipPath id="clip-path">
      <path id="Trazado_165450" data-name="Trazado 165450" d="M1.917,0A1.872,1.872,0,0,0,0,1.824,1.872,1.872,0,0,0,1.918,3.647,1.872,1.872,0,0,0,3.835,1.825,1.875,1.875,0,0,0,1.917,0Z" fill="#69489b"/>
    </clipPath>
  </defs>
  <g id="Grupo_160461" data-name="Grupo 160461" transform="translate(-180.333 -445)">
    <rect id="Rectángulo_46544" data-name="Rectángulo 46544" width="1240" height="277" transform="translate(180.333 445)" fill="#fff"/>
    <rect id="Rectángulo_46545" data-name="Rectángulo 46545" width="379" height="60" rx="8" transform="translate(567.667 485)" fill="#344abe"/>
    <text id="Rutas_Integral_de_Salud_Rías_" data-name="Rutas Integral de Salud(Rías)" transform="translate(590.667 503)" fill="#fff" font-size="20" font-family="Roboto-Medium, Roboto" font-weight="500"><tspan x="-129.902" y="19">Rutas Integral de Salud(Rías)</tspan></text>
    <path id="Trazado_600714" data-name="Trazado 600714" d="M139.036,323.02l-.065-.066a11.164,11.164,0,0,0-2.059-2.076l-10.544-10.636,0,0a11.122,11.122,0,1,0-16.744,14.639l-.01.008.182.182q.218.231.448.449L122.1,337.4l.006,0a11.12,11.12,0,0,0,16.924-14.366Z" transform="translate(813.087 214.188)" fill="#ade65f"/>
    <g id="Grupo_160460" data-name="Grupo 160460" transform="translate(554.333 476.98)">
      <g id="Group_881458" data-name="Group 881458" transform="translate(0 3.835) rotate(-90)">
        <g id="Grupo_108454" data-name="Grupo 108454" transform="translate(0)">
          <path id="Trazado_165449" data-name="Trazado 165449" d="M1.917,0A1.872,1.872,0,0,0,0,1.824,1.872,1.872,0,0,0,1.918,3.647,1.872,1.872,0,0,0,3.835,1.825,1.875,1.875,0,0,0,1.917,0Z" fill="#69489b"/>
          <g id="Grupo_108453" data-name="Grupo 108453" transform="translate(0)" clip-path="url(#clip-path)">
            <g id="Group_881457" data-name="Group 881457" transform="translate(-0.001 0.001)">
              <rect id="Rectangle_298911" data-name="Rectangle 298911" width="3.836" height="3.647" fill="#69489b"/>
            </g>
          </g>
        </g>
      </g>
      <g id="Group_881458-2" data-name="Group 881458" transform="translate(11.856 3.835) rotate(-90)">
        <g id="Grupo_108454-2" data-name="Grupo 108454" transform="translate(0)">
          <path id="Trazado_165449-2" data-name="Trazado 165449" d="M1.917,0A1.872,1.872,0,0,0,0,1.824,1.872,1.872,0,0,0,1.918,3.647,1.872,1.872,0,0,0,3.835,1.825,1.875,1.875,0,0,0,1.917,0Z" fill="#69489b"/>
          <g id="Grupo_108453-2" data-name="Grupo 108453" transform="translate(0)" clip-path="url(#clip-path)">
            <g id="Group_881457-2" data-name="Group 881457" transform="translate(-0.001 0.001)">
              <rect id="Rectangle_298911-2" data-name="Rectangle 298911" width="3.836" height="3.647" fill="#69489b"/>
            </g>
          </g>
        </g>
      </g>
      <g id="Group_881458-3" data-name="Group 881458" transform="translate(11.856 13.72) rotate(-90)">
        <g id="Grupo_108454-3" data-name="Grupo 108454" transform="translate(0)">
          <path id="Trazado_165449-3" data-name="Trazado 165449" d="M1.917,0A1.872,1.872,0,0,0,0,1.824,1.872,1.872,0,0,0,1.918,3.647,1.872,1.872,0,0,0,3.835,1.825,1.875,1.875,0,0,0,1.917,0Z" fill="#69489b"/>
          <g id="Grupo_108453-3" data-name="Grupo 108453" transform="translate(0)" clip-path="url(#clip-path)">
            <g id="Group_881457-3" data-name="Group 881457" transform="translate(-0.001 0.001)">
              <rect id="Rectangle_298911-3" data-name="Rectangle 298911" width="3.836" height="3.647" fill="#69489b"/>
            </g>
          </g>
        </g>
      </g>
      <g id="Group_881458-4" data-name="Group 881458" transform="translate(0 13.72) rotate(-90)">
        <g id="Grupo_108454-4" data-name="Grupo 108454" transform="translate(0)">
          <path id="Trazado_165449-4" data-name="Trazado 165449" d="M1.917,0A1.872,1.872,0,0,0,0,1.824,1.872,1.872,0,0,0,1.918,3.647,1.872,1.872,0,0,0,3.835,1.825,1.875,1.875,0,0,0,1.917,0Z" fill="#69489b"/>
          <g id="Grupo_108453-4" data-name="Grupo 108453" transform="translate(0)" clip-path="url(#clip-path)">
            <g id="Group_881457-4" data-name="Group 881457" transform="translate(-0.001 0.001)">
              <rect id="Rectangle_298911-4" data-name="Rectangle 298911" width="3.836" height="3.647" fill="#69489b"/>
            </g>
          </g>
        </g>
      </g>
      <g id="Group_881458-5" data-name="Group 881458" transform="translate(11.856 23.604) rotate(-90)">
        <g id="Grupo_108454-5" data-name="Grupo 108454" transform="translate(0)">
          <path id="Trazado_165449-5" data-name="Trazado 165449" d="M1.917,0A1.872,1.872,0,0,0,0,1.824,1.872,1.872,0,0,0,1.918,3.647,1.872,1.872,0,0,0,3.835,1.825,1.875,1.875,0,0,0,1.917,0Z" transform="translate(0)" fill="#69489b"/>
          <g id="Grupo_108453-5" data-name="Grupo 108453" transform="translate(0)" clip-path="url(#clip-path)">
            <g id="Group_881457-5" data-name="Group 881457" transform="translate(-0.001 0.001)">
              <rect id="Rectangle_298911-5" data-name="Rectangle 298911" width="3.836" height="3.647" fill="#69489b"/>
            </g>
          </g>
        </g>
      </g>
      <g id="Group_881458-6" data-name="Group 881458" transform="translate(0 23.604) rotate(-90)">
        <g id="Grupo_108454-6" data-name="Grupo 108454" transform="translate(0)">
          <path id="Trazado_165449-6" data-name="Trazado 165449" d="M1.917,0A1.872,1.872,0,0,0,0,1.824,1.872,1.872,0,0,0,1.918,3.647,1.872,1.872,0,0,0,3.835,1.825,1.875,1.875,0,0,0,1.917,0Z" transform="translate(0)" fill="#69489b"/>
          <g id="Grupo_108453-6" data-name="Grupo 108453" transform="translate(0)" clip-path="url(#clip-path)">
            <g id="Group_881457-6" data-name="Group 881457" transform="translate(-0.001 0.001)">
              <rect id="Rectangle_298911-6" data-name="Rectangle 298911" width="3.836" height="3.647" fill="#69489b"/>
            </g>
          </g>
        </g>
      </g>
      <g id="Group_881458-7" data-name="Group 881458" transform="translate(23.538 3.835) rotate(-90)">
        <g id="Grupo_108454-7" data-name="Grupo 108454" transform="translate(0)">
          <path id="Trazado_165449-7" data-name="Trazado 165449" d="M1.917,0A1.872,1.872,0,0,0,0,1.824,1.872,1.872,0,0,0,1.918,3.647,1.872,1.872,0,0,0,3.835,1.825,1.875,1.875,0,0,0,1.917,0Z" fill="#69489b"/>
          <g id="Grupo_108453-7" data-name="Grupo 108453" transform="translate(0)" clip-path="url(#clip-path)">
            <g id="Group_881457-7" data-name="Group 881457" transform="translate(-0.001 0.001)">
              <rect id="Rectangle_298911-7" data-name="Rectangle 298911" width="3.836" height="3.647" fill="#69489b"/>
            </g>
          </g>
        </g>
      </g>
      <g id="Group_881458-8" data-name="Group 881458" transform="translate(23.538 13.72) rotate(-90)">
        <g id="Grupo_108454-8" data-name="Grupo 108454" transform="translate(0)">
          <path id="Trazado_165449-8" data-name="Trazado 165449" d="M1.917,0A1.872,1.872,0,0,0,0,1.824,1.872,1.872,0,0,0,1.918,3.647,1.872,1.872,0,0,0,3.835,1.825,1.875,1.875,0,0,0,1.917,0Z" fill="#69489b"/>
          <g id="Grupo_108453-8" data-name="Grupo 108453" transform="translate(0)" clip-path="url(#clip-path)">
            <g id="Group_881457-8" data-name="Group 881457" transform="translate(-0.001 0.001)">
              <rect id="Rectangle_298911-8" data-name="Rectangle 298911" width="3.836" height="3.647" fill="#69489b"/>
            </g>
          </g>
        </g>
      </g>
      <g id="Group_881458-9" data-name="Group 881458" transform="translate(23.538 23.604) rotate(-90)">
        <g id="Grupo_108454-9" data-name="Grupo 108454" transform="translate(0)">
          <path id="Trazado_165449-9" data-name="Trazado 165449" d="M1.917,0A1.872,1.872,0,0,0,0,1.824,1.872,1.872,0,0,0,1.918,3.647,1.872,1.872,0,0,0,3.835,1.825,1.875,1.875,0,0,0,1.917,0Z" transform="translate(0)" fill="#69489b"/>
          <g id="Grupo_108453-9" data-name="Grupo 108453" transform="translate(0)" clip-path="url(#clip-path)">
            <g id="Group_881457-9" data-name="Group 881457" transform="translate(-0.001 0.001)">
              <rect id="Rectangle_298911-9" data-name="Rectangle 298911" width="3.836" height="3.647" fill="#69489b"/>
            </g>
          </g>
        </g>
      </g>
    </g>
    <path id="Trazado_600715" data-name="Trazado 600715" d="M-11959-9548v26.374" transform="translate(12716.166 10090)" fill="none" stroke="#4462fe" stroke-width="2"/>
    <path id="Trazado_600716" data-name="Trazado 600716" d="M-11959-9548v26.374" transform="translate(12716.166 10216)" fill="none" stroke="#4462fe" stroke-width="2"/>
    <path id="Trazado_600717" data-name="Trazado 600717" d="M-11959-9548v36.841" transform="translate(12716.166 10497.001)" fill="none" stroke="#4462fe" stroke-width="2"/>
    <path id="Trazado_600718" data-name="Trazado 600718" d="M-11959-9548v36.841" transform="translate(12346.715 10497.001)" fill="none" stroke="#4462fe" stroke-width="2"/>
    <path id="Trazado_600719" data-name="Trazado 600719" d="M-11959-9548v41.557" transform="translate(13086.166 10497)" fill="none" stroke="#4462fe" stroke-width="2"/>
    <path id="Trazado_600720" data-name="Trazado 600720" d="M-11959-9548v22.365" transform="translate(12716.166 10144.023)" fill="none" stroke="#4462fe" stroke-width="2"/>
    <path id="Trazado_600721" data-name="Trazado 600721" d="M-11959-9548v22.365" transform="translate(12716.166 10270.023)" fill="none" stroke="#4462fe" stroke-width="2"/>
    <path id="Trazado_600722" data-name="Trazado 600722" d="M-11959-9548v22.365" transform="translate(13086.166 10698.523)" fill="none" stroke="#4462fe" stroke-width="2"/>
    <path id="Trazado_600723" data-name="Trazado 600723" d="M-11959-9548v35.274h40.835" transform="translate(12913.334 10651.5)" fill="none" stroke="#4462fe" stroke-width="2"/>
    <path id="Trazado_600724" data-name="Trazado 600724" d="M-11918.164-9548v35.274H-11959" transform="translate(13207.498 10651.5)" fill="none" stroke="#4462fe" stroke-width="2"/>
    <path id="Trazado_600725" data-name="Trazado 600725" d="M-11959-9548v41" transform="translate(13086.166 10769)" fill="none" stroke="#4462fe" stroke-width="2"/>
    <path id="Trazado_600726" data-name="Trazado 600726" d="M-11959-9548v22.365" transform="translate(12716.166 10342)" fill="none" stroke="#4462fe" stroke-width="2"/>
    <path id="Trazado_600727" data-name="Trazado 600727" d="M-11959-9548v38.523" transform="translate(12716.166 10408.477)" fill="none" stroke="#4462fe" stroke-width="2"/>
    <path id="Trazado_600728" data-name="Trazado 600728" d="M-11959-9548v32.361" transform="translate(10154.973 -10763.5) rotate(-90)" fill="none" stroke="#4462fe" stroke-width="2"/>
    <path id="Trazado_600729" data-name="Trazado 600729" d="M0,0V32.361" transform="translate(239.333 1185.5) rotate(-90)" fill="none" stroke="#4462fe" stroke-width="2"/>
    <path id="Trazado_600730" data-name="Trazado 600730" d="M-11959-9548v32.361" transform="translate(10154.973 -10865.109) rotate(-90)" fill="none" stroke="#4462fe" stroke-width="2"/>
    <path id="Trazado_600731" data-name="Trazado 600731" d="M0,0V32.361" transform="translate(239.333 1084.501) rotate(-90)" fill="none" stroke="#4462fe" stroke-width="2"/>
    <path id="Trazado_600732" data-name="Trazado 600732" d="M-11959-9481.5V-9548h-257.654" transform="translate(13085.666 10380.5)" fill="none" stroke="#4462fe" stroke-width="2"/>
    <path id="Trazado_600733" data-name="Trazado 600733" d="M-11959-9481.5V-9548h254.1" transform="translate(12344.166 10380.5)" fill="none" stroke="#4462fe" stroke-width="2"/>
    <text id="Se_relaciona_directamente_con" data-name="Se relaciona directamente con" transform="translate(632.667 573)" fill="#12263f" font-size="16" font-family="Roboto-Regular, Roboto"><tspan x="-107.703" y="15">Se relaciona directamente con</tspan></text>
    <text id="Depende_de_" data-name="Depende de " transform="translate(632.667 699)" fill="#12263f" font-size="16" font-family="Roboto-Regular, Roboto"><tspan x="-42.105" y="15">Depende de </tspan></text>
    <text id="Se_clasifican_en" data-name="Se clasifican en" transform="translate(632.667 1001)" fill="#12263f" font-size="16" font-family="Roboto-Regular, Roboto"><tspan x="-55.527" y="15">Se clasifican en</tspan></text>
    <text id="Dependiendo_del_caso_tiene" data-name="Dependiendo del caso tiene" transform="translate(997.667 1127.5)" fill="#12263f" font-size="16" font-family="Roboto-Regular, Roboto"><tspan x="-98.109" y="15">Dependiendo del caso tiene</tspan></text>
    <text id="Tiene_3_etapas" data-name="Tiene 3 etapas" transform="translate(261.667 1001)" fill="#12263f" font-size="16" font-family="Roboto-Regular, Roboto"><tspan x="-52.227" y="15">Tiene 3 etapas</tspan></text>
    <text id="Requiere_tener_en_cuenta_" data-name="Requiere tener en cuenta " transform="translate(632.667 823)" fill="#12263f" font-size="16" font-family="Roboto-Regular, Roboto"><tspan x="-88.191" y="15">Requiere tener en cuenta </tspan></text>
    <rect id="Rectángulo_46546" data-name="Rectángulo 46546" width="400" height="50" rx="8" transform="translate(554.667 618)" fill="#54397c"/>
    <rect id="Rectángulo_46547" data-name="Rectángulo 46547" width="285" height="50" rx="8" transform="translate(612.667 744)" fill="#e8e3f0"/>
    <rect id="Rectángulo_46548" data-name="Rectángulo 46548" width="285" height="50" rx="8" transform="translate(612.667 899)" fill="#e2e7fe"/>
    <rect id="Rectángulo_46549" data-name="Rectángulo 46549" width="285" height="50" rx="8" transform="translate(239.667 899)" fill="#e2e7fe"/>
    <rect id="Rectángulo_46550" data-name="Rectángulo 46550" width="285" height="50" rx="8" transform="translate(984.667 899)" fill="#e2e7fe"/>
    <rect id="Rectángulo_46551" data-name="Rectángulo 46551" width="285" height="50" rx="8" transform="translate(984.667 1171)" fill="#e8e3f0"/>
    <text id="La_evolución_de_la_enfermedad_del_Dengue" data-name="La evolución de la enfermedad del Dengue" transform="translate(573.667 634)" fill="#fff" font-size="16" font-family="Roboto-Medium, Roboto" font-weight="500"><tspan x="-151.504" y="15">La evolución de la enfermedad del Dengue</tspan></text>
    <text id="Duración_de_la_enfermedad" data-name="Duración de la enfermedad" transform="translate(639.667 760)" fill="#12263f" font-size="16" font-family="Roboto-Medium, Roboto" font-weight="500"><tspan x="-96.289" y="15">Duración de la enfermedad</tspan></text>
    <text id="Signos_y_síntomas" data-name="Signos y síntomas" transform="translate(639.667 915)" fill="#12263f" font-size="16" font-family="Roboto-Medium, Roboto" font-weight="500"><tspan x="-65.613" y="15">Signos y síntomas</tspan></text>
    <text id="La_etapa_febril" data-name="La etapa febril" transform="translate(266.667 915)" fill="#12263f" font-size="16" font-family="Roboto-Medium, Roboto" font-weight="500"><tspan x="-51.191" y="15">La etapa febril</tspan></text>
    <text id="Definiciones_de_Caso" data-name="Definiciones de Caso" transform="translate(1011.667 915)" fill="#12263f" font-size="16" font-family="Roboto-Medium, Roboto" font-weight="500"><tspan x="-75.352" y="15">Definiciones de Caso</tspan></text>
    <text id="Niveles_de_atención" data-name="Niveles de atención" transform="translate(1011.667 1187)" fill="#12263f" font-size="16" font-family="Roboto-Medium, Roboto" font-weight="500"><tspan x="-70.145" y="15">Niveles de atención</tspan></text>
    <g id="Rectángulo_46552" data-name="Rectángulo 46552" transform="translate(1138.667 1010.5)" fill="none" stroke="#4462fe" stroke-width="2">
      <rect width="222" height="93" rx="15" stroke="none"/>
      <rect x="1" y="1" width="220" height="91" rx="14" fill="none"/>
    </g>
    <g id="Rectángulo_46553" data-name="Rectángulo 46553" transform="translate(954.667 1262)" fill="none" stroke="#4462fe" stroke-width="2">
      <rect width="335" height="113" rx="15" stroke="none"/>
      <rect x="1" y="1" width="333" height="111" rx="14" fill="none"/>
    </g>
    <g id="Rectángulo_46554" data-name="Rectángulo 46554" transform="translate(893.667 1010.5)" fill="none" stroke="#4462fe" stroke-width="2">
      <rect width="221" height="93" rx="15" stroke="none"/>
      <rect x="1" y="1" width="219" height="91" rx="14" fill="none"/>
    </g>
    <g id="Rectángulo_46555" data-name="Rectángulo 46555" transform="translate(639.333 1046.389)" fill="none" stroke="#4462fe" stroke-width="2">
      <rect width="230" height="93" rx="15" stroke="none"/>
      <rect x="1" y="1" width="228" height="91" rx="14" fill="none"/>
    </g>
    <g id="Rectángulo_46556" data-name="Rectángulo 46556" transform="translate(271.667 1046.389)" fill="none" stroke="#4462fe" stroke-width="2">
      <rect width="240.52" height="74.749" rx="15" stroke="none"/>
      <rect x="1" y="1" width="238.52" height="72.749" rx="14" fill="none"/>
    </g>
    <g id="Rectángulo_46557" data-name="Rectángulo 46557" transform="translate(639.333 1160)" fill="none" stroke="#4462fe" stroke-width="2">
      <rect width="230" height="72" rx="15" stroke="none"/>
      <rect x="1" y="1" width="228" height="70" rx="14" fill="none"/>
    </g>
    <g id="Rectángulo_46558" data-name="Rectángulo 46558" transform="translate(271.667 1146.5)" fill="none" stroke="#4462fe" stroke-width="2">
      <rect width="240.52" height="72" rx="15" stroke="none"/>
      <rect x="1" y="1" width="238.52" height="70" rx="14" fill="none"/>
    </g>
    <g id="Rectángulo_46559" data-name="Rectángulo 46559" transform="translate(639.333 1257.5)" fill="none" stroke="#4462fe" stroke-width="2">
      <rect width="230" height="72" rx="15" stroke="none"/>
      <rect x="1" y="1" width="228" height="70" rx="14" fill="none"/>
    </g>
    <g id="Rectángulo_46560" data-name="Rectángulo 46560" transform="translate(271.667 1244)" fill="none" stroke="#4462fe" stroke-width="2">
      <rect width="240.52" height="72" rx="15" stroke="none"/>
      <rect x="1" y="1" width="238.52" height="70" rx="14" fill="none"/>
    </g>
    <text id="Caso_probable_de_Dengue_grave_" data-name="Caso probable de Dengue grave
" transform="translate(1168.667 1036.5)" fill="#12263f" font-size="16" font-family="Roboto-Regular, Roboto"><tspan x="-62.145" y="15">Caso probable de </tspan><tspan x="-48.41" y="39">Dengue grave</tspan><tspan x="0" y="63"></tspan></text>
    <text id="Grupo_A._Tratamiento_Ambulatorio._Grupo_B._Tratamiento_Hospitalario_Grupo_C._Tratamiento_de_Emergencia._" data-name="Grupo A. Tratamiento Ambulatorio.
Grupo B. Tratamiento Hospitalario
Grupo C. Tratamiento de Emergencia.
" transform="translate(986.667 1284)" fill="#12263f" font-size="16" font-family="Roboto-Regular, Roboto"><tspan x="-123.613" y="15">Grupo A. Tratamiento Ambulatorio.</tspan><tspan x="-120.828" y="39">Grupo B. Tratamiento Hospitalario</tspan><tspan x="-132.652" y="63">Grupo C. Tratamiento de Emergencia.</tspan><tspan x="0" y="87"></tspan></text>
    <text id="Caso_probable_de_Dengue_con_Signos_de_alarma_" data-name="Caso probable de Dengue con Signos de alarma
" transform="translate(907.667 1036.5)" fill="#12263f" font-size="16" font-family="Roboto-Regular, Roboto"><tspan x="-91.16" y="15">Caso probable de Dengue </tspan><tspan x="-76.848" y="39">con Signos de alarma</tspan><tspan x="0" y="63"></tspan></text>
    <text id="Secuencia_de_los_signos_clínicos" data-name="Secuencia de los signos clínicos" transform="translate(653.333 1072.389)" fill="#12263f" font-size="16" font-family="Roboto-Regular, Roboto"><tspan x="-85.691" y="15">Secuencia de los signos </tspan><tspan x="-27.336" y="39">clínicos</tspan></text>
    <text id="La_etapa_crítica_" data-name="La etapa crítica
" transform="translate(292.667 1072.389)" fill="#12263f" font-size="16" font-family="Roboto-Regular, Roboto"><tspan x="-54.625" y="15">La etapa crítica</tspan><tspan x="0" y="39"></tspan></text>
    <text id="Diagnósticos" transform="translate(653.333 1185.5)" fill="#12263f" font-size="16" font-family="Roboto-Regular, Roboto"><tspan x="-46.559" y="15">Diagnósticos</tspan></text>
    <text id="La_etapa_crítica_2" data-name="La etapa crítica
" transform="translate(292.667 1172)" fill="#12263f" font-size="16" font-family="Roboto-Regular, Roboto"><tspan x="-54.625" y="15">La etapa crítica</tspan><tspan x="0" y="39"></tspan></text>
    <text id="Criterios_de_egreso" data-name="Criterios de egreso" transform="translate(653.333 1283.5)" fill="#12263f" font-size="16" font-family="Roboto-Regular, Roboto"><tspan x="-67.039" y="15">Criterios de egreso</tspan></text>
    <text id="La_etapa_de_recuperación" data-name="La etapa de recuperación" transform="translate(292.667 1270)" fill="#12263f" font-size="16" font-family="Roboto-Regular, Roboto"><tspan x="-89.594" y="15">La etapa de recuperación</tspan></text>
    <path id="Trazado_600734" data-name="Trazado 600734" d="M-11739.333-9120.249v-20.117h335v22.121" transform="translate(12693.666 10130.924)" fill="none" stroke="#4462fe" stroke-width="2"/>
    <path id="Trazado_600735" data-name="Trazado 600735" d="M-12030.953-9118.5h-75.741v283h32.361" transform="translate(12713.666 10129)" fill="none" stroke="#4462fe" stroke-width="2"/>
    <path id="Trazado_600736" data-name="Trazado 600736" d="M-12033.953-9118.5h-72.741v273h32.361" transform="translate(12346.027 10129)" fill="none" stroke="#4462fe" stroke-width="2"/>
  </g>
</svg>
