<svg xmlns="http://www.w3.org/2000/svg" xmlns:xlink="http://www.w3.org/1999/xlink" width="295" height="217.906" viewBox="0 0 295 217.906">
  <defs>
    <clipPath id="clip-path">
      <path id="Trazado_165450" data-name="Trazado 165450" d="M2.708,0A2.78,2.78,0,0,0,0,2.847,2.78,2.78,0,0,0,2.709,5.691,2.78,2.78,0,0,0,5.417,2.847,2.783,2.783,0,0,0,2.708,0Z" fill="#ade65f"/>
    </clipPath>
    <clipPath id="clip-path-10">
      <rect id="Rectángulo_46680" data-name="Rectángulo 46680" width="187.405" height="217.656" fill="none"/>
    </clipPath>
  </defs>
  <g id="Grupo_160654" data-name="Grupo 160654" transform="translate(-1020 -9589.094)">
    <g id="Grupo_160616" data-name="Grupo 160616" transform="translate(735 7045)">
      <g id="Grupo_160421" data-name="Grupo 160421" transform="translate(358.385 2565.447)">
        <g id="Grupo_160392" data-name="Grupo 160392" transform="translate(0 0)">
          <path id="Trazado_600374" data-name="Trazado 600374" d="M269.17,394.542l-.327-.348a57.651,57.651,0,0,0-10.355-10.962l-53.039-56.164-.024.025a54.812,54.812,0,0,0-42.68-20.782c-30.927,0-56,26.32-56,58.781a60.134,60.134,0,0,0,14.446,39.3l-.048.042.914.96q1.1,1.219,2.255,2.371l59.644,62.7.028-.021A54.561,54.561,0,0,0,224.3,488.491c30.923,0,55.992-26.32,55.992-58.781a60.38,60.38,0,0,0-11.17-35.126Z" transform="translate(-84.347 -306.311)" fill="#f2fbe6"/>
        </g>
      </g>
      <rect id="Rectángulo_46494" data-name="Rectángulo 46494" width="295" height="203" transform="translate(285 2559)" fill="none"/>
    </g>
    <g id="Grupo_160653" data-name="Grupo 160653" transform="translate(988.5 1533.478)">
      <g id="Grupo_160615" data-name="Grupo 160615" transform="translate(-1092.16 5027)">
        <path id="Unión_13" data-name="Unión 13" d="M7.937,158.85l-3.657-9.017A58.293,58.293,0,0,1,36.641,73.859L209.49,4.265a58.632,58.632,0,0,1,76.235,32.248l3.657,9.018A58.291,58.291,0,0,1,257.02,121.5L84.171,191.1A58.607,58.607,0,0,1,7.937,158.85Z" transform="translate(1125 3039.763)" fill="#344abe"/>
        <g id="Grupo_160560" data-name="Grupo 160560" transform="translate(1137.911 3093.132)">
          <g id="Group_881458" data-name="Group 881458" transform="translate(0 5.417) rotate(-90)">
            <g id="Grupo_108454" data-name="Grupo 108454" transform="translate(0)">
              <path id="Trazado_165449" data-name="Trazado 165449" d="M2.708,0A2.78,2.78,0,0,0,0,2.847,2.78,2.78,0,0,0,2.709,5.691,2.78,2.78,0,0,0,5.417,2.847,2.783,2.783,0,0,0,2.708,0Z" transform="translate(0)" fill="#ade65f"/>
              <g id="Grupo_108453" data-name="Grupo 108453" clip-path="url(#clip-path)">
                <g id="Group_881457" data-name="Group 881457" transform="translate(-0.001 0.001)">
                  <rect id="Rectangle_298911" data-name="Rectangle 298911" width="5.418" height="5.691" fill="#ade65f"/>
                </g>
              </g>
            </g>
          </g>
          <g id="Group_881458-2" data-name="Group 881458" transform="translate(18.501 5.417) rotate(-90)">
            <g id="Grupo_108454-2" data-name="Grupo 108454" transform="translate(0)">
              <path id="Trazado_165449-2" data-name="Trazado 165449" d="M2.708,0A2.78,2.78,0,0,0,0,2.847,2.78,2.78,0,0,0,2.709,5.691,2.78,2.78,0,0,0,5.417,2.847,2.783,2.783,0,0,0,2.708,0Z" transform="translate(0)" fill="#ade65f"/>
              <g id="Grupo_108453-2" data-name="Grupo 108453" clip-path="url(#clip-path)">
                <g id="Group_881457-2" data-name="Group 881457" transform="translate(-0.001 0.001)">
                  <rect id="Rectangle_298911-2" data-name="Rectangle 298911" width="5.418" height="5.691" fill="#ade65f"/>
                </g>
              </g>
            </g>
          </g>
          <g id="Group_881458-3" data-name="Group 881458" transform="translate(18.501 17.845) rotate(-90)">
            <g id="Grupo_108454-3" data-name="Grupo 108454" transform="translate(0)">
              <path id="Trazado_165449-3" data-name="Trazado 165449" d="M2.708,0A2.78,2.78,0,0,0,0,2.847,2.78,2.78,0,0,0,2.709,5.691,2.78,2.78,0,0,0,5.417,2.847,2.783,2.783,0,0,0,2.708,0Z" transform="translate(0)" fill="#ade65f"/>
              <g id="Grupo_108453-3" data-name="Grupo 108453" clip-path="url(#clip-path)">
                <g id="Group_881457-3" data-name="Group 881457" transform="translate(-0.001 0.001)">
                  <rect id="Rectangle_298911-3" data-name="Rectangle 298911" width="5.418" height="5.691" fill="#ade65f"/>
                </g>
              </g>
            </g>
          </g>
          <g id="Group_881458-4" data-name="Group 881458" transform="translate(0 17.845) rotate(-90)">
            <g id="Grupo_108454-4" data-name="Grupo 108454" transform="translate(0)">
              <path id="Trazado_165449-4" data-name="Trazado 165449" d="M2.708,0A2.78,2.78,0,0,0,0,2.847,2.78,2.78,0,0,0,2.709,5.691,2.78,2.78,0,0,0,5.417,2.847,2.783,2.783,0,0,0,2.708,0Z" transform="translate(0)" fill="#ade65f"/>
              <g id="Grupo_108453-4" data-name="Grupo 108453" clip-path="url(#clip-path)">
                <g id="Group_881457-4" data-name="Group 881457" transform="translate(-0.001 0.001)">
                  <rect id="Rectangle_298911-4" data-name="Rectangle 298911" width="5.418" height="5.691" fill="#ade65f"/>
                </g>
              </g>
            </g>
          </g>
          <g id="Group_881458-5" data-name="Group 881458" transform="translate(18.501 30.272) rotate(-90)">
            <g id="Grupo_108454-5" data-name="Grupo 108454" transform="translate(0)">
              <path id="Trazado_165449-5" data-name="Trazado 165449" d="M2.708,0A2.78,2.78,0,0,0,0,2.847,2.78,2.78,0,0,0,2.709,5.691,2.78,2.78,0,0,0,5.417,2.847,2.783,2.783,0,0,0,2.708,0Z" transform="translate(0)" fill="#ade65f"/>
              <g id="Grupo_108453-5" data-name="Grupo 108453" clip-path="url(#clip-path)">
                <g id="Group_881457-5" data-name="Group 881457" transform="translate(-0.001 0.001)">
                  <rect id="Rectangle_298911-5" data-name="Rectangle 298911" width="5.418" height="5.691" fill="#ade65f"/>
                </g>
              </g>
            </g>
          </g>
          <g id="Group_881458-6" data-name="Group 881458" transform="translate(0 30.272) rotate(-90)">
            <g id="Grupo_108454-6" data-name="Grupo 108454" transform="translate(0)">
              <path id="Trazado_165449-6" data-name="Trazado 165449" d="M2.708,0A2.78,2.78,0,0,0,0,2.847,2.78,2.78,0,0,0,2.709,5.691,2.78,2.78,0,0,0,5.417,2.847,2.783,2.783,0,0,0,2.708,0Z" transform="translate(0)" fill="#ade65f"/>
              <g id="Grupo_108453-6" data-name="Grupo 108453" clip-path="url(#clip-path)">
                <g id="Group_881457-6" data-name="Group 881457" transform="translate(-0.001 0.001)">
                  <rect id="Rectangle_298911-6" data-name="Rectangle 298911" width="5.418" height="5.691" fill="#ade65f"/>
                </g>
              </g>
            </g>
          </g>
          <g id="Group_881458-7" data-name="Group 881458" transform="translate(36.731 5.417) rotate(-90)">
            <g id="Grupo_108454-7" data-name="Grupo 108454" transform="translate(0)">
              <path id="Trazado_165449-7" data-name="Trazado 165449" d="M2.708,0A2.78,2.78,0,0,0,0,2.847,2.78,2.78,0,0,0,2.709,5.691,2.78,2.78,0,0,0,5.417,2.847,2.783,2.783,0,0,0,2.708,0Z" transform="translate(0)" fill="#ade65f"/>
              <g id="Grupo_108453-7" data-name="Grupo 108453" clip-path="url(#clip-path)">
                <g id="Group_881457-7" data-name="Group 881457" transform="translate(-0.001 0.001)">
                  <rect id="Rectangle_298911-7" data-name="Rectangle 298911" width="5.418" height="5.691" fill="#ade65f"/>
                </g>
              </g>
            </g>
          </g>
          <g id="Group_881458-8" data-name="Group 881458" transform="translate(36.731 17.845) rotate(-90)">
            <g id="Grupo_108454-8" data-name="Grupo 108454" transform="translate(0)">
              <path id="Trazado_165449-8" data-name="Trazado 165449" d="M2.708,0A2.78,2.78,0,0,0,0,2.847,2.78,2.78,0,0,0,2.709,5.691,2.78,2.78,0,0,0,5.417,2.847,2.783,2.783,0,0,0,2.708,0Z" transform="translate(0)" fill="#ade65f"/>
              <g id="Grupo_108453-8" data-name="Grupo 108453" clip-path="url(#clip-path)">
                <g id="Group_881457-8" data-name="Group 881457" transform="translate(-0.001 0.001)">
                  <rect id="Rectangle_298911-8" data-name="Rectangle 298911" width="5.418" height="5.691" fill="#ade65f"/>
                </g>
              </g>
            </g>
          </g>
          <g id="Group_881458-9" data-name="Group 881458" transform="translate(36.731 30.272) rotate(-90)">
            <g id="Grupo_108454-9" data-name="Grupo 108454" transform="translate(0)">
              <path id="Trazado_165449-9" data-name="Trazado 165449" d="M2.708,0A2.78,2.78,0,0,0,0,2.847,2.78,2.78,0,0,0,2.709,5.691,2.78,2.78,0,0,0,5.417,2.847,2.783,2.783,0,0,0,2.708,0Z" transform="translate(0)" fill="#ade65f"/>
              <g id="Grupo_108453-9" data-name="Grupo 108453" clip-path="url(#clip-path)">
                <g id="Group_881457-9" data-name="Group 881457" transform="translate(-0.001 0.001)">
                  <rect id="Rectangle_298911-9" data-name="Rectangle 298911" width="5.418" height="5.691" fill="#ade65f"/>
                </g>
              </g>
            </g>
          </g>
        </g>
      </g>
    </g>
    <g id="Grupo_160652" data-name="Grupo 160652" transform="translate(710.595 627.094)">
      <g id="Grupo_160651" data-name="Grupo 160651" transform="translate(375 8962)">
        <g id="Grupo_160650" data-name="Grupo 160650" clip-path="url(#clip-path-10)">
          <path id="Trazado_600902" data-name="Trazado 600902" d="M382.921,532.7c-.156-1.029-.789-2.362-1.918-2.608-1.11-.241-2.248.65-2.891,1.462-1.653,2.089-2.649,4.846-3.694,7.265-1.56,3.613-3,7.277-4.451,10.935-1.108,2.8-2.149,5.646-3.443,8.363a5.649,5.649,0,0,1-.5.944,2.451,2.451,0,0,1-2.027.659,9.662,9.662,0,0,1-2.837-.345,3.968,3.968,0,0,1-2.83-3.2c-.778-3.707-1.588-7.384-2.592-11.041a123.754,123.754,0,0,0-3.906-12.2c-.612-1.57-2.537-7.285-5.119-6.079-2.485,1.161-1.28,4.4-.934,6.366.578,3.281,1.187,6.556,1.8,9.831.868,4.666,1.875,9.306,2.829,13.955l.221,1.074a4.854,4.854,0,0,0-2.767-1.577c-1.464-.3-3.439-.473-4.616.627-1.565,1.463-1.547,4.236-1.215,6.254-1.124-1.155-2.91-2.355-4.335-1.031a6.358,6.358,0,0,0-1.419,2.783,19.1,19.1,0,0,0-.434,4.251,76.466,76.466,0,0,0,.592,15.954c.825,5.364,2.412,11.031,5.86,15.347a12.081,12.081,0,0,0,1.441,1.577q0,7.271,0,14.542v2.118q-.2,4.659-.4,9.319h26.528c-.277-1.13-.514-2.27-.733-3.405a66.7,66.7,0,0,1-1.231-14.746,51.462,51.462,0,0,1,1.036-8.909,69.708,69.708,0,0,1,2.83-9c1.367-3.853,2.741-7.95,2.947-12.07a9.91,9.91,0,0,0-.173-2.661c-.594-2.655-1.235-5.257-1.573-7.964a18.231,18.231,0,0,1-.165-5.952,35.5,35.5,0,0,1,2.314-6.11c1.773-4.354,3.48-8.739,5.065-13.165.683-1.905,1.35-3.819,1.925-5.761a13.7,13.7,0,0,0,.815-5.8" transform="translate(-261.685 -410.584)" fill="#ffe3d4"/>
          <path id="Trazado_600903" data-name="Trazado 600903" d="M413.457,723.62l-6.825-3.147-4.293-1.98a5.058,5.058,0,0,0-1.678-.656c-2.726-.168-5.5.112-8.232.079-.1,0-.257-.011-.081,0-.14-.011-.279-.04-.419-.053a6.959,6.959,0,0,0-1.738.038c-1.307.2-2.588.9-2.664,2.36-.124,2.366,1.818,3.845,3.884,4.43a25.66,25.66,0,0,0,8.9.4l-.316-.12c1.817,3.257,5.017,6.521,8.877,6.947.288.032,1.243-.453.673-.516-3.662-.4-6.757-3.63-8.48-6.717a.318.318,0,0,0-.316-.12,27.989,27.989,0,0,1-7.769-.172c-1.9-.391-3.834-1.344-4.287-3.4a1.942,1.942,0,0,1,2.129-2.634c.559.01,1.1.086,1.659.081,2.583-.025,5.184-.145,7.766-.075.218.006-.234-.075-.1-.012.091.042.184.08.273.126.378.2.778.359,1.165.537l3.933,1.814,7.074,3.262c.273.126,1.255-.291.864-.471" transform="translate(-302.097 -559.557)" fill="#dbb0a2"/>
          <path id="Trazado_600904" data-name="Trazado 600904" d="M449.978,766.341c-1.432-1.838-2.335-4.47-1.477-6.724.108-.283-.942-.161-1.064.158-.895,2.351.051,5.051,1.54,6.961.193.247,1.222-.111,1-.4" transform="translate(-348.534 -592.045)" fill="#dbb0a2"/>
          <path id="Trazado_600905" data-name="Trazado 600905" d="M338.529,728.038l6.813,8.972a29.171,29.171,0,0,0,2.495,3.22,2.924,2.924,0,0,0,3.545.618c.928-.648.739-2.414.616-3.369a23.59,23.59,0,0,0-2.182-6.892c-.111-.235-1.141.137-1.07.287a28.228,28.228,0,0,1,1.81,5.013,10.173,10.173,0,0,1,.408,3.791,2.835,2.835,0,0,1-.179.762c-.221.5-.5.339-.981.111a3.678,3.678,0,0,1-1.3-1.075c-2.2-2.738-4.261-5.611-6.387-8.411l-2.517-3.315c-.183-.241-1.13.209-1.07.287" transform="translate(-263.902 -567.273)" fill="#dbb0a2"/>
          <path id="Trazado_600906" data-name="Trazado 600906" d="M366.972,696.735l3.565,8.83,2.051,5.079a3.218,3.218,0,0,0,1.92,2.232,3.653,3.653,0,0,0,3.953-.986,4.577,4.577,0,0,0,.848-3.352c0-.5-1.077-.3-1.077.11a4.766,4.766,0,0,1-.431,2.707,2.213,2.213,0,0,1-3.666.091,2.287,2.287,0,0,1-.241-.5l-.625-1.548-4.083-10.113-1.144-2.833c-.171-.423-1.231-.111-1.07.287" transform="translate(-286.065 -542.768)" fill="#dbb0a2"/>
          <path id="Trazado_600907" data-name="Trazado 600907" d="M401.344,676.792c.975,2.92,1.5,6.046,2.195,9.044.079.344,1.153.073,1.07-.287-.691-3-1.219-6.124-2.195-9.044-.117-.351-1.182-.047-1.07.287" transform="translate(-312.867 -527.257)" fill="#dbb0a2"/>
          <path id="Trazado_600908" data-name="Trazado 600908" d="M58.34,512.42c-.078-.907-.279-2.116-1.278-2.448a2.86,2.86,0,0,0-2.777.9c-.972,1.172-1.184,2.977-1.411,4.423-.326,2.081-.522,4.187-1,6.241-.394,1.7-1.04,3.923-2.668,4.86-1.386.8-1.237-2.337-1.235-3.053a42.985,42.985,0,0,1,.473-5.676,52.587,52.587,0,0,0,.423-11.994c-.147-1.528-.374-3.422-1.444-4.619a2.354,2.354,0,0,0-3.6.133c-1.278,1.529-1.2,4.033-1.012,5.893a43.445,43.445,0,0,1,.03,6.352,22.334,22.334,0,0,1-1,7.082c-.183.462-.595,1.349-1.135.8a4.38,4.38,0,0,1-.726-1.943,56.653,56.653,0,0,1-.983-12.136c-.013-1.127.014-2.215.054-3.339a15.464,15.464,0,0,0-.124-2.78c-.206-1.4-.767-3.366-2.438-3.567-1.782-.215-3.034,1.3-3.422,2.865-.6,2.41-.216,5.076-.067,7.518.106,1.74.206,3.489.151,5.233-.049,1.555-.3,3.094-.368,4.648a11.518,11.518,0,0,1-.313,3.475c-.289.745-1.007-.18-1.337-.54a15.359,15.359,0,0,1-2.919-5.505,49.471,49.471,0,0,1-1.75-9.522c-.332-2.5-1.5-7.008-4.957-5.53a2.638,2.638,0,0,0-1.78,1.7,15.454,15.454,0,0,0-.215,4.533,88.932,88.932,0,0,0,2.262,15.612c.6,2.672,1.508,5.258,2.141,7.916.43,1.806.61,4.023-.673,5.542-1.666,1.972-5.243,1.916-7.3.608a15.179,15.179,0,0,1-2.954-3.152c-1.422-1.673-2.841-3.354-4.375-4.926a14.4,14.4,0,0,0-4.182-3.334A3.284,3.284,0,0,0,.653,525.8c-1.418,1.515-.235,3.523.791,4.886,1.52,2.019,3.339,3.83,5.049,5.686,2.012,2.184,4.013,4.38,5.905,6.669.924,1.118,1.821,2.26,2.659,3.445s1.539,2.435,2.428,3.572c2.032,2.6,4.589,4.522,6.968,6.762a13.274,13.274,0,0,1,4.075,8.284c1.112,10.113,2.046,20.453,1.467,30.629a40.622,40.622,0,0,1-.757,6.28c-.256,1.182-.587,2.339-.908,3.5h24.7l-1.69-14.094-2.41-20.09-.65-5.422c-.034-.281-.066-.563-.1-.844-.111-.883-.466-1.783-.5-2.652a5.087,5.087,0,0,1,.519-2.074c.817-1.965,2.156-3.643,3.021-5.587a49.292,49.292,0,0,0,2.085-5.828,128.055,128.055,0,0,0,3.5-15.139,108.331,108.331,0,0,0,1.45-14.8,54.837,54.837,0,0,0,.093-6.562" transform="translate(0 -387.853)" fill="#ffe1b0"/>
          <path id="Trazado_600909" data-name="Trazado 600909" d="M117.055,670.467c3.865,1.744,6.534,6.116,7.717,9.986a25.79,25.79,0,0,1,1.021,7.94c0,.289.54.218.543-.036.1-6.612-2.036-13.741-7.79-17.577a8.421,8.421,0,0,0-1.187-.687c-.235-.106-.618.233-.305.374" transform="translate(-91.16 -522.364)" fill="#d1aa71"/>
          <path id="Trazado_600910" data-name="Trazado 600910" d="M113.7,668.4a16.117,16.117,0,0,1,3.867.834,14.976,14.976,0,0,1,6.986,4.569,12.794,12.794,0,0,1,2.522,5.256c.012.051.191.075.178.02a12.935,12.935,0,0,0-5.613-8.008,18.133,18.133,0,0,0-6.516-2.543,12.577,12.577,0,0,0-1.456-.208c-.125-.009-.048.075.032.08" transform="translate(-88.562 -520.994)" fill="#d1aa71"/>
          <path id="Trazado_600911" data-name="Trazado 600911" d="M126.3,657.624a19.227,19.227,0,0,0,14.894,1.108,15.056,15.056,0,0,0,5.867-4.123c.216-.242-.3-.269-.437-.116a14.859,14.859,0,0,1-13.166,4.769,20.315,20.315,0,0,1-6.738-1.917c-.175-.089-.66.158-.42.279" transform="translate(-98.405 -510.145)" fill="#d1aa71"/>
          <path id="Trazado_600912" data-name="Trazado 600912" d="M160.114,824.551H152.87a1.616,1.616,0,1,0,0,3.231h7.244a1.616,1.616,0,0,0,0-3.231" transform="translate(-117.912 -642.789)" fill="#fff"/>
          <path id="Trazado_600913" data-name="Trazado 600913" d="M173.846,837.558V835.8c0-.538-.922-.49-.922.05v1.76c0,.538.922.49.922-.05" transform="translate(-134.805 -651.26)" fill="#fff"/>
          <path id="Trazado_600914" data-name="Trazado 600914" d="M94.157,409.836q0-6.395,0-12.79v-6.489a9.811,9.811,0,0,0-2.615-7.109,9.19,9.19,0,0,0-4.927-2.632,20.268,20.268,0,0,0-3.548-.155c-1.047,0-2.095.013-3.142,0a8.206,8.206,0,0,1-5.649-2.291,8.464,8.464,0,0,1-2.462-6.256v-3.348q0-15.483,0-30.966,0-7.472,0-14.943,0-2.25,0-4.5a16.358,16.358,0,0,1,.115-2.8,8.221,8.221,0,0,1,8.131-6.729c2.464-.013,5.2.329,7.579-.462a9.322,9.322,0,0,0,6.329-8.5c.069-2.211,0-4.432,0-6.644q0-1.154,0-2.308a.554.554,0,0,0-1.108,0q0,3.352,0,6.705c0,.832.034,1.673-.015,2.5a8.112,8.112,0,0,1-8.1,7.593c-1.1.013-2.194,0-3.291,0a15.7,15.7,0,0,0-3.7.257,9.214,9.214,0,0,0-4.762,2.885,9.56,9.56,0,0,0-2.288,6.394c0,1.027,0,2.053,0,3.08q0,6.712,0,13.423,0,16.225,0,32.449c0,2.236-.089,4.491.01,6.726a9.311,9.311,0,0,0,6.56,8.443c2.366.713,5.088.373,7.528.387a8.219,8.219,0,0,1,8.13,6.728,28.6,28.6,0,0,1,.115,4.816q0,7.676,0,15.351v1.171a.554.554,0,0,0,1.108,0" transform="translate(-55.091 -226.376)" fill="#758acc"/>
          <path id="Trazado_600915" data-name="Trazado 600915" d="M164.479,784.931a2.979,2.979,0,1,0,2.979,2.979,2.979,2.979,0,0,0-2.979-2.979" transform="translate(-125.899 -611.903)" fill="#fff"/>
          <path id="Trazado_600916" data-name="Trazado 600916" d="M412.246,913.337H405a1.616,1.616,0,1,0,0,3.231h7.244a1.616,1.616,0,0,0,0-3.231" transform="translate(-314.465 -712.004)" fill="#fff"/>
          <path id="Trazado_600917" data-name="Trazado 600917" d="M425.978,926.344v-1.76c0-.538-.922-.49-.922.05v1.76c0,.538.922.49.922-.05" transform="translate(-331.358 -720.475)" fill="#fff"/>
          <path id="Trazado_600918" data-name="Trazado 600918" d="M395.746,296.782v5.069c0,1.672.451,4.271-.784,5.614a3.716,3.716,0,0,1-3.034.95H388.7a4.655,4.655,0,0,0-3.027.867,4.076,4.076,0,0,0-1.553,3.445,4.145,4.145,0,0,0,4.285,3.812c1.234.009,2.469,0,3.7,0h19.042c1.086,0,2.366-.161,3.324.444,1.271.8,1.474,2.179,1.392,3.559a3,3,0,0,1-3,2.829c-1.885.062-3.782,0-5.668,0-2.009,0-4.067-.129-5.375,1.749a4.883,4.883,0,0,0-.725,2.943q0,3.675,0,7.35,0,13.488,0,26.976c0,6.227-.033,12.455,0,18.682a4.205,4.205,0,0,0,2.363,3.967c1.422.656,3.372.375,4.892.375h6.294a3.791,3.791,0,0,1,2.424.574,3.111,3.111,0,0,1,1.2,2.589c.029,3.591,0,7.183,0,10.774,0,3.221.126,6.47,0,9.69A3.009,3.009,0,0,1,415.32,412c-.3.012-.6,0-.9,0h-5.429c-3.889,0-7.778-.019-11.667,0a4.157,4.157,0,0,0-4.338,3.812c-.071,1.032-.009,2.086-.009,3.119q0,6.641,0,13.281v2.869a.554.554,0,0,0,1.108,0q0-4.893,0-9.785v-6.5a17.464,17.464,0,0,1,.058-3.323,3.007,3.007,0,0,1,2.957-2.365c.419-.014.841,0,1.26,0h5.9c3.645,0,7.3.078,10.942,0a4.144,4.144,0,0,0,4.18-4.1c.032-1.1,0-2.2,0-3.3q0-6.681,0-13.362c0-1.283.015-2.566,0-3.848a4.14,4.14,0,0,0-4.08-4.2c-3.367-.1-6.744.115-10.11,0a3.063,3.063,0,0,1-2.983-3.28c0-.778,0-1.556,0-2.334q0-4.948,0-9.895,0-13.842,0-27.683,0-5.195,0-10.39c0-2.065-.524-5.127,1.9-6.053a5.954,5.954,0,0,1,2.13-.19h3.343c1.7,0,3.931.342,5.451-.6,2.215-1.365,2.651-4.955,1.034-6.946a4.738,4.738,0,0,0-4.041-1.506H388.992c-.266,0-.534.01-.8,0a2.954,2.954,0,1,1,.021-5.909c.876-.029,1.758,0,2.634,0a16.658,16.658,0,0,0,2.589-.055,4.082,4.082,0,0,0,3.144-2.551,5.991,5.991,0,0,0,.274-2.223v-7.912a.554.554,0,0,0-1.108,0" transform="translate(-299.441 -230.943)" fill="#bec7fc"/>
          <path id="Trazado_600919" data-name="Trazado 600919" d="M416.611,867.016a2.979,2.979,0,1,0,2.979,2.979,2.979,2.979,0,0,0-2.979-2.979" transform="translate(-322.452 -675.893)" fill="#fff"/>
          <path id="Trazado_600920" data-name="Trazado 600920" d="M654.041,532.12c-.513-.96-1.985-1.159-2.95-1.177a18.069,18.069,0,0,0-4.987.835c-1.908.517-3.782,1.15-5.661,1.763-.756.247-1.512.495-2.277.712-.306.087-.614.172-.926.237a2.259,2.259,0,0,1-.27.025c.249-.316.417-.806.654-1.139.791-1.114,1.724-2.122,2.6-3.164a11.194,11.194,0,0,0,1.992-2.862c.2-.506.378-1.028.56-1.542.682-1.921,1.318-3.86,1.868-5.823a27.161,27.161,0,0,0,1.211-6.282c.039-1.125-.052-2.377-1.254-2.807a1.783,1.783,0,0,0-2.269.9,18.027,18.027,0,0,0-1.814,4.237c-.658,1.925-1.257,3.871-1.977,5.774a19.036,19.036,0,0,1-2.443,4.864,5.122,5.122,0,0,1-1.574,1.445,5.185,5.185,0,0,1-.806.287c.072.082.047.23-.072.092-.016-.019-.034-.036-.051-.053-.058.01-.162,0-.19.022a.471.471,0,0,1,.124-.087,2.607,2.607,0,0,1-.615-.627,3.44,3.44,0,0,1-.089-2.237c.251-1.292.755-2.513,1.045-3.793a14.637,14.637,0,0,0-.124-6.815,19,19,0,0,0-3.914-7.408,27.676,27.676,0,0,0-3.514-3.5,10.049,10.049,0,0,0-2.571-1.843,3.087,3.087,0,0,0-1.676-.263c-.933.2-.937,1.3-.81,2.067.26,1.569,1.438,2.919,2.382,4.133,2.83,3.637,5.651,7.577,4.425,12.444a10.531,10.531,0,0,1-4.619,6.668,6.973,6.973,0,0,1-6.47.112,10.229,10.229,0,0,1-4.741-4.95,9.927,9.927,0,0,1-.109-7.383,33.024,33.024,0,0,1,3.047-6.793c.5-.842,1.043-1.673.489-2.619a2.732,2.732,0,0,0-3.008-1.454c-1.739.535-2.911,2.785-3.693,4.257a26.387,26.387,0,0,0-2.585,7.007,38.665,38.665,0,0,0-.49,4.324c-.9,10.091-1.649,20.2-2.623,30.28-.611,6.328-1.24,12.642-1.721,18.982q-1.021,13.433-1.917,26.874-.446,6.52-.88,13.041H629.41l-4.62-23.492-4.146-21.082c-.744-3.782-1.844-7.494-.243-11.281a3.313,3.313,0,0,1,1.776-1.97,6.08,6.08,0,0,1,1.63-.217c1.7-.11,3.409-.149,5.113-.211a112.5,112.5,0,0,0,13.172-.974c1.308-.2,6.743-.805,5.874-3.234-.36-1.006-1.8-1.34-2.712-1.523a22.852,22.852,0,0,0-4.993-.27c-1.909.043-3.815.174-5.724.219a21.114,21.114,0,0,1-2.386-.04c-.317-.028-.866-.01-1.056-.335-.853-1.464,5.335-3.487,6.062-3.763,3.924-1.488,7.938-2.75,11.8-4.389a18.248,18.248,0,0,0,4.179-2.211c.6-.468,1.333-1.183.9-1.993" transform="translate(-466.766 -391.229)" fill="#81655a"/>
          <path id="Trazado_600921" data-name="Trazado 600921" d="M709.156,638.84a2.926,2.926,0,0,0,1.686,1.582c1.475.447,2.878-.68,3.809-1.676.1-.112-.4-.049-.483.044-.988,1.057-2.38,2.094-3.683.96a3.209,3.209,0,0,1-.793-1.054c-.057-.125-.575.057-.535.143" transform="translate(-552.83 -497.871)" fill="#d1aa71"/>
          <path id="Trazado_600922" data-name="Trazado 600922" d="M737.132,663.3a5.124,5.124,0,0,1-1.314-.19l.048-.178c2.646.706,3.19-.8,3.212-.864l.175.059a2.082,2.082,0,0,1-2.121,1.174" transform="translate(-573.616 -516.127)" fill="#d1aa71"/>
          <path id="Trazado_600923" data-name="Trazado 600923" d="M638.408,853.023h-7.244a1.616,1.616,0,1,0,0,3.231h7.244a1.616,1.616,0,0,0,0-3.231" transform="translate(-490.772 -664.985)" fill="#fff"/>
          <path id="Trazado_600924" data-name="Trazado 600924" d="M652.141,866.03v-1.76c0-.538-.922-.49-.922.05v1.76c0,.538.922.49.922-.05" transform="translate(-507.666 -673.456)" fill="#fff"/>
          <path id="Trazado_600925" data-name="Trazado 600925" d="M662.488,290.077c0,2.538-.617,5.965,2.037,7.437a7.5,7.5,0,0,0,3.761.5c1.189,0,2.4-.066,3.585,0a2.957,2.957,0,0,1,2.651,1.993,6.955,6.955,0,0,1,.152,2.171,3.487,3.487,0,0,1-3.427,3.771c-2.7.079-5.744-.493-8.18.954a7.035,7.035,0,0,0-3.35,6.207c0,1.1,0,2.194,0,3.292q0,7.064,0,14.128,0,9.382,0,18.763,0,8.453,0,16.906c0,2.769.039,5.542,0,8.31a4.57,4.57,0,0,1-1.479,3.42c-1.69,1.511-4.006.755-5.789,2.058s-1.965,3.186-1.965,5.164q0,7.8,0,15.6,0,7.477,0,14.955v.844a.554.554,0,0,0,1.108,0q0-5.588,0-11.177,0-8.8,0-17.6c0-1.293-.034-2.59,0-3.883a3.728,3.728,0,0,1,3.541-3.707,5.8,5.8,0,0,0,4.891-2.69,7.175,7.175,0,0,0,.8-3.934q0-2.141,0-4.282,0-7.667,0-15.334,0-9.493,0-18.986,0-7.965,0-15.93,0-2.362,0-4.724a12.116,12.116,0,0,1,.163-2.88,5.788,5.788,0,0,1,4.69-4.3,25.839,25.839,0,0,1,3.882-.062,7.717,7.717,0,0,0,3.934-.571,4.725,4.725,0,0,0,2.287-4.385c0-1.708-.151-3.305-1.645-4.409a5.9,5.9,0,0,0-3.789-.791c-1.276,0-2.559.041-3.834,0-1.981-.064-2.919-1.574-2.919-3.388v-3.444a.554.554,0,0,0-1.108,0" transform="translate(-507.096 -225.716)" fill="#4499ad"/>
          <path id="Trazado_600926" data-name="Trazado 600926" d="M642.774,803.351a2.979,2.979,0,1,0,2.979,2.979,2.979,2.979,0,0,0-2.979-2.979" transform="translate(-498.76 -626.263)" fill="#fff"/>
          <path id="Trazado_600927" data-name="Trazado 600927" d="M430.494,283.59c-.882-1.1-2.57-1.094-3.848-1.022a2.6,2.6,0,0,0-1.839,4.023c.844,1.332,2.62,1.211,3.984,1.211a2.613,2.613,0,0,0,1.7-4.212" transform="translate(-330.843 -220.259)" fill="#fff"/>
          <path id="Trazado_600928" data-name="Trazado 600928" d="M360.882,35.857V80.964s-1.618,5.4,10.36,7.014,23.633-2.159,24.6-4.748V35.856s-19.424-11.654-34.963,0" transform="translate(-281.274 -23.915)" fill="#fff"/>
          <path id="Trazado_600929" data-name="Trazado 600929" d="M437.573,1.646A7.448,7.448,0,0,0,433.234,0a2.5,2.5,0,0,0-2.556,1.635c-.5,1.937.486,4.284,1.141,6.056.189.513,1.963.057,1.813-.351A13.587,13.587,0,0,1,432.4,1.95a3.525,3.525,0,0,1,.376-1.136c.069-.177.27-.108-.06-.052-.161.027,0,0,.08.009a7.156,7.156,0,0,1,3.069,1.4c.444.316,2.028-.3,1.713-.52" transform="translate(-335.635 0)" fill="#fff"/>
          <path id="Trazado_600930" data-name="Trazado 600930" d="M430.94,24.682a.138.138,0,0,0-.007-.055c-.285-3.108-6.552-2.962-6.52.174.033,3.172,6.218,3.008,6.518-.049a.191.191,0,0,0,.009-.069" transform="translate(-330.857 -17.439)" fill="#fff"/>
          <path id="Trazado_600931" data-name="Trazado 600931" d="M400.452,83.861v-1.43q0-4.084,0-8.168.09-1.617.18-3.234a.13.13,0,0,0,.008-.037q0-4.709,0-9.417c0-.226-.322-.185-.447-.1a9.949,9.949,0,0,1-4.716,2.038,9.332,9.332,0,0,1-4.025-.623c-3.008-1.062-5.794-2.61-8.9-3.426-4.345-1.141-9.112-.328-12.2,3.116a2.311,2.311,0,0,0-.537.734,11.661,11.661,0,0,0-.182,2.547A.135.135,0,0,0,369.7,66a.138.138,0,0,0-.062.1q-.092,5.147-.184,10.295a.056.056,0,0,0,0,.006v4.8a.124.124,0,0,0,.005.021.114.114,0,0,0,0,.019q0,4.247,0,8.494v6.21a.16.16,0,0,0,0,.018v3.991a7.61,7.61,0,0,0,.08,1.706c.676,2.958,3.708,4.752,6.37,5.637a31.957,31.957,0,0,0,9.352,1.177,39.474,39.474,0,0,0,7.474-.5,18.39,18.39,0,0,0,4.909-1.387,4.534,4.534,0,0,0,2.824-3.773c.053-1.433,0-2.878,0-4.312a.119.119,0,0,0,0-.016q0-6.321,0-12.642a7.843,7.843,0,0,0,0-1.987" transform="translate(-288.001 -45.983)" fill="#bec7fc"/>
          <rect id="Rectángulo_46650" data-name="Rectángulo 46650" width="15.578" height="0.554" transform="translate(85.293 18.804)" fill="#fff"/>
          <rect id="Rectángulo_46651" data-name="Rectángulo 46651" width="11.261" height="0.554" transform="translate(85.293 22.745)" fill="#fff"/>
          <rect id="Rectángulo_46652" data-name="Rectángulo 46652" width="11.261" height="0.554" transform="translate(85.293 25.748)" fill="#fff"/>
          <rect id="Rectángulo_46653" data-name="Rectángulo 46653" width="11.261" height="0.554" transform="translate(85.293 33.631)" fill="#fff"/>
          <rect id="Rectángulo_46654" data-name="Rectángulo 46654" width="17.267" height="0.554" transform="translate(85.293 37.384)" fill="#fff"/>
          <rect id="Rectángulo_46655" data-name="Rectángulo 46655" width="11.261" height="0.554" transform="translate(85.293 41.326)" fill="#fff"/>
          <rect id="Rectángulo_46656" data-name="Rectángulo 46656" width="15.578" height="0.554" transform="translate(85.294 45.079)" fill="#fff"/>
          <rect id="Rectángulo_46657" data-name="Rectángulo 46657" width="10.323" height="0.554" transform="translate(85.294 48.833)" fill="#fff"/>
          <rect id="Rectángulo_46658" data-name="Rectángulo 46658" width="10.322" height="0.554" transform="translate(85.294 52.774)" fill="#fff"/>
          <rect id="Rectángulo_46659" data-name="Rectángulo 46659" width="15.578" height="0.554" transform="translate(85.294 56.716)" fill="#fff"/>
          <path id="Trazado_600932" data-name="Trazado 600932" d="M164.458,282.44c-.825-1.124-2.421-1.2-3.688-1.139a2.518,2.518,0,0,0-1.971,3.825c.791,1.336,2.457,1.329,3.813,1.329a2.527,2.527,0,0,0,1.845-4.015" transform="translate(-123.512 -219.281)" fill="#fff"/>
          <path id="Trazado_600933" data-name="Trazado 600933" d="M95.881,38.549V82.927s-1.592,5.308,10.192,6.9,23.25-2.124,24.206-4.672V38.549s-19.11-11.466-34.4,0" transform="translate(-74.689 -26.079)" fill="#fff"/>
          <path id="Trazado_600934" data-name="Trazado 600934" d="M171.287,4.865A7.331,7.331,0,0,0,167,3.246a2.48,2.48,0,0,0-2.53,1.613c-.5,1.9.479,4.224,1.121,5.962.189.513,1.963.057,1.813-.351A13.068,13.068,0,0,1,166.2,5.108c.039-.435.316-.729.4-1.1.035-.151.139,0-.116-.007-.011,0-.09-.031.081.009a8.535,8.535,0,0,1,3.01,1.37c.444.316,2.028-.3,1.713-.52" transform="translate(-128.112 -2.528)" fill="#fff"/>
          <path id="Trazado_600935" data-name="Trazado 600935" d="M164.787,27.538a.138.138,0,0,0-.007-.055c-.282-3.063-6.461-2.917-6.429.174.033,3.126,6.13,2.963,6.427-.049a.191.191,0,0,0,.009-.069" transform="translate(-123.444 -19.692)" fill="#fff"/>
          <path id="Trazado_600936" data-name="Trazado 600936" d="M134.753,128.822v-5.306s0,0,0-.006q0-2.849,0-5.7a.124.124,0,0,0,0-.015v-2.585a.2.2,0,0,0,0-.031v-2.793l-.016-.022-10.255-5.44L108.219,98.3l-3.755-1.992c-.058-.075-.529.006-.529.16v7.678a.158.158,0,0,0,0,.023v.011a.117.117,0,0,0,0,.046q0,3.941,0,7.883a.162.162,0,0,0,0,.022v2.753s0,0,0,.006q0,5.262,0,10.525s0,.006,0,.009v1.7c0,1.75-.14,3.166,1.014,4.619,1.883,2.372,5.582,3.241,8.44,3.725a46.341,46.341,0,0,0,11.463.221,23.065,23.065,0,0,0,6.4-1.337,6.664,6.664,0,0,0,2.6-1.774,4.478,4.478,0,0,0,.9-3.753" transform="translate(-81.019 -75.056)" fill="#758acc"/>
          <rect id="Rectángulo_46660" data-name="Rectángulo 46660" width="15.326" height="0.554" transform="translate(26.784 19.216)" fill="#fff"/>
          <rect id="Rectángulo_46661" data-name="Rectángulo 46661" width="11.079" height="0.554" transform="translate(26.784 23.094)" fill="#fff"/>
          <rect id="Rectángulo_46662" data-name="Rectángulo 46662" width="11.079" height="0.554" transform="translate(26.784 26.048)" fill="#fff"/>
          <rect id="Rectángulo_46663" data-name="Rectángulo 46663" width="11.079" height="0.554" transform="translate(26.784 33.804)" fill="#fff"/>
          <rect id="Rectángulo_46664" data-name="Rectángulo 46664" width="16.988" height="0.554" transform="translate(26.785 37.496)" fill="#fff"/>
          <rect id="Rectángulo_46665" data-name="Rectángulo 46665" width="11.079" height="0.554" transform="translate(26.784 41.374)" fill="#fff"/>
          <rect id="Rectángulo_46666" data-name="Rectángulo 46666" width="15.326" height="0.554" transform="translate(26.785 45.067)" fill="#fff"/>
          <rect id="Rectángulo_46667" data-name="Rectángulo 46667" width="10.156" height="0.554" transform="translate(26.785 48.76)" fill="#fff"/>
          <rect id="Rectángulo_46668" data-name="Rectángulo 46668" width="10.156" height="0.554" transform="translate(26.785 52.638)" fill="#fff"/>
          <rect id="Rectángulo_46669" data-name="Rectángulo 46669" width="15.326" height="0.554" transform="translate(26.785 56.515)" fill="#fff"/>
          <path id="Trazado_600937" data-name="Trazado 600937" d="M698.875,281.593c-.825-1.124-2.421-1.2-3.688-1.139a2.518,2.518,0,0,0-1.971,3.825c.791,1.336,2.457,1.33,3.813,1.33a2.527,2.527,0,0,0,1.845-4.015" transform="translate(-540.124 -218.62)" fill="#fff"/>
          <path id="Trazado_600938" data-name="Trazado 600938" d="M630.3,37.7V82.08s-1.592,5.308,10.192,6.9,23.25-2.124,24.206-4.672V37.7s-19.11-11.466-34.4,0" transform="translate(-491.301 -25.418)" fill="#fff"/>
          <path id="Trazado_600939" data-name="Trazado 600939" d="M705.7,4.018A7.331,7.331,0,0,0,701.422,2.4a2.48,2.48,0,0,0-2.53,1.612c-.5,1.9.479,4.224,1.121,5.962.189.513,1.963.057,1.813-.351a13.067,13.067,0,0,1-1.211-5.362c.039-.435.316-.729.4-1.1.035-.152.139,0-.116-.007-.011,0-.089-.031.081.009a8.53,8.53,0,0,1,3.01,1.37c.444.316,2.028-.3,1.713-.52" transform="translate(-544.724 -1.868)" fill="#fff"/>
          <path id="Trazado_600940" data-name="Trazado 600940" d="M699.2,26.691a.138.138,0,0,0-.007-.055c-.282-3.063-6.461-2.917-6.429.174.033,3.126,6.13,2.963,6.427-.049a.186.186,0,0,0,.009-.069" transform="translate(-540.056 -19.032)" fill="#fff"/>
          <path id="Trazado_600941" data-name="Trazado 600941" d="M668.72,196.883a.073.073,0,0,0-.018-.024q-.176-3.866-.352-7.732v-4.062c0-.073-.191-.055-.224-.049l-26.557,5.02-3.343.632-.394.024c-.09.006-.3.079-.3.2v4.431a.135.135,0,0,0,0,.026.128.128,0,0,0,0,.018V197.4c.073.816.311,2.718,1.243,3.009a6.786,6.786,0,0,0,4.683,3.107.076.076,0,0,0,.014.016c.013.028.049.045.112.046a38.63,38.63,0,0,0,22.526-1.013c.255-.1.438-.175.577-.248a3.865,3.865,0,0,0,2.032-3.584.033.033,0,0,0-.018-.028,3.141,3.141,0,0,0,.018-1.818" transform="translate(-496.996 -144.226)" fill="#4499ad"/>
          <rect id="Rectángulo_46670" data-name="Rectángulo 46670" width="15.326" height="0.554" transform="translate(144.59 19.03)" fill="#fff"/>
          <rect id="Rectángulo_46671" data-name="Rectángulo 46671" width="11.079" height="0.554" transform="translate(144.589 22.907)" fill="#fff"/>
          <rect id="Rectángulo_46672" data-name="Rectángulo 46672" width="11.079" height="0.554" transform="translate(144.589 25.862)" fill="#fff"/>
          <rect id="Rectángulo_46673" data-name="Rectángulo 46673" width="11.079" height="0.554" transform="translate(144.59 33.617)" fill="#fff"/>
          <rect id="Rectángulo_46674" data-name="Rectángulo 46674" width="16.988" height="0.554" transform="translate(144.59 37.31)" fill="#fff"/>
          <rect id="Rectángulo_46675" data-name="Rectángulo 46675" width="11.079" height="0.554" transform="translate(144.59 41.188)" fill="#fff"/>
          <rect id="Rectángulo_46676" data-name="Rectángulo 46676" width="15.326" height="0.554" transform="translate(144.59 44.88)" fill="#fff"/>
          <rect id="Rectángulo_46677" data-name="Rectángulo 46677" width="10.156" height="0.554" transform="translate(144.59 48.573)" fill="#fff"/>
          <rect id="Rectángulo_46678" data-name="Rectángulo 46678" width="10.156" height="0.554" transform="translate(144.59 52.451)" fill="#fff"/>
          <rect id="Rectángulo_46679" data-name="Rectángulo 46679" width="15.326" height="0.554" transform="translate(144.59 56.329)" fill="#fff"/>
        </g>
      </g>
    </g>
  </g>
</svg>
