<svg xmlns="http://www.w3.org/2000/svg" xmlns:xlink="http://www.w3.org/1999/xlink" width="82" height="82" viewBox="0 0 82 82">
  <defs>
    <clipPath id="clip-path">
      <rect id="Rectángulo_46581" data-name="Rectángulo 46581" width="52.194" height="52.186" fill="#fff"/>
    </clipPath>
  </defs>
  <g id="Grupo_160786" data-name="Grupo 160786" transform="translate(-180 -10930)">
    <g id="Grupo_160619" data-name="Grupo 160619" transform="translate(0 9672)">
      <circle id="Elipse_5661" data-name="Elipse 5661" cx="41" cy="41" r="41" transform="translate(180 1258)" fill="#69489b"/>
      <g id="Grupo_160523" data-name="Grupo 160523" transform="translate(195 1271.689)">
        <g id="Grupo_160522" data-name="Grupo 160522" clip-path="url(#clip-path)">
          <path id="Trazado_600738" data-name="Trazado 600738" d="M19.687,52.186H4.809c-.042-.027-.082-.071-.126-.078A5.707,5.707,0,0,1,0,46.314c.066-6.147.018-12.295.02-18.442a6.35,6.35,0,0,1,2.617-5.259c.581-.449.583-.545-.012-1A6.172,6.172,0,0,1,.046,17.009,8.63,8.63,0,0,1,3.2,9.573c.86-.745,1.757-1.445,2.61-2.2A1.023,1.023,0,0,0,6.12,6.7c.026-1.681.013-3.362.015-5.044A1.512,1.512,0,0,1,7.764,0q4.482,0,8.965,0a1.513,1.513,0,0,1,1.633,1.655c0,1.681-.011,3.363.015,5.043a1.023,1.023,0,0,0,.315.672c.839.741,1.712,1.445,2.572,2.163a8.762,8.762,0,0,1,2.864,4.355c.9,3.1.114,6.037-2.418,7.847-.4.289-.378.473.069.811a6.448,6.448,0,0,1,2.7,5.425c-.008,6.215,0,12.431,0,18.646a5.58,5.58,0,0,1-3.873,5.3c-.3.1-.609.179-.914.268m1.5-34.631H3.346a2.949,2.949,0,0,0,1.124,1.6,5.6,5.6,0,0,1,.808.694,3.442,3.442,0,0,1-.734,5.188A3.768,3.768,0,0,0,3.1,28.708H21.393a3.845,3.845,0,0,0-1.636-3.839,3.418,3.418,0,0,1,.061-5.564,3.505,3.505,0,0,0,1.365-1.75M3.1,40.94H21.38V31.826H3.1Zm-.006,3.1c0,.958-.068,1.877.016,2.782a2.485,2.485,0,0,0,2.543,2.3q6.6.025,13.193,0a2.32,2.32,0,0,0,2.381-1.715,26.079,26.079,0,0,0,.261-3.366Zm.349-29.592h17.6a5.475,5.475,0,0,0-1.747-2.54c-.9-.769-1.815-1.532-2.743-2.273a1.178,1.178,0,0,0-.674-.248q-3.639-.026-7.279,0a1.1,1.1,0,0,0-.631.227c-.927.742-1.836,1.505-2.744,2.27a5.674,5.674,0,0,0-1.786,2.565M9.225,6.282H15.28v-3.2H9.225Z" transform="translate(0 0)" fill="#fff"/>
          <path id="Trazado_600739" data-name="Trazado 600739" d="M228.082,26.909V47.4a2.247,2.247,0,0,0-.1.275,5.557,5.557,0,0,1-3.78,4.248c-.3.105-.605.179-.909.267H208.415c-.042-.027-.082-.072-.126-.078a5.707,5.707,0,0,1-4.682-5.793c.066-6.146.019-12.293.02-18.439a6.352,6.352,0,0,1,2.613-5.26c.584-.452.588-.548,0-1a6.174,6.174,0,0,1-2.582-4.6,8.621,8.621,0,0,1,3.1-7.4c.855-.749,1.74-1.465,2.623-2.18a.88.88,0,0,0,.368-.77c-.019-1.681-.011-3.362-.008-5.043A1.507,1.507,0,0,1,211.36,0q4.482,0,8.963,0a1.513,1.513,0,0,1,1.643,1.644c0,1.664.009,3.328-.006,4.992a.876.876,0,0,0,.35.778c.874.7,1.731,1.422,2.586,2.145a8.719,8.719,0,0,1,2.892,4.563c.1.388.2.777.294,1.165v2.038a.659.659,0,0,0-.089.174,6.409,6.409,0,0,1-2.583,4.166c-.507.38-.509.524,0,.9a6.5,6.5,0,0,1,2.418,3.425c.092.3.169.611.254.916m-3.1,1.813a3.7,3.7,0,0,0-1.583-3.8,3.458,3.458,0,0,1,.092-5.672,3.183,3.183,0,0,0,1.289-1.7H206.913a3.27,3.27,0,0,0,1.241,1.652,3.435,3.435,0,0,1,.043,5.793,3.819,3.819,0,0,0-1.488,3.727ZM206.706,40.94h18.28V31.826h-18.28Zm0,3.116a27.784,27.784,0,0,0,.018,2.808,2.451,2.451,0,0,0,2.475,2.253q6.647.036,13.3,0a2.361,2.361,0,0,0,2.379-1.8,27.866,27.866,0,0,0,.2-3.268Zm17.963-29.6a5.692,5.692,0,0,0-1.734-2.525q-1.4-1.186-2.821-2.338a1.014,1.014,0,0,0-.586-.21c-2.443-.014-4.886-.011-7.329,0a.794.794,0,0,0-.473.108c-1.171.978-2.352,1.946-3.479,2.974a4.282,4.282,0,0,0-1.192,2Zm-11.85-8.176h6.051v-3.2h-6.051Z" transform="translate(-175.889 0)" fill="#fff"/>
          <path id="Trazado_600740" data-name="Trazado 600740" d="M51.174,266.6c-1.494,0-2.987,0-4.481,0a1.531,1.531,0,1,1,0-3.055q4.481,0,8.961,0a1.531,1.531,0,1,1,0,3.055c-1.494,0-2.987,0-4.481,0" transform="translate(-38.925 -227.668)" fill="#fff"/>
          <path id="Trazado_600741" data-name="Trazado 600741" d="M254.727,266.6c-1.477,0-2.953,0-4.43,0a1.531,1.531,0,1,1,0-3.055q4.481,0,8.961,0a1.531,1.531,0,1,1,0,3.055c-1.511,0-3.021,0-4.532,0" transform="translate(-214.813 -227.668)" fill="#fff"/>
        </g>
      </g>
    </g>
  </g>
</svg>
