<svg xmlns="http://www.w3.org/2000/svg" xmlns:xlink="http://www.w3.org/1999/xlink" width="113" height="97" viewBox="0 0 113 97">
  <defs>
    <clipPath id="clip-path">
      <path id="Trazado_165450" data-name="Trazado 165450" d="M1.735,0A1.694,1.694,0,0,0,0,1.651,1.7,1.7,0,0,0,1.736,3.3,1.694,1.694,0,0,0,3.471,1.651,1.7,1.7,0,0,0,1.735,0Z" fill="#ade65f"/>
    </clipPath>
    <clipPath id="clip-path-10">
      <rect id="Rectángulo_46609" data-name="Rectángulo 46609" width="64.603" height="64.583" fill="#fff"/>
    </clipPath>
  </defs>
  <g id="Grupo_160792" data-name="Grupo 160792" transform="translate(655 9176)">
    <g id="Grupo_160791" data-name="Grupo 160791">
      <g id="Grupo_160790" data-name="Grupo 160790">
        <g id="Grupo_160789" data-name="Grupo 160789">
          <g id="Grupo_160666" data-name="Grupo 160666" transform="translate(0 91)">
            <g id="Grupo_160538" data-name="Grupo 160538" transform="translate(-1048 -11630)">
              <rect id="Rectángulo_46591" data-name="Rectángulo 46591" width="97" height="97" rx="15" transform="translate(401 2363)" fill="#54397c"/>
              <path id="Unión_8" data-name="Unión 8" d="M2534.676,11735.576l-9.773-10.074a8.183,8.183,0,0,1,.2-11.6l0,0a8.267,8.267,0,0,1,11.655.2l9.771,10.076a8.178,8.178,0,0,1-.2,11.6l0,0a8.264,8.264,0,0,1-11.655-.2Z" transform="translate(-2042.85 -9284.85)" fill="#4462fe"/>
              <g id="Grupo_160533" data-name="Grupo 160533" transform="translate(393 2371.127)">
                <g id="Group_881458" data-name="Group 881458" transform="translate(0 3.471) rotate(-90)">
                  <g id="Grupo_108454" data-name="Grupo 108454" transform="translate(0)">
                    <path id="Trazado_165449" data-name="Trazado 165449" d="M1.735,0A1.694,1.694,0,0,0,0,1.651,1.7,1.7,0,0,0,1.736,3.3,1.694,1.694,0,0,0,3.471,1.651,1.7,1.7,0,0,0,1.735,0Z" transform="translate(0)" fill="#ade65f"/>
                    <g id="Grupo_108453" data-name="Grupo 108453" clip-path="url(#clip-path)">
                      <g id="Group_881457" data-name="Group 881457" transform="translate(-0.001 0.001)">
                        <rect id="Rectangle_298911" data-name="Rectangle 298911" width="3.471" height="3.301" fill="#ade65f"/>
                      </g>
                    </g>
                  </g>
                </g>
                <g id="Group_881458-2" data-name="Group 881458" transform="translate(10.73 3.471) rotate(-90)">
                  <g id="Grupo_108454-2" data-name="Grupo 108454" transform="translate(0)">
                    <path id="Trazado_165449-2" data-name="Trazado 165449" d="M1.735,0A1.694,1.694,0,0,0,0,1.651,1.7,1.7,0,0,0,1.736,3.3,1.694,1.694,0,0,0,3.471,1.651,1.7,1.7,0,0,0,1.735,0Z" transform="translate(0)" fill="#ade65f"/>
                    <g id="Grupo_108453-2" data-name="Grupo 108453" clip-path="url(#clip-path)">
                      <g id="Group_881457-2" data-name="Group 881457" transform="translate(-0.001 0.001)">
                        <rect id="Rectangle_298911-2" data-name="Rectangle 298911" width="3.471" height="3.301" fill="#ade65f"/>
                      </g>
                    </g>
                  </g>
                </g>
                <g id="Group_881458-3" data-name="Group 881458" transform="translate(10.73 11.433) rotate(-90)">
                  <g id="Grupo_108454-3" data-name="Grupo 108454" transform="translate(0)">
                    <path id="Trazado_165449-3" data-name="Trazado 165449" d="M1.735,0A1.694,1.694,0,0,0,0,1.651,1.7,1.7,0,0,0,1.736,3.3,1.694,1.694,0,0,0,3.471,1.651,1.7,1.7,0,0,0,1.735,0Z" transform="translate(0)" fill="#ade65f"/>
                    <g id="Grupo_108453-3" data-name="Grupo 108453" clip-path="url(#clip-path)">
                      <g id="Group_881457-3" data-name="Group 881457" transform="translate(-0.001 0.001)">
                        <rect id="Rectangle_298911-3" data-name="Rectangle 298911" width="3.471" height="3.301" fill="#ade65f"/>
                      </g>
                    </g>
                  </g>
                </g>
                <g id="Group_881458-4" data-name="Group 881458" transform="translate(0 11.433) rotate(-90)">
                  <g id="Grupo_108454-4" data-name="Grupo 108454" transform="translate(0)">
                    <path id="Trazado_165449-4" data-name="Trazado 165449" d="M1.735,0A1.694,1.694,0,0,0,0,1.651,1.7,1.7,0,0,0,1.736,3.3,1.694,1.694,0,0,0,3.471,1.651,1.7,1.7,0,0,0,1.735,0Z" transform="translate(0)" fill="#ade65f"/>
                    <g id="Grupo_108453-4" data-name="Grupo 108453" clip-path="url(#clip-path)">
                      <g id="Group_881457-4" data-name="Group 881457" transform="translate(-0.001 0.001)">
                        <rect id="Rectangle_298911-4" data-name="Rectangle 298911" width="3.471" height="3.301" fill="#ade65f"/>
                      </g>
                    </g>
                  </g>
                </g>
                <g id="Group_881458-5" data-name="Group 881458" transform="translate(10.73 19.395) rotate(-90)">
                  <g id="Grupo_108454-5" data-name="Grupo 108454" transform="translate(0)">
                    <path id="Trazado_165449-5" data-name="Trazado 165449" d="M1.735,0A1.694,1.694,0,0,0,0,1.651,1.7,1.7,0,0,0,1.736,3.3,1.694,1.694,0,0,0,3.471,1.651,1.7,1.7,0,0,0,1.735,0Z" transform="translate(0)" fill="#ade65f"/>
                    <g id="Grupo_108453-5" data-name="Grupo 108453" clip-path="url(#clip-path)">
                      <g id="Group_881457-5" data-name="Group 881457" transform="translate(-0.001 0.001)">
                        <rect id="Rectangle_298911-5" data-name="Rectangle 298911" width="3.471" height="3.301" fill="#ade65f"/>
                      </g>
                    </g>
                  </g>
                </g>
                <g id="Group_881458-6" data-name="Group 881458" transform="translate(0 19.395) rotate(-90)">
                  <g id="Grupo_108454-6" data-name="Grupo 108454" transform="translate(0)">
                    <path id="Trazado_165449-6" data-name="Trazado 165449" d="M1.735,0A1.694,1.694,0,0,0,0,1.651,1.7,1.7,0,0,0,1.736,3.3,1.694,1.694,0,0,0,3.471,1.651,1.7,1.7,0,0,0,1.735,0Z" transform="translate(0)" fill="#ade65f"/>
                    <g id="Grupo_108453-6" data-name="Grupo 108453" clip-path="url(#clip-path)">
                      <g id="Group_881457-6" data-name="Group 881457" transform="translate(-0.001 0.001)">
                        <rect id="Rectangle_298911-6" data-name="Rectangle 298911" width="3.471" height="3.301" fill="#ade65f"/>
                      </g>
                    </g>
                  </g>
                </g>
                <g id="Group_881458-7" data-name="Group 881458" transform="translate(21.302 3.471) rotate(-90)">
                  <g id="Grupo_108454-7" data-name="Grupo 108454" transform="translate(0)">
                    <path id="Trazado_165449-7" data-name="Trazado 165449" d="M1.735,0A1.694,1.694,0,0,0,0,1.651,1.7,1.7,0,0,0,1.736,3.3,1.694,1.694,0,0,0,3.471,1.651,1.7,1.7,0,0,0,1.735,0Z" transform="translate(0)" fill="#ade65f"/>
                    <g id="Grupo_108453-7" data-name="Grupo 108453" clip-path="url(#clip-path)">
                      <g id="Group_881457-7" data-name="Group 881457" transform="translate(-0.001 0.001)">
                        <rect id="Rectangle_298911-7" data-name="Rectangle 298911" width="3.471" height="3.301" fill="#ade65f"/>
                      </g>
                    </g>
                  </g>
                </g>
                <g id="Group_881458-8" data-name="Group 881458" transform="translate(21.302 11.433) rotate(-90)">
                  <g id="Grupo_108454-8" data-name="Grupo 108454" transform="translate(0)">
                    <path id="Trazado_165449-8" data-name="Trazado 165449" d="M1.735,0A1.694,1.694,0,0,0,0,1.651,1.7,1.7,0,0,0,1.736,3.3,1.694,1.694,0,0,0,3.471,1.651,1.7,1.7,0,0,0,1.735,0Z" transform="translate(0)" fill="#ade65f"/>
                    <g id="Grupo_108453-8" data-name="Grupo 108453" clip-path="url(#clip-path)">
                      <g id="Group_881457-8" data-name="Group 881457" transform="translate(-0.001 0.001)">
                        <rect id="Rectangle_298911-8" data-name="Rectangle 298911" width="3.471" height="3.301" fill="#ade65f"/>
                      </g>
                    </g>
                  </g>
                </g>
                <g id="Group_881458-9" data-name="Group 881458" transform="translate(21.302 19.395) rotate(-90)">
                  <g id="Grupo_108454-9" data-name="Grupo 108454" transform="translate(0)">
                    <path id="Trazado_165449-9" data-name="Trazado 165449" d="M1.735,0A1.694,1.694,0,0,0,0,1.651,1.7,1.7,0,0,0,1.736,3.3,1.694,1.694,0,0,0,3.471,1.651,1.7,1.7,0,0,0,1.735,0Z" transform="translate(0)" fill="#ade65f"/>
                    <g id="Grupo_108453-9" data-name="Grupo 108453" clip-path="url(#clip-path)">
                      <g id="Group_881457-9" data-name="Group 881457" transform="translate(-0.001 0.001)">
                        <rect id="Rectangle_298911-9" data-name="Rectangle 298911" width="3.471" height="3.301" fill="#ade65f"/>
                      </g>
                    </g>
                  </g>
                </g>
              </g>
            </g>
            <g id="Grupo_160550" data-name="Grupo 160550" transform="translate(-634 -9254)">
              <g id="Grupo_160549" data-name="Grupo 160549" transform="translate(3 3)" clip-path="url(#clip-path-10)">
                <path id="Trazado_600770" data-name="Trazado 600770" d="M0,43.39c.3-1.451.5-2.93.912-4.347A25.66,25.66,0,0,1,2.4,35.314Q10.453,18.249,18.546,1.2c.045-.095.093-.188.134-.285.22-.506.5-.93,1.14-.917.6.012.862.434,1.086.908q3.1,6.568,6.214,13.134c1.525,3.22,3.052,6.439,4.6,9.714.187-.085.355-.15.512-.235a21.237,21.237,0,0,1,12.878-2.559A21.988,21.988,0,0,1,64.14,38.285a20.943,20.943,0,0,1,.134,8.079,21.629,21.629,0,0,1-9.222,14.392,20.551,20.551,0,0,1-9.171,3.579c-.495.066-.985.165-1.477.249H40.871a1.082,1.082,0,0,0-.284-.111,21.145,21.145,0,0,1-9.209-3.085.667.667,0,0,0-.835.034,18.737,18.737,0,0,1-5.965,2.586c-.992.236-2,.387-3.007.576H18.165a2.136,2.136,0,0,0-.358-.1,19.509,19.509,0,0,1-10.34-4.216A19.1,19.1,0,0,1,.759,50.16C.427,48.934.249,47.666,0,46.418V43.39M19.8,3.528c-.163.321-.261.505-.351.694Q11.724,20.539,4,36.856A17.771,17.771,0,0,0,2.376,47.75a17.2,17.2,0,0,0,7.883,11.923A17.31,17.31,0,0,0,23.1,62.166a16.188,16.188,0,0,0,5.975-2.329C23.6,55.2,20.678,49.362,20.85,42.189c.172-7.2,3.4-12.9,9.09-17.263L19.8,3.528M62.463,42.752A19.757,19.757,0,1,0,42.679,62.46,19.771,19.771,0,0,0,62.463,42.752" transform="translate(0 0.001)" fill="#fff"/>
                <path id="Trazado_600771" data-name="Trazado 600771" d="M27.045,115.874H24.867a32.532,32.532,0,0,1,.578-3.662,23.507,23.507,0,0,1,1.422-3.816q5.356-11.413,10.779-22.8c.1-.207.2-.41.334-.676l1.9.9c-1.008,2.13-1.99,4.21-2.975,6.289q-4.105,8.666-8.216,17.33a14.479,14.479,0,0,0-1.589,6.156,1.747,1.747,0,0,1-.054.28" transform="translate(-20.807 -71.06)" fill="#fff"/>
                <path id="Trazado_600772" data-name="Trazado 600772" d="M113.107,64.052l-.826,1.745-1.907-.9.828-1.751,1.9.9" transform="translate(-92.356 -52.841)" fill="#fff"/>
                <path id="Trazado_600773" data-name="Trazado 600773" d="M213.234,174.033a10.26,10.26,0,0,1-6.843-2.569,6.122,6.122,0,0,1,.169-9.61,11.279,11.279,0,0,1,13.526-.33c3.815,2.883,3.753,7.741-.134,10.525a11.085,11.085,0,0,1-6.718,1.984m.291-2.125a9.061,9.061,0,0,0,3.91-.809,5.875,5.875,0,0,0,2.943-2.64A4.163,4.163,0,0,0,218.525,163a9.009,9.009,0,0,0-9.934-.02c-2.91,1.8-3.164,4.978-.564,7.117a8.466,8.466,0,0,0,5.5,1.815" transform="translate(-170.818 -133.405)" fill="#fff"/>
                <path id="Trazado_600774" data-name="Trazado 600774" d="M274.46,265.235a6.163,6.163,0,0,1-6.412-7.553,10.8,10.8,0,0,1,8.392-8.887,6.246,6.246,0,0,1,6.7,1.929,6.466,6.466,0,0,1,1.243,5.933,11.224,11.224,0,0,1-8.952,8.51,8.029,8.029,0,0,1-.973.067m.039-2.112c.2-.025.582-.043.95-.12a9.011,9.011,0,0,0,5.847-4.238,7.108,7.108,0,0,0,1.155-4.55,4.15,4.15,0,0,0-5.076-3.476,9.252,9.252,0,0,0-7.246,7.106c-.583,3.044,1.209,5.3,4.369,5.279" transform="translate(-224.171 -207.95)" fill="#fff"/>
                <path id="Trazado_600775" data-name="Trazado 600775" d="M169.766,258.976c.017,4.3-3.43,6.919-7.62,6.2a11.116,11.116,0,0,1-8.869-8.586,6.369,6.369,0,0,1,2.854-7.138,7.241,7.241,0,0,1,6.386-.252,11.107,11.107,0,0,1,7.165,8.585,9.468,9.468,0,0,1,.085,1.192m-6.729,4.188c3.1.062,4.941-2.005,4.6-4.787a8.568,8.568,0,0,0-3.178-5.61,7.673,7.673,0,0,0-5.41-2.02,3.961,3.961,0,0,0-3.827,3.906,7.689,7.689,0,0,0,1.964,5.241,8.288,8.288,0,0,0,5.855,3.271" transform="translate(-128.103 -207.998)" fill="#fff"/>
                <path id="Trazado_600776" data-name="Trazado 600776" d="M246.591,188.511l.692,1.991a11.073,11.073,0,0,1-6.952.013l.685-2a9.287,9.287,0,0,0,5.576,0" transform="translate(-201.096 -157.735)" fill="#fff"/>
                <path id="Trazado_600777" data-name="Trazado 600777" d="M296.074,280.828a23.733,23.733,0,0,0,2.4-1.545,22.976,22.976,0,0,0,1.969-2.043l1.681,1.043a10.493,10.493,0,0,1-5.347,4.4l-.707-1.855" transform="translate(-247.739 -231.979)" fill="#fff"/>
                <path id="Trazado_600778" data-name="Trazado 600778" d="M195.278,282.455a10.937,10.937,0,0,1-5.376-4.408l1.783-1.11a9.257,9.257,0,0,0,4.332,3.537l-.739,1.98" transform="translate(-158.9 -231.726)" fill="#fff"/>
              </g>
            </g>
          </g>
        </g>
      </g>
    </g>
  </g>
</svg>
