<svg xmlns="http://www.w3.org/2000/svg" xmlns:xlink="http://www.w3.org/1999/xlink" width="113" height="97" viewBox="0 0 113 97">
  <defs>
    <clipPath id="clip-path">
      <path id="Trazado_165450" data-name="Trazado 165450" d="M1.735,0A1.694,1.694,0,0,0,0,1.651,1.7,1.7,0,0,0,1.736,3.3,1.694,1.694,0,0,0,3.471,1.651,1.7,1.7,0,0,0,1.735,0Z" fill="#ade65f"/>
    </clipPath>
    <clipPath id="clip-path-10">
      <rect id="Rectángulo_46610" data-name="Rectángulo 46610" width="51.442" height="69.308" fill="#fff"/>
    </clipPath>
  </defs>
  <g id="Grupo_160793" data-name="Grupo 160793" transform="translate(282 9176)">
    <g id="Grupo_160667" data-name="Grupo 160667" transform="translate(0 91)">
      <g id="Grupo_160539" data-name="Grupo 160539" transform="translate(-675 -11630)">
        <rect id="Rectángulo_46591" data-name="Rectángulo 46591" width="97" height="97" rx="15" transform="translate(401 2363)" fill="#54397c"/>
        <path id="Unión_8" data-name="Unión 8" d="M2534.676,11735.576l-9.773-10.074a8.183,8.183,0,0,1,.2-11.6l0,0a8.267,8.267,0,0,1,11.655.2l9.771,10.076a8.178,8.178,0,0,1-.2,11.6l0,0a8.264,8.264,0,0,1-11.655-.2Z" transform="translate(-2042.85 -9284.85)" fill="#4462fe"/>
        <g id="Grupo_160533" data-name="Grupo 160533" transform="translate(393 2371.127)">
          <g id="Group_881458" data-name="Group 881458" transform="translate(0 3.471) rotate(-90)">
            <g id="Grupo_108454" data-name="Grupo 108454" transform="translate(0)">
              <path id="Trazado_165449" data-name="Trazado 165449" d="M1.735,0A1.694,1.694,0,0,0,0,1.651,1.7,1.7,0,0,0,1.736,3.3,1.694,1.694,0,0,0,3.471,1.651,1.7,1.7,0,0,0,1.735,0Z" transform="translate(0)" fill="#ade65f"/>
              <g id="Grupo_108453" data-name="Grupo 108453" clip-path="url(#clip-path)">
                <g id="Group_881457" data-name="Group 881457" transform="translate(-0.001 0.001)">
                  <rect id="Rectangle_298911" data-name="Rectangle 298911" width="3.471" height="3.301" fill="#ade65f"/>
                </g>
              </g>
            </g>
          </g>
          <g id="Group_881458-2" data-name="Group 881458" transform="translate(10.73 3.471) rotate(-90)">
            <g id="Grupo_108454-2" data-name="Grupo 108454" transform="translate(0)">
              <path id="Trazado_165449-2" data-name="Trazado 165449" d="M1.735,0A1.694,1.694,0,0,0,0,1.651,1.7,1.7,0,0,0,1.736,3.3,1.694,1.694,0,0,0,3.471,1.651,1.7,1.7,0,0,0,1.735,0Z" transform="translate(0)" fill="#ade65f"/>
              <g id="Grupo_108453-2" data-name="Grupo 108453" clip-path="url(#clip-path)">
                <g id="Group_881457-2" data-name="Group 881457" transform="translate(-0.001 0.001)">
                  <rect id="Rectangle_298911-2" data-name="Rectangle 298911" width="3.471" height="3.301" fill="#ade65f"/>
                </g>
              </g>
            </g>
          </g>
          <g id="Group_881458-3" data-name="Group 881458" transform="translate(10.73 11.433) rotate(-90)">
            <g id="Grupo_108454-3" data-name="Grupo 108454" transform="translate(0)">
              <path id="Trazado_165449-3" data-name="Trazado 165449" d="M1.735,0A1.694,1.694,0,0,0,0,1.651,1.7,1.7,0,0,0,1.736,3.3,1.694,1.694,0,0,0,3.471,1.651,1.7,1.7,0,0,0,1.735,0Z" transform="translate(0)" fill="#ade65f"/>
              <g id="Grupo_108453-3" data-name="Grupo 108453" clip-path="url(#clip-path)">
                <g id="Group_881457-3" data-name="Group 881457" transform="translate(-0.001 0.001)">
                  <rect id="Rectangle_298911-3" data-name="Rectangle 298911" width="3.471" height="3.301" fill="#ade65f"/>
                </g>
              </g>
            </g>
          </g>
          <g id="Group_881458-4" data-name="Group 881458" transform="translate(0 11.433) rotate(-90)">
            <g id="Grupo_108454-4" data-name="Grupo 108454" transform="translate(0)">
              <path id="Trazado_165449-4" data-name="Trazado 165449" d="M1.735,0A1.694,1.694,0,0,0,0,1.651,1.7,1.7,0,0,0,1.736,3.3,1.694,1.694,0,0,0,3.471,1.651,1.7,1.7,0,0,0,1.735,0Z" transform="translate(0)" fill="#ade65f"/>
              <g id="Grupo_108453-4" data-name="Grupo 108453" clip-path="url(#clip-path)">
                <g id="Group_881457-4" data-name="Group 881457" transform="translate(-0.001 0.001)">
                  <rect id="Rectangle_298911-4" data-name="Rectangle 298911" width="3.471" height="3.301" fill="#ade65f"/>
                </g>
              </g>
            </g>
          </g>
          <g id="Group_881458-5" data-name="Group 881458" transform="translate(10.73 19.395) rotate(-90)">
            <g id="Grupo_108454-5" data-name="Grupo 108454" transform="translate(0)">
              <path id="Trazado_165449-5" data-name="Trazado 165449" d="M1.735,0A1.694,1.694,0,0,0,0,1.651,1.7,1.7,0,0,0,1.736,3.3,1.694,1.694,0,0,0,3.471,1.651,1.7,1.7,0,0,0,1.735,0Z" transform="translate(0)" fill="#ade65f"/>
              <g id="Grupo_108453-5" data-name="Grupo 108453" clip-path="url(#clip-path)">
                <g id="Group_881457-5" data-name="Group 881457" transform="translate(-0.001 0.001)">
                  <rect id="Rectangle_298911-5" data-name="Rectangle 298911" width="3.471" height="3.301" fill="#ade65f"/>
                </g>
              </g>
            </g>
          </g>
          <g id="Group_881458-6" data-name="Group 881458" transform="translate(0 19.395) rotate(-90)">
            <g id="Grupo_108454-6" data-name="Grupo 108454" transform="translate(0)">
              <path id="Trazado_165449-6" data-name="Trazado 165449" d="M1.735,0A1.694,1.694,0,0,0,0,1.651,1.7,1.7,0,0,0,1.736,3.3,1.694,1.694,0,0,0,3.471,1.651,1.7,1.7,0,0,0,1.735,0Z" transform="translate(0)" fill="#ade65f"/>
              <g id="Grupo_108453-6" data-name="Grupo 108453" clip-path="url(#clip-path)">
                <g id="Group_881457-6" data-name="Group 881457" transform="translate(-0.001 0.001)">
                  <rect id="Rectangle_298911-6" data-name="Rectangle 298911" width="3.471" height="3.301" fill="#ade65f"/>
                </g>
              </g>
            </g>
          </g>
          <g id="Group_881458-7" data-name="Group 881458" transform="translate(21.302 3.471) rotate(-90)">
            <g id="Grupo_108454-7" data-name="Grupo 108454" transform="translate(0)">
              <path id="Trazado_165449-7" data-name="Trazado 165449" d="M1.735,0A1.694,1.694,0,0,0,0,1.651,1.7,1.7,0,0,0,1.736,3.3,1.694,1.694,0,0,0,3.471,1.651,1.7,1.7,0,0,0,1.735,0Z" transform="translate(0)" fill="#ade65f"/>
              <g id="Grupo_108453-7" data-name="Grupo 108453" clip-path="url(#clip-path)">
                <g id="Group_881457-7" data-name="Group 881457" transform="translate(-0.001 0.001)">
                  <rect id="Rectangle_298911-7" data-name="Rectangle 298911" width="3.471" height="3.301" fill="#ade65f"/>
                </g>
              </g>
            </g>
          </g>
          <g id="Group_881458-8" data-name="Group 881458" transform="translate(21.302 11.433) rotate(-90)">
            <g id="Grupo_108454-8" data-name="Grupo 108454" transform="translate(0)">
              <path id="Trazado_165449-8" data-name="Trazado 165449" d="M1.735,0A1.694,1.694,0,0,0,0,1.651,1.7,1.7,0,0,0,1.736,3.3,1.694,1.694,0,0,0,3.471,1.651,1.7,1.7,0,0,0,1.735,0Z" transform="translate(0)" fill="#ade65f"/>
              <g id="Grupo_108453-8" data-name="Grupo 108453" clip-path="url(#clip-path)">
                <g id="Group_881457-8" data-name="Group 881457" transform="translate(-0.001 0.001)">
                  <rect id="Rectangle_298911-8" data-name="Rectangle 298911" width="3.471" height="3.301" fill="#ade65f"/>
                </g>
              </g>
            </g>
          </g>
          <g id="Group_881458-9" data-name="Group 881458" transform="translate(21.302 19.395) rotate(-90)">
            <g id="Grupo_108454-9" data-name="Grupo 108454" transform="translate(0)">
              <path id="Trazado_165449-9" data-name="Trazado 165449" d="M1.735,0A1.694,1.694,0,0,0,0,1.651,1.7,1.7,0,0,0,1.736,3.3,1.694,1.694,0,0,0,3.471,1.651,1.7,1.7,0,0,0,1.735,0Z" transform="translate(0)" fill="#ade65f"/>
              <g id="Grupo_108453-9" data-name="Grupo 108453" clip-path="url(#clip-path)">
                <g id="Group_881457-9" data-name="Group 881457" transform="translate(-0.001 0.001)">
                  <rect id="Rectangle_298911-9" data-name="Rectangle 298911" width="3.471" height="3.301" fill="#ade65f"/>
                </g>
              </g>
            </g>
          </g>
        </g>
      </g>
      <g id="Grupo_160552" data-name="Grupo 160552" transform="translate(-251 -9251.674)">
        <g id="Grupo_160551" data-name="Grupo 160551" clip-path="url(#clip-path-10)">
          <path id="Trazado_600779" data-name="Trazado 600779" d="M14.486,69.308a1.506,1.506,0,0,1-.747-2.2c.7-1.948,1.386-3.9,2.1-5.838a.657.657,0,0,0-.237-.9,18.824,18.824,0,0,1-6.84-10.189c-.144-.525-.359-.7-.873-.64a7.562,7.562,0,0,1-1.217,0A1.229,1.229,0,0,1,5.45,48.473a19.9,19.9,0,0,1,.06-3.778,3.942,3.942,0,0,1,3.307-3.26L8.05,35.2H6.9a4.026,4.026,0,0,1-4.191-4.22q0-2.538,0-5.075c0-.947.506-1.521,1.33-1.531.857-.011,1.372.567,1.374,1.556,0,1.556,0,3.113,0,4.669,0,1.462.436,1.9,1.9,1.9h.7c.268-1.71.437-3.389.806-5.024a23.453,23.453,0,0,1,6.978-12.7c6.449-5.82,15.549-5.151,21.334,1.508A25.362,25.362,0,0,1,42.9,28.884c.2,1.171.311,2.357.471,3.592.459,0,.931.037,1.395-.009a1.365,1.365,0,0,0,1.244-1.231,3.309,3.309,0,0,0,.016-.473q0-11.065,0-22.129V8.177H5.416V8.87q0,2.91,0,5.82c0,.987-.521,1.566-1.377,1.554-.822-.012-1.325-.587-1.326-1.535,0-2.163,0-4.326,0-6.586-.429,0-.825,0-1.221,0A1.341,1.341,0,0,1,0,6.609Q0,4.037,0,1.466A1.321,1.321,0,0,1,1.47,0Q5.936,0,10.4,0H49.517C51.1,0,51.44.347,51.44,1.958c0,1.556,0,3.113,0,4.669a1.339,1.339,0,0,1-1.5,1.495c-.378,0-.755,0-1.2,0v.853q0,10.963,0,21.926A4.035,4.035,0,0,1,44.412,35.2H43.393c-.256,2.08-.508,4.124-.763,6.189a.186.186,0,0,0,.071.061c2.483.853,3.324,2.029,3.324,4.654,0,.677.008,1.354,0,2.03a1.322,1.322,0,0,1-1.381,1.415c-.581.02-1.3-.153-1.7.127-.365.255-.379,1.006-.559,1.535A18.991,18.991,0,0,1,35.9,60.323a.73.73,0,0,0-.275,1.006c.713,1.918,1.391,3.848,2.079,5.775a1.507,1.507,0,0,1-.747,2.2ZM34.088,41.4a23.684,23.684,0,0,0,.242-13.318,15.29,15.29,0,0,0-4.1-7.261,6.371,6.371,0,0,0-8.724-.261,11.966,11.966,0,0,0-3.224,4.371,21.267,21.267,0,0,0-1.873,11.65c.193,1.619.555,3.218.839,4.818ZM11.438,49.571c.07.253.121.469.189.679a15.676,15.676,0,0,0,3.755,6.26c3.682,3.725,8.072,5.537,13.3,4.276,5.8-1.4,9.328-5.322,11.236-10.839a1.618,1.618,0,0,0,.035-.376ZM39.745,41.39a30.528,30.528,0,0,0,.146-13.7,20.744,20.744,0,0,0-5.824-10.624c-3.847-3.634-8.881-4.519-13.4-2.294A16,16,0,0,0,13.7,21.912,24.911,24.911,0,0,0,10.851,33.2a32.748,32.748,0,0,0,.849,8.182h2.788c-.03-.136-.046-.222-.067-.308a26.847,26.847,0,0,1-.333-12.312,19.184,19.184,0,0,1,4.677-9.365,9.284,9.284,0,0,1,14.289.416,21.053,21.053,0,0,1,4.83,12.983,28.118,28.118,0,0,1-.939,8.6ZM48.7,2.755H2.764V5.381H48.7Zm-5.428,44.06c.184-1.892-.018-2.72-2.343-2.708-10.28.051-20.561.022-30.841.023a5.965,5.965,0,0,0-.676.013,1.352,1.352,0,0,0-1.265,1.2,13.423,13.423,0,0,0-.01,1.468ZM18.418,62.162,16.847,66.57H34.6l-1.574-4.4a16.261,16.261,0,0,1-14.606-.007" transform="translate(0 -0.001)" fill="#fff"/>
          <path id="Trazado_600780" data-name="Trazado 600780" d="M22.691,141.1a1.352,1.352,0,1,1-1.367-1.354,1.327,1.327,0,0,1,1.367,1.354" transform="translate(-17.276 -120.789)" fill="#fff"/>
        </g>
      </g>
    </g>
  </g>
</svg>
