<svg xmlns="http://www.w3.org/2000/svg" xmlns:xlink="http://www.w3.org/1999/xlink" width="47.384" height="36.561" viewBox="0 0 47.384 36.561">
  <defs>
    <clipPath id="clip-path">
      <rect id="Rect치ngulo_44494" data-name="Rect치ngulo 44494" width="47.384" height="36.56" fill="none"/>
    </clipPath>
    <clipPath id="clip-path-3">
      <rect id="Rect치ngulo_44492" data-name="Rect치ngulo 44492" width="26.105" height="24.521" fill="none"/>
    </clipPath>
  </defs>
  <g id="Grupo_160218" data-name="Grupo 160218" transform="translate(0 -0.001)">
    <g id="Grupo_156620" data-name="Grupo 156620" transform="translate(0 0)" clip-path="url(#clip-path)">
      <g id="Grupo_156619" data-name="Grupo 156619" transform="translate(0 0)">
        <g id="Grupo_156618" data-name="Grupo 156618" clip-path="url(#clip-path)">
          <path id="Trazado_599061" data-name="Trazado 599061" d="M37.129,38.258a3.009,3.009,0,0,1-.1-.48c.057.2.117.4.182.591.205.621.041.305-.085-.112" transform="translate(-9.816 -17.489)" fill="#4d4d4d"/>
          <path id="Trazado_599062" data-name="Trazado 599062" d="M49.061,60.81c1.162-1.527,2.389-2.995,3.6-4.481q.2-.243.393-.49-.364.632-.762,1.246a11.488,11.488,0,0,1-3.236,3.725" transform="translate(-32.024 -25.85)" fill="#4d4d4d"/>
          <path id="Trazado_599063" data-name="Trazado 599063" d="M23.261,60.249a18.646,18.646,0,0,1-.45-2.27c-.033-.237-.061-.475-.088-.712a28.366,28.366,0,0,0,1.512,5.341,5.2,5.2,0,0,1-.975-2.359" transform="translate(10.944 -26.511)" fill="#4d4d4d"/>
          <path id="Trazado_599064" data-name="Trazado 599064" d="M6.6,44.416a5.047,5.047,0,0,1-1.22-.924c-.033-.038-.062-.077-.09-.116q.7.56,1.408,1.1l-.1-.059" transform="translate(37.845 -20.08)" fill="#4d4d4d"/>
          <path id="Trazado_599065" data-name="Trazado 599065" d="M70.219,32.65a.612.612,0,0,1,.218-.256,3.054,3.054,0,0,0,.166.307,1.786,1.786,0,0,0-.393.423.069.069,0,0,0-.011.051c-.175-.331-.338-.668-.483-1.014-.038-.092-.189-.051-.15.041a12.769,12.769,0,0,0,.551,1.155c.048.089.183.01.135-.079-.012-.022-.022-.045-.034-.067a.081.081,0,0,0,.127-.009,1.572,1.572,0,0,1,.344-.371,1.861,1.861,0,0,0,.411.43c-.54.1-1.079.2-1.621.288-.516.081-2.038.358-1.651-.65.241-.627.838-.863,1.331-1.215.346-.247.606-.544.963-.759a2.318,2.318,0,0,0,.127,1,1.039,1.039,0,0,0-.343.28c-.062.078.048.189.111.111a.936.936,0,0,1,.285-.242c.016.041.032.082.048.121l.021.048a.749.749,0,0,0-.286.325c-.041.091.093.171.135.079m-.967.369c-.013-.052-.026-.1-.039-.156a.078.078,0,0,0-.15.041l.039.156a.078.078,0,0,0,.151-.041m.18.038.117.117a.078.078,0,0,0,.111-.111l-.117-.117a.078.078,0,0,0-.111.111" transform="translate(-60.11 -14.316)" fill="#4d4d4d"/>
          <path id="Trazado_599066" data-name="Trazado 599066" d="M39.407,31.225a1.336,1.336,0,0,1,.146.267.16.16,0,0,0-.074.049l-.009-.007c-.1-.058-.178-.158-.275-.228l.067-.267a1.368,1.368,0,0,1,.145.186" transform="translate(-13.219 -14.369)" fill="#4d4d4d"/>
          <path id="Trazado_599067" data-name="Trazado 599067" d="M9.8,39.436a6.223,6.223,0,0,1,.889,1.2A9.136,9.136,0,0,1,9.412,39.3q.179.053.36.1l.027.037" transform="translate(31.641 -18.192)" fill="#4d4d4d"/>
          <path id="Trazado_599068" data-name="Trazado 599068" d="M16.655,31.435c-.206-.329-.407-.661-.6-1-.344-.6-.663-1.215-.964-1.838q.483.835,1.005,1.649.405.628.829,1.243c-.059-.011-.119-.021-.178-.034l-.092-.022" transform="translate(22.354 -13.24)" fill="#4d4d4d"/>
          <path id="Trazado_599069" data-name="Trazado 599069" d="M11.967,34.605q.45.648.915,1.286c.221.3.447.606.672.907q-.194-.057-.387-.119c-.2-.265-.392-.533-.582-.8q-.47-.65-.9-1.324c.1.017.191.032.286.046" transform="translate(27.556 -15.999)" fill="#4d4d4d"/>
          <path id="Trazado_599070" data-name="Trazado 599070" d="M23.408,32.906c.068.114.139.226.214.336l-.208-.294c0-.014,0-.027-.006-.041" transform="translate(11.19 -15.233)" fill="#4d4d4d"/>
          <path id="Trazado_599071" data-name="Trazado 599071" d="M38.6,29.418c.02-.086.04-.173.06-.26l.375-.133c.095-.034.054-.185-.041-.151l-.293.1c.029-.129.056-.259.084-.388a.06.06,0,0,0,.013.006l.2.039a.076.076,0,0,0,.074-.025v.014c.007.074.016.147.023.22a.126.126,0,0,0,0,.029,4.6,4.6,0,0,1,0,.487.08.08,0,0,0-.056-.012l-.433.071" transform="translate(-12.439 -13.235)" fill="#4d4d4d"/>
          <path id="Trazado_599072" data-name="Trazado 599072" d="M25.168,25.963l0,0,.026-.027a.824.824,0,0,1,.427.4.86.86,0,0,1,.077.512c-.111-.275-.231-.547-.364-.816a.13.13,0,0,0-.164-.07" transform="translate(8.161 -12.005)" fill="#333"/>
          <path id="Trazado_599073" data-name="Trazado 599073" d="M41.654,17.924a1.969,1.969,0,0,1,.4-.566c.045.075.095.149.146.223a1.512,1.512,0,0,0-.435.678q-.085-.147-.157-.3a.064.064,0,0,0,.041-.037" transform="translate(-17.17 -8.036)" fill="#4d4d4d"/>
          <path id="Trazado_599074" data-name="Trazado 599074" d="M41.138,18.641a1.362,1.362,0,0,1,.39-.631c.057.077.114.155.17.231q-.288.206-.571.421a.081.081,0,0,0,.011-.021" transform="translate(-16.402 -8.338)" fill="#4d4d4d"/>
          <path id="Trazado_599075" data-name="Trazado 599075" d="M42.271,19.28l-.006,0v0l.007,0" transform="translate(-17.586 -8.925)" fill="#4d4d4d"/>
          <path id="Trazado_599076" data-name="Trazado 599076" d="M24.953,29.3l-.39.235a.074.074,0,0,0-.028.03c-.038-.037-.077-.074-.114-.112a1.316,1.316,0,0,0,.891-.979q.168.287.351.564a11.047,11.047,0,0,1,.38,1.7,8.912,8.912,0,0,1-1.174-.863,1.875,1.875,0,0,1,.377-.161.078.078,0,0,0-.041-.15,2.012,2.012,0,0,0-.457.2c-.034-.031-.07-.061-.1-.093l.389-.235a.078.078,0,0,0-.079-.135" transform="translate(8.227 -13.182)" fill="#4d4d4d"/>
          <path id="Trazado_599077" data-name="Trazado 599077" d="M38.665,27.479q.1-.486.185-.975c.027.34.033.685.058,1.024a.078.078,0,0,0-.024-.01l-.2-.039a.091.091,0,0,0-.024,0" transform="translate(-12.29 -12.27)" fill="#4d4d4d"/>
          <path id="Trazado_599078" data-name="Trazado 599078" d="M27.651,27.435a.7.7,0,0,1-1.049.3.157.157,0,0,0-.054-.03c-.023-.1-.046-.206-.069-.308a1.138,1.138,0,0,1,.544-.349.084.084,0,0,0,.018-.01c.015.042.03.084.04.128l-.508.369c-.081.059,0,.194.079.135l.458-.332c0,.01,0,.02.005.031.009.1.165.1.156,0a1.6,1.6,0,0,0-.362-.882c-.064-.078-.173.033-.111.111a1.38,1.38,0,0,1,.185.3h0a1.293,1.293,0,0,0-.543.317l-.041-.175a1.767,1.767,0,0,1,.371-.27c.089-.048.01-.183-.079-.135a1.888,1.888,0,0,0-.333.234c-.049-.208-.1-.417-.15-.625a.96.96,0,0,1,.66-.459c.486-.09.741.239.868.643a1.291,1.291,0,0,1-.083,1m-.436-1.292c-.073-.069-.184.041-.111.111a.281.281,0,0,1,.092.219.078.078,0,0,0,.156,0,.434.434,0,0,0-.138-.33" transform="translate(5.511 -11.931)" fill="#333"/>
          <path id="Trazado_599079" data-name="Trazado 599079" d="M23.845,21.921c-.346.414-.705.815-1.071,1.211a.715.715,0,0,0-.131,0,4.715,4.715,0,0,0,.707-1.066,3.993,3.993,0,0,1,1.111-1.386c.626-.324.115.328-.021.5q-.292.371-.595.734" transform="translate(10.457 -9.535)" fill="#4d4d4d"/>
          <path id="Trazado_599080" data-name="Trazado 599080" d="M35.37,25.574a4.491,4.491,0,0,1,.1.59l.055.68q.054.681.109,1.361a.154.154,0,0,0,.037.088q-.129.257-.27.508l-.073-1.83a6.875,6.875,0,0,0,.045-1.4" transform="translate(-7.255 -11.839)" fill="#4d4d4d"/>
          <path id="Trazado_599081" data-name="Trazado 599081" d="M24.555,40.167a12.8,12.8,0,0,0,1.088,1.8c-.5-.194-.87-1.11-1.088-1.8" transform="translate(8.553 -18.595)" fill="#4d4d4d"/>
          <path id="Trazado_599082" data-name="Trazado 599082" d="M36.935,25.58c0,.1,0,.194,0,.291a.391.391,0,0,0-.231-.062c-.1,0-.1.161,0,.156a.241.241,0,0,1,.178.059.08.08,0,0,0,.054.019q0,.193-.011.385a.138.138,0,0,0-.025.086c0,.07.005.14.009.211,0,.05-.006.1-.01.151a.072.072,0,0,0-.017-.008l-.294-.066c-.009-.11-.018-.22-.027-.329a.07.07,0,0,0,.066.04h.2a.078.078,0,0,0,0-.156h-.2a.071.071,0,0,0-.071.05q-.039-.481-.078-.962c-.006-.074-.01-.15-.016-.226.394-.1.553.017.472.36" transform="translate(-9.155 -11.659)" fill="#4d4d4d"/>
          <path id="Trazado_599083" data-name="Trazado 599083" d="M33.463,26.187a1.488,1.488,0,0,1,.567-.3q-.172.505-.364,1a2.714,2.714,0,0,0-.292-.691.078.078,0,0,0,.089-.011" transform="translate(-4.571 -11.984)" fill="#4d4d4d"/>
          <path id="Trazado_599084" data-name="Trazado 599084" d="M40.853,18.973l-.1,0-.008,0,.067-.05a.065.065,0,0,0,.009-.008l.031.054" transform="translate(-15.353 -8.758)" fill="#4d4d4d"/>
          <path id="Trazado_599085" data-name="Trazado 599085" d="M36.876,28.55c-.038.429-.1.852-.178,1.272q-.053-.661-.107-1.321l.24.053a.072.072,0,0,0,.046,0" transform="translate(-9.144 -13.194)" fill="#4d4d4d"/>
          <path id="Trazado_599086" data-name="Trazado 599086" d="M37.194,19.826l0-.005a2.114,2.114,0,0,1,.169.234,1.682,1.682,0,0,0-.524.4c-.015-.076-.03-.15-.049-.224a.079.079,0,0,0,.058-.033,2.17,2.17,0,0,1,.342-.374" transform="translate(-9.744 -9.176)" fill="#4d4d4d"/>
          <path id="Trazado_599087" data-name="Trazado 599087" d="M34.716,27.616q-.149.367-.315.728-.048-.587-.094-1.174c-.011-.131-.014-.266-.019-.4a2.69,2.69,0,0,1,.291.74.143.143,0,0,0,.137.11" transform="translate(-5.747 -12.391)" fill="#4d4d4d"/>
          <path id="Trazado_599088" data-name="Trazado 599088" d="M27.113,24.6a.941.941,0,0,0-.037.116.152.152,0,0,0,.11.186c.35,1.44.665,2.889.891,4.355.1.671.192,1.346.271,2.023a.17.17,0,0,0,0,.033l0,.016c.205,1.774.345,3.56.515,5.336a7.079,7.079,0,0,1-.249-1.4c-.114-.713-.209-1.429-.295-2.146-.152-1.268-.277-2.539-.434-3.806-.152-1.228-.331-2.454-.6-3.664a20.945,20.945,0,0,1-.774-3.365c.2.769.4,1.539.593,2.312" transform="translate(4.273 -10.317)" fill="#4d4d4d"/>
          <path id="Trazado_599089" data-name="Trazado 599089" d="M29.833,24.531q.078-.288.151-.577c.156.76.421,1.511.594,2.266.057.249.11.5.16.749a.125.125,0,0,0-.088.079,1.216,1.216,0,0,1-.542.608,1.144,1.144,0,0,0,.14-.666,11.323,11.323,0,0,0-.021-1.46c-.018-.18-.134-.844-.392-1" transform="translate(0.624 -11.089)" fill="#4d4d4d"/>
          <path id="Trazado_599090" data-name="Trazado 599090" d="M32.277,28.414a.073.073,0,0,0,.019,0,.078.078,0,0,0,.044-.141c.136-.3.258-.608.368-.921a5.662,5.662,0,0,1-.142,2.238c-.139-.295-.281-.588-.432-.877.035-.073.064-.136.087-.182s.037-.081.055-.121m.019.344.274-.156a.078.078,0,0,0-.079-.135l-.274.156a.078.078,0,0,0,.079.135" transform="translate(-2.635 -12.664)" fill="#4d4d4d"/>
          <path id="Trazado_599091" data-name="Trazado 599091" d="M33.576,22.156a.153.153,0,0,0-.021.045,25.345,25.345,0,0,1-.731,2.585,8.924,8.924,0,0,1-1.375,2.5A26.678,26.678,0,0,0,33.565,21.8c0,.121,0,.241.011.361" transform="translate(-3.082 -10.09)" fill="#4d4d4d"/>
          <path id="Trazado_599092" data-name="Trazado 599092" d="M37.663,23.458l-.016.025a.142.142,0,0,0,.026.182c.009.168.019.335.032.5q.137,1.693.274,3.385c-.034-.164-.208-.872-.221-.95q-.12-.717-.175-1.443a7.767,7.767,0,0,0-.209-1.807c.071-.532.123-1.068.152-1.607a16.339,16.339,0,0,1,.136,1.717" transform="translate(-10.669 -10.065)" fill="#4d4d4d"/>
          <path id="Trazado_599093" data-name="Trazado 599093" d="M31.55,26.975a8.358,8.358,0,0,1,.023.868q-.1-.817-.2-1.635a.16.16,0,0,0-.075-.118c-.01-.046-.016-.092-.027-.138l0-.005c.029-.1.056-.192.084-.288a8.245,8.245,0,0,1,.2,1.316" transform="translate(-0.988 -11.879)" fill="#4d4d4d"/>
          <path id="Trazado_599094" data-name="Trazado 599094" d="M48.707,22.416l0,0c-.385.34-.667.766-1.027,1.129a3.263,3.263,0,0,1-.712.544.617.617,0,0,1-.461.082c.561-.838,1.155-1.656,1.73-2.481a6.144,6.144,0,0,0,.474.725" transform="translate(-26.299 -10.042)" fill="#4d4d4d"/>
          <path id="Trazado_599095" data-name="Trazado 599095" d="M29.079,18.275a13.443,13.443,0,0,0-.144-1.62.064.064,0,0,0,.039-.024,1.591,1.591,0,0,1,.528-.417,2.083,2.083,0,0,1,.092.206,2.8,2.8,0,0,0-.581.446.078.078,0,0,0,.111.111,2.661,2.661,0,0,1,.544-.418.077.077,0,0,0,.12-.069c.069-.042.021-.144-.05-.141a2.268,2.268,0,0,0-.64-.887c-.076-.065-.187.045-.111.111a2.154,2.154,0,0,1,.167.161.1.1,0,0,0-.015.008,2.308,2.308,0,0,0-.334.365c-.018-.061-.033-.124-.053-.184a.159.159,0,0,0-.209-.1c-.135-.1-.117-.084-.373-.142a.16.16,0,0,0-.2.151q-.056.495-.119.989a1.324,1.324,0,0,0-.517.107,2.692,2.692,0,0,1,.574-.777c.074-.069-.037-.179-.111-.111a2.821,2.821,0,0,0-.621.851.079.079,0,0,0,.027.1c-.018.01-.035.019-.053.03,0-.144-.01-.289-.011-.434a1.121,1.121,0,0,1,.555-.631c.09-.046.011-.18-.078-.135a1.246,1.246,0,0,0-.263.18c.012-.037.024-.073.037-.11.032-.1-.119-.136-.151-.041l-.039.117c-.021.063.037.1.089.093a1.247,1.247,0,0,0-.144.175q0-.257.015-.515a.141.141,0,0,0,.038.006l.348-.008c.09,0,.192-.1.151-.2-.383-.909-1.106-1.107-.6-2.307a11.789,11.789,0,0,1,.582-1.27c.908-1.546,3.017-.2,4.011.539A8.663,8.663,0,0,1,34.377,15.3a2.58,2.58,0,0,1-.9,3.568.138.138,0,0,0-.032.23l-.028.028c-.053-.211-.106-.422-.16-.633a.866.866,0,0,0,.539-.566.071.071,0,0,0,0-.051l.113.124c.068.075.178-.037.111-.111l-.466-.51c-.068-.075-.178.036-.111.11l.323.354a.078.078,0,0,0-.118.042.705.705,0,0,1-.427.456c-.017-.066-.034-.131-.051-.2a.067.067,0,0,0,.031-.022l.276-.35c.062-.078-.048-.19-.11-.111l-.242.306c-.02-.077-.04-.154-.06-.231a.074.074,0,0,0,.013-.01l.195-.235c.063-.077-.047-.188-.111-.111l-.144.175q-.139-.528-.277-1.054a.136.136,0,0,0-.107-.1c0-.021,0-.043.009-.064a.167.167,0,0,0-.243-.174.158.158,0,0,0-.238.083c-.195.626-.383,1.256-.581,1.883a2.348,2.348,0,0,0-.279-.5c-.059-.08-.195,0-.135.079a2.23,2.23,0,0,1,.334.652s0,0,0,.008l-.091.283a3.808,3.808,0,0,0-.5-.9c-.06-.079-.2,0-.135.079a3.72,3.72,0,0,1,.415.705l-.01,0-.7.428a.078.078,0,0,0,.079.135l.7-.425c.028.071.054.144.079.218l-.013.038a1.663,1.663,0,0,0-.738.369.067.067,0,0,0-.026.053,1.33,1.33,0,0,0-.255-.27,1.877,1.877,0,0,0-.039-.2c-.069-.262-.251-.489-.476-.455a.432.432,0,0,0-.706-.147m-1.6-4.435-.157.273a.078.078,0,0,0,.135.079l.157-.273a.078.078,0,0,0-.135-.078m.03.558c-.079.06,0,.2.079.135L27.9,14.3c.079-.06,0-.2-.079-.135l-.311.236m.7-1.329-.118.077c-.084.055-.005.191.079.135l.118-.078c.084-.055.005-.191-.079-.135m.2.381a.078.078,0,0,0,0,.157.078.078,0,0,0,0-.157m.126.967-.621-.785c-.062-.079-.172.033-.111.111l.522.661a.081.081,0,0,0-.089.009l-.548.429c-.079.062.032.172.11.11l.548-.429a.061.061,0,0,0,.025-.061l.053.067c.062.079.172-.032.111-.111m1.085.636a.078.078,0,0,0,0,.156.078.078,0,0,0,0-.156M33.8,17.164a.078.078,0,0,0,0-.156.078.078,0,0,0,0,.156m-.195-.626a.078.078,0,0,0,0-.156.078.078,0,0,0,0,.156m-2.229.747a.813.813,0,0,1,.155.33c.023.1.173.056.151-.041a.987.987,0,0,0-.2-.4c-.062-.079-.172.033-.11.111m-1.471-.148h.052a.156.156,0,0,0,0-.313h-.052a.156.156,0,0,0,0,.313m.375-.894a1.055,1.055,0,0,0-.215-.347c-.069-.074-.179.037-.111.111a.858.858,0,0,1,.175.279c.035.093.186.052.15-.042M30.42,18.9a1.877,1.877,0,0,1,.636-.436c.092-.038.051-.19-.042-.151a2.07,2.07,0,0,0-.7.476c-.07.073.041.183.111.111m-.482-1.1.006,0a.473.473,0,0,0,.064.071l.148.168.315.357c.134.151.354-.071.221-.221-.175-.2-.34-.417-.531-.6a.268.268,0,0,0-.43,0c-.093.141.081.273.205.214" transform="translate(-1.799 -5.201)" fill="#4d4d4d"/>
          <path id="Trazado_599096" data-name="Trazado 599096" d="M48.22,21.024q-.276.4-.555.792.265-.429.534-.854c.007.02.013.041.021.062" transform="translate(-26.435 -9.704)" fill="#4d4d4d"/>
          <path id="Trazado_599097" data-name="Trazado 599097" d="M41.066,20.564l.158.253a4.064,4.064,0,0,1,.435.694.165.165,0,0,0,.038.064l.788,1.263,1.576,2.527a.147.147,0,0,0,.112.071c-.019.1-.04.207-.06.31l-1.465-2.272L41.828,22.2a5.628,5.628,0,0,1-.795-1.237q-.156-.177.033-.4" transform="translate(-18.789 -9.52)" fill="#4d4d4d"/>
          <path id="Trazado_599098" data-name="Trazado 599098" d="M63.416,32.183l-.133-.16a1.27,1.27,0,0,1,.314-.4q.071.107.155.219a1.024,1.024,0,0,0-.335.343" transform="translate(-50.355 -14.639)" fill="#4d4d4d"/>
          <path id="Trazado_599099" data-name="Trazado 599099" d="M38.62,30.354h.011l.469-.077.009,0a3.787,3.787,0,0,1-.094.592,1.811,1.811,0,0,0-.394-.512" transform="translate(-12.466 -14.015)" fill="#4d4d4d"/>
          <path id="Trazado_599100" data-name="Trazado 599100" d="M59.848,27.143a1.929,1.929,0,0,0-.357.979c-.008.1.148.1.156,0a1.775,1.775,0,0,1,.33-.891c.018.039.036.078.055.117a2.348,2.348,0,0,0-.37,1.115,3.3,3.3,0,0,1-.328-.444c-.053-.086-.188-.008-.135.079a3.474,3.474,0,0,0,.93,1,.07.07,0,0,0,.111-.05.086.086,0,0,0,.111-.071,1.958,1.958,0,0,1,.234-.73,2.116,2.116,0,0,0,.3.306c-.463.4-1.218,1.211-1.867,1.065a.149.149,0,0,0-.125-.04,3.217,3.217,0,0,1-1.324-1.339,3.254,3.254,0,0,1-.361-.887,1.177,1.177,0,0,1,.8-1.375q.78-.4,1.563-.786a2.662,2.662,0,0,0,.125,1.288,5.791,5.791,0,0,0,.232.626.077.077,0,0,0-.076.032m-1.925-.7a.078.078,0,0,0,0,.156.078.078,0,0,0,0-.156m.4.237-.115.158c-.06.082.076.16.135.079l.115-.158c.059-.082-.076-.16-.135-.079m.689,1.092a.078.078,0,0,0,0,.156.078.078,0,0,0,0-.156m.1.778a3.017,3.017,0,0,0,.476.643c.07.073.18-.038.111-.111a2.862,2.862,0,0,1-.452-.611c-.049-.088-.184-.009-.135.079m.138-1.56a.078.078,0,0,0,0,.156.078.078,0,0,0,0-.156" transform="translate(-44.208 -11.665)" fill="#4d4d4d"/>
          <path id="Trazado_599101" data-name="Trazado 599101" d="M41.006,26.2a.141.141,0,0,0,.057-.208l-.012-.019q.555-2.853.888-5.744l.136.063a.148.148,0,0,0-.025.079A18.876,18.876,0,0,1,41.9,22.42a.125.125,0,0,0-.065.167c.012.031.02.062.03.093A44.568,44.568,0,0,1,40.6,28.308c-.338,1.247-.677,2.495-.94,3.759a6.822,6.822,0,0,1-.954,3.073,8.515,8.515,0,0,1,.567-2q.28-.926.534-1.859.509-1.867.921-3.758c.1-.441.186-.883.274-1.327" transform="translate(-15.481 -9.364)" fill="#4d4d4d"/>
          <path id="Trazado_599102" data-name="Trazado 599102" d="M78.062,59.512c1.014-.627,2.076-1.157,3.119-1.732.171-.095.339-.194.506-.294q-.152.128-.307.252a33.281,33.281,0,0,1-3.227,2.27,12.538,12.538,0,0,1-2.841,1.466,11.692,11.692,0,0,1,2.749-1.961" transform="translate(-74.752 -26.612)" fill="#4d4d4d"/>
          <path id="Trazado_599103" data-name="Trazado 599103" d="M62.143,41.475q-.626.977-1.283,1.934c-.354.516-.765,1.309-1.378,1.6a.134.134,0,0,0-.149,0c-.045.028-.088.059-.132.088a1.057,1.057,0,0,1-.15.019,35.472,35.472,0,0,0,4.036-5.167q-.464.764-.945,1.518" transform="translate(-47.419 -18.498)" fill="#4d4d4d"/>
          <path id="Trazado_599104" data-name="Trazado 599104" d="M64.6,30.021a1.406,1.406,0,0,0-.336.406l-.029-.034c-.064-.077-.175.034-.111.111l.391.469c.064.077.175-.034.111-.111L64.6,30.83a.072.072,0,0,0,.036-.031.866.866,0,0,1,.3-.3c.038.048.078.1.12.145l-.349.412c-.064.076.046.187.111.111l.343-.405a3.486,3.486,0,0,0,.5.456c-.445.158-.844.4-1.289.6a2.066,2.066,0,0,1-1.448.223,1.317,1.317,0,0,1-.655-.518.077.077,0,0,0-.083-.128,2.781,2.781,0,0,1-.137-.259A.082.082,0,0,0,62,31c-.033-.08-.064-.16-.091-.238a1.407,1.407,0,0,1,.108-1.477,1.888,1.888,0,0,1,.924-.437,4.841,4.841,0,0,0,1.124-.4A3.259,3.259,0,0,0,64.592,30l.011.017m-1.835-.686a.078.078,0,0,0-.15.041.224.224,0,0,1-.02.177.078.078,0,0,0,.135.078.384.384,0,0,0,.035-.3m.534.217-.2.039c-.1.02-.057.17.041.151l.2-.039c.1-.02.057-.17-.041-.151m.6.583-.039-.078c-.045-.09-.18-.011-.135.079l.039.078c.045.09.18.011.135-.079m.045.856c-.054-.084-.19-.006-.135.079l.154.236c.054.084.19.006.135-.079l-.154-.236m.186-.1a1.554,1.554,0,0,1,.365.594c.032.1.183.054.151-.042a1.739,1.739,0,0,0-.405-.663c-.071-.072-.181.039-.111.111" transform="translate(-51.445 -13.171)" fill="#4d4d4d"/>
          <path id="Trazado_599105" data-name="Trazado 599105" d="M53.625,26.541c-.892.629-1.768-1.945-1.838-2.476-.171-1.3,1.128-1.651,2.1-2.042a4.717,4.717,0,0,0,1.121-.6,3.006,3.006,0,0,0,.14,1.426,1.02,1.02,0,0,0-.359.357.078.078,0,0,0-.142.042,3.859,3.859,0,0,0,.228,1.274c.034.094.185.053.151-.041a3.721,3.721,0,0,1-.214-1.074.062.062,0,0,0,.063-.039A.89.89,0,0,1,55.2,23c.025.072.052.144.079.215l-.409.337c-.078.064.033.174.111.11l.36-.3c.031.073.062.144.1.215a2.769,2.769,0,0,0-.453.357.078.078,0,0,0,.11.111,2.585,2.585,0,0,1,.41-.324l.075.151a1.274,1.274,0,0,0-.4.337c-.061.078.049.19.111.111a1.186,1.186,0,0,1,.31-.278.141.141,0,0,0,.1.1c-.177.294-.355.588-.531.883a7.528,7.528,0,0,0-.769.634,9.144,9.144,0,0,1-.782.886m.067-2.819-.429.084c-.1.02-.057.17.041.151l.429-.085c.1-.019.057-.17-.041-.15m.294-.866a.078.078,0,0,0,0,.156.078.078,0,0,0,0-.156m.157.8c-.019-.1-.17-.056-.15.042q.042.214.084.429c.019.1.17.056.151-.042l-.085-.429m.5.628a1.7,1.7,0,0,1-.074-.976c.021-.1-.129-.14-.151-.041a1.851,1.851,0,0,0,.074,1.059c.035.093.186.053.151-.041" transform="translate(-36.128 -9.917)" fill="#4d4d4d"/>
          <path id="Trazado_599106" data-name="Trazado 599106" d="M42.188,18.373c.309-.669,1.049-.941,1.668-1.264a26.612,26.612,0,0,1,3.777-1.679c-.008.021-.018.042-.024.063a.978.978,0,0,0-.013.535l-.454.4c-.076.067.035.177.11.111l.4-.345c.018.045.037.089.059.132a2.083,2.083,0,0,0-.44.588,4.259,4.259,0,0,1-.163-.454.077.077,0,0,0,0-.1l-.062-.07a.079.079,0,0,0-.131.076,4.393,4.393,0,0,0,.541,1.24l-.1.078a2.187,2.187,0,0,1-.439-.935c-.02-.1-.17-.057-.15.041a2.343,2.343,0,0,0,.467.989l-.168.133-.308-.516a.078.078,0,0,0-.135.079l.32.535c-.331.27-.654.549-.97.836-.253-.513-.765-1.615-1.236-1.11a.444.444,0,0,0-.086.132.163.163,0,0,0-.051.05c-.664,1.05-1.312,2.109-1.953,3.171a.154.154,0,0,0-.01-.117,3,3,0,0,1-.443-2.594m4.2-1.226.116-.079c.083-.057,0-.192-.079-.135l-.116.08c-.082.057,0,.192.079.135m-.279-.5a.078.078,0,0,0,0-.156.078.078,0,0,0,0,.156" transform="translate(-22.894 -7.143)" fill="#4d4d4d"/>
          <path id="Trazado_599107" data-name="Trazado 599107" d="M54.117,8.626a.431.431,0,0,1-.247-.067l.247.067" transform="translate(-35.665 -3.962)" fill="#998675"/>
          <path id="Trazado_599108" data-name="Trazado 599108" d="M58.284,30.629a2.231,2.231,0,0,1,.224-.757c.052.084.107.166.163.244a2.148,2.148,0,0,0-.285.841,3.3,3.3,0,0,1-.461-.411.08.08,0,0,0,.082-.075,2.167,2.167,0,0,1,.3-.961c.035.07.073.139.112.208a2.433,2.433,0,0,0-.289.911c-.011.1.145.1.156,0" transform="translate(-42.398 -13.661)" fill="#4d4d4d"/>
          <path id="Trazado_599109" data-name="Trazado 599109" d="M63.85,4.717a3.758,3.758,0,0,0,.879.409A7.179,7.179,0,0,1,66.844,7.4a3.663,3.663,0,0,0,.87.912A9.252,9.252,0,0,0,66.508,7.7,31.387,31.387,0,0,0,63.335,6.7a6.384,6.384,0,0,1-2.79-1.266c-.334-.328-.493-.783-.843-1.093-.372-.331-.774-.634-1.169-.941q2.649.586,5.286,1.221a.074.074,0,0,0,.03.094" transform="translate(-51.766 -1.575)" fill="#998675"/>
          <path id="Trazado_599110" data-name="Trazado 599110" d="M46.679,11.971a.139.139,0,0,0-.074-.038c-.063-.01-.127-.017-.19-.025l-3.177-1.241c-.379-.149-.774-.284-1.142-.466a.081.081,0,0,0-.027-.025,2.867,2.867,0,0,0-.267-.133c-.059-.037-.118-.074-.175-.113A5.383,5.383,0,0,1,40.593,8.9q3.354.894,6.688,1.864c-.1.2-.163.407-.245.612a3.163,3.163,0,0,1-.357.592" transform="translate(-21.698 -4.122)" fill="#998675"/>
          <path id="Trazado_599111" data-name="Trazado 599111" d="M39.86,23.042c-.005-.07-.008-.14-.013-.21a.07.07,0,0,0,.022-.007,1.576,1.576,0,0,1,.58-.187c-.01.074-.02.149-.03.223a.838.838,0,0,0-.559.182" transform="translate(-14.466 -10.48)" fill="#4d4d4d"/>
          <path id="Trazado_599112" data-name="Trazado 599112" d="M40.129,23.847a.426.426,0,0,1,.28-.085c-.025.171-.05.342-.076.513a.076.076,0,0,0-.064-.016l-.234.041h0c-.037-.268-.068-.537-.091-.806a.082.082,0,0,0,.089-.01.666.666,0,0,1,.438-.144c-.012.088-.024.175-.036.262a.569.569,0,0,0-.383.107c-.08.059,0,.194.079.135" transform="translate(-14.537 -10.806)" fill="#4d4d4d"/>
          <path id="Trazado_599113" data-name="Trazado 599113" d="M39.752,22.145a.074.074,0,0,0,.035-.012,1.172,1.172,0,0,1,.64-.2c-.01.073-.02.146-.03.219a1.781,1.781,0,0,0-.634.189c0-.065-.009-.13-.012-.195" transform="translate(-14.393 -10.153)" fill="#4d4d4d"/>
          <path id="Trazado_599114" data-name="Trazado 599114" d="M75.156,5.2a2.971,2.971,0,0,0,.248.773c.46.854,1.406,1.318,1.889,2.147a22.208,22.208,0,0,0-4.508-2.748A12.665,12.665,0,0,1,70.266,4.17a5.009,5.009,0,0,1-1.039-1.144,2.718,2.718,0,0,1-.47-1.322,9.082,9.082,0,0,1,1.177.137c.777.13,1.546.31,2.315.476.333.072.665.147,1,.22.509.569,1.018,1.148,1.475,1.759a2.384,2.384,0,0,1,.434.908" transform="translate(-66.836 -0.789)" fill="#998675"/>
          <path id="Trazado_599115" data-name="Trazado 599115" d="M44.82,2.123a.166.166,0,0,0-.046-.052,5.288,5.288,0,0,1-1.141-1.034l-.171-.2q-.154-.342.115-.2c.125-.034.446.112.574.146q1.359.35,2.7.753c1.7.506,3.385,1.064,5.063,1.64,2.895.994,5.772,2.04,8.682,2.987Q55.036,4.569,49.411,3.2,47.12,2.64,44.82,2.123" transform="translate(-36.529 -0.275)" fill="#998675"/>
          <path id="Trazado_599116" data-name="Trazado 599116" d="M58.314,7.817a5.2,5.2,0,0,0,.639.626c-1.143-.308-2.415-.094-3.515-.632A12.442,12.442,0,0,1,53.59,6.518a2.171,2.171,0,0,0-.964-.349c-.089-.019-.175-.044-.26-.069-.059-.039-.116-.078-.176-.115a.07.07,0,0,0-.1.019,3.539,3.539,0,0,1-.4-.191q2.82.682,5.628,1.419a.076.076,0,0,0,.01.09.566.566,0,0,0,.45.2c.05,0,.176-.062.214-.052.12.03.241.255.318.344" transform="translate(-39.332 -2.691)" fill="#998675"/>
          <path id="Trazado_599117" data-name="Trazado 599117" d="M45.428,9.349a4.615,4.615,0,0,1-.555-.8,6.6,6.6,0,0,0-1.635-1.759c.095.016.19.031.283.054a1.736,1.736,0,0,1,.655.363A10.121,10.121,0,0,0,45.9,8.4c1.3.639,2.843.228,4.121.861a3.815,3.815,0,0,0,.371.189c1.193.522,2.424.971,3.643,1.435-.621-.024-1.243.028-1.867.051q-1.529.056-3.059.05c-.56,0-1.119-.012-1.678-.026L46.058,9.874a6.465,6.465,0,0,1-.629-.525" transform="translate(-29.869 -3.142)" fill="#998675"/>
          <path id="Trazado_599118" data-name="Trazado 599118" d="M81.786,3.839a5.213,5.213,0,0,0,1.9,1.192c-.4-.063-.813-.092-1.223-.133a4.452,4.452,0,0,1-2.4-.851.079.079,0,0,0-.052-.017,4.962,4.962,0,0,1-.534-.9,1.027,1.027,0,0,1,.589-1.386,2.721,2.721,0,0,1,.587-.05h.05a2.927,2.927,0,0,0,.28,1.076,5.654,5.654,0,0,0,.8,1.068" transform="translate(-78.939 -0.784)" fill="#998675"/>
          <path id="Trazado_599119" data-name="Trazado 599119" d="M40.232,25.37a.082.082,0,0,0,.023,0l.064-.012a.071.071,0,0,0,.07.048.073.073,0,0,0,.075-.074l.025,0h0c-.041.271-.085.541-.129.811-.05-.256-.092-.512-.13-.769" transform="translate(-14.715 -11.725)" fill="#4d4d4d"/>
          <path id="Trazado_599120" data-name="Trazado 599120" d="M73.6,7.757l.012,0A18.207,18.207,0,0,1,76.05,8.992c.708.441,1.383.933,2.051,1.433A16.873,16.873,0,0,1,71.57,8.55a8.943,8.943,0,0,1-2.252-1.8,4.34,4.34,0,0,0,1.718.6,11.616,11.616,0,0,1,2.56.413" transform="translate(-67.945 -3.123)" fill="#998675"/>
          <path id="Trazado_599121" data-name="Trazado 599121" d="M57.758,7.019a8.048,8.048,0,0,1-.321-1.055,2.826,2.826,0,0,0-.446-.736c-.292-.376-.6-.743-.91-1.1a8.719,8.719,0,0,1,.847.705c.331.323.5.77.836,1.092a5.754,5.754,0,0,0,2.394,1.142c1.148.34,2.335.621,3.45,1.059A12.6,12.6,0,0,1,66.32,9.715c-1.28-.038-2.56-.1-3.836-.207-.909-.073-1.844-.144-2.784-.244-.477-.887-1.468-1.353-1.941-2.246" transform="translate(-49.056 -1.909)" fill="#998675"/>
          <g id="Grupo_156617" data-name="Grupo 156617" transform="translate(8.292 7.772)" style="mix-blend-mode: multiply;isolation: isolate">
            <g id="Grupo_156616" data-name="Grupo 156616">
              <g id="Grupo_156615" data-name="Grupo 156615" clip-path="url(#clip-path-3)">
                <path id="Trazado_599122" data-name="Trazado 599122" d="M24.453,26.243c.2.285.27.625.459.914a1.6,1.6,0,0,0,.243.354c.051.042.524.2.518.114a.071.071,0,0,1,.131-.035.268.268,0,0,1-.024.318.156.156,0,0,1,.118.112c.023.107.181.212.224.33.053.144.076.294.143.436.128.273.415.43.535.695a.091.091,0,0,1,.006.019.283.283,0,0,1,.121.219.12.12,0,0,1-.176.11.7.7,0,0,1-.108-.094.9.9,0,0,1-.1-.091.131.131,0,0,1-.036-.085,2.589,2.589,0,0,1-.726-.45.848.848,0,0,1-.082-.083.146.146,0,0,1-.183.009c-.165-.113-.444-.39-.329-.616.051-.1.19-.149.256-.24.036-.049.063-.093.094-.134a1.03,1.03,0,0,1-.251.038.152.152,0,0,1-.118.146c-.412.077-.624-.224-.727-.583-.085-.295-.153-.59-.216-.889a.666.666,0,0,1,.017-.513.124.124,0,0,1,.211,0" transform="translate(-0.823 -19.893)" fill="#ccc"/>
                <path id="Trazado_599123" data-name="Trazado 599123" d="M29.715,26.83c.022-.114.1-.165.166-.252l.014-.021a2.633,2.633,0,0,1,.308-.678c.035-.1.071-.21.112-.315a.046.046,0,0,1,.059-.028,4.413,4.413,0,0,1,.179-.72c.057-.163.055-.264.248-.289a.086.086,0,0,1,.012,0c-.04-.154-.077-.31-.109-.47a.179.179,0,1,1,.354-.048c.034.658.373,1.257.459,1.912a2.194,2.194,0,0,1,.269.721,1.428,1.428,0,0,1-.382.912.252.252,0,0,1-.21.115l-.013.024a.056.056,0,0,1-.1-.028v-.03l-.01-.006a.205.205,0,0,1-.1-.178l0,0a.369.369,0,0,1,.077-.218.834.834,0,0,1-.193.1.245.245,0,0,1-.187-.017,6.549,6.549,0,0,1-.149.689.249.249,0,0,1-.122.161.057.057,0,0,1-.047.019.281.281,0,0,1-.35-.25c-.01-.108-.013-.215-.015-.323a1.25,1.25,0,0,1-.264-.782" transform="translate(-8.652 -18.807)" fill="#ccc"/>
                <path id="Trazado_599124" data-name="Trazado 599124" d="M34.72,17.492a.268.268,0,0,1-.323.183.264.264,0,0,1-.184-.323c0,.026,0,.022,0-.012l0-.02s-.013-.056-.016-.064a.43.43,0,0,0-.057-.134.25.25,0,1,1,.432-.252.817.817,0,0,1,.149.622" transform="translate(-13.966 -15.524)" fill="#ccc"/>
                <path id="Trazado_599125" data-name="Trazado 599125" d="M33.915,16.87c-.05-.025-.067-.068-.1-.112a.3.3,0,0,0-.1-.093.071.071,0,0,1,.054-.128c.121.019.3.1.3.244a.105.105,0,0,1-.156.09" transform="translate(-13.069 -15.427)" fill="#ccc"/>
                <path id="Trazado_599126" data-name="Trazado 599126" d="M33.473,16.42a.089.089,0,0,1,0-.177.089.089,0,0,1,0,.177" transform="translate(-12.398 -15.291)" fill="#ccc"/>
                <path id="Trazado_599127" data-name="Trazado 599127" d="M35.267,14.751a.119.119,0,0,1,0-.238.119.119,0,0,1,0,.238" transform="translate(-15.17 -14.49)" fill="#ccc"/>
                <path id="Trazado_599128" data-name="Trazado 599128" d="M37.009,15.438a.082.082,0,0,1,0-.165.082.082,0,0,1,0,.165" transform="translate(-17.83 -14.842)" fill="#ccc"/>
                <path id="Trazado_599129" data-name="Trazado 599129" d="M38.544,28.126a6.084,6.084,0,0,1,.041-.688.16.16,0,0,1,.179-.146c.018-.29.052-.578.1-.867a.056.056,0,0,1,.106,0,4.8,4.8,0,0,1,.011,2.839.07.07,0,0,1-.131-.035c0-.047,0-.094,0-.142a.052.052,0,0,1-.095.012c-.016-.028-.028-.059-.042-.088-.021.061-.042.1-.063.1.307.012.2.49-.053.39a.409.409,0,0,1-.252-.554c.071-.282.148-.549.2-.822" transform="translate(-20.688 -19.987)" fill="#ccc"/>
                <path id="Trazado_599130" data-name="Trazado 599130" d="M24.935,24a.269.269,0,0,1-.372,0,.237.237,0,0,1-.068-.116.275.275,0,0,1,.121-.3c.2-.136.309-.37.5-.518a3.192,3.192,0,0,0,.51-.559c.025-.032.077,0,.067.039A2.781,2.781,0,0,1,24.935,24" transform="translate(0.248 -18.185)" fill="#ccc"/>
                <path id="Trazado_599131" data-name="Trazado 599131" d="M27.035,17.417a6.675,6.675,0,0,0,.624-.769,7.334,7.334,0,0,1,.621-.567c.365-.352.571-.862.977-1.154.053-.038.106.025.1.076-.019.112-.032.22-.046.327a.187.187,0,0,1,.1.147,1.265,1.265,0,0,0,.525.9,2.221,2.221,0,0,1-.167-.564c-.067-.53.219-.794.47-1.218a.124.124,0,0,1,.223.03c.04.224.573-.144.7-.15a.513.513,0,0,1,.412.187c.229.256.024.455.07.708.077.429.484.468.806.679a1.1,1.1,0,0,1,.384.6,5.069,5.069,0,0,0,.26.735c.107.094.223.177.337.263a.905.905,0,0,0,.588-.16c.054-.031.045-.158.132-.177a1,1,0,0,1,1.037.528.082.082,0,0,1,.108.027c.043.066.231.063.3.107.134.09.224.273.341.383.3.284,1.153.626,1.474.222.026-.033.077,0,.078.032a.653.653,0,0,1-.113.413.1.1,0,0,1,.014.05h.006a1.493,1.493,0,0,1-.344.975.658.658,0,0,1-.316.258c-.051.012-.15-.021-.183-.007-.082.036-.134.258-.159.351a.224.224,0,0,1-.438-.059,6.1,6.1,0,0,0-.2-1.184,3.994,3.994,0,0,1-.23-.963A.149.149,0,0,1,35.6,18.3c-.1-.079-.22-.139-.319-.215a.072.072,0,0,1-.1.006,2.355,2.355,0,0,0-.274-.2,4.662,4.662,0,0,1-.4,1.693c-.216.626-.4,1.262-.615,1.888a.24.24,0,0,1-.159.161l0,.012a.238.238,0,0,1,0,.25l-.322.525a2.051,2.051,0,0,1-.1.378c-.018.049-.1.061-.112,0-.008-.04-.014-.079-.02-.119a3.912,3.912,0,0,1-.359,1.03c-.117.247-.548.07-.446-.188a4.456,4.456,0,0,0,.066-1.926c0-.038-.006-.113-.008-.208-.008.144-.013.288-.007.436a.073.073,0,0,1-.1.062c0,.045.005.091.009.135.034.405.187,1-.147,1.311a.074.074,0,0,1-.122-.032,12.265,12.265,0,0,1-.185-1.516,3.874,3.874,0,0,1,.046-1.69A.139.139,0,0,1,32.041,20q.012-.064.029-.122a.367.367,0,0,1-.35-.362,6.959,6.959,0,0,0-.095-1.327c-.059-.372-.387-.991-.834-.985a2.746,2.746,0,0,1-.052,1.173c-.112.894-.236,1.794-.4,2.68a.169.169,0,0,1-.324,0c-.241-1.3-.694-2.8-.068-4.053a.344.344,0,0,1,.18-.171l-.052-.122a.2.2,0,0,1-.154.133c-.823.166-1.5,1.034-2.118,1.562a.2.2,0,0,1-.3-.039q-.084-.125-.162-.25a.348.348,0,0,1-.064-.045.729.729,0,0,1-.2-.311.309.309,0,0,1-.023-.109.151.151,0,0,1-.023-.234m5.938,3.612v0a.087.087,0,0,1,.143-.038.613.613,0,0,1,.148.184c.008-.013.015-.026.024-.039a5.308,5.308,0,0,0-.383-.526c.024.136.04.264.056.36,0,.02.009.041.012.062m1.142-2.824a.161.161,0,0,1-.039-.022c.009.032.016.064.023.1,0-.025.012-.049.016-.074" transform="translate(-12.885 -14.471)" fill="#ccc"/>
                <path id="Trazado_599132" data-name="Trazado 599132" d="M46.44,24.062c-.021-.237.156-.381.293-.564.2-.263.389-.532.584-.8a3.7,3.7,0,0,1,.792-.922c0-.028,0-.055,0-.086a.2.2,0,0,1,.37-.1,2.2,2.2,0,0,1,.36.72.08.08,0,0,1-.047.1,1.053,1.053,0,0,1-.3.588,6.654,6.654,0,0,1-1.778,1.218.184.184,0,0,1-.272-.156" transform="translate(-34.69 -17.725)" fill="#ccc"/>
                <path id="Trazado_599133" data-name="Trazado 599133" d="M52.137,24.424a1.747,1.747,0,0,0,.934-.788,3.3,3.3,0,0,0,.389-1.078,2.894,2.894,0,0,1,.635-1.479c.035-.035.083,0,.077.045a5.969,5.969,0,0,0,.012,1.269c.25.638.767,1.371.59,2-.226.8-1.4,1.443-2.011,1.93a.181.181,0,0,1-.25,0c-.5-.5-1.356-1.479-.375-1.9" transform="translate(-43.478 -17.524)" fill="#ccc"/>
                <path id="Trazado_599134" data-name="Trazado 599134" d="M57.044,28.254a.631.631,0,0,1,.12-.535c.314-.414.837-.38.831-1.071a2.048,2.048,0,0,1,.483-1.756.12.12,0,0,1,.187.144,1.779,1.779,0,0,0-.136.67.164.164,0,0,1,.1.115,4.459,4.459,0,0,0,1.216,2.266.275.275,0,0,1,.042.329c-.574,1.063-2.571,1.3-2.845-.164" transform="translate(-51.461 -19.279)" fill="#ccc"/>
                <path id="Trazado_599135" data-name="Trazado 599135" d="M61.8,29.846a1.728,1.728,0,0,1,.524-.349,2.152,2.152,0,0,0,.794-1.235.059.059,0,0,1,.112,0,2.231,2.231,0,0,1,.108.769.192.192,0,0,1,.15.139,2.682,2.682,0,0,0,1.163,1.59.314.314,0,0,1-.074.567c-.574.22-1.248.8-1.891.719a1.222,1.222,0,0,1-.909-.882,1.341,1.341,0,0,1,.021-1.317" transform="translate(-58.798 -20.836)" fill="#ccc"/>
                <path id="Trazado_599136" data-name="Trazado 599136" d="M68.455,32.095c.414-.394.259-1.052.771-1.394.068-.046.182.032.148.113a1.817,1.817,0,0,0-.107.6.122.122,0,0,1,.163.1,2.1,2.1,0,0,0,.84,1.357.284.284,0,0,1-.057.444,3.1,3.1,0,0,1-.76.182c-.309.067-.606.172-.921.216-.378.053-1.031-.013-1-.544.029-.515.6-.762.924-1.066" transform="translate(-67.53 -21.978)" fill="#ccc"/>
                <path id="Trazado_599137" data-name="Trazado 599137" d="M44.641,45.026a4.745,4.745,0,0,1-.413,1.627c-.066.112-.267.071-.256-.069a4.774,4.774,0,0,1,.6-1.588c.021-.044.079-.01.073.031" transform="translate(-29.166 -28.592)" fill="#ccc"/>
                <path id="Trazado_599138" data-name="Trazado 599138" d="M50.458,54.9a.052.052,0,0,1,.09.053,10.973,10.973,0,0,1-.886,1.657,2.693,2.693,0,0,1-1.027,1.078c-.107.046-.251-.055-.176-.176.581-.926,1.338-1.744,2-2.612" transform="translate(-37.477 -33.175)" fill="#ccc"/>
                <path id="Trazado_599139" data-name="Trazado 599139" d="M63.808,47.824c.134-.067.263-.143.393-.219a3.034,3.034,0,0,0,.422-.244c.239-.2.394-.485.628-.692.022-.02.063.006.044.033a8,8,0,0,0-.511.948,1.509,1.509,0,0,1-.685.669c-.328.172-.619-.331-.289-.5" transform="translate(-60.399 -29.373)" fill="#ccc"/>
              </g>
            </g>
          </g>
          <path id="Trazado_599140" data-name="Trazado 599140" d="M28.86,15.279c.313.221.625.445.938.668a.4.4,0,0,1,.169.267,1.925,1.925,0,0,1,.841,1.473.386.386,0,0,1-.385.385,1.617,1.617,0,0,1-1.2-.731,11.111,11.111,0,0,0-.854-1.423c-.314-.318.1-.915.494-.64M30,17.017a1.617,1.617,0,0,0-.2-.379.357.357,0,0,1-.039.026,1.781,1.781,0,0,0,.241.352" transform="translate(1.398 -7.041)" fill="#b3b3b3"/>
          <path id="Trazado_599141" data-name="Trazado 599141" d="M32.683,18.386l-.01.014.01-.014" transform="translate(-2.847 -8.512)" fill="#b3b3b3"/>
          <path id="Trazado_599142" data-name="Trazado 599142" d="M32.766,17.689a.357.357,0,0,1,.072.01h.017a.524.524,0,0,1,.076.011.4.4,0,0,1,.1.039l.01.007a.172.172,0,0,1,.125.255.411.411,0,0,1-.039.054.607.607,0,0,0-.046.058.3.3,0,0,1-.234.072.326.326,0,0,1-.281-.3.208.208,0,0,1,.206-.206" transform="translate(-3.287 -8.189)" fill="#b3b3b3"/>
          <path id="Trazado_599143" data-name="Trazado 599143" d="M34.941,14.111a.466.466,0,0,1,.186.083l.193.114c.162.1-.018.339-.159.206L35,14.362a.454.454,0,0,1-.131-.154.077.077,0,0,1,.074-.1" transform="translate(-6.724 -6.532)" fill="#b3b3b3"/>
          <path id="Trazado_599144" data-name="Trazado 599144" d="M37.256,13.545l.141-.136a.079.079,0,0,1,.112.112l-.135.142a.329.329,0,0,1-.136.1.071.071,0,0,1-.086-.086.325.325,0,0,1,.1-.136" transform="translate(-10.1 -6.197)" fill="#b3b3b3"/>
          <path id="Trazado_599145" data-name="Trazado 599145" d="M36.807,17.35a.061.061,0,0,1,0,.122.061.061,0,0,1,0-.122" transform="translate(-9.219 -8.032)" fill="#b3b3b3"/>
          <path id="Trazado_599146" data-name="Trazado 599146" d="M26.776,26.886a.152.152,0,0,1,.26.059l0,0a1.77,1.77,0,0,1,.109.546.277.277,0,0,1-.542.074c-.026-.151-.122-.267-.12-.433a.252.252,0,0,1,.291-.243" transform="translate(6.012 -12.423)" fill="#b3b3b3"/>
          <path id="Trazado_599147" data-name="Trazado 599147" d="M25.792,30.236c0,.052.008.1.012.156.005.071-.115.071-.11,0,0-.052.008-.1.012-.156a.043.043,0,0,1,.085,0" transform="translate(7.78 -13.978)" fill="#b3b3b3"/>
          <path id="Trazado_599148" data-name="Trazado 599148" d="M50.708,20.773c.1-.111.274.063.164.164-.082.075-.164.148-.251.217a.092.092,0,0,1-.13-.129c.069-.088.142-.17.218-.252" transform="translate(-30.628 -9.6)" fill="#b3b3b3"/>
          <path id="Trazado_599149" data-name="Trazado 599149" d="M54.982,23.639a1.51,1.51,0,0,1,.43-.244.984.984,0,0,1,.462-.063.1.1,0,0,1,.048.177,2.606,2.606,0,0,0-.568.5c-.165.189-.263.458-.52.539a.155.155,0,0,1-.172-.07c-.179-.306.1-.645.321-.841" transform="translate(-37.909 -10.8)" fill="#b3b3b3"/>
          <path id="Trazado_599150" data-name="Trazado 599150" d="M57.312,26.1c.067-.1.2.033.1.1l-.089.06a.052.052,0,0,1-.071-.071l.06-.089" transform="translate(-40.809 -12.065)" fill="#b3b3b3"/>
          <path id="Trazado_599151" data-name="Trazado 599151" d="M61.024,27.03a2.638,2.638,0,0,1,.344-.154c.111-.044.169.125.078.184a1.668,1.668,0,0,1-.671.314c-.075.008-.1-.089-.056-.135a1.177,1.177,0,0,1,.306-.209" transform="translate(-46.707 -12.438)" fill="#b3b3b3"/>
          <path id="Trazado_599152" data-name="Trazado 599152" d="M66.508,30.2l.14-.095c.1-.066.192.094.092.158-.081.052-.183.148-.281.149a.074.074,0,0,1-.063-.11c.023-.05.068-.073.112-.1" transform="translate(-55.054 -13.93)" fill="#b3b3b3"/>
          <path id="Trazado_599153" data-name="Trazado 599153" d="M69.264,31.613a.061.061,0,0,1,0,.122.061.061,0,0,1,0-.122" transform="translate(-59.107 -14.635)" fill="#b3b3b3"/>
          <path id="Trazado_599154" data-name="Trazado 599154" d="M71.413,33.388a1.792,1.792,0,0,1,.2-.142c.116-.078.262.106.151.2a1.907,1.907,0,0,1-.19.151.434.434,0,0,1-.211.09.1.1,0,0,1-.091-.12.426.426,0,0,1,.142-.176" transform="translate(-62.694 -15.382)" fill="#b3b3b3"/>
          <path id="Trazado_599155" data-name="Trazado 599155" d="M.025,35.046A6.959,6.959,0,0,1,2.2,33.234c1.079-.693,2.178-1.333,3.313-1.93a21.829,21.829,0,0,0,3.073-1.94c.774-.748,1.545-1.5,2.382-2.163.091-.1.18-.2.269-.3a.159.159,0,0,1-.049-.254,37.073,37.073,0,0,0,5.523-7.517q.915-1.608,1.854-3.2c-.273.266-.526.549-.792.848-.16.18-.276.334-.53.339a.717.717,0,0,1-.287-.057c-.005.006-.008.013-.014.018-.506.423-1.361,1.407-2.082,1.266a1.244,1.244,0,0,1-.267-.086c-.976.264-1.87,1.1-2.928.959a1.538,1.538,0,0,1-.207-.045l-.011,0c-.664.119-3.9,1.092-4.178-.047-.136-.549.512-1.278.891-1.59.313-.257.679-.407.986-.679a3.294,3.294,0,0,1,.957-.652.134.134,0,0,1,.031-.006,1.209,1.209,0,0,1,.216-.314c.589-.62,1.6-.513,2.281-.987a.145.145,0,0,1,.048-.023,1.11,1.11,0,0,1,.054-.134,1.739,1.739,0,0,1,.909-.7c.621-.314,1.243-.625,1.865-.938a.143.143,0,0,1,.02-.005,1.694,1.694,0,0,1,.46-.5c.946-.706,2.228-.767,3.054-1.66a.14.14,0,0,1,.073-.042,1.959,1.959,0,0,1,.607-.616,20.948,20.948,0,0,1,4.707-2.225,23.338,23.338,0,0,0-2.741.061q-1.529.044-3.06.026-2.907-.034-5.805-.289c-.694-.061-1.4-.123-2.115-.2a.067.067,0,0,1-.071,0l-.008-.006A16.845,16.845,0,0,1,2.86,5.317,6.831,6.831,0,0,1,.169,2.275C-.226,1.134.682.6,1.713.6a25.852,25.852,0,0,1,5.413.987l.5.114A8.093,8.093,0,0,1,6.369.333a.156.156,0,0,1,.024-.19c.355-.279.763-.081,1.169.023q1.36.347,2.706.749c1.748.517,3.48,1.09,5.2,1.682,3.452,1.186,6.879,2.446,10.367,3.523a.15.15,0,0,1,.085.068c1.1-1.041,2.9-.041,3.908.672,1.318.928,2.846,2.17,3.3,3.791a2.927,2.927,0,0,1-.686,2.866c.027,0,.054-.008.081-.01a.729.729,0,0,1,.226.017.139.139,0,0,1,.049-.071,3.791,3.791,0,0,0,.737-1.074,7.688,7.688,0,0,1,.65-.9c.219-.26.851-1.179,1.3-.894a.369.369,0,0,1,.163.441l.01.009a.145.145,0,0,1,.111.1c.066.21.135.418.205.627a36.077,36.077,0,0,0,3.278,5.906q.222.329.447.654c1.937.269,3.871-.144,5.822.02.2.017.2.329,0,.313-1.877-.158-3.73.189-5.588,0q.7,1,1.434,1.98c.075.1.151.2.227.3.786.209,1.59.371,2.406.52.2.036.114.337-.083.3-.684-.125-1.359-.261-2.023-.425.163.214.326.429.485.646a1.31,1.31,0,0,1,.315.565,57.215,57.215,0,0,0,4.61,3.444.157.157,0,0,1-.158.27c-.97-.524-1.928-1.072-2.866-1.653a7.608,7.608,0,0,1-.941-.646c-.277-.236-.552-.773-.845-1.01a.118.118,0,0,1-.072-.025,10.669,10.669,0,0,1-1.989-2.012,12.228,12.228,0,0,1-2.975-1.434,12.885,12.885,0,0,1-3.063-2.9c.037.161.07.322.1.484a.131.131,0,0,1,.1.05c1.767,2.068,3.747,4.084,6.422,4.89.161.048.14.329-.042.307l-.041-.006h0a6.861,6.861,0,0,1-3.392-1.578,13.616,13.616,0,0,1-2.67-2.623q1.237,1.743,2.4,3.537c.11.17-.161.327-.27.158q-.983-1.523-2.022-3.008a31.136,31.136,0,0,1,1.841,6.336c.189.087.379.17.575.244s.106.373-.083.3c-.144-.055-.287-.113-.427-.174q.1.608.179,1.221a.157.157,0,0,1-.2.151c-.425-.136-.4-.635-.47-1.018-.041-.219-.087-.436-.131-.654a9.1,9.1,0,0,1-2-1.431.148.148,0,0,1-.041-.067c-.507-.1-.877-.647-1.14-1.252.139,1.387.256,2.778.39,4.163a.144.144,0,0,1,.069.121,28.144,28.144,0,0,0,2.073,9.63c.05.122-.09.21-.192.192-.643-.11-.847-.758-1.059-1.3a15.337,15.337,0,0,1-.767-2.772,38.593,38.593,0,0,1-.49-5.586,1.482,1.482,0,0,1-.317-.7c-.176-.761-.272-1.55-.376-2.323-.186-1.377-.322-2.76-.482-4.14-.133-1.145-.282-2.29-.493-3.424a1.517,1.517,0,0,1-.742.616.157.157,0,0,1-.177-.072l-.077-.128a.167.167,0,0,1-.1-.142l-.006-.053a6.194,6.194,0,0,1-.227.88c-.039.114-.226.169-.286.038-.159-.351-.328-.7-.5-1.041-.316.61-.825,1.4-1.314,1.1a.165.165,0,0,1-.072-.107.149.149,0,0,1-.1-.139c0-.127-.01-.253-.015-.38q-.059.295-.128.588a.137.137,0,0,1-.077.1.125.125,0,0,1-.034.068.138.138,0,0,1-.048.113c-.322.294-.489,0-.582-.308a17.5,17.5,0,0,0,.419,2.262,13.342,13.342,0,0,1,.581,1.959.114.114,0,0,1-.018.07,9.993,9.993,0,0,0,1.751,1.9c.155.129-.068.35-.221.221a10.26,10.26,0,0,1-1.839-2.015l-.005-.009c-.831-.2-.99-3.567-1.056-4.266a.344.344,0,0,1-.234.079c-.2-.01-.307-.214-.443-.357-.173.678-.358,1.355-.541,2.031-.375,1.385-.742,2.772-1,4.184a4.5,4.5,0,0,1-1.139,2.762.17.17,0,0,1-.038.024,9.5,9.5,0,0,1-.72,1.624,26.4,26.4,0,0,1-2.059,3.723c-1,1.508-2.1,3.19-3.817,3.932-.124.054-.319-.072-.214-.214,1.136-1.531,2.329-3.013,3.554-4.475a20.123,20.123,0,0,0,2.265-3.121c.27-.6.518-1.215.736-1.841l.005-.009a3.334,3.334,0,0,1,.22-1.063c.209-.662.414-1.326.606-1.993q.557-1.931,1.008-3.889.262-1.135.485-2.278l-2.388-3.7c-.052-.079-.144-.2-.255-.343-.5.453-.854,1.041-1.4,1.45a2.461,2.461,0,0,1-.685.4.546.546,0,0,1-.178.026,7.918,7.918,0,0,0-.672.474c-.171.274-.338.549-.5.83-.886,1.565-1.671,3.182-2.58,4.735q-1.317,2.255-2.791,4.413c-.485.71-1.018,1.715-1.873,1.943a9.971,9.971,0,0,0-.82.617,18.839,18.839,0,0,1-1.976,1.849l-.1.093a33.69,33.69,0,0,1-2.642,2.258,33.61,33.61,0,0,1-3.06,2.1A10.224,10.224,0,0,1,.2,35.276c-.123.026-.259-.108-.177-.23M21.764,11.258q-.268.426-.534.854.279-.4.555-.792c-.008-.021-.015-.042-.021-.062M9.048,17.368c-.493.352-1.09.588-1.331,1.215-.388,1.008,1.135.731,1.651.65.542-.085,1.082-.189,1.621-.288a1.861,1.861,0,0,1-.411-.43,1.572,1.572,0,0,0-.344.371.081.081,0,0,1-.127.009c.012.022.022.045.034.067.048.089-.087.168-.135.079a12.768,12.768,0,0,1-.551-1.155c-.039-.092.112-.133.15-.041.145.346.308.683.483,1.014a.069.069,0,0,1,.011-.051,1.786,1.786,0,0,1,.393-.423,3.054,3.054,0,0,1-.166-.307.612.612,0,0,0-.218.256c-.041.092-.176.012-.135-.079a.749.749,0,0,1,.286-.325l-.021-.048c-.016-.04-.032-.08-.048-.121A.944.944,0,0,0,9.906,18c-.062.078-.172-.033-.11-.111a1.039,1.039,0,0,1,.343-.28,2.318,2.318,0,0,1-.127-1c-.357.215-.618.513-.964.759m3.567-2.089a4.812,4.812,0,0,1-1.124.4,1.893,1.893,0,0,0-.924.437,1.406,1.406,0,0,0-.108,1.478c.027.078.058.158.091.237a.082.082,0,0,1,.057.131,2.715,2.715,0,0,0,.137.259.077.077,0,0,1,.083.128,1.312,1.312,0,0,0,.655.518,2.063,2.063,0,0,0,1.448-.223c.445-.2.844-.437,1.289-.6a3.489,3.489,0,0,1-.5-.456l-.343.4c-.066.077-.176-.034-.111-.11l.349-.412c-.041-.048-.082-.1-.12-.144a.872.872,0,0,0-.3.3.072.072,0,0,1-.036.031l.027.033c.064.077-.046.188-.111.11l-.391-.469c-.064-.077.046-.188.111-.111l.028.034a1.406,1.406,0,0,1,.336-.405l-.011-.017a3.254,3.254,0,0,1-.532-1.555m.627,1.7a1.276,1.276,0,0,0-.314.4l.133.16A1.023,1.023,0,0,1,13.4,17.2c-.056-.075-.107-.148-.155-.22m.554-2.664a1.177,1.177,0,0,0-.8,1.375,3.256,3.256,0,0,0,.361.886,3.218,3.218,0,0,0,1.324,1.339.151.151,0,0,1,.125.04c.649.146,1.4-.667,1.867-1.064a2.067,2.067,0,0,1-.3-.307,1.958,1.958,0,0,0-.235.73.085.085,0,0,1-.111.07.07.07,0,0,1-.111.05,3.475,3.475,0,0,1-.93-1.005c-.053-.086.083-.164.135-.079a3.32,3.32,0,0,0,.329.444,2.348,2.348,0,0,1,.37-1.115l-.055-.117a1.775,1.775,0,0,0-.33.891c-.008.1-.164.1-.156,0a1.924,1.924,0,0,1,.357-.979.078.078,0,0,1,.076-.033,5.882,5.882,0,0,1-.233-.625,2.669,2.669,0,0,1-.124-1.289c-.521.262-1.044.522-1.563.786m2.314,1.893a2.228,2.228,0,0,0-.224.757c-.011.1-.168.1-.156,0a2.422,2.422,0,0,1,.289-.911q-.059-.1-.113-.208a2.174,2.174,0,0,0-.3.961.08.08,0,0,1-.081.075,3.226,3.226,0,0,0,.461.41,2.158,2.158,0,0,1,.285-.841c-.056-.078-.111-.16-.163-.244m1.654-4.1c-.976.392-2.277.738-2.1,2.042.07.531.946,3.106,1.837,2.476a9.142,9.142,0,0,0,.783-.886,7.334,7.334,0,0,1,.769-.634c.175-.3.353-.589.53-.883a.14.14,0,0,1-.1-.1,1.166,1.166,0,0,0-.31.278c-.062.079-.172-.032-.111-.111a1.265,1.265,0,0,1,.4-.336c-.025-.05-.05-.1-.075-.151a2.594,2.594,0,0,0-.41.325c-.072.07-.183-.04-.111-.111a2.766,2.766,0,0,1,.453-.357c-.033-.071-.064-.142-.1-.215l-.36.3c-.077.063-.189-.047-.111-.111l.41-.337c-.028-.071-.055-.143-.08-.215a.888.888,0,0,0-.322.371.063.063,0,0,1-.063.039,3.739,3.739,0,0,0,.214,1.074c.034.1-.117.136-.15.042a3.835,3.835,0,0,1-.228-1.274.078.078,0,0,1,.142-.042,1.011,1.011,0,0,1,.359-.357,3,3,0,0,1-.14-1.427,4.7,4.7,0,0,1-1.121.6m1.53-.876a3,3,0,0,0,.443,2.595.148.148,0,0,1,.011.117c.641-1.062,1.289-2.121,1.953-3.171a.155.155,0,0,1,.052-.051.467.467,0,0,1,.085-.132c.47-.5.983.6,1.236,1.11.317-.287.64-.567.97-.836l-.32-.535a.078.078,0,0,1,.135-.079l.308.516.169-.132a2.335,2.335,0,0,1-.468-.989c-.02-.1.131-.14.151-.041a2.175,2.175,0,0,0,.439.934l.1-.078a4.373,4.373,0,0,1-.54-1.24.079.079,0,0,1,.131-.076l.063.07a.077.077,0,0,1,0,.1,4.256,4.256,0,0,0,.162.454,2.083,2.083,0,0,1,.44-.588c-.021-.044-.041-.088-.059-.133l-.395.346c-.075.066-.186-.044-.111-.111l.455-.4a.973.973,0,0,1,.013-.535c.006-.022.016-.042.024-.063a26.551,26.551,0,0,0-3.777,1.679c-.619.322-1.359.595-1.668,1.263m6.1.75a.072.072,0,0,1-.035.012c0,.065.009.13.012.195A1.77,1.77,0,0,1,26,12c.01-.073.02-.146.03-.219a1.173,1.173,0,0,0-.64.2M12.762,3.313a.069.069,0,0,1,.1-.019c.06.037.117.076.176.115.085.026.172.05.26.069a2.17,2.17,0,0,1,.965.35,12.446,12.446,0,0,0,1.847,1.293c1.1.538,2.372.324,3.515.632a5.166,5.166,0,0,1-.639-.627c-.077-.089-.2-.314-.318-.344-.038-.01-.164.05-.213.052a.562.562,0,0,1-.45-.2.075.075,0,0,1-.011-.09Q15.183,3.8,12.362,3.122a3.735,3.735,0,0,0,.4.191m5.691,1.351L18.2,4.6a.435.435,0,0,0,.248.066M19.93,5.81c.056.04.115.077.174.112.09.04.179.084.267.133a.083.083,0,0,1,.027.026c.368.182.763.317,1.142.465l3.177,1.241c.063.008.127.015.19.025a.131.131,0,0,1,.074.038,3.187,3.187,0,0,0,.357-.592c.082-.2.147-.416.244-.612q-3.333-.971-6.688-1.863A5.4,5.4,0,0,0,19.93,5.81m4.554,4.079a.064.064,0,0,1-.041.037c.048.1.1.2.157.3a1.5,1.5,0,0,1,.435-.678c-.052-.074-.1-.148-.146-.223a1.981,1.981,0,0,0-.405.566m.2.466-.007,0,0,0,.005,0m.441-.682a1.362,1.362,0,0,0-.39.631.081.081,0,0,1-.011.021q.283-.214.571-.421c-.055-.077-.113-.154-.17-.231m.857,2.486a1.576,1.576,0,0,0-.58.187.07.07,0,0,1-.022.007c0,.07.008.14.013.21a.839.839,0,0,1,.559-.182c.01-.074.02-.149.03-.223m-.513-2-.009.008-.067.05.007,0,.1,0-.031-.053m.044,2.745A.567.567,0,0,1,25.9,12.8c.012-.088.024-.175.036-.262a.666.666,0,0,0-.438.144.081.081,0,0,1-.088.01q.035.4.091.806h0l.234-.041a.076.076,0,0,1,.064.016c.026-.171.052-.342.077-.513a.425.425,0,0,0-.28.085c-.081.06-.159-.076-.079-.135m.26.7-.025,0a.073.073,0,0,1-.075.074.071.071,0,0,1-.07-.048l-.064.011a.066.066,0,0,1-.023,0c.038.257.08.513.13.769q.067-.405.129-.811h0m-.25,1.536a.134.134,0,0,1-.061-.088,16.734,16.734,0,0,1-.41-4.582q-.949.709-1.824,1.507l2.224,3.566q.036-.2.071-.4m-6.287-7.3q1.53.006,3.059-.05c.624-.023,1.246-.074,1.867-.051-1.22-.464-2.451-.912-3.643-1.435a3.935,3.935,0,0,1-.371-.189c-1.278-.634-2.822-.223-4.121-.862a10.06,10.06,0,0,1-1.719-1.193,1.743,1.743,0,0,0-.655-.363c-.093-.023-.189-.039-.283-.054A6.6,6.6,0,0,1,15.005,5.4a4.575,4.575,0,0,0,.555.8,6.389,6.389,0,0,0,.629.525l1.369,1.085c.559.014,1.119.024,1.678.026M13.429,7.6q1.915.153,3.836.207a12.636,12.636,0,0,0-2.712-1.594c-1.115-.438-2.3-.719-3.45-1.059A5.753,5.753,0,0,1,8.708,4.011c-.34-.322-.5-.768-.835-1.092a8.8,8.8,0,0,0-.847-.705c.311.361.618.728.91,1.105a2.823,2.823,0,0,1,.446.735A8.024,8.024,0,0,0,8.7,5.11C9.176,6,10.167,6.47,10.644,7.357c.94.1,1.876.171,2.785.243m-9.8-2.173A16.873,16.873,0,0,0,10.156,7.3C9.488,6.8,8.813,6.311,8.1,5.869A18.169,18.169,0,0,0,5.663,4.637l-.012,0a11.648,11.648,0,0,0-2.56-.413,4.332,4.332,0,0,1-1.718-.6,8.943,8.943,0,0,0,2.252,1.8M1.126.96A1.027,1.027,0,0,0,.537,2.347a4.93,4.93,0,0,0,.534.9.079.079,0,0,1,.051.017,4.448,4.448,0,0,0,2.4.851c.41.04.82.07,1.223.133a5.213,5.213,0,0,1-1.9-1.192,5.655,5.655,0,0,1-.8-1.068A2.925,2.925,0,0,1,1.763.912l-.05,0a2.756,2.756,0,0,0-.587.05M3.1,1.052A9.187,9.187,0,0,0,1.921.916a2.711,2.711,0,0,0,.47,1.321A5.011,5.011,0,0,0,3.43,3.382,12.688,12.688,0,0,0,5.949,4.588a22.232,22.232,0,0,1,4.508,2.748c-.483-.828-1.429-1.293-1.889-2.147a2.963,2.963,0,0,1-.248-.773,2.378,2.378,0,0,0-.434-.907c-.457-.612-.966-1.19-1.475-1.76-.332-.073-.665-.148-1-.22-.769-.166-1.539-.346-2.315-.476m3.67.776c.394.307.8.61,1.169.941.349.31.509.765.842,1.093a6.381,6.381,0,0,0,2.791,1.267,31.47,31.47,0,0,1,3.173.993,9.252,9.252,0,0,1,1.205.615,3.663,3.663,0,0,1-.87-.912,7.168,7.168,0,0,0-2.115-2.274,3.754,3.754,0,0,1-.878-.409.075.075,0,0,1-.03-.095q-2.637-.635-5.286-1.22M15.39,2.9c-1.678-.576-3.363-1.134-5.063-1.64Q8.981.857,7.623.5C7.495.471,7.174.325,7.049.359q-.269-.138-.115.2l.171.2A5.271,5.271,0,0,0,8.246,1.8a.162.162,0,0,1,.046.052q2.3.52,4.591,1.074,5.623,1.369,11.189,2.961c-2.91-.947-5.787-1.993-8.682-2.987M31.679,13.665a2.58,2.58,0,0,0,.9-3.568,8.669,8.669,0,0,0-2.687-2.812c-.995-.737-3.1-2.084-4.012-.539a11.786,11.786,0,0,0-.581,1.27c-.505,1.2.218,1.4.6,2.307.041.1-.06.2-.15.2l-.349.008a.141.141,0,0,1-.038-.007q-.011.258-.015.515a1.22,1.22,0,0,1,.145-.175c-.052.008-.11-.031-.089-.094l.039-.117c.032-.1.183-.054.151.041l-.037.11a1.3,1.3,0,0,1,.263-.18c.09-.045.169.09.079.135a1.117,1.117,0,0,0-.555.63c0,.145.006.29.011.434l.053-.03a.08.08,0,0,1-.028-.1,2.8,2.8,0,0,1,.621-.85c.073-.069.184.041.111.111a2.687,2.687,0,0,0-.574.776,1.332,1.332,0,0,1,.517-.107q.063-.494.119-.988a.159.159,0,0,1,.2-.151c.257.059.237.039.373.142a.159.159,0,0,1,.209.1c.02.06.035.122.053.183a2.355,2.355,0,0,1,.334-.364.072.072,0,0,1,.015-.009c-.054-.055-.107-.111-.167-.161-.077-.065.034-.175.11-.111a2.261,2.261,0,0,1,.64.887.078.078,0,0,1,.05.141.076.076,0,0,1-.119.069,2.631,2.631,0,0,0-.544.418.078.078,0,0,1-.111-.111,2.8,2.8,0,0,1,.581-.446,2.083,2.083,0,0,0-.092-.206,1.578,1.578,0,0,0-.528.417.063.063,0,0,1-.039.023,13.453,13.453,0,0,1,.145,1.62.431.431,0,0,1,.705.147c.226-.033.408.194.476.456a1.826,1.826,0,0,1,.039.2,1.319,1.319,0,0,1,.256.27.064.064,0,0,1,.025-.053,1.66,1.66,0,0,1,.738-.37l.012-.038c-.024-.073-.05-.146-.079-.217l-.7.425a.078.078,0,0,1-.078-.135l.7-.428a.024.024,0,0,1,.01,0,3.727,3.727,0,0,0-.416-.706c-.06-.08.076-.158.135-.079a3.836,3.836,0,0,1,.5.9c.031-.094.061-.189.091-.283l0-.007a2.237,2.237,0,0,0-.334-.652c-.06-.082.076-.16.135-.079a2.337,2.337,0,0,1,.279.5c.2-.628.386-1.258.581-1.883a.158.158,0,0,1,.237-.083.167.167,0,0,1,.243.173c0,.021-.005.043-.009.064a.138.138,0,0,1,.107.1q.139.527.277,1.054l.144-.174c.064-.078.175.033.111.11l-.195.235a.081.081,0,0,1-.013.011l.06.231.242-.306c.062-.079.172.032.111.11l-.277.35a.07.07,0,0,1-.031.023c.017.066.034.131.051.2a.7.7,0,0,0,.428-.456.079.079,0,0,1,.118-.042l-.323-.353c-.068-.074.042-.185.111-.111l.466.511c.068.074-.042.185-.111.111L32,12.674a.071.071,0,0,1,0,.051.868.868,0,0,1-.539.566c.054.211.106.422.159.633l.028-.028a.138.138,0,0,1,.032-.23m-5.13,3.187a3.787,3.787,0,0,0,.094-.592l-.009,0-.469.077h-.01a1.818,1.818,0,0,1,.394.512m.046-1.062-.375.133c-.02.086-.039.173-.06.26l.433-.071a.08.08,0,0,1,.056.012,4.6,4.6,0,0,0,0-.487.172.172,0,0,1,0-.029c-.008-.073-.017-.146-.023-.219v-.015a.076.076,0,0,1-.074.025l-.2-.039a.078.078,0,0,1-.013-.005q-.041.194-.084.388l.292-.1c.1-.034.136.117.042.151m-.2-.58.2.039a.076.076,0,0,1,.024.01c-.026-.338-.031-.683-.058-1.024q-.085.488-.185.975a.058.058,0,0,1,.024,0m.925-1.423q.039.481.078.961a.072.072,0,0,1,.071-.05h.2a.078.078,0,0,1,0,.156h-.2a.069.069,0,0,1-.066-.04c.009.11.018.22.027.33l.294.066a.062.062,0,0,1,.017.008c0-.05.006-.1.009-.151,0-.07-.006-.141-.009-.211a.14.14,0,0,1,.025-.086q.008-.193.011-.385a.075.075,0,0,1-.053-.019.244.244,0,0,0-.178-.059c-.1,0-.1-.152,0-.156a.4.4,0,0,1,.231.063c0-.1,0-.194,0-.291.081-.343-.078-.462-.472-.36,0,.075.009.151.015.226m2.136.116a1.48,1.48,0,0,0-.567.3.078.078,0,0,1-.089.011,2.73,2.73,0,0,1,.292.691q.193-.5.364-1m-.628,1.212a2.69,2.69,0,0,0-.291-.74c0,.136.009.272.019.4q.047.587.094,1.175.166-.36.315-.728a.143.143,0,0,1-.137-.11m-.457,1.251q-.055-.68-.109-1.361l-.055-.68a4.491,4.491,0,0,0-.1-.59,6.875,6.875,0,0,1-.045,1.4l.073,1.83q.141-.251.27-.508a.151.151,0,0,1-.038-.088M27.1,11.282a1.682,1.682,0,0,1,.524-.4,2.057,2.057,0,0,0-.169-.233l0,.005a2.166,2.166,0,0,0-.342.373.079.079,0,0,1-.058.033c.019.074.034.149.049.224m5.277,2.576a.961.961,0,0,0-.66.459q.077.313.15.625a1.921,1.921,0,0,1,.332-.234c.089-.048.168.087.079.135a1.781,1.781,0,0,0-.371.27c.014.059.027.117.041.176a1.286,1.286,0,0,1,.544-.317h0a1.425,1.425,0,0,0-.185-.3c-.063-.077.047-.189.111-.111a1.605,1.605,0,0,1,.361.883c.01.1-.147.1-.156,0,0-.011,0-.02,0-.031l-.458.333c-.082.059-.16-.076-.079-.135l.508-.369a1.318,1.318,0,0,0-.04-.128.066.066,0,0,1-.018.01,1.139,1.139,0,0,0-.544.35c.024.1.046.205.069.308a.166.166,0,0,1,.054.03.7.7,0,0,0,1.049-.3,1.293,1.293,0,0,0,.083-1c-.127-.4-.383-.733-.868-.643m1.4.474a.822.822,0,0,0-.427-.4l-.025.027v0a.13.13,0,0,1,.165.071c.133.269.253.541.364.816a.866.866,0,0,0-.078-.513m1.139-3.181a3.987,3.987,0,0,0-1.111,1.386A4.715,4.715,0,0,1,33.1,13.6a.825.825,0,0,1,.131,0c.366-.4.726-.8,1.071-1.211q.3-.362.595-.734c.137-.175.647-.826.021-.5m.272.631c-.513.658-1.056,1.292-1.619,1.908a1.09,1.09,0,0,1,.409.366,1.168,1.168,0,0,1,.063,1.2.163.163,0,0,1-.021.025c.027.076.054.151.079.228a10.4,10.4,0,0,0,4.462,2.575c-.1-.167-.2-.333-.292-.5a30.859,30.859,0,0,1-2.583-5.711c-.069-.163-.136-.327-.2-.491-.1.162-.226.307-.3.4m3.259,5.228q-.524-.813-1.005-1.649c.3.622.62,1.236.964,1.838.193.337.394.669.6,1l.092.021c.059.013.119.023.178.034-.281-.411-.559-.824-.829-1.243m1.988,2.883q-.464-.638-.915-1.286c-.1-.014-.191-.029-.287-.046q.435.674.9,1.324c.19.263.383.53.582.8q.193.062.387.119c-.225-.3-.451-.6-.672-.907m4.007,4.444.1.06q-.713-.538-1.408-1.1c.028.039.057.078.09.117a5.046,5.046,0,0,0,1.22.924m-2.116-1.888a6.206,6.206,0,0,0-.889-1.2l-.027-.037c-.121-.033-.241-.068-.36-.1a9.194,9.194,0,0,0,1.277,1.342m-4.507-3.109A11.586,11.586,0,0,0,40.1,20.466c-.473-.649-.906-1.331-1.308-2l-.023,0a10.6,10.6,0,0,1-4.084-2.023,12.494,12.494,0,0,0,3.135,2.9m-4.285-4.046a1.316,1.316,0,0,1-.891.979c.038.038.077.075.115.112a.074.074,0,0,1,.028-.03l.39-.235a.078.078,0,0,1,.079.135l-.389.235c.034.032.069.062.1.093a2.012,2.012,0,0,1,.457-.2c.1-.03.137.121.041.15a1.875,1.875,0,0,0-.377.161,8.911,8.911,0,0,0,1.174.863,11.11,11.11,0,0,0-.38-1.7q-.183-.277-.352-.564m1.061,2.38c0,.014,0,.028.006.042l.208.294c-.076-.11-.146-.222-.214-.336m1.216,5.406c-.38-1.592-.835-3.165-1.347-4.719-.064-.147-.128-.294-.195-.441a9.225,9.225,0,0,1-2.114-1.7c.21.972.395,1.948.538,2.933q.074.51.139,1.021a.159.159,0,0,1,.023.037,12.6,12.6,0,0,0,1.8,3.266.155.155,0,0,1-.031.2,8.74,8.74,0,0,0,1.569,1.137c-.119-.578-.244-1.154-.38-1.728m-1.618.294a12.765,12.765,0,0,1-1.088-1.8c.218.691.591,1.607,1.088,1.8m.009,10.365A5.2,5.2,0,0,0,35.18,36.1a28.355,28.355,0,0,1-1.512-5.341c.026.237.055.475.088.712a18.544,18.544,0,0,0,.45,2.27M32.163,19c.157,1.267.281,2.538.433,3.806.086.717.18,1.433.3,2.146a7.087,7.087,0,0,0,.249,1.4c-.169-1.776-.309-3.562-.515-5.336l0-.016a.142.142,0,0,1,0-.033c-.078-.677-.167-1.351-.271-2.023-.226-1.466-.54-2.915-.891-4.355a.154.154,0,0,1-.11-.186.941.941,0,0,1,.037-.116c-.191-.772-.39-1.542-.592-2.312a20.893,20.893,0,0,0,.774,3.365c.264,1.209.443,2.436.6,3.663m-.889-3.039a.122.122,0,0,1,.088-.079c-.05-.25-.1-.5-.16-.749-.173-.755-.439-1.505-.594-2.266q-.073.289-.151.577c.257.155.373.818.392,1A11.235,11.235,0,0,1,30.87,15.9a1.145,1.145,0,0,1-.139.666,1.217,1.217,0,0,0,.542-.608m-.891-1.629q.1.818.2,1.635a8.357,8.357,0,0,0-.023-.868,8.183,8.183,0,0,0-.2-1.316c-.028.1-.055.193-.084.288l0,.005c.011.046.017.092.027.138a.159.159,0,0,1,.075.118m-.451,2.6a5.662,5.662,0,0,0,.142-2.238c-.11.312-.231.619-.368.921a.079.079,0,0,1-.044.141.073.073,0,0,1-.019,0c-.019.04-.035.081-.055.121s-.052.109-.087.182c.15.289.293.582.432.877M29.741,14.7a25.318,25.318,0,0,0,.732-2.586.166.166,0,0,1,.021-.045c-.009-.12-.011-.241-.01-.361A26.666,26.666,0,0,1,28.366,17.2a8.932,8.932,0,0,0,1.375-2.5m-2.009.658a.077.077,0,0,1-.046,0l-.239-.053q.053.661.107,1.321c.079-.421.141-.844.178-1.272m-.422,2.127q-.137-1.693-.274-3.386c-.013-.163-.023-.329-.032-.5a.143.143,0,0,1-.026-.183c0-.009.011-.016.016-.024a16.328,16.328,0,0,0-.136-1.717c-.028.539-.081,1.075-.152,1.607a7.734,7.734,0,0,1,.209,1.807q.056.724.175,1.443c.013.078.186.786.221.95m.087,3.4c-.065-.2-.124-.393-.182-.591a3.01,3.01,0,0,0,.1.48c.126.417.29.733.085.112m-1.147-3.715.009.007a.155.155,0,0,1,.074-.049,1.336,1.336,0,0,0-.147-.267,1.322,1.322,0,0,0-.145-.186q-.033.135-.067.268c.1.07.179.17.276.228M20.642,30.48c-1.215,1.486-2.443,2.953-3.6,4.481a11.5,11.5,0,0,0,3.236-3.725q.4-.614.762-1.246c-.129.165-.26.328-.393.49m3.689-8.561q-.255.933-.534,1.859a8.515,8.515,0,0,0-.567,2,6.822,6.822,0,0,0,.954-3.073c.263-1.265.6-2.513.94-3.759a44.568,44.568,0,0,0,1.263-5.628c-.01-.031-.018-.062-.03-.093a.125.125,0,0,1,.065-.167,18.866,18.866,0,0,0,.148-2.051.148.148,0,0,1,.025-.079l-.135-.063q-.337,2.888-.889,5.744l.012.019a.14.14,0,0,1-.057.208c-.088.443-.178.886-.274,1.327q-.411,1.891-.921,3.758M23.04,12.683l.82,1.272,1.465,2.272c.019-.1.04-.207.06-.31a.146.146,0,0,1-.112-.071L23.7,13.319l-.788-1.263a.164.164,0,0,1-.038-.064,4.048,4.048,0,0,0-.435-.695l-.158-.252q-.189.223-.033.4a5.611,5.611,0,0,0,.8,1.237m-2.374,1.366a3.246,3.246,0,0,0,.712-.544c.36-.363.642-.789,1.027-1.128l0,0a6.1,6.1,0,0,1-.474-.725c-.575.824-1.169,1.643-1.73,2.481a.615.615,0,0,0,.461-.082M13.442,24.912q.657-.957,1.283-1.935.482-.752.944-1.518a35.5,35.5,0,0,1-4.036,5.167,1.142,1.142,0,0,0,.15-.019c.044-.029.087-.06.131-.088a.134.134,0,0,1,.15,0c.613-.295,1.024-1.087,1.378-1.6M3.4,33.4a33.243,33.243,0,0,0,3.226-2.27c.1-.082.206-.166.307-.252-.168.1-.335.2-.506.294-1.044.575-2.105,1.105-3.119,1.732A11.7,11.7,0,0,0,.562,34.861,12.516,12.516,0,0,0,3.4,33.4" transform="translate(-0.001 0)" fill="#191614"/>
          <path id="Trazado_599156" data-name="Trazado 599156" d="M35.116,23.777l-.315-.356-.149-.168a.472.472,0,0,1-.064-.071l-.006,0c-.124.059-.3-.073-.206-.214a.268.268,0,0,1,.43,0c.191.182.357.4.531.6.133.15-.088.372-.221.221" transform="translate(-6.444 -10.579)" fill="#191614"/>
          <path id="Trazado_599157" data-name="Trazado 599157" d="M35.711,21.956h-.052a.156.156,0,0,1,0-.312h.052a.156.156,0,0,1,0,.312" transform="translate(-7.548 -10.02)" fill="#191614"/>
          <path id="Trazado_599158" data-name="Trazado 599158" d="M27.15,26.774a.28.28,0,0,0-.092-.219c-.074-.069.038-.179.111-.111a.435.435,0,0,1,.138.33.078.078,0,0,1-.156,0" transform="translate(5.558 -12.232)" fill="#191614"/>
          <path id="Trazado_599159" data-name="Trazado 599159" d="M28.568,22.139a.078.078,0,0,1,0-.156.078.078,0,0,1,0,.156" transform="translate(3.438 -10.177)" fill="#191614"/>
          <path id="Trazado_599160" data-name="Trazado 599160" d="M28.932,20.975a.078.078,0,0,1,0-.156.078.078,0,0,1,0,.156" transform="translate(2.878 -9.638)" fill="#191614"/>
          <path id="Trazado_599161" data-name="Trazado 599161" d="M34.382,24.408c.093-.038.133.113.041.151a1.88,1.88,0,0,0-.635.436c-.07.073-.18-.038-.111-.111a2.065,2.065,0,0,1,.7-.476" transform="translate(-5.167 -11.296)" fill="#191614"/>
          <path id="Trazado_599162" data-name="Trazado 599162" d="M32.747,22.712a.814.814,0,0,0-.155-.33c-.062-.078.048-.19.111-.111a.986.986,0,0,1,.2.4c.022.1-.128.14-.151.041" transform="translate(-3.011 -10.297)" fill="#191614"/>
          <path id="Trazado_599163" data-name="Trazado 599163" d="M35.373,20.282A.858.858,0,0,0,35.2,20c-.068-.074.042-.184.111-.111a1.062,1.062,0,0,1,.215.348c.036.094-.115.134-.151.041" transform="translate(-7.038 -9.198)" fill="#191614"/>
          <path id="Trazado_599164" data-name="Trazado 599164" d="M36.354,18.5a.078.078,0,0,1,0-.156.078.078,0,0,1,0,.156" transform="translate(-8.53 -8.492)" fill="#191614"/>
          <path id="Trazado_599165" data-name="Trazado 599165" d="M39.988,16.805l-.311.237c-.08.061-.158-.075-.079-.135l.311-.236c.08-.061.158.075.079.135" transform="translate(-13.886 -7.71)" fill="#191614"/>
          <path id="Trazado_599166" data-name="Trazado 599166" d="M40.281,16.4a.078.078,0,0,1-.135-.079l.157-.273a.078.078,0,0,1,.135.079l-.157.273" transform="translate(-14.621 -7.414)" fill="#191614"/>
          <path id="Trazado_599167" data-name="Trazado 599167" d="M39.169,16.57l-.053-.067a.059.059,0,0,1-.025.061l-.548.429c-.078.061-.19-.048-.111-.111l.548-.429a.081.081,0,0,1,.089-.008l-.522-.661c-.062-.078.048-.19.111-.111l.621.785c.062.078-.048.19-.111.111" transform="translate(-12.541 -7.244)" fill="#191614"/>
          <path id="Trazado_599168" data-name="Trazado 599168" d="M38.61,15.517a.078.078,0,0,1,0-.156.078.078,0,0,1,0,.156" transform="translate(-11.997 -7.111)" fill="#191614"/>
          <path id="Trazado_599169" data-name="Trazado 599169" d="M39.061,14.773l-.118.077c-.084.056-.163-.079-.079-.135l.118-.077c.084-.056.163.079.079.135" transform="translate(-12.566 -6.771)" fill="#191614"/>
          <path id="Trazado_599170" data-name="Trazado 599170" d="M32.81,29.549l-.274.156a.078.078,0,0,1-.079-.135l.274-.156a.078.078,0,0,1,.079.135" transform="translate(-2.876 -13.612)" fill="#191614"/>
          <path id="Trazado_599171" data-name="Trazado 599171" d="M44.319,18.432c-.083.057-.161-.078-.079-.135l.116-.08c.083-.057.162.078.079.135l-.116.08" transform="translate(-20.828 -8.427)" fill="#191614"/>
          <path id="Trazado_599172" data-name="Trazado 599172" d="M44.941,17.554a.078.078,0,0,1,0-.156.078.078,0,0,1,0,.156" transform="translate(-21.729 -8.054)" fill="#191614"/>
          <path id="Trazado_599173" data-name="Trazado 599173" d="M53.861,25.867a1.847,1.847,0,0,1-.074-1.059c.021-.1.172-.057.151.041a1.694,1.694,0,0,0,.074.976c.035.094-.116.135-.151.041" transform="translate(-35.496 -11.458)" fill="#191614"/>
          <path id="Trazado_599174" data-name="Trazado 599174" d="M54.609,26l-.084-.429c-.019-.1.131-.141.15-.042.028.143.056.286.085.429.019.1-.132.14-.151.041" transform="translate(-36.66 -11.794)" fill="#191614"/>
          <path id="Trazado_599175" data-name="Trazado 599175" d="M54.911,24.249a.078.078,0,0,1,0-.156.078.078,0,0,1,0,.156" transform="translate(-37.053 -11.154)" fill="#191614"/>
          <path id="Trazado_599176" data-name="Trazado 599176" d="M59.485,31.256a2.862,2.862,0,0,0,.452.611c.07.073-.04.183-.111.111a3.017,3.017,0,0,1-.476-.643c-.049-.088.086-.167.135-.079" transform="translate(-44.444 -14.452)" fill="#191614"/>
          <path id="Trazado_599177" data-name="Trazado 599177" d="M60.587,30.144a.078.078,0,0,1,0-.156.078.078,0,0,1,0,.156" transform="translate(-45.778 -13.883)" fill="#191614"/>
          <path id="Trazado_599178" data-name="Trazado 599178" d="M60.151,28.689a.078.078,0,0,1,0-.156.078.078,0,0,1,0,.156" transform="translate(-45.107 -13.209)" fill="#191614"/>
          <path id="Trazado_599179" data-name="Trazado 599179" d="M63.773,32.772a1.733,1.733,0,0,1,.405.663c.032.1-.119.136-.151.042a1.541,1.541,0,0,0-.365-.594c-.07-.072.04-.183.111-.111" transform="translate(-50.978 -15.16)" fill="#191614"/>
          <path id="Trazado_599180" data-name="Trazado 599180" d="M64.812,33.466l-.154-.236c-.055-.085.081-.163.135-.079l.153.236c.055.085-.08.163-.135.079" transform="translate(-52.295 -15.33)" fill="#191614"/>
          <path id="Trazado_599181" data-name="Trazado 599181" d="M65.07,31.565l-.039-.078c-.045-.09.09-.169.135-.079l.039.078c.045.09-.09.169-.135.079" transform="translate(-52.752 -14.522)" fill="#191614"/>
          <path id="Trazado_599182" data-name="Trazado 599182" d="M70.543,34.9l-.117-.117a.078.078,0,0,1,.111-.111l.117.117a.078.078,0,0,1-.111.111" transform="translate(-61.104 -16.038)" fill="#191614"/>
          <path id="Trazado_599183" data-name="Trazado 599183" d="M71.242,34.683l-.039-.156a.078.078,0,0,1,.151-.041l.039.156a.078.078,0,0,1-.151.041" transform="translate(-62.251 -15.938)" fill="#191614"/>
          <path id="Trazado_599184" data-name="Trazado 599184" d="M66.26,30.651l-.2.039c-.1.019-.14-.131-.041-.151l.2-.039c.1-.019.14.131.041.151" transform="translate(-54.362 -14.119)" fill="#191614"/>
          <path id="Trazado_599185" data-name="Trazado 599185" d="M67.127,30.268a.221.221,0,0,0,.02-.177.078.078,0,0,1,.151-.041.386.386,0,0,1-.036.3c-.048.088-.184.009-.135-.079" transform="translate(-55.975 -13.886)" fill="#191614"/>
          <path id="Trazado_599186" data-name="Trazado 599186" d="M61.807,28.162c-.059.081-.194,0-.135-.079l.114-.158c.059-.081.194,0,.135.079l-.115.158" transform="translate(-47.668 -12.912)" fill="#191614"/>
          <path id="Trazado_599187" data-name="Trazado 599187" d="M62.625,27.67a.078.078,0,0,1,0-.156.078.078,0,0,1,0,.156" transform="translate(-48.91 -12.737)" fill="#191614"/>
          <path id="Trazado_599188" data-name="Trazado 599188" d="M55.867,25.855l-.429.085c-.1.019-.14-.132-.041-.151l.429-.085c.1-.019.14.132.041.151" transform="translate(-38.262 -11.899)" fill="#191614"/>
        </g>
      </g>
    </g>
  </g>
</svg>
