<svg xmlns="http://www.w3.org/2000/svg" xmlns:xlink="http://www.w3.org/1999/xlink" width="400" height="145" viewBox="0 0 400 145">
  <defs>
    <clipPath id="clip-path">
      <rect id="Rectángulo_46496" data-name="Rectángulo 46496" width="61.231" height="55.88" fill="#fff"/>
    </clipPath>
  </defs>
  <g id="Grupo_160784" data-name="Grupo 160784" transform="translate(-600 -4649)">
    <rect id="Rectángulo_46422" data-name="Rectángulo 46422" width="363" height="145" rx="17" transform="translate(637 4649)" fill="#e2e7fe"/>
    <text id="La_presión_arterial_puede_descender_a_niveles_peligrosos_y_causar_choque" data-name="La presión arterial puede descender a niveles peligrosos y causar choque" transform="translate(720 4688)" fill="#12263f" font-size="16" font-family="Roboto-Regular, Roboto"><tspan x="0" y="15">La presión arterial puede </tspan><tspan x="0" y="39">descender a niveles peligrosos y </tspan><tspan x="0" y="63">causar choque</tspan></text>
    <g id="Grupo_160463" data-name="Grupo 160463" transform="translate(0 -68)">
      <path id="Trazado_600840" data-name="Trazado 600840" d="M45,0A45,45,0,1,1,0,45,45,45,0,0,1,45,0Z" transform="translate(600 4745)" fill="#69489b"/>
      <g id="Grupo_160430" data-name="Grupo 160430" transform="translate(614 4762)">
        <g id="Grupo_160429" data-name="Grupo 160429" clip-path="url(#clip-path)">
          <path id="Trazado_600587" data-name="Trazado 600587" d="M61.231,25.555c-.2.949-.357,1.909-.605,2.845a8.335,8.335,0,0,1-1.783,3.412,4.494,4.494,0,0,1-3.61,1.674c-1.614-.033-3.229-.019-4.843,0a1.625,1.625,0,0,0-.826.243q-4.775,3.124-9.522,6.291a1.168,1.168,0,0,0-.449.7A24.889,24.889,0,0,0,40.6,52.973a3.894,3.894,0,0,1,.26,1.272,1.774,1.774,0,0,1-3.439.457c-.35-1.014-.63-2.053-.941-3.081l-.126-.42c-.839,1.057-1.65,2.078-2.461,3.1a1.77,1.77,0,0,1-1.559.726A1.68,1.68,0,0,1,30.8,53.963a1.834,1.834,0,0,1,.321-1.95c1-1.339,1.986-2.689,2.943-4.058.34-.486.56-1.055.868-1.565a5.253,5.253,0,0,0,.7-3.453c-.2.125-.395.236-.58.358-5.867,3.874-11.748,7.728-17.591,11.637a4.98,4.98,0,0,1-5.092.429,11.251,11.251,0,0,1-4.167-3.228,13.656,13.656,0,0,1-3.347-7.209,9.079,9.079,0,0,1,.108-2.548A4.153,4.153,0,0,1,6.91,39.555c2.849-1.866,5.686-3.75,8.527-5.628a1.324,1.324,0,0,0,.451-.449h-.622c-2.95,0-5.9-.07-8.849.023a5.075,5.075,0,0,1-4.859-2.852,13.07,13.07,0,0,1-1.5-7.679,11.965,11.965,0,0,1,1.7-5.6,4.936,4.936,0,0,1,4.5-2.525c6.637.043,13.274.016,19.912.016h.69l.086-.233c-1.379-.818-2.719-1.713-4.146-2.437A24.45,24.45,0,0,0,12.269,9.607c-.339-.009-.678-.013-1.015-.045A1.8,1.8,0,0,1,9.587,7.774a1.774,1.774,0,0,1,1.755-1.762c.934-.017,1.871.066,2.806.111.277.013.553.048.962.085-.254-.367-.459-.642-.642-.932-.522-.824-1.056-1.642-1.546-2.485a1.791,1.791,0,1,1,3.1-1.779,26.205,26.205,0,0,0,4.9,6.295,2.647,2.647,0,0,0,.844.529,27.469,27.469,0,0,1,10.271,6.7.962.962,0,0,0,.6.308c3.667.017,7.335.011,11,.008a1.937,1.937,0,0,0,.311-.085c-.764-.548-1.431-1.057-2.129-1.521a27.147,27.147,0,0,0-6.509-3.082A1.784,1.784,0,1,1,36.335,6.75c1.127.372,2.238.794,3.391,1.207-.313-1.166-.629-2.307-.92-3.455a3.309,3.309,0,0,1-.135-1.057,1.743,1.743,0,0,1,1.594-1.593,1.807,1.807,0,0,1,1.942,1.416c.348,1.265.676,2.537,1.083,3.783.271.829.658,1.621,1,2.425a6.373,6.373,0,0,0,2.073,2.7,22.565,22.565,0,0,1,2.445,2.279,1.249,1.249,0,0,0,.991.41c1.654-.019,3.312.057,4.962-.024a5.07,5.07,0,0,1,4.914,2.867,11.961,11.961,0,0,1,1.439,4.583c.022.173.075.341.114.511ZM18.916,49.638c.208-.129.377-.227.541-.335q14.311-9.451,28.632-18.885a3.4,3.4,0,0,1,1.666-.5c1.692-.065,3.39-.072,5.081,0A1.711,1.711,0,0,0,56.553,28.9a8.765,8.765,0,0,0,1.034-3.588,10.109,10.109,0,0,0-1.04-5.853,1.8,1.8,0,0,0-1.774-1.029q-21.766.04-43.533.019h-.824a15.332,15.332,0,0,1,.012,11.445H11.2c3.548,0,7.1,0,10.644,0a1.817,1.817,0,0,1,1.024,3.422c-1.276.851-2.559,1.692-3.838,2.537L12.609,40.1a15.238,15.238,0,0,1,6.307,9.541m-10.546-5.2a10.845,10.845,0,0,0,4.953,7.4c.5.323,1.156.728,1.717.305.53-.4.406-1.125.317-1.736a10.6,10.6,0,0,0-3.1-5.931,8.759,8.759,0,0,0-2.137-1.593c-1.262-.669-1.76-.311-1.749,1.552m-.44-20.224a9.043,9.043,0,0,0-1.02-4.611c-.256-.449-.7-1-1.144-1.082-.628-.118-.943.593-1.173,1.1a10.519,10.519,0,0,0-.017,9.066c.232.51.516,1.145,1.172,1.157s.919-.633,1.187-1.131a9.394,9.394,0,0,0,.994-4.5" transform="translate(0 0)" fill="#fff"/>
          <path id="Trazado_600588" data-name="Trazado 600588" d="M196.656,130.512a5.376,5.376,0,1,1-5.389-5.386,5.355,5.355,0,0,1,5.389,5.386m-5.352,1.775a1.787,1.787,0,0,0-.035-3.574,1.787,1.787,0,1,0,.035,3.574" transform="translate(-156.201 -105.134)" fill="#fff"/>
          <path id="Trazado_600589" data-name="Trazado 600589" d="M176.593,212.477a1.8,1.8,0,0,1-1.843,1.732,1.832,1.832,0,0,1-1.735-1.855,1.8,1.8,0,0,1,1.858-1.717,1.766,1.766,0,0,1,1.72,1.84" transform="translate(-145.37 -176.981)" fill="#fff"/>
          <path id="Trazado_600590" data-name="Trazado 600590" d="M141.339,237.594a1.821,1.821,0,0,1-1.789-1.8,1.8,1.8,0,0,1,1.792-1.785,1.791,1.791,0,0,1,0,3.582" transform="translate(-117.253 -196.623)" fill="#fff"/>
          <path id="Trazado_600591" data-name="Trazado 600591" d="M275.005,143.667a1.786,1.786,0,1,1,1.816-1.753,1.8,1.8,0,0,1-1.816,1.753" transform="translate(-229.582 -117.712)" fill="#fff"/>
          <path id="Trazado_600592" data-name="Trazado 600592" d="M317.99,141.912a1.791,1.791,0,0,1-3.582-.054,1.791,1.791,0,0,1,3.582.054" transform="translate(-264.173 -117.712)" fill="#fff"/>
          <path id="Trazado_600593" data-name="Trazado 600593" d="M102.412,141.887a1.788,1.788,0,0,1,1.78-1.791,1.786,1.786,0,1,1,0,3.572,1.776,1.776,0,0,1-1.784-1.781" transform="translate(-86.049 -117.712)" fill="#fff"/>
          <path id="Trazado_600594" data-name="Trazado 600594" d="M143.582,141.885a1.788,1.788,0,0,1,1.782-1.789,1.786,1.786,0,1,1,0,3.572,1.776,1.776,0,0,1-1.781-1.783" transform="translate(-120.641 -117.712)" fill="#fff"/>
        </g>
      </g>
    </g>
  </g>
</svg>
