<svg xmlns="http://www.w3.org/2000/svg" xmlns:xlink="http://www.w3.org/1999/xlink" width="400" height="145" viewBox="0 0 400 145">
  <defs>
    <clipPath id="clip-path">
      <rect id="Rect치ngulo_46497" data-name="Rect치ngulo 46497" width="54.498" height="54.536" fill="#fff"/>
    </clipPath>
  </defs>
  <g id="Grupo_160785" data-name="Grupo 160785" transform="translate(-1020 -4649)">
    <rect id="Rect치ngulo_46423" data-name="Rect치ngulo 46423" width="363" height="145" rx="17" transform="translate(1057 4649)" fill="#e2e7fe"/>
    <text id="En_algunos_casos_el_dengue_grave_puede_provocar_la_muerte" data-name="En algunos casos, el dengue grave puede provocar la muerte" transform="translate(1140 4700)" fill="#12263f" font-size="16" font-family="Roboto-Regular, Roboto"><tspan x="0" y="15">En algunos casos, el dengue </tspan><tspan x="0" y="39">grave puede provocar la muerte</tspan></text>
    <g id="Grupo_160462" data-name="Grupo 160462" transform="translate(0 -68)">
      <g id="Grupo_160465" data-name="Grupo 160465">
        <circle id="Elipse_5651" data-name="Elipse 5651" cx="45" cy="45" r="45" transform="translate(1020 4745)" fill="#69489b"/>
        <g id="Grupo_160432" data-name="Grupo 160432" transform="translate(1039 4759)">
          <g id="Grupo_160431" data-name="Grupo 160431" transform="translate(-1 1)" clip-path="url(#clip-path)">
            <path id="Trazado_600595" data-name="Trazado 600595" d="M0,54.536V44.95H6.394v-.716c0-7.687-.031-15.373.025-23.059a20.791,20.791,0,0,1,.549-5.006C9.066,8.037,14.223,2.837,22.33.617,23.485.3,24.7.2,25.884,0h2.769a3.076,3.076,0,0,0,.412.088,18.694,18.694,0,0,1,7.33,2.034c7.633,4.016,11.618,10.361,11.728,18.992.1,7.719.021,15.44.021,23.159v.681H54.5v9.582Zm38.557-9.617v-.511q0-11.713-.009-23.425a13.3,13.3,0,0,0-.211-2.273,11.283,11.283,0,0,0-22.354,2.346q-.008,11.659,0,23.319v.544Zm6.391.015v-.517c0-7.828.019-15.657-.019-23.485a18.99,18.99,0,0,0-.426-3.9A17.664,17.664,0,0,0,9.593,20.94c-.019,7.811,0,15.621,0,23.432v.54h3.2v-.663q0-11.53.009-23.059a17.649,17.649,0,0,1,.2-2.649A14.457,14.457,0,0,1,34.406,8.3a14.024,14.024,0,0,1,7.33,12.688c.06,7.775.015,15.55.015,23.325v.622Zm6.372,3.248H3.222v3.129h48.1Z" fill="#fff"/>
            <path id="Trazado_600596" data-name="Trazado 600596" d="M158.086,118.937v-3.185h3.147V112.57h3.2V115.7h3.181v3.2h-3.131v6.376h-3.22v-6.344Z" transform="translate(-135.591 -96.551)" fill="#fff"/>
          </g>
        </g>
      </g>
    </g>
  </g>
</svg>
