<svg xmlns="http://www.w3.org/2000/svg" xmlns:xlink="http://www.w3.org/1999/xlink" width="1328" height="1156" viewBox="0 0 1328 1156">
  <defs>
    <linearGradient id="linear-gradient" x1="0.5" x2="0.5" y2="1" gradientUnits="objectBoundingBox">
      <stop offset="0" stop-color="#fff"/>
      <stop offset="0.343" stop-color="#f3f5ff"/>
      <stop offset="0.556" stop-color="#e2e7fe"/>
      <stop offset="0.774" stop-color="#f2f4fe"/>
      <stop offset="1" stop-color="#fff"/>
    </linearGradient>
    <clipPath id="clip-path">
      <rect id="Rectángulo_45740" data-name="Rectángulo 45740" width="97.456" height="96.535" fill="#fff"/>
    </clipPath>
    <clipPath id="clip-path-2">
      <rect id="Rectángulo_45740-2" data-name="Rectángulo 45740" width="72.574" height="71.888" fill="#fff"/>
    </clipPath>
  </defs>
  <g id="Grupo_160459" data-name="Grupo 160459" transform="translate(-136 -3094)">
    <rect id="Rectángulo_46528" data-name="Rectángulo 46528" width="1328" height="1156" transform="translate(136 3094)" fill="url(#linear-gradient)"/>
    <g id="Grupo_160457" data-name="Grupo 160457" transform="translate(1346.429 3797.996) rotate(19)" opacity="0.63">
      <g id="Grupo_159383" data-name="Grupo 159383" clip-path="url(#clip-path)">
        <path id="Trazado_599486" data-name="Trazado 599486" d="M75.273,59.724c-10.109-3.852-16.806-11.409-22.7-19.96-.52,1.43-1.017,2.733-1.452,4.056-.074.225.1.543.191.807.625,1.779,1.234,3.565,1.909,5.326a3.584,3.584,0,0,0,.894,1.347c3.209,2.89,6.422,5.777,9.7,8.59a2.6,2.6,0,0,1,.961,2.721q-1.31,7.508-2.5,15.037a2.16,2.16,0,0,0,.354,1.313q4.675,7.726,9.4,15.424c.21.345.409.7.645,1.1l-1.958,1.053c-1.206-1.968-2.368-3.864-3.528-5.762-2.211-3.613-4.38-7.253-6.655-10.825A3.916,3.916,0,0,1,60,76.92c.841-4.785,1.626-9.58,2.4-14.376a1.233,1.233,0,0,0-.235-.965c-2.642-2.407-5.317-4.776-7.988-7.151-.042-.037-.131-.023-.3-.048,0,2.076.086,4.142-.016,6.2A72.2,72.2,0,0,1,49.8,79.787c-.143.429-.748,1-1.1.982-.391-.024-.931-.6-1.082-1.045A72.079,72.079,0,0,1,43.825,63.4c-.284-2.982-.348-5.986-.51-8.963a1.754,1.754,0,0,0-.358.231c-2.446,2.179-4.907,4.344-7.306,6.573a1.842,1.842,0,0,0-.467,1.421C35.99,67.68,36.871,72.685,37.7,77.7a2.011,2.011,0,0,1-.191,1.272Q32.195,87.677,26.82,96.346c-.018.029-.061.041-.173.114L24.9,95.374c.222-.385.41-.728.613-1.062C28.63,89.2,31.76,84.107,34.842,78.98a2.859,2.859,0,0,0,.418-1.751q-1.172-7.532-2.5-15.039a2.047,2.047,0,0,1,.735-2.146c3.217-2.826,6.435-5.651,9.593-8.541a5.732,5.732,0,0,0,1.217-2.009c.662-1.567,1.259-3.163,1.817-4.769a2.473,2.473,0,0,0,.064-1.413c-.346-1.189-.806-2.346-1.26-3.624-5.887,8.562-12.59,16.167-22.736,20.031.382,1.13.75,2.24,1.133,3.343,1.131,3.257,2.26,6.515,3.411,9.765a1.787,1.787,0,0,1-.222,1.867Q21.391,81.382,16.3,88.1c-.088.116-.2.214-.365.388l-1.714-1.356,7.18-9.452c.945-1.244,1.914-2.471,2.817-3.745a1.387,1.387,0,0,0,.192-1.082c-1.387-4.031-2.818-8.046-4.241-12.065a4.6,4.6,0,0,0-.2-.416,25.558,25.558,0,0,1-15.395-.507,30.765,30.765,0,0,1-3.562-1.576c-1.224-.62-1.3-1.1-.468-2.164A56.718,56.718,0,0,1,14.086,43.578a53.125,53.125,0,0,1,24.348-8.614c2.174-.213,4.387-.032,6.583-.032l.258-.34a4.567,4.567,0,0,0-.683-1.069q-5.868-5.167-11.786-10.277a1.932,1.932,0,0,1-.724-2.12c.57-2.89,1-5.838.069-8.708a7.25,7.25,0,0,0-2.033-3.336c-2.8-2.259-5.808-4.262-8.738-6.361-.357-.256-.74-.478-1.17-.754L21.255.02A53.33,53.33,0,0,1,32.292,7.88,9.233,9.233,0,0,1,34.805,14.5c.058,2.1-.244,4.217-.337,6.327a1.634,1.634,0,0,0,.329,1.169c3.809,3.332,7.654,6.621,11.743,9.806-.071-.216-.078-.5-.222-.637-2.326-2.257-1.97-5.031.834-6.741a1.428,1.428,0,0,0,.465-1.06c.038-2.752.021-5.5.021-8.257V13.948h2.232v3.074c0,2.157-.02,4.315.021,6.471a1.321,1.321,0,0,0,.467.962c2.856,1.809,3.1,4.65.489,6.958l.439.6c3.889-3.348,7.735-6.634,11.533-9.975a1.74,1.74,0,0,0,.347-1.355,22.819,22.819,0,0,1,.114-8.855A8.68,8.68,0,0,1,65.959,7.3,59.633,59.633,0,0,1,76.431,0l.989,1.892c-2.208,1.469-4.358,2.86-6.463,4.315-.977.676-1.847,1.5-2.8,2.216a7.848,7.848,0,0,0-3.066,6.74,41.405,41.405,0,0,0,.626,6.073,1.809,1.809,0,0,1-.651,1.933c-3.791,3.184-7.556,6.4-11.329,9.606a11.41,11.41,0,0,0-1.089.957,2.476,2.476,0,0,0-.319.754,3.01,3.01,0,0,0,.771.262c2.34.132,4.695.115,7.019.374A52.674,52.674,0,0,1,85.757,45.2,56.454,56.454,0,0,1,96.793,55.884c.977,1.24.921,1.641-.483,2.409a24.773,24.773,0,0,1-17.621,2.37c-.4-.084-.791-.175-1.266-.28-1.207,3.477-2.3,6.981-3.654,10.383a4.211,4.211,0,0,0,.756,4.854c2.875,3.458,5.491,7.131,8.21,10.718.176.232.334.476.564.8l-1.757,1.35c-.241-.268-.473-.49-.665-.743-3.245-4.262-6.471-8.537-9.737-12.783a2.186,2.186,0,0,1-.353-2.343c1.531-4.253,2.977-8.536,4.486-12.9" transform="translate(0)" fill="#fff"/>
      </g>
    </g>
    <g id="Grupo_160458" data-name="Grupo 160458" transform="translate(185.458 3573.538) rotate(-17)" opacity="0.63">
      <g id="Grupo_159383-2" data-name="Grupo 159383" clip-path="url(#clip-path-2)">
        <path id="Trazado_599486-2" data-name="Trazado 599486" d="M56.055,44.476c-7.528-2.868-12.515-8.5-16.9-14.864-.387,1.065-.757,2.035-1.081,3.02-.055.167.073.4.142.6.466,1.325.919,2.655,1.421,3.966a2.669,2.669,0,0,0,.666,1c2.39,2.152,4.782,4.3,7.222,6.4a1.935,1.935,0,0,1,.716,2.026q-.975,5.591-1.865,11.2a1.608,1.608,0,0,0,.264.978q3.482,5.754,7,11.486c.157.257.3.518.481.818l-1.458.784c-.9-1.466-1.763-2.878-2.628-4.291-1.646-2.691-3.262-5.4-4.956-8.061a2.916,2.916,0,0,1-.394-2.255c.626-3.563,1.211-7.134,1.789-10.706a.918.918,0,0,0-.175-.718c-1.967-1.792-3.96-3.557-5.949-5.325-.031-.028-.1-.017-.226-.036,0,1.546.064,3.085-.012,4.617a53.769,53.769,0,0,1-3.024,14.3c-.106.319-.557.748-.823.731-.291-.018-.694-.447-.806-.778a53.676,53.676,0,0,1-2.818-12.155c-.211-2.221-.259-4.458-.38-6.675a1.306,1.306,0,0,0-.266.172c-1.822,1.623-3.654,3.235-5.441,4.9a1.371,1.371,0,0,0-.347,1.058c.6,3.736,1.256,7.463,1.872,11.2a1.5,1.5,0,0,1-.142.948q-3.957,6.484-7.959,12.939c-.013.021-.045.031-.129.085l-1.3-.809c.165-.287.305-.542.457-.791,2.319-3.8,4.65-7.6,6.946-11.417a2.129,2.129,0,0,0,.311-1.3q-.872-5.609-1.86-11.2a1.524,1.524,0,0,1,.548-1.6c2.4-2.1,4.792-4.208,7.144-6.36a4.269,4.269,0,0,0,.906-1.5c.493-1.167.937-2.355,1.353-3.552a1.842,1.842,0,0,0,.048-1.053c-.258-.886-.6-1.747-.938-2.7-4.384,6.376-9.375,12.039-16.931,14.917.285.842.558,1.668.844,2.49.842,2.426,1.683,4.852,2.54,7.272a1.331,1.331,0,0,1-.165,1.39q-3.816,4.981-7.6,9.984c-.066.086-.149.159-.272.289l-1.276-1.01,5.347-7.039c.7-.926,1.426-1.84,2.1-2.789a1.033,1.033,0,0,0,.143-.806c-1.033-3-2.1-5.992-3.158-8.985a3.427,3.427,0,0,0-.147-.31,19.033,19.033,0,0,1-11.464-.378A22.91,22.91,0,0,1,.759,43.406c-.912-.462-.969-.819-.348-1.611a42.237,42.237,0,0,1,10.079-9.342,39.561,39.561,0,0,1,18.132-6.414c1.619-.159,3.267-.024,4.9-.024l.192-.253a3.4,3.4,0,0,0-.508-.8q-4.37-3.848-8.777-7.653a1.439,1.439,0,0,1-.539-1.578,12.777,12.777,0,0,0,.052-6.485,5.4,5.4,0,0,0-1.514-2.484C20.343,5.081,18.1,3.589,15.921,2.027c-.266-.19-.551-.356-.871-.561l.778-1.45a39.714,39.714,0,0,1,8.219,5.853,6.876,6.876,0,0,1,1.871,4.926c.043,1.567-.182,3.14-.251,4.712a1.217,1.217,0,0,0,.245.87c2.836,2.481,5.7,4.931,8.745,7.3-.053-.161-.058-.37-.165-.474-1.732-1.681-1.467-3.746.621-5.02a1.063,1.063,0,0,0,.346-.789c.028-2.049.016-4.1.016-6.149v-.86h1.662v2.289c0,1.606-.015,3.213.016,4.819a.984.984,0,0,0,.348.716c2.127,1.347,2.308,3.463.364,5.181l.327.449c2.9-2.493,5.76-4.94,8.588-7.428a1.3,1.3,0,0,0,.259-1.009,16.993,16.993,0,0,1,.085-6.594,6.463,6.463,0,0,1,2-3.375A44.408,44.408,0,0,1,56.917,0l.737,1.409C56.009,2.5,54.408,3.538,52.84,4.622c-.727.5-1.375,1.119-2.085,1.65a5.844,5.844,0,0,0-2.283,5.019,30.833,30.833,0,0,0,.466,4.522,1.347,1.347,0,0,1-.485,1.44c-2.823,2.371-5.627,4.766-8.436,7.154a8.5,8.5,0,0,0-.811.712,1.844,1.844,0,0,0-.238.561,2.241,2.241,0,0,0,.574.2c1.742.1,3.5.085,5.227.278a39.226,39.226,0,0,1,19.092,7.5,42.04,42.04,0,0,1,8.218,7.96c.728.923.686,1.222-.36,1.794A18.448,18.448,0,0,1,58.6,45.175c-.295-.063-.589-.13-.943-.209-.9,2.589-1.714,5.2-2.721,7.732a3.136,3.136,0,0,0,.563,3.615c2.141,2.575,4.089,5.311,6.114,7.982.131.172.249.355.42.6L60.723,65.9c-.18-.2-.352-.365-.5-.553-2.416-3.173-4.819-6.357-7.251-9.519a1.628,1.628,0,0,1-.263-1.744c1.14-3.167,2.217-6.357,3.341-9.608" transform="translate(0)" fill="#fff"/>
      </g>
    </g>
  </g>
</svg>
