<svg xmlns="http://www.w3.org/2000/svg" xmlns:xlink="http://www.w3.org/1999/xlink" width="113" height="97" viewBox="0 0 113 97">
  <defs>
    <clipPath id="clip-path">
      <path id="Trazado_165450" data-name="Trazado 165450" d="M1.735,0A1.694,1.694,0,0,0,0,1.651,1.7,1.7,0,0,0,1.736,3.3,1.694,1.694,0,0,0,3.471,1.651,1.7,1.7,0,0,0,1.735,0Z" fill="#ade65f"/>
    </clipPath>
    <clipPath id="clip-path-10">
      <rect id="Rectángulo_46611" data-name="Rectángulo 46611" width="59.762" height="59.829" fill="#fff"/>
    </clipPath>
  </defs>
  <g id="Grupo_160794" data-name="Grupo 160794" transform="translate(-71 9176)">
    <g id="Grupo_160668" data-name="Grupo 160668" transform="translate(0 91)">
      <g id="Grupo_160540" data-name="Grupo 160540" transform="translate(-322 -11630)">
        <rect id="Rectángulo_46591" data-name="Rectángulo 46591" width="97" height="97" rx="15" transform="translate(401 2363)" fill="#54397c"/>
        <path id="Unión_8" data-name="Unión 8" d="M2534.676,11735.576l-9.773-10.074a8.183,8.183,0,0,1,.2-11.6l0,0a8.267,8.267,0,0,1,11.655.2l9.771,10.076a8.178,8.178,0,0,1-.2,11.6l0,0a8.264,8.264,0,0,1-11.655-.2Z" transform="translate(-2042.85 -9284.85)" fill="#4462fe"/>
        <g id="Grupo_160533" data-name="Grupo 160533" transform="translate(393 2371.127)">
          <g id="Group_881458" data-name="Group 881458" transform="translate(0 3.471) rotate(-90)">
            <g id="Grupo_108454" data-name="Grupo 108454" transform="translate(0)">
              <path id="Trazado_165449" data-name="Trazado 165449" d="M1.735,0A1.694,1.694,0,0,0,0,1.651,1.7,1.7,0,0,0,1.736,3.3,1.694,1.694,0,0,0,3.471,1.651,1.7,1.7,0,0,0,1.735,0Z" transform="translate(0)" fill="#ade65f"/>
              <g id="Grupo_108453" data-name="Grupo 108453" clip-path="url(#clip-path)">
                <g id="Group_881457" data-name="Group 881457" transform="translate(-0.001 0.001)">
                  <rect id="Rectangle_298911" data-name="Rectangle 298911" width="3.471" height="3.301" fill="#ade65f"/>
                </g>
              </g>
            </g>
          </g>
          <g id="Group_881458-2" data-name="Group 881458" transform="translate(10.73 3.471) rotate(-90)">
            <g id="Grupo_108454-2" data-name="Grupo 108454" transform="translate(0)">
              <path id="Trazado_165449-2" data-name="Trazado 165449" d="M1.735,0A1.694,1.694,0,0,0,0,1.651,1.7,1.7,0,0,0,1.736,3.3,1.694,1.694,0,0,0,3.471,1.651,1.7,1.7,0,0,0,1.735,0Z" transform="translate(0)" fill="#ade65f"/>
              <g id="Grupo_108453-2" data-name="Grupo 108453" clip-path="url(#clip-path)">
                <g id="Group_881457-2" data-name="Group 881457" transform="translate(-0.001 0.001)">
                  <rect id="Rectangle_298911-2" data-name="Rectangle 298911" width="3.471" height="3.301" fill="#ade65f"/>
                </g>
              </g>
            </g>
          </g>
          <g id="Group_881458-3" data-name="Group 881458" transform="translate(10.73 11.433) rotate(-90)">
            <g id="Grupo_108454-3" data-name="Grupo 108454" transform="translate(0)">
              <path id="Trazado_165449-3" data-name="Trazado 165449" d="M1.735,0A1.694,1.694,0,0,0,0,1.651,1.7,1.7,0,0,0,1.736,3.3,1.694,1.694,0,0,0,3.471,1.651,1.7,1.7,0,0,0,1.735,0Z" transform="translate(0)" fill="#ade65f"/>
              <g id="Grupo_108453-3" data-name="Grupo 108453" clip-path="url(#clip-path)">
                <g id="Group_881457-3" data-name="Group 881457" transform="translate(-0.001 0.001)">
                  <rect id="Rectangle_298911-3" data-name="Rectangle 298911" width="3.471" height="3.301" fill="#ade65f"/>
                </g>
              </g>
            </g>
          </g>
          <g id="Group_881458-4" data-name="Group 881458" transform="translate(0 11.433) rotate(-90)">
            <g id="Grupo_108454-4" data-name="Grupo 108454" transform="translate(0)">
              <path id="Trazado_165449-4" data-name="Trazado 165449" d="M1.735,0A1.694,1.694,0,0,0,0,1.651,1.7,1.7,0,0,0,1.736,3.3,1.694,1.694,0,0,0,3.471,1.651,1.7,1.7,0,0,0,1.735,0Z" transform="translate(0)" fill="#ade65f"/>
              <g id="Grupo_108453-4" data-name="Grupo 108453" clip-path="url(#clip-path)">
                <g id="Group_881457-4" data-name="Group 881457" transform="translate(-0.001 0.001)">
                  <rect id="Rectangle_298911-4" data-name="Rectangle 298911" width="3.471" height="3.301" fill="#ade65f"/>
                </g>
              </g>
            </g>
          </g>
          <g id="Group_881458-5" data-name="Group 881458" transform="translate(10.73 19.395) rotate(-90)">
            <g id="Grupo_108454-5" data-name="Grupo 108454" transform="translate(0)">
              <path id="Trazado_165449-5" data-name="Trazado 165449" d="M1.735,0A1.694,1.694,0,0,0,0,1.651,1.7,1.7,0,0,0,1.736,3.3,1.694,1.694,0,0,0,3.471,1.651,1.7,1.7,0,0,0,1.735,0Z" transform="translate(0)" fill="#ade65f"/>
              <g id="Grupo_108453-5" data-name="Grupo 108453" clip-path="url(#clip-path)">
                <g id="Group_881457-5" data-name="Group 881457" transform="translate(-0.001 0.001)">
                  <rect id="Rectangle_298911-5" data-name="Rectangle 298911" width="3.471" height="3.301" fill="#ade65f"/>
                </g>
              </g>
            </g>
          </g>
          <g id="Group_881458-6" data-name="Group 881458" transform="translate(0 19.395) rotate(-90)">
            <g id="Grupo_108454-6" data-name="Grupo 108454" transform="translate(0)">
              <path id="Trazado_165449-6" data-name="Trazado 165449" d="M1.735,0A1.694,1.694,0,0,0,0,1.651,1.7,1.7,0,0,0,1.736,3.3,1.694,1.694,0,0,0,3.471,1.651,1.7,1.7,0,0,0,1.735,0Z" transform="translate(0)" fill="#ade65f"/>
              <g id="Grupo_108453-6" data-name="Grupo 108453" clip-path="url(#clip-path)">
                <g id="Group_881457-6" data-name="Group 881457" transform="translate(-0.001 0.001)">
                  <rect id="Rectangle_298911-6" data-name="Rectangle 298911" width="3.471" height="3.301" fill="#ade65f"/>
                </g>
              </g>
            </g>
          </g>
          <g id="Group_881458-7" data-name="Group 881458" transform="translate(21.302 3.471) rotate(-90)">
            <g id="Grupo_108454-7" data-name="Grupo 108454" transform="translate(0)">
              <path id="Trazado_165449-7" data-name="Trazado 165449" d="M1.735,0A1.694,1.694,0,0,0,0,1.651,1.7,1.7,0,0,0,1.736,3.3,1.694,1.694,0,0,0,3.471,1.651,1.7,1.7,0,0,0,1.735,0Z" transform="translate(0)" fill="#ade65f"/>
              <g id="Grupo_108453-7" data-name="Grupo 108453" clip-path="url(#clip-path)">
                <g id="Group_881457-7" data-name="Group 881457" transform="translate(-0.001 0.001)">
                  <rect id="Rectangle_298911-7" data-name="Rectangle 298911" width="3.471" height="3.301" fill="#ade65f"/>
                </g>
              </g>
            </g>
          </g>
          <g id="Group_881458-8" data-name="Group 881458" transform="translate(21.302 11.433) rotate(-90)">
            <g id="Grupo_108454-8" data-name="Grupo 108454" transform="translate(0)">
              <path id="Trazado_165449-8" data-name="Trazado 165449" d="M1.735,0A1.694,1.694,0,0,0,0,1.651,1.7,1.7,0,0,0,1.736,3.3,1.694,1.694,0,0,0,3.471,1.651,1.7,1.7,0,0,0,1.735,0Z" transform="translate(0)" fill="#ade65f"/>
              <g id="Grupo_108453-8" data-name="Grupo 108453" clip-path="url(#clip-path)">
                <g id="Group_881457-8" data-name="Group 881457" transform="translate(-0.001 0.001)">
                  <rect id="Rectangle_298911-8" data-name="Rectangle 298911" width="3.471" height="3.301" fill="#ade65f"/>
                </g>
              </g>
            </g>
          </g>
          <g id="Group_881458-9" data-name="Group 881458" transform="translate(21.302 19.395) rotate(-90)">
            <g id="Grupo_108454-9" data-name="Grupo 108454" transform="translate(0)">
              <path id="Trazado_165449-9" data-name="Trazado 165449" d="M1.735,0A1.694,1.694,0,0,0,0,1.651,1.7,1.7,0,0,0,1.736,3.3,1.694,1.694,0,0,0,3.471,1.651,1.7,1.7,0,0,0,1.735,0Z" transform="translate(0)" fill="#ade65f"/>
              <g id="Grupo_108453-9" data-name="Grupo 108453" clip-path="url(#clip-path)">
                <g id="Group_881457-9" data-name="Group 881457" transform="translate(-0.001 0.001)">
                  <rect id="Rectangle_298911-9" data-name="Rectangle 298911" width="3.471" height="3.301" fill="#ade65f"/>
                </g>
              </g>
            </g>
          </g>
        </g>
      </g>
      <g id="Grupo_160554" data-name="Grupo 160554" transform="translate(96 -9250)">
        <g id="Grupo_160553" data-name="Grupo 160553" transform="translate(2 1.896)" clip-path="url(#clip-path-10)">
          <path id="Trazado_600781" data-name="Trazado 600781" d="M0,128.684c.624-1.5,1.142-3.057,1.889-4.494A30.029,30.029,0,0,1,16,110.839a29.991,29.991,0,0,1,15.248-3.147c11.687.822,20.765,6.049,26.624,16.384a26.09,26.09,0,0,1,1.759,4.238,2.848,2.848,0,0,1,0,1.687,27.832,27.832,0,0,1-9.561,13.571,32.786,32.786,0,0,1-15.927,6.814c-.708.1-1.421.178-2.131.267H27.81a2.947,2.947,0,0,0-.448-.105,31.728,31.728,0,0,1-11.611-3.2A30.066,30.066,0,0,1,1.915,134.169c-.76-1.453-1.283-3.03-1.915-4.549v-.935m8.361-7.809c-.116.154-.2.281-.3.4a23.036,23.036,0,0,0-4.269,7.377,1.615,1.615,0,0,0-.008.991A24.346,24.346,0,0,0,12.375,141.1a28.621,28.621,0,0,0,35.6-.4,24.544,24.544,0,0,0,8.072-11.076,1.536,1.536,0,0,0,0-.937,20.966,20.966,0,0,0-2.711-5.334c-.586-.835-1.226-1.633-1.867-2.482a33.265,33.265,0,0,1-7.958,5.186,13.968,13.968,0,0,1-12.531,16.97,13.34,13.34,0,0,1-10.528-3.7,13.788,13.788,0,0,1-4.147-13.286,33.178,33.178,0,0,1-7.947-5.17m40.512-2.49a28.486,28.486,0,0,0-37.884.037,28.843,28.843,0,0,0,37.884-.037M19.7,127.414a10.367,10.367,0,0,0,16.83,9.738,10.12,10.12,0,0,0,3.557-9.717c-.841.225-1.686.434-2.517.692a.619.619,0,0,0-.287.457c-.065.616-.01,1.252-.129,1.855a7.035,7.035,0,0,1-5.264,5.8A7.024,7.024,0,0,1,24.379,134a7.165,7.165,0,0,1-1.837-5.317.689.689,0,0,0-.295-.558c-.825-.27-1.672-.475-2.549-.714m6.423,1.518a3.621,3.621,0,0,0,1.606,3.367,3.789,3.789,0,0,0,4.322.037,3.645,3.645,0,0,0,1.659-3.4Z" transform="translate(0 -90.823)" fill="#fff"/>
          <path id="Trazado_600782" data-name="Trazado 600782" d="M234.248,32.172c1.129,0,2.119,0,3.11,0a1.753,1.753,0,1,1-.013,3.5c-2.414,0-4.829-.007-7.243.006a1.716,1.716,0,0,1-1.758-1.09,1.733,1.733,0,0,1,.473-2.019c1.423-1.412,2.843-2.828,4.4-4.374h-1.378c-.642,0-1.285.012-1.927,0a1.749,1.749,0,0,1,.007-3.5c2.473-.013,4.945,0,7.418-.009a1.705,1.705,0,0,1,1.721,1.059,1.723,1.723,0,0,1-.44,2.027q-1.939,1.943-3.88,3.884c-.134.134-.262.275-.487.512" transform="translate(-192.574 -20.835)" fill="#fff"/>
          <path id="Trazado_600783" data-name="Trazado 600783" d="M324.089,5.729c.442,0,.885-.01,1.327,0a1.749,1.749,0,0,1-.009,3.5c-1.867.015-3.734,0-5.6.007a1.678,1.678,0,0,1-1.666-1.048,1.638,1.638,0,0,1,.353-1.937c.871-.859,1.782-1.678,2.675-2.513l-.126-.23c-.412,0-.824,0-1.236,0a1.73,1.73,0,0,1-1.81-1.783A1.723,1.723,0,0,1,319.808,0c1.828-.006,3.656,0,5.485,0a1.68,1.68,0,0,1,1.668,1.045,1.637,1.637,0,0,1-.349,1.937c-.87.861-1.781,1.679-2.675,2.515l.152.231" transform="translate(-268.333 0)" fill="#fff"/>
        </g>
      </g>
    </g>
  </g>
</svg>
