<svg xmlns="http://www.w3.org/2000/svg" xmlns:xlink="http://www.w3.org/1999/xlink" width="113" height="97" viewBox="0 0 113 97">
  <defs>
    <clipPath id="clip-path">
      <path id="Trazado_165450" data-name="Trazado 165450" d="M1.735,0A1.694,1.694,0,0,0,0,1.651,1.7,1.7,0,0,0,1.736,3.3,1.694,1.694,0,0,0,3.471,1.651,1.7,1.7,0,0,0,1.735,0Z" fill="#ade65f"/>
    </clipPath>
    <clipPath id="clip-path-10">
      <rect id="Rectángulo_46612" data-name="Rectángulo 46612" width="69.915" height="67.693" fill="#fff"/>
    </clipPath>
  </defs>
  <g id="Grupo_160795" data-name="Grupo 160795" transform="translate(-425 9176)">
    <g id="Grupo_160669" data-name="Grupo 160669" transform="translate(0 91)">
      <g id="Grupo_160543" data-name="Grupo 160543" transform="translate(32 -11630)">
        <rect id="Rectángulo_46591" data-name="Rectángulo 46591" width="97" height="97" rx="15" transform="translate(401 2363)" fill="#54397c"/>
        <path id="Unión_8" data-name="Unión 8" d="M2534.676,11735.576l-9.773-10.074a8.183,8.183,0,0,1,.2-11.6l0,0a8.267,8.267,0,0,1,11.655.2l9.771,10.076a8.178,8.178,0,0,1-.2,11.6l0,0a8.264,8.264,0,0,1-11.655-.2Z" transform="translate(-2042.85 -9284.85)" fill="#4462fe"/>
        <g id="Grupo_160533" data-name="Grupo 160533" transform="translate(393 2371.127)">
          <g id="Group_881458" data-name="Group 881458" transform="translate(0 3.471) rotate(-90)">
            <g id="Grupo_108454" data-name="Grupo 108454" transform="translate(0)">
              <path id="Trazado_165449" data-name="Trazado 165449" d="M1.735,0A1.694,1.694,0,0,0,0,1.651,1.7,1.7,0,0,0,1.736,3.3,1.694,1.694,0,0,0,3.471,1.651,1.7,1.7,0,0,0,1.735,0Z" transform="translate(0)" fill="#ade65f"/>
              <g id="Grupo_108453" data-name="Grupo 108453" clip-path="url(#clip-path)">
                <g id="Group_881457" data-name="Group 881457" transform="translate(-0.001 0.001)">
                  <rect id="Rectangle_298911" data-name="Rectangle 298911" width="3.471" height="3.301" fill="#ade65f"/>
                </g>
              </g>
            </g>
          </g>
          <g id="Group_881458-2" data-name="Group 881458" transform="translate(10.73 3.471) rotate(-90)">
            <g id="Grupo_108454-2" data-name="Grupo 108454" transform="translate(0)">
              <path id="Trazado_165449-2" data-name="Trazado 165449" d="M1.735,0A1.694,1.694,0,0,0,0,1.651,1.7,1.7,0,0,0,1.736,3.3,1.694,1.694,0,0,0,3.471,1.651,1.7,1.7,0,0,0,1.735,0Z" transform="translate(0)" fill="#ade65f"/>
              <g id="Grupo_108453-2" data-name="Grupo 108453" clip-path="url(#clip-path)">
                <g id="Group_881457-2" data-name="Group 881457" transform="translate(-0.001 0.001)">
                  <rect id="Rectangle_298911-2" data-name="Rectangle 298911" width="3.471" height="3.301" fill="#ade65f"/>
                </g>
              </g>
            </g>
          </g>
          <g id="Group_881458-3" data-name="Group 881458" transform="translate(10.73 11.433) rotate(-90)">
            <g id="Grupo_108454-3" data-name="Grupo 108454" transform="translate(0)">
              <path id="Trazado_165449-3" data-name="Trazado 165449" d="M1.735,0A1.694,1.694,0,0,0,0,1.651,1.7,1.7,0,0,0,1.736,3.3,1.694,1.694,0,0,0,3.471,1.651,1.7,1.7,0,0,0,1.735,0Z" transform="translate(0)" fill="#ade65f"/>
              <g id="Grupo_108453-3" data-name="Grupo 108453" clip-path="url(#clip-path)">
                <g id="Group_881457-3" data-name="Group 881457" transform="translate(-0.001 0.001)">
                  <rect id="Rectangle_298911-3" data-name="Rectangle 298911" width="3.471" height="3.301" fill="#ade65f"/>
                </g>
              </g>
            </g>
          </g>
          <g id="Group_881458-4" data-name="Group 881458" transform="translate(0 11.433) rotate(-90)">
            <g id="Grupo_108454-4" data-name="Grupo 108454" transform="translate(0)">
              <path id="Trazado_165449-4" data-name="Trazado 165449" d="M1.735,0A1.694,1.694,0,0,0,0,1.651,1.7,1.7,0,0,0,1.736,3.3,1.694,1.694,0,0,0,3.471,1.651,1.7,1.7,0,0,0,1.735,0Z" transform="translate(0)" fill="#ade65f"/>
              <g id="Grupo_108453-4" data-name="Grupo 108453" clip-path="url(#clip-path)">
                <g id="Group_881457-4" data-name="Group 881457" transform="translate(-0.001 0.001)">
                  <rect id="Rectangle_298911-4" data-name="Rectangle 298911" width="3.471" height="3.301" fill="#ade65f"/>
                </g>
              </g>
            </g>
          </g>
          <g id="Group_881458-5" data-name="Group 881458" transform="translate(10.73 19.395) rotate(-90)">
            <g id="Grupo_108454-5" data-name="Grupo 108454" transform="translate(0)">
              <path id="Trazado_165449-5" data-name="Trazado 165449" d="M1.735,0A1.694,1.694,0,0,0,0,1.651,1.7,1.7,0,0,0,1.736,3.3,1.694,1.694,0,0,0,3.471,1.651,1.7,1.7,0,0,0,1.735,0Z" transform="translate(0)" fill="#ade65f"/>
              <g id="Grupo_108453-5" data-name="Grupo 108453" clip-path="url(#clip-path)">
                <g id="Group_881457-5" data-name="Group 881457" transform="translate(-0.001 0.001)">
                  <rect id="Rectangle_298911-5" data-name="Rectangle 298911" width="3.471" height="3.301" fill="#ade65f"/>
                </g>
              </g>
            </g>
          </g>
          <g id="Group_881458-6" data-name="Group 881458" transform="translate(0 19.395) rotate(-90)">
            <g id="Grupo_108454-6" data-name="Grupo 108454" transform="translate(0)">
              <path id="Trazado_165449-6" data-name="Trazado 165449" d="M1.735,0A1.694,1.694,0,0,0,0,1.651,1.7,1.7,0,0,0,1.736,3.3,1.694,1.694,0,0,0,3.471,1.651,1.7,1.7,0,0,0,1.735,0Z" transform="translate(0)" fill="#ade65f"/>
              <g id="Grupo_108453-6" data-name="Grupo 108453" clip-path="url(#clip-path)">
                <g id="Group_881457-6" data-name="Group 881457" transform="translate(-0.001 0.001)">
                  <rect id="Rectangle_298911-6" data-name="Rectangle 298911" width="3.471" height="3.301" fill="#ade65f"/>
                </g>
              </g>
            </g>
          </g>
          <g id="Group_881458-7" data-name="Group 881458" transform="translate(21.302 3.471) rotate(-90)">
            <g id="Grupo_108454-7" data-name="Grupo 108454" transform="translate(0)">
              <path id="Trazado_165449-7" data-name="Trazado 165449" d="M1.735,0A1.694,1.694,0,0,0,0,1.651,1.7,1.7,0,0,0,1.736,3.3,1.694,1.694,0,0,0,3.471,1.651,1.7,1.7,0,0,0,1.735,0Z" transform="translate(0)" fill="#ade65f"/>
              <g id="Grupo_108453-7" data-name="Grupo 108453" clip-path="url(#clip-path)">
                <g id="Group_881457-7" data-name="Group 881457" transform="translate(-0.001 0.001)">
                  <rect id="Rectangle_298911-7" data-name="Rectangle 298911" width="3.471" height="3.301" fill="#ade65f"/>
                </g>
              </g>
            </g>
          </g>
          <g id="Group_881458-8" data-name="Group 881458" transform="translate(21.302 11.433) rotate(-90)">
            <g id="Grupo_108454-8" data-name="Grupo 108454" transform="translate(0)">
              <path id="Trazado_165449-8" data-name="Trazado 165449" d="M1.735,0A1.694,1.694,0,0,0,0,1.651,1.7,1.7,0,0,0,1.736,3.3,1.694,1.694,0,0,0,3.471,1.651,1.7,1.7,0,0,0,1.735,0Z" transform="translate(0)" fill="#ade65f"/>
              <g id="Grupo_108453-8" data-name="Grupo 108453" clip-path="url(#clip-path)">
                <g id="Group_881457-8" data-name="Group 881457" transform="translate(-0.001 0.001)">
                  <rect id="Rectangle_298911-8" data-name="Rectangle 298911" width="3.471" height="3.301" fill="#ade65f"/>
                </g>
              </g>
            </g>
          </g>
          <g id="Group_881458-9" data-name="Group 881458" transform="translate(21.302 19.395) rotate(-90)">
            <g id="Grupo_108454-9" data-name="Grupo 108454" transform="translate(0)">
              <path id="Trazado_165449-9" data-name="Trazado 165449" d="M1.735,0A1.694,1.694,0,0,0,0,1.651,1.7,1.7,0,0,0,1.736,3.3,1.694,1.694,0,0,0,3.471,1.651,1.7,1.7,0,0,0,1.735,0Z" transform="translate(0)" fill="#ade65f"/>
              <g id="Grupo_108453-9" data-name="Grupo 108453" clip-path="url(#clip-path)">
                <g id="Group_881457-9" data-name="Group 881457" transform="translate(-0.001 0.001)">
                  <rect id="Rectangle_298911-9" data-name="Rectangle 298911" width="3.471" height="3.301" fill="#ade65f"/>
                </g>
              </g>
            </g>
          </g>
        </g>
      </g>
      <g id="Grupo_160556" data-name="Grupo 160556" transform="translate(449 -9250)">
        <g id="Grupo_160555" data-name="Grupo 160555" clip-path="url(#clip-path-10)">
          <path id="Trazado_600784" data-name="Trazado 600784" d="M0,52.641C.348,51.4.614,50.132,1.063,48.93A12.1,12.1,0,0,1,4.6,43.993a1.225,1.225,0,0,0,.463-1.043Q5.047,25.821,5.056,8.692A8.455,8.455,0,0,1,21.83,6.982a12.952,12.952,0,0,1,.138,1.9q.012,16.993,0,33.985a1.429,1.429,0,0,0,.5,1.169c4.03,3.783,5.524,8.407,4.034,13.737a12.913,12.913,0,0,1-10.7,9.693A13.473,13.473,0,0,1,.13,56.022,1.981,1.981,0,0,0,0,55.644v-3M8.46,37.207v.73c0,2.025-.027,4.05.013,6.075a2.311,2.311,0,0,1-.986,2.035,9.8,9.8,0,0,0-3.95,9.642,10.062,10.062,0,0,0,11.558,8.383A9.631,9.631,0,0,0,23.3,56.508c1.036-4.244-.355-7.791-3.8-10.491a2.225,2.225,0,0,1-.945-1.91q.024-17.576.005-35.152a8.415,8.415,0,0,0-.127-1.489A4.954,4.954,0,0,0,13.6,3.457,4.761,4.761,0,0,0,8.654,7.3,52.392,52.392,0,0,0,8.6,13.529c.369,0,.8-.005,1.226,0a21.345,21.345,0,0,1,2.248.056,1.66,1.66,0,0,1,1.117,2.649,1.9,1.9,0,0,1-1.683.721c-.994,0-1.988,0-3,0V20.29c1.052,0,2.051,0,3.051,0a1.718,1.718,0,1,1-.012,3.4c-1.015,0-2.03,0-3.053,0v3.332c.487,0,.937-.008,1.386,0a21.913,21.913,0,0,1,2.246.077,1.667,1.667,0,0,1-.064,3.294c-.767.073-1.544.043-2.317.054-.419.006-.838,0-1.247,0V33.8c1.061,0,2.081,0,3.1,0a1.714,1.714,0,1,1-.022,3.4c-1.018,0-2.035,0-3.12,0" transform="translate(0 0)" fill="#fff"/>
          <path id="Trazado_600785" data-name="Trazado 600785" d="M214.318,26.547c0-1.23,0-2.292,0-3.354a1.741,1.741,0,0,1,.91-1.7,1.7,1.7,0,0,1,2.5,1.541c.052.839.013,1.683.015,2.525,0,.271,0,.543,0,.982.793-.529,1.451-1.042,2.178-1.425a2.879,2.879,0,0,1,1.521-.378,1.484,1.484,0,0,1,1.294,1.315,1.6,1.6,0,0,1-.706,1.719c-1.272.877-2.574,1.711-3.842,2.593a1.012,1.012,0,0,0-.425.675c-.028,2.957-.018,5.915-.015,8.872a2.234,2.234,0,0,0,.05.308c.216-.109.4-.188.567-.286,2.4-1.385,4.794-2.78,7.2-4.151a.945.945,0,0,0,.562-.9c.055-1.5.163-3,.27-4.493a1.681,1.681,0,0,1,1.8-1.65,1.627,1.627,0,0,1,1.591,1.757c-.019.93-.092,1.858-.147,2.911.842-.484,1.6-.922,2.362-1.355a8.85,8.85,0,0,1,.9-.484,1.664,1.664,0,0,1,2.128.692,1.636,1.636,0,0,1-.487,2.23c-.756.5-1.562.925-2.344,1.386-.248.146-.491.3-.824.5.861.433,1.65.818,2.428,1.225a1.675,1.675,0,0,1,1.042,1.813,1.546,1.546,0,0,1-1.228,1.381,2.741,2.741,0,0,1-1.428-.215c-1.345-.6-2.648-1.3-3.982-1.933a.921.921,0,0,0-.727-.03c-2.587,1.468-5.158,2.964-7.732,4.456a2.173,2.173,0,0,0-.246.206c2.119,1.225,4.272,2.316,6.25,3.666a3.239,3.239,0,0,0,4.156.1,16.263,16.263,0,0,1,2.366-1.2,1.713,1.713,0,1,1,1.52,3.055c-.764.4-1.543.767-2.447,1.215.732.422,1.382.8,2.031,1.172.353.205.714.4,1.054.626a1.693,1.693,0,0,1-1.7,2.926c-1-.534-1.966-1.115-3.022-1.718,0,.472-.011.865,0,1.257.019.545.08,1.089.084,1.634a1.7,1.7,0,0,1-1.6,1.782,1.746,1.746,0,0,1-1.793-1.684c-.106-1.542-.179-3.087-.3-4.628a.915.915,0,0,0-.353-.638c-2.564-1.509-5.144-2.99-7.723-4.475a.947.947,0,0,0-.243-.048c-.013.215-.035.411-.035.606,0,2.776.008,5.551-.011,8.327a.962.962,0,0,0,.5.938c1.226.781,2.425,1.606,3.637,2.41a1.723,1.723,0,0,1,.9,1.711,1.691,1.691,0,0,1-2.63,1.221c-.77-.469-1.51-.989-2.391-1.571,0,1,.006,1.869,0,2.741a6.491,6.491,0,0,1-.065,1.086,1.625,1.625,0,0,1-1.8,1.4,1.575,1.575,0,0,1-1.523-1.545c-.049-1.176-.012-2.355-.012-3.705-.764.5-1.389.928-2.028,1.329a3.591,3.591,0,0,1-.959.492,1.629,1.629,0,0,1-1.926-.914,1.683,1.683,0,0,1,.625-2.156c1.253-.864,2.54-1.679,3.788-2.551a1.093,1.093,0,0,0,.455-.733c.031-2.934.02-5.869.018-8.8a2.492,2.492,0,0,0-.049-.32c-.218.1-.4.177-.566.273-2.4,1.384-4.791,2.784-7.2,4.147a1.067,1.067,0,0,0-.6,1.021c-.062,1.5-.164,3-.273,4.493a1.718,1.718,0,0,1-1.737,1.586,1.688,1.688,0,0,1-1.647-1.67c.007-.967.1-1.934.155-3.038-1.075.616-2.025,1.179-2.992,1.709a1.7,1.7,0,1,1-1.7-2.945c.969-.582,1.957-1.134,3.011-1.743-.863-.426-1.638-.8-2.406-1.19a1.716,1.716,0,1,1,1.532-3.044c1.326.646,2.639,1.317,3.972,1.948a.949.949,0,0,0,.743.05c2.665-1.507,5.313-3.045,8.015-4.6-.176-.128-.293-.23-.425-.307-2.478-1.431-4.962-2.853-7.432-4.3a.842.842,0,0,0-.927-.015c-1.313.672-2.639,1.318-3.966,1.962a1.713,1.713,0,1,1-1.514-3.043c.763-.385,1.527-.767,2.4-1.2-1.062-.617-2.021-1.162-2.968-1.729a1.7,1.7,0,1,1,1.593-3c.843.444,1.656.946,2.484,1.419.154.088.314.164.58.3-.03-.628-.053-1.16-.081-1.692-.023-.431-.078-.863-.071-1.293a1.7,1.7,0,0,1,3.389-.116c.11,1.5.209,2.994.274,4.493a1.07,1.07,0,0,0,.593,1.029c2.413,1.361,4.8,2.759,7.2,4.143.169.1.347.177.587.3.016-.27.037-.467.037-.663,0-2.776-.009-5.551.012-8.327a.968.968,0,0,0-.509-.934c-1.28-.824-2.542-1.677-3.8-2.534a1.609,1.609,0,0,1-.713-1.719,1.447,1.447,0,0,1,1.222-1.3,2.626,2.626,0,0,1,1.467.283,27.676,27.676,0,0,1,2.324,1.506" transform="translate(-165.358 -17.881)" fill="#fff"/>
        </g>
      </g>
    </g>
  </g>
</svg>
