<svg xmlns="http://www.w3.org/2000/svg" xmlns:xlink="http://www.w3.org/1999/xlink" width="113" height="97" viewBox="0 0 113 97">
  <defs>
    <clipPath id="clip-path">
      <path id="Trazado_165450" data-name="Trazado 165450" d="M1.735,0A1.694,1.694,0,0,0,0,1.651,1.7,1.7,0,0,0,1.736,3.3,1.694,1.694,0,0,0,3.471,1.651,1.7,1.7,0,0,0,1.735,0Z" fill="#ade65f"/>
    </clipPath>
    <clipPath id="clip-path-10">
      <rect id="Rectángulo_46613" data-name="Rectángulo 46613" width="69.716" height="69.695" fill="#fff"/>
    </clipPath>
  </defs>
  <g id="Grupo_160796" data-name="Grupo 160796" transform="translate(-792 9176)">
    <g id="Grupo_160670" data-name="Grupo 160670" transform="translate(0 91)">
      <g id="Grupo_160542" data-name="Grupo 160542" transform="translate(399 -11630)">
        <rect id="Rectángulo_46591" data-name="Rectángulo 46591" width="97" height="97" rx="15" transform="translate(401 2363)" fill="#54397c"/>
        <path id="Unión_8" data-name="Unión 8" d="M2534.676,11735.576l-9.773-10.074a8.183,8.183,0,0,1,.2-11.6l0,0a8.267,8.267,0,0,1,11.655.2l9.771,10.076a8.178,8.178,0,0,1-.2,11.6l0,0a8.264,8.264,0,0,1-11.655-.2Z" transform="translate(-2042.85 -9284.85)" fill="#4462fe"/>
        <g id="Grupo_160533" data-name="Grupo 160533" transform="translate(393 2371.127)">
          <g id="Group_881458" data-name="Group 881458" transform="translate(0 3.471) rotate(-90)">
            <g id="Grupo_108454" data-name="Grupo 108454" transform="translate(0)">
              <path id="Trazado_165449" data-name="Trazado 165449" d="M1.735,0A1.694,1.694,0,0,0,0,1.651,1.7,1.7,0,0,0,1.736,3.3,1.694,1.694,0,0,0,3.471,1.651,1.7,1.7,0,0,0,1.735,0Z" transform="translate(0)" fill="#ade65f"/>
              <g id="Grupo_108453" data-name="Grupo 108453" clip-path="url(#clip-path)">
                <g id="Group_881457" data-name="Group 881457" transform="translate(-0.001 0.001)">
                  <rect id="Rectangle_298911" data-name="Rectangle 298911" width="3.471" height="3.301" fill="#ade65f"/>
                </g>
              </g>
            </g>
          </g>
          <g id="Group_881458-2" data-name="Group 881458" transform="translate(10.73 3.471) rotate(-90)">
            <g id="Grupo_108454-2" data-name="Grupo 108454" transform="translate(0)">
              <path id="Trazado_165449-2" data-name="Trazado 165449" d="M1.735,0A1.694,1.694,0,0,0,0,1.651,1.7,1.7,0,0,0,1.736,3.3,1.694,1.694,0,0,0,3.471,1.651,1.7,1.7,0,0,0,1.735,0Z" transform="translate(0)" fill="#ade65f"/>
              <g id="Grupo_108453-2" data-name="Grupo 108453" clip-path="url(#clip-path)">
                <g id="Group_881457-2" data-name="Group 881457" transform="translate(-0.001 0.001)">
                  <rect id="Rectangle_298911-2" data-name="Rectangle 298911" width="3.471" height="3.301" fill="#ade65f"/>
                </g>
              </g>
            </g>
          </g>
          <g id="Group_881458-3" data-name="Group 881458" transform="translate(10.73 11.433) rotate(-90)">
            <g id="Grupo_108454-3" data-name="Grupo 108454" transform="translate(0)">
              <path id="Trazado_165449-3" data-name="Trazado 165449" d="M1.735,0A1.694,1.694,0,0,0,0,1.651,1.7,1.7,0,0,0,1.736,3.3,1.694,1.694,0,0,0,3.471,1.651,1.7,1.7,0,0,0,1.735,0Z" transform="translate(0)" fill="#ade65f"/>
              <g id="Grupo_108453-3" data-name="Grupo 108453" clip-path="url(#clip-path)">
                <g id="Group_881457-3" data-name="Group 881457" transform="translate(-0.001 0.001)">
                  <rect id="Rectangle_298911-3" data-name="Rectangle 298911" width="3.471" height="3.301" fill="#ade65f"/>
                </g>
              </g>
            </g>
          </g>
          <g id="Group_881458-4" data-name="Group 881458" transform="translate(0 11.433) rotate(-90)">
            <g id="Grupo_108454-4" data-name="Grupo 108454" transform="translate(0)">
              <path id="Trazado_165449-4" data-name="Trazado 165449" d="M1.735,0A1.694,1.694,0,0,0,0,1.651,1.7,1.7,0,0,0,1.736,3.3,1.694,1.694,0,0,0,3.471,1.651,1.7,1.7,0,0,0,1.735,0Z" transform="translate(0)" fill="#ade65f"/>
              <g id="Grupo_108453-4" data-name="Grupo 108453" clip-path="url(#clip-path)">
                <g id="Group_881457-4" data-name="Group 881457" transform="translate(-0.001 0.001)">
                  <rect id="Rectangle_298911-4" data-name="Rectangle 298911" width="3.471" height="3.301" fill="#ade65f"/>
                </g>
              </g>
            </g>
          </g>
          <g id="Group_881458-5" data-name="Group 881458" transform="translate(10.73 19.395) rotate(-90)">
            <g id="Grupo_108454-5" data-name="Grupo 108454" transform="translate(0)">
              <path id="Trazado_165449-5" data-name="Trazado 165449" d="M1.735,0A1.694,1.694,0,0,0,0,1.651,1.7,1.7,0,0,0,1.736,3.3,1.694,1.694,0,0,0,3.471,1.651,1.7,1.7,0,0,0,1.735,0Z" transform="translate(0)" fill="#ade65f"/>
              <g id="Grupo_108453-5" data-name="Grupo 108453" clip-path="url(#clip-path)">
                <g id="Group_881457-5" data-name="Group 881457" transform="translate(-0.001 0.001)">
                  <rect id="Rectangle_298911-5" data-name="Rectangle 298911" width="3.471" height="3.301" fill="#ade65f"/>
                </g>
              </g>
            </g>
          </g>
          <g id="Group_881458-6" data-name="Group 881458" transform="translate(0 19.395) rotate(-90)">
            <g id="Grupo_108454-6" data-name="Grupo 108454" transform="translate(0)">
              <path id="Trazado_165449-6" data-name="Trazado 165449" d="M1.735,0A1.694,1.694,0,0,0,0,1.651,1.7,1.7,0,0,0,1.736,3.3,1.694,1.694,0,0,0,3.471,1.651,1.7,1.7,0,0,0,1.735,0Z" transform="translate(0)" fill="#ade65f"/>
              <g id="Grupo_108453-6" data-name="Grupo 108453" clip-path="url(#clip-path)">
                <g id="Group_881457-6" data-name="Group 881457" transform="translate(-0.001 0.001)">
                  <rect id="Rectangle_298911-6" data-name="Rectangle 298911" width="3.471" height="3.301" fill="#ade65f"/>
                </g>
              </g>
            </g>
          </g>
          <g id="Group_881458-7" data-name="Group 881458" transform="translate(21.302 3.471) rotate(-90)">
            <g id="Grupo_108454-7" data-name="Grupo 108454" transform="translate(0)">
              <path id="Trazado_165449-7" data-name="Trazado 165449" d="M1.735,0A1.694,1.694,0,0,0,0,1.651,1.7,1.7,0,0,0,1.736,3.3,1.694,1.694,0,0,0,3.471,1.651,1.7,1.7,0,0,0,1.735,0Z" transform="translate(0)" fill="#ade65f"/>
              <g id="Grupo_108453-7" data-name="Grupo 108453" clip-path="url(#clip-path)">
                <g id="Group_881457-7" data-name="Group 881457" transform="translate(-0.001 0.001)">
                  <rect id="Rectangle_298911-7" data-name="Rectangle 298911" width="3.471" height="3.301" fill="#ade65f"/>
                </g>
              </g>
            </g>
          </g>
          <g id="Group_881458-8" data-name="Group 881458" transform="translate(21.302 11.433) rotate(-90)">
            <g id="Grupo_108454-8" data-name="Grupo 108454" transform="translate(0)">
              <path id="Trazado_165449-8" data-name="Trazado 165449" d="M1.735,0A1.694,1.694,0,0,0,0,1.651,1.7,1.7,0,0,0,1.736,3.3,1.694,1.694,0,0,0,3.471,1.651,1.7,1.7,0,0,0,1.735,0Z" transform="translate(0)" fill="#ade65f"/>
              <g id="Grupo_108453-8" data-name="Grupo 108453" clip-path="url(#clip-path)">
                <g id="Group_881457-8" data-name="Group 881457" transform="translate(-0.001 0.001)">
                  <rect id="Rectangle_298911-8" data-name="Rectangle 298911" width="3.471" height="3.301" fill="#ade65f"/>
                </g>
              </g>
            </g>
          </g>
          <g id="Group_881458-9" data-name="Group 881458" transform="translate(21.302 19.395) rotate(-90)">
            <g id="Grupo_108454-9" data-name="Grupo 108454" transform="translate(0)">
              <path id="Trazado_165449-9" data-name="Trazado 165449" d="M1.735,0A1.694,1.694,0,0,0,0,1.651,1.7,1.7,0,0,0,1.736,3.3,1.694,1.694,0,0,0,3.471,1.651,1.7,1.7,0,0,0,1.735,0Z" transform="translate(0)" fill="#ade65f"/>
              <g id="Grupo_108453-9" data-name="Grupo 108453" clip-path="url(#clip-path)">
                <g id="Group_881457-9" data-name="Group 881457" transform="translate(-0.001 0.001)">
                  <rect id="Rectangle_298911-9" data-name="Rectangle 298911" width="3.471" height="3.301" fill="#ade65f"/>
                </g>
              </g>
            </g>
          </g>
        </g>
      </g>
      <g id="Grupo_160558" data-name="Grupo 160558" transform="translate(816 -9252.003)">
        <g id="Grupo_160557" data-name="Grupo 160557" clip-path="url(#clip-path-10)">
          <path id="Trazado_600786" data-name="Trazado 600786" d="M.967,69.7A1.7,1.7,0,0,1,0,67.922c.041-2.245-.014-4.493.02-6.738.1-6.85,3.276-11.806,9.322-14.949a1.25,1.25,0,0,0,.805-1.08c.458-3.455.982-6.9,1.458-10.354a1.046,1.046,0,0,0-.238-.761A20.62,20.62,0,0,1,5.79,22.56a20.046,20.046,0,0,1,.256-6.9A1.364,1.364,0,0,1,7.615,14.57,1.323,1.323,0,0,1,8.735,16.1c-.08.924-.254,1.841-.3,2.765a17.4,17.4,0,0,0,5.2,13.534.858.858,0,0,0,.516.257,5.049,5.049,0,0,0,3.421-1.088,5.579,5.579,0,0,1-2.633-3.522,5.8,5.8,0,0,1,3.9-7.093,3.154,3.154,0,0,0,1.879-1.26,12.718,12.718,0,0,1,8.923-5.161,23.465,23.465,0,0,1,5.337.245,5.412,5.412,0,0,0,6.124-4.565,5.318,5.318,0,0,0-4.35-5.965c-3.307-.53-6.62-1.05-9.949-1.4A16.316,16.316,0,0,0,15.067,6.217a4.44,4.44,0,0,1-1.082.681,1.306,1.306,0,0,1-1.553-.676,1.341,1.341,0,0,1,.416-1.754A19.576,19.576,0,0,1,19.308.942,20.708,20.708,0,0,1,29.375.355c2.742.471,5.524.736,8.247,1.293a7.49,7.49,0,0,1,5.9,5.51,7.751,7.751,0,0,1-1.812,7.825.924.924,0,0,0-.292,1A17.024,17.024,0,0,1,41.075,26.4a1.4,1.4,0,0,0,.108,1.258c.71,1.289,1.365,2.608,2.082,3.893a2.9,2.9,0,0,1,.161,3.2,2.8,2.8,0,0,1-3.054,1.234c-.161,1.069-.318,2.115-.478,3.16a5.974,5.974,0,0,1-6.687,4.986c-1.77-.249-3.538-.5-5.393-.77-.223,1.483-.448,2.927-.643,4.376-.016.12.145.319.274.395a33.885,33.885,0,0,1,6.281,4.746.709.709,0,0,0,.661.057,6.089,6.089,0,0,1,8.287,1.337,34.656,34.656,0,0,1,6.395,10.355c.344.93.565,1.9.858,2.855A1.744,1.744,0,0,1,49.16,69.7h-.953c-.311-.444-.8-.85-.9-1.338-1.081-5-3.879-9.024-7.169-12.763a3.009,3.009,0,0,0-3.262-.788,3.188,3.188,0,0,0-2.3,2.45,3.5,3.5,0,0,0,.815,3.1,30.749,30.749,0,0,1,4.242,6.933c.5,1.24.408,1.57-.544,2.41h-.953a14.216,14.216,0,0,1-1-1.293c-.27-.438-.387-.974-.665-1.406-1.126-1.75-2.252-3.5-3.446-5.2a6.1,6.1,0,0,1-.89-5.9.74.74,0,0,0-.22-.929,30.434,30.434,0,0,0-9.543-6.252,14.33,14.33,0,0,0-8.082-1.166A13.653,13.653,0,0,0,2.737,61.327c0,2.2-.028,4.4.014,6.6A1.706,1.706,0,0,1,1.784,69.7Zm23.5-23.064a6.416,6.416,0,0,0,.172-.651c.2-1.366.386-2.734.582-4.1a1.477,1.477,0,0,1,1.888-1.427c1.97.29,3.937.6,5.907.891A3.765,3.765,0,0,0,35.591,41c1.127-.667,1.2-.958.436-1.972a2.4,2.4,0,0,1,.887-3.8c.248-.1.514-.161.78-.242.157-.729.133-1.64,1.016-1.845a10.123,10.123,0,0,1,2.227-.033c-.07-.147-.159-.351-.262-.547-.771-1.462-1.524-2.934-2.327-4.378a2.093,2.093,0,0,1-.143-1.937,14.685,14.685,0,0,0,1.074-4.949,13.556,13.556,0,0,0-.456-4.31,9.228,9.228,0,0,1-5.274.34A10.253,10.253,0,0,0,24.8,19.455,27.9,27.9,0,0,0,21.732,22.8a1.737,1.737,0,0,1-1.581.73,2.013,2.013,0,0,0-1.8.781,3.379,3.379,0,0,0-.65,3.375A2.469,2.469,0,0,0,20.069,29.4a1.362,1.362,0,0,1,1.054,2.23A7.564,7.564,0,0,1,16.591,35.1a22.5,22.5,0,0,1-2.271.408l-1.366,9.488a17.528,17.528,0,0,1,11.515,1.64" transform="translate(0 0)" fill="#fff"/>
          <path id="Trazado_600787" data-name="Trazado 600787" d="M267.284,175.958c-.12.36-.226.725-.361,1.079a6.3,6.3,0,0,1-4.011,3.874,1.681,1.681,0,0,0-.8.619,6.063,6.063,0,0,1-6.066,2.961,5.989,5.989,0,0,1-5.2-4.188,1.39,1.39,0,0,0-.868-.908c-2.445-1.008-4.881-2.04-7.327-3.046-.66-.272-1.164-.662-1.162-1.421s.51-1.14,1.171-1.412q3.731-1.536,7.438-3.13a1.386,1.386,0,0,0,.677-.714,6.1,6.1,0,0,1,5.216-4.287,6.038,6.038,0,0,1,6.16,3.02,1.34,1.34,0,0,0,.646.5,6.3,6.3,0,0,1,4.367,4.776,1.046,1.046,0,0,0,.122.235Zm-20.854-1.026c2,.837,3.88,1.624,5.759,2.4a1.593,1.593,0,0,1,1.08,1.348,3.49,3.49,0,0,0,6.732.866,1.674,1.674,0,0,1,1.506-1.155,3.489,3.489,0,0,0,.075-6.913,1.778,1.778,0,0,1-1.61-1.221,3.469,3.469,0,0,0-6.642.645,2.092,2.092,0,0,1-1.5,1.785c-1.764.7-3.507,1.453-5.395,2.242" transform="translate(-197.568 -135.259)" fill="#fff"/>
          <path id="Trazado_600788" data-name="Trazado 600788" d="M46.934,51.388a1.32,1.32,0,0,1-1.364-1.366,1.35,1.35,0,0,1,1.318-1.359,1.412,1.412,0,0,1,1.42,1.349,1.361,1.361,0,0,1-1.374,1.376" transform="translate(-37.282 -39.812)" fill="#fff"/>
        </g>
      </g>
    </g>
  </g>
</svg>
