<svg xmlns="http://www.w3.org/2000/svg" xmlns:xlink="http://www.w3.org/1999/xlink" width="295" height="49.562" viewBox="0 0 295 49.562">
  <defs>
    <clipPath id="clip-path">
      <path id="Trazado_165450" data-name="Trazado 165450" d="M2.1,3.986A2.046,2.046,0,0,1,0,1.993,2.047,2.047,0,0,1,2.1,0a2.047,2.047,0,0,1,2.1,1.992A2.049,2.049,0,0,1,2.1,3.986Z" fill="#ade65f"/>
    </clipPath>
  </defs>
  <g id="Grupo_160813" data-name="Grupo 160813" transform="translate(-810 -4915.438)">
    <g id="Grupo_160805" data-name="Grupo 160805">
      <g id="Grupo_160748" data-name="Grupo 160748">
        <g id="Grupo_160623" data-name="Grupo 160623" transform="translate(0 -45)">
          <g id="Grupo_160425" data-name="Grupo 160425">
            <g id="Rectángulo_46426" data-name="Rectángulo 46426" transform="translate(810 4967)" fill="none" stroke="#6e5594" stroke-width="2">
              <rect width="295" height="43" stroke="none"/>
              <rect x="1" y="1" width="293" height="41" fill="none"/>
            </g>
            <g id="Grupo_160398" data-name="Grupo 160398" transform="translate(1066.591 4960.438)">
              <g id="Group_881458" data-name="Group 881458" transform="translate(25.729 4.192) rotate(-90)">
                <g id="Grupo_108454" data-name="Grupo 108454" transform="translate(0 0)">
                  <path id="Trazado_165449" data-name="Trazado 165449" d="M2.1,3.986A2.046,2.046,0,0,1,0,1.993,2.047,2.047,0,0,1,2.1,0a2.047,2.047,0,0,1,2.1,1.992A2.049,2.049,0,0,1,2.1,3.986Z" fill="#ade65f"/>
                  <g id="Grupo_108453" data-name="Grupo 108453" transform="translate(0)" clip-path="url(#clip-path)">
                    <g id="Group_881457" data-name="Group 881457" transform="translate(-0.001 -0.001)">
                      <rect id="Rectangle_298911" data-name="Rectangle 298911" width="4.193" height="3.986" fill="#ade65f"/>
                    </g>
                  </g>
                </g>
              </g>
              <g id="Group_881458-2" data-name="Group 881458" transform="translate(12.769 4.192) rotate(-90)">
                <g id="Grupo_108454-2" data-name="Grupo 108454" transform="translate(0 0)">
                  <path id="Trazado_165449-2" data-name="Trazado 165449" d="M2.1,3.986A2.046,2.046,0,0,1,0,1.993,2.047,2.047,0,0,1,2.1,0a2.047,2.047,0,0,1,2.1,1.992A2.049,2.049,0,0,1,2.1,3.986Z" fill="#ade65f"/>
                  <g id="Grupo_108453-2" data-name="Grupo 108453" transform="translate(0)" clip-path="url(#clip-path)">
                    <g id="Group_881457-2" data-name="Group 881457" transform="translate(-0.001 -0.001)">
                      <rect id="Rectangle_298911-2" data-name="Rectangle 298911" width="4.193" height="3.986" fill="#ade65f"/>
                    </g>
                  </g>
                </g>
              </g>
              <g id="Group_881458-3" data-name="Group 881458" transform="translate(12.769 14.997) rotate(-90)">
                <g id="Grupo_108454-3" data-name="Grupo 108454" transform="translate(0 0)">
                  <path id="Trazado_165449-3" data-name="Trazado 165449" d="M2.1,3.986A2.046,2.046,0,0,1,0,1.993,2.047,2.047,0,0,1,2.1,0a2.047,2.047,0,0,1,2.1,1.992A2.049,2.049,0,0,1,2.1,3.986Z" fill="#ade65f"/>
                  <g id="Grupo_108453-3" data-name="Grupo 108453" transform="translate(0)" clip-path="url(#clip-path)">
                    <g id="Group_881457-3" data-name="Group 881457" transform="translate(-0.001 -0.001)">
                      <rect id="Rectangle_298911-3" data-name="Rectangle 298911" width="4.193" height="3.986" fill="#ade65f"/>
                    </g>
                  </g>
                </g>
              </g>
              <g id="Group_881458-4" data-name="Group 881458" transform="translate(25.729 14.997) rotate(-90)">
                <g id="Grupo_108454-4" data-name="Grupo 108454" transform="translate(0 0)">
                  <path id="Trazado_165449-4" data-name="Trazado 165449" d="M2.1,3.986A2.046,2.046,0,0,1,0,1.993,2.047,2.047,0,0,1,2.1,0a2.047,2.047,0,0,1,2.1,1.992A2.049,2.049,0,0,1,2.1,3.986Z" fill="#ade65f"/>
                  <g id="Grupo_108453-4" data-name="Grupo 108453" transform="translate(0)" clip-path="url(#clip-path)">
                    <g id="Group_881457-4" data-name="Group 881457" transform="translate(-0.001 -0.001)">
                      <rect id="Rectangle_298911-4" data-name="Rectangle 298911" width="4.193" height="3.986" fill="#ade65f"/>
                    </g>
                  </g>
                </g>
              </g>
              <g id="Group_881458-5" data-name="Group 881458" transform="translate(12.769 25.8) rotate(-90)">
                <g id="Grupo_108454-5" data-name="Grupo 108454" transform="translate(0 0)">
                  <path id="Trazado_165449-5" data-name="Trazado 165449" d="M2.1,3.986A2.046,2.046,0,0,1,0,1.993,2.047,2.047,0,0,1,2.1,0a2.047,2.047,0,0,1,2.1,1.992A2.049,2.049,0,0,1,2.1,3.986Z" fill="#ade65f"/>
                  <g id="Grupo_108453-5" data-name="Grupo 108453" transform="translate(0)" clip-path="url(#clip-path)">
                    <g id="Group_881457-5" data-name="Group 881457" transform="translate(-0.001 -0.001)">
                      <rect id="Rectangle_298911-5" data-name="Rectangle 298911" width="4.193" height="3.986" fill="#ade65f"/>
                    </g>
                  </g>
                </g>
              </g>
              <g id="Group_881458-6" data-name="Group 881458" transform="translate(25.729 25.8) rotate(-90)">
                <g id="Grupo_108454-6" data-name="Grupo 108454" transform="translate(0 0)">
                  <path id="Trazado_165449-6" data-name="Trazado 165449" d="M2.1,3.986A2.046,2.046,0,0,1,0,1.993,2.047,2.047,0,0,1,2.1,0a2.047,2.047,0,0,1,2.1,1.992A2.049,2.049,0,0,1,2.1,3.986Z" fill="#ade65f"/>
                  <g id="Grupo_108453-6" data-name="Grupo 108453" transform="translate(0)" clip-path="url(#clip-path)">
                    <g id="Group_881457-6" data-name="Group 881457" transform="translate(-0.001 -0.001)">
                      <rect id="Rectangle_298911-6" data-name="Rectangle 298911" width="4.193" height="3.986" fill="#ade65f"/>
                    </g>
                  </g>
                </g>
              </g>
              <g id="Group_881458-7" data-name="Group 881458" transform="translate(0 4.192) rotate(-90)">
                <g id="Grupo_108454-7" data-name="Grupo 108454" transform="translate(0)">
                  <path id="Trazado_165449-7" data-name="Trazado 165449" d="M2.1,3.986A2.046,2.046,0,0,1,0,1.993,2.047,2.047,0,0,1,2.1,0a2.047,2.047,0,0,1,2.1,1.992A2.049,2.049,0,0,1,2.1,3.986Z" fill="#ade65f"/>
                  <g id="Grupo_108453-7" data-name="Grupo 108453" transform="translate(0)" clip-path="url(#clip-path)">
                    <g id="Group_881457-7" data-name="Group 881457" transform="translate(-0.001 -0.001)">
                      <rect id="Rectangle_298911-7" data-name="Rectangle 298911" width="4.193" height="3.986" fill="#ade65f"/>
                    </g>
                  </g>
                </g>
              </g>
              <g id="Group_881458-8" data-name="Group 881458" transform="translate(0 14.997) rotate(-90)">
                <g id="Grupo_108454-8" data-name="Grupo 108454" transform="translate(0)">
                  <path id="Trazado_165449-8" data-name="Trazado 165449" d="M2.1,3.986A2.046,2.046,0,0,1,0,1.993,2.047,2.047,0,0,1,2.1,0a2.047,2.047,0,0,1,2.1,1.992A2.049,2.049,0,0,1,2.1,3.986Z" fill="#ade65f"/>
                  <g id="Grupo_108453-8" data-name="Grupo 108453" transform="translate(0)" clip-path="url(#clip-path)">
                    <g id="Group_881457-8" data-name="Group 881457" transform="translate(-0.001 -0.001)">
                      <rect id="Rectangle_298911-8" data-name="Rectangle 298911" width="4.193" height="3.986" fill="#ade65f"/>
                    </g>
                  </g>
                </g>
              </g>
              <g id="Group_881458-9" data-name="Group 881458" transform="translate(0 25.8) rotate(-90)">
                <g id="Grupo_108454-9" data-name="Grupo 108454" transform="translate(0)">
                  <path id="Trazado_165449-9" data-name="Trazado 165449" d="M2.1,3.986A2.046,2.046,0,0,1,0,1.993,2.047,2.047,0,0,1,2.1,0a2.047,2.047,0,0,1,2.1,1.992A2.049,2.049,0,0,1,2.1,3.986Z" fill="#ade65f"/>
                  <g id="Grupo_108453-9" data-name="Grupo 108453" transform="translate(0)" clip-path="url(#clip-path)">
                    <g id="Group_881457-9" data-name="Group 881457" transform="translate(-0.001 -0.001)">
                      <rect id="Rectangle_298911-9" data-name="Rectangle 298911" width="4.193" height="3.986" fill="#ade65f"/>
                    </g>
                  </g>
                </g>
              </g>
            </g>
          </g>
          <text id="DENV-3" transform="translate(945 4979)" fill="#12263f" font-size="16" font-family="Roboto-Bold, Roboto" font-weight="700"><tspan x="-27.656" y="15">DENV-3</tspan></text>
        </g>
      </g>
    </g>
  </g>
</svg>
