<svg xmlns="http://www.w3.org/2000/svg" xmlns:xlink="http://www.w3.org/1999/xlink" width="90" height="90" viewBox="0 0 90 90">
  <defs>
    <clipPath id="clip-path">
      <rect id="Rectángulo_46495" data-name="Rectángulo 46495" width="53.871" height="54.053" fill="#fff"/>
    </clipPath>
  </defs>
  <g id="Grupo_160800" data-name="Grupo 160800" transform="translate(-180 -4677)">
    <g id="Grupo_160464" data-name="Grupo 160464" transform="translate(0 -68)">
      <path id="Trazado_600839" data-name="Trazado 600839" d="M45,0A45,45,0,1,1,0,45,45,45,0,0,1,45,0Z" transform="translate(180 4745)" fill="#69489b"/>
      <g id="Grupo_160428" data-name="Grupo 160428" transform="translate(197.392 4764)">
        <g id="Grupo_160427" data-name="Grupo 160427" clip-path="url(#clip-path)">
          <path id="Trazado_600586" data-name="Trazado 600586" d="M49.748,0a11.269,11.269,0,0,1,2.021.845,4.842,4.842,0,0,1,2.079,4.769,14.234,14.234,0,0,1-11.512,13.1,25.178,25.178,0,0,1-3.41.276.659.659,0,0,0-.613.358c-.6.952-1.211,1.894-1.872,2.8a1.061,1.061,0,0,0-.182.921,25.467,25.467,0,0,1-.76,12.966,23.055,23.055,0,0,1-3.524,6.686,1.444,1.444,0,0,0-.272.8c-.019,2.885-.011,5.771-.012,8.657a1.64,1.64,0,0,1-1.881,1.866q-2.9,0-5.807,0a1.622,1.622,0,0,1-1.814-1.827q0-3.933,0-7.865c0-.268.007-.487-.309-.64a24.232,24.232,0,0,1-10.23-9.246c-.036-.057-.083-.107-.181-.232-.392.538-.754,1.044-1.126,1.544a5.484,5.484,0,0,1-5.063,2.375A5.372,5.372,0,0,1,.539,34.813a5.8,5.8,0,0,1-.5-2.238C0,28.036-.024,23.5.036,18.956A19.481,19.481,0,0,1,17.826.086,2.23,2.23,0,0,0,18.178,0ZM29.625,3.167c-.664,0-1.348,0-2.031,0-3.2.026-6.415-.11-9.6.118a16.171,16.171,0,0,0-14.357,12.5,17.739,17.739,0,0,0-.428,3.6c-.051,4.345-.025,8.691-.019,13.037A2.489,2.489,0,0,0,5.47,35.009a2.655,2.655,0,0,0,2.537-1.39A15.105,15.105,0,0,1,17.2,27.261c2.985-.735,5.991-1.389,8.971-2.144a14.205,14.205,0,0,0,9.555-7.666,1.475,1.475,0,0,0,.158-.749,11.963,11.963,0,0,0-.244-1.56,10.956,10.956,0,0,0-2.822-4.988A12.294,12.294,0,0,1,30.165,5.4c-.215-.719-.355-1.461-.54-2.236m3.267,0A9.757,9.757,0,0,0,35.308,8.2a13.716,13.716,0,0,1,2.877,4.5c.355,1,.6,2.046.919,3.156.565-.035,1.213-.049,1.855-.12A11.094,11.094,0,0,0,50.695,5.046a1.637,1.637,0,0,0-1.863-1.879H32.892ZM28.525,50.86v-.59c0-2.481.01-4.961-.007-7.442a2.309,2.309,0,0,1,.536-1.549,20.479,20.479,0,0,0,4.523-14.136c-.024-.642-.106-1.283-.165-1.959-.772.475-1.459.93-2.179,1.326a.819.819,0,0,0-.5.85,17.911,17.911,0,0,1-2.958,10.33,1.627,1.627,0,0,1-2.339.716,18.051,18.051,0,0,1-8.353-7.245c-.1-.16-.2-.316-.348-.539L13.9,32.03c.111.2.168.3.228.4a20.858,20.858,0,0,0,9.793,8.733,2.1,2.1,0,0,1,1.45,2.22c-.056,2.3-.017,4.609-.017,6.914v.559ZM20,29.851a15.014,15.014,0,0,0,5.684,5.169,15.032,15.032,0,0,0,1.884-6.972L20,29.851" transform="translate(0)" fill="#fff"/>
        </g>
      </g>
    </g>
  </g>
</svg>
