<svg xmlns="http://www.w3.org/2000/svg" xmlns:xlink="http://www.w3.org/1999/xlink" width="293.661" height="287.402" viewBox="0 0 293.661 287.402">
  <defs>
    <clipPath id="clip-path">
      <path id="Trazado_165450" data-name="Trazado 165450" d="M2.708,0A2.78,2.78,0,0,0,0,2.847,2.78,2.78,0,0,0,2.709,5.691,2.78,2.78,0,0,0,5.417,2.847,2.783,2.783,0,0,0,2.708,0Z" fill="#ade65f"/>
    </clipPath>
    <clipPath id="clip-path-10">
      <rect id="Rectángulo_46647" data-name="Rectángulo 46647" width="223.779" height="287.401" fill="none"/>
    </clipPath>
    <clipPath id="clip-path-12">
      <path id="Trazado_600852" data-name="Trazado 600852" d="M99.856,119.273l-11.49,3.206c16.05,23.132,41.066,43.969,41.066,43.969-5.519-31.479-13.3-47.175-13.3-47.175Z" transform="translate(-88.366 -119.273)" fill="none"/>
    </clipPath>
    <clipPath id="clip-path-14">
      <path id="Trazado_600883" data-name="Trazado 600883" d="M103.338,53.195s5.685,7.457,14.415,1.911a7.43,7.43,0,0,0-6.879-4.3,15.449,15.449,0,0,0-7.536,2.392" transform="translate(-103.338 -50.803)" fill="none"/>
    </clipPath>
    <clipPath id="clip-path-16">
      <path id="Trazado_600887" data-name="Trazado 600887" d="M134.353,54.737c5.958,5.3,9.422-2.73,9.422-2.73a6.235,6.235,0,0,0-4.135-1.992c-3.495,0-5.287,4.722-5.287,4.722" transform="translate(-134.353 -50.015)" fill="none"/>
    </clipPath>
    <clipPath id="clip-path-18">
      <rect id="Rectángulo_46644" data-name="Rectángulo 46644" width="19.541" height="19.54" fill="none"/>
    </clipPath>
    <clipPath id="clip-path-19">
      <rect id="Rectángulo_46645" data-name="Rectángulo 46645" width="17.669" height="19.54" fill="none"/>
    </clipPath>
  </defs>
  <g id="Grupo_160685" data-name="Grupo 160685" transform="translate(-181.339 -7342.598)">
    <g id="Grupo_160615" data-name="Grupo 160615" transform="translate(-943.661 4332)">
      <path id="Unión_13" data-name="Unión 13" d="M7.937,158.85l-3.657-9.017A58.293,58.293,0,0,1,36.641,73.859L209.49,4.265a58.632,58.632,0,0,1,76.235,32.248l3.657,9.018A58.291,58.291,0,0,1,257.02,121.5L84.171,191.1A58.607,58.607,0,0,1,7.937,158.85Z" transform="translate(1125 3039.763)" fill="#e2e7fe"/>
      <g id="Grupo_160560" data-name="Grupo 160560" transform="translate(1137.911 3093.132)">
        <g id="Group_881458" data-name="Group 881458" transform="translate(0 5.417) rotate(-90)">
          <g id="Grupo_108454" data-name="Grupo 108454" transform="translate(0)">
            <path id="Trazado_165449" data-name="Trazado 165449" d="M2.708,0A2.78,2.78,0,0,0,0,2.847,2.78,2.78,0,0,0,2.709,5.691,2.78,2.78,0,0,0,5.417,2.847,2.783,2.783,0,0,0,2.708,0Z" transform="translate(0)" fill="#ade65f"/>
            <g id="Grupo_108453" data-name="Grupo 108453" clip-path="url(#clip-path)">
              <g id="Group_881457" data-name="Group 881457" transform="translate(-0.001 0.001)">
                <rect id="Rectangle_298911" data-name="Rectangle 298911" width="5.418" height="5.691" fill="#ade65f"/>
              </g>
            </g>
          </g>
        </g>
        <g id="Group_881458-2" data-name="Group 881458" transform="translate(18.501 5.417) rotate(-90)">
          <g id="Grupo_108454-2" data-name="Grupo 108454" transform="translate(0)">
            <path id="Trazado_165449-2" data-name="Trazado 165449" d="M2.708,0A2.78,2.78,0,0,0,0,2.847,2.78,2.78,0,0,0,2.709,5.691,2.78,2.78,0,0,0,5.417,2.847,2.783,2.783,0,0,0,2.708,0Z" transform="translate(0)" fill="#ade65f"/>
            <g id="Grupo_108453-2" data-name="Grupo 108453" clip-path="url(#clip-path)">
              <g id="Group_881457-2" data-name="Group 881457" transform="translate(-0.001 0.001)">
                <rect id="Rectangle_298911-2" data-name="Rectangle 298911" width="5.418" height="5.691" fill="#ade65f"/>
              </g>
            </g>
          </g>
        </g>
        <g id="Group_881458-3" data-name="Group 881458" transform="translate(18.501 17.845) rotate(-90)">
          <g id="Grupo_108454-3" data-name="Grupo 108454" transform="translate(0)">
            <path id="Trazado_165449-3" data-name="Trazado 165449" d="M2.708,0A2.78,2.78,0,0,0,0,2.847,2.78,2.78,0,0,0,2.709,5.691,2.78,2.78,0,0,0,5.417,2.847,2.783,2.783,0,0,0,2.708,0Z" transform="translate(0)" fill="#ade65f"/>
            <g id="Grupo_108453-3" data-name="Grupo 108453" clip-path="url(#clip-path)">
              <g id="Group_881457-3" data-name="Group 881457" transform="translate(-0.001 0.001)">
                <rect id="Rectangle_298911-3" data-name="Rectangle 298911" width="5.418" height="5.691" fill="#ade65f"/>
              </g>
            </g>
          </g>
        </g>
        <g id="Group_881458-4" data-name="Group 881458" transform="translate(0 17.845) rotate(-90)">
          <g id="Grupo_108454-4" data-name="Grupo 108454" transform="translate(0)">
            <path id="Trazado_165449-4" data-name="Trazado 165449" d="M2.708,0A2.78,2.78,0,0,0,0,2.847,2.78,2.78,0,0,0,2.709,5.691,2.78,2.78,0,0,0,5.417,2.847,2.783,2.783,0,0,0,2.708,0Z" transform="translate(0)" fill="#ade65f"/>
            <g id="Grupo_108453-4" data-name="Grupo 108453" clip-path="url(#clip-path)">
              <g id="Group_881457-4" data-name="Group 881457" transform="translate(-0.001 0.001)">
                <rect id="Rectangle_298911-4" data-name="Rectangle 298911" width="5.418" height="5.691" fill="#ade65f"/>
              </g>
            </g>
          </g>
        </g>
        <g id="Group_881458-5" data-name="Group 881458" transform="translate(18.501 30.272) rotate(-90)">
          <g id="Grupo_108454-5" data-name="Grupo 108454" transform="translate(0)">
            <path id="Trazado_165449-5" data-name="Trazado 165449" d="M2.708,0A2.78,2.78,0,0,0,0,2.847,2.78,2.78,0,0,0,2.709,5.691,2.78,2.78,0,0,0,5.417,2.847,2.783,2.783,0,0,0,2.708,0Z" transform="translate(0)" fill="#ade65f"/>
            <g id="Grupo_108453-5" data-name="Grupo 108453" clip-path="url(#clip-path)">
              <g id="Group_881457-5" data-name="Group 881457" transform="translate(-0.001 0.001)">
                <rect id="Rectangle_298911-5" data-name="Rectangle 298911" width="5.418" height="5.691" fill="#ade65f"/>
              </g>
            </g>
          </g>
        </g>
        <g id="Group_881458-6" data-name="Group 881458" transform="translate(0 30.272) rotate(-90)">
          <g id="Grupo_108454-6" data-name="Grupo 108454" transform="translate(0)">
            <path id="Trazado_165449-6" data-name="Trazado 165449" d="M2.708,0A2.78,2.78,0,0,0,0,2.847,2.78,2.78,0,0,0,2.709,5.691,2.78,2.78,0,0,0,5.417,2.847,2.783,2.783,0,0,0,2.708,0Z" transform="translate(0)" fill="#ade65f"/>
            <g id="Grupo_108453-6" data-name="Grupo 108453" clip-path="url(#clip-path)">
              <g id="Group_881457-6" data-name="Group 881457" transform="translate(-0.001 0.001)">
                <rect id="Rectangle_298911-6" data-name="Rectangle 298911" width="5.418" height="5.691" fill="#ade65f"/>
              </g>
            </g>
          </g>
        </g>
        <g id="Group_881458-7" data-name="Group 881458" transform="translate(36.731 5.417) rotate(-90)">
          <g id="Grupo_108454-7" data-name="Grupo 108454" transform="translate(0)">
            <path id="Trazado_165449-7" data-name="Trazado 165449" d="M2.708,0A2.78,2.78,0,0,0,0,2.847,2.78,2.78,0,0,0,2.709,5.691,2.78,2.78,0,0,0,5.417,2.847,2.783,2.783,0,0,0,2.708,0Z" transform="translate(0)" fill="#ade65f"/>
            <g id="Grupo_108453-7" data-name="Grupo 108453" clip-path="url(#clip-path)">
              <g id="Group_881457-7" data-name="Group 881457" transform="translate(-0.001 0.001)">
                <rect id="Rectangle_298911-7" data-name="Rectangle 298911" width="5.418" height="5.691" fill="#ade65f"/>
              </g>
            </g>
          </g>
        </g>
        <g id="Group_881458-8" data-name="Group 881458" transform="translate(36.731 17.845) rotate(-90)">
          <g id="Grupo_108454-8" data-name="Grupo 108454" transform="translate(0)">
            <path id="Trazado_165449-8" data-name="Trazado 165449" d="M2.708,0A2.78,2.78,0,0,0,0,2.847,2.78,2.78,0,0,0,2.709,5.691,2.78,2.78,0,0,0,5.417,2.847,2.783,2.783,0,0,0,2.708,0Z" transform="translate(0)" fill="#ade65f"/>
            <g id="Grupo_108453-8" data-name="Grupo 108453" clip-path="url(#clip-path)">
              <g id="Group_881457-8" data-name="Group 881457" transform="translate(-0.001 0.001)">
                <rect id="Rectangle_298911-8" data-name="Rectangle 298911" width="5.418" height="5.691" fill="#ade65f"/>
              </g>
            </g>
          </g>
        </g>
        <g id="Group_881458-9" data-name="Group 881458" transform="translate(36.731 30.272) rotate(-90)">
          <g id="Grupo_108454-9" data-name="Grupo 108454" transform="translate(0)">
            <path id="Trazado_165449-9" data-name="Trazado 165449" d="M2.708,0A2.78,2.78,0,0,0,0,2.847,2.78,2.78,0,0,0,2.709,5.691,2.78,2.78,0,0,0,5.417,2.847,2.783,2.783,0,0,0,2.708,0Z" transform="translate(0)" fill="#ade65f"/>
            <g id="Grupo_108453-9" data-name="Grupo 108453" clip-path="url(#clip-path)">
              <g id="Group_881457-9" data-name="Group 881457" transform="translate(-0.001 0.001)">
                <rect id="Rectangle_298911-9" data-name="Rectangle 298911" width="5.418" height="5.691" fill="#ade65f"/>
              </g>
            </g>
          </g>
        </g>
      </g>
    </g>
    <g id="Grupo_160648" data-name="Grupo 160648" transform="translate(226.221 7342.599)">
      <g id="Grupo_160647" data-name="Grupo 160647" clip-path="url(#clip-path-10)">
        <g id="Grupo_160628" data-name="Grupo 160628">
          <g id="Grupo_160627" data-name="Grupo 160627" clip-path="url(#clip-path-10)">
            <path id="Trazado_600842" data-name="Trazado 600842" d="M110.711,8.594s0-15.242-29.31-5.129c-25.394,8.761-17.78,27.062-27.412,56.6C42.077,96.6,70.723,109.11,84.356,105.791l27.7-1.125,7.409-34.657Z" transform="translate(-11.837 0)"/>
            <path id="Trazado_600843" data-name="Trazado 600843" d="M118.044,13.577s5.406-9.386,13.979-5.061c8.778,4.428,10.668,13.628,9.255,27.478-1.765,17.285,26.61,46.922-11.583,69.4l-23.957.976Z" transform="translate(-24.466 -1.707)"/>
            <path id="Trazado_600844" data-name="Trazado 600844" d="M102.46,141.951s10.574,23.359,84.874,60.744l20.345-22.549-72.736-49.4Z" transform="translate(-23.708 -30.254)" fill="#fff"/>
            <path id="Trazado_600845" data-name="Trazado 600845" d="M235.142,170.634l11.942-55.067-11.179-.955L220.5,157.766q7.1,6.747,14.642,12.868" transform="translate(-51.02 -26.519)" fill="#af6f3b"/>
            <path id="Trazado_600846" data-name="Trazado 600846" d="M239.037,104.086l.115-2.914a24.994,24.994,0,0,1,3.129-11.164l3.35-6.03a2.65,2.65,0,0,1,3.97-.782,3.392,3.392,0,0,1,1.131,3.625l-2.1,7.012,18.328-17.347a2.052,2.052,0,0,1,3.074.2l.506.657a2.052,2.052,0,0,1-.076,2.6L258.55,92.053l15.6-12.02a2.053,2.053,0,0,1,3.048.393l.342.5a2.051,2.051,0,0,1-.347,2.7L264,95.03l11.918-6.455a2.052,2.052,0,0,1,2.986,1.147l.081.251a2.052,2.052,0,0,1-.775,2.307l-11.9,7.589,7.02-2.491a2.052,2.052,0,0,1,2.07,3.538l-30.246,18.738-4.012-7a15.976,15.976,0,0,1-2.1-8.571" transform="translate(-55.307 -17.559)" fill="#af6f3b"/>
            <path id="Trazado_600847" data-name="Trazado 600847" d="M251.519,99.235a13.489,13.489,0,0,1,.575,11.45" transform="translate(-58.198 -22.961)" fill="none" stroke="#000" stroke-linecap="round" stroke-linejoin="round" stroke-width="0.99"/>
            <path id="Trazado_600848" data-name="Trazado 600848" d="M205.525,180.955,222.7,130l22.06,8.4-10.329,54.71a15.672,15.672,0,0,1-21.168,10.684c-7.956-3.276-11.784-12.352-7.733-22.838" transform="translate(-47.177 -30.079)" fill="#fff"/>
            <line id="Línea_141" data-name="Línea 141" x1="3.965" y2="12.199" transform="translate(159.252 135.798)" fill="none" stroke="#cfdbf7" stroke-linecap="round" stroke-linejoin="round" stroke-width="1.406"/>
            <path id="Trazado_600849" data-name="Trazado 600849" d="M79.509,122.479s-18.1,6.735-24.061,11.423-7.207,15.026-2.435,29.341,21.451,63.222,21.451,63.222L53.057,314.459H153.931l-13.639-86.731,1.441-25.518s9.419-26.269.388-47.318c-12.5-29.125-34.843-35.619-34.843-35.619Z" transform="translate(-11.589 -27.598)" fill="#fff"/>
            <path id="Trazado_600850" data-name="Trazado 600850" d="M116.134,119.274s7.778,15.7,13.3,47.174c0,0-25.015-20.836-41.066-43.969l11.49-3.205Z" transform="translate(-20.446 -27.598)" fill="#af6f3b"/>
          </g>
        </g>
        <g id="Grupo_160630" data-name="Grupo 160630" transform="translate(67.919 91.675)">
          <g id="Grupo_160629" data-name="Grupo 160629" clip-path="url(#clip-path-12)">
            <path id="Trazado_600851" data-name="Trazado 600851" d="M79.882,145.853s41-10.051,61.249-5.057l1.9,38.426-27.73,7.257L94.093,152.612" transform="translate(-86.403 -123.931)" fill="#90b2f9"/>
          </g>
        </g>
        <g id="Grupo_160632" data-name="Grupo 160632">
          <g id="Grupo_160631" data-name="Grupo 160631" clip-path="url(#clip-path-10)">
            <path id="Trazado_600853" data-name="Trazado 600853" d="M141.794,180.649l9.192,22.745,2.347,125.267" transform="translate(-32.809 -41.799)" fill="none" stroke="#cfdbf7" stroke-linecap="round" stroke-linejoin="round" stroke-width="1.406"/>
            <path id="Trazado_600854" data-name="Trazado 600854" d="M85.286,124.339,76.5,141.193l14.408,2.665L88.534,155.04l47.346,35.15,1.537-42.544-8.552-6.954,3.221-5.582-12.1-11.525" transform="translate(-17.702 -28.595)" fill="none" stroke="#cfdbf7" stroke-linecap="round" stroke-linejoin="round" stroke-width="1.406"/>
            <path id="Trazado_600855" data-name="Trazado 600855" d="M172.664,193.2s.417-21.6-7.443-35.313" transform="translate(-38.23 -36.533)" fill="none" stroke="#cfdbf7" stroke-linecap="round" stroke-linejoin="round" stroke-width="1.406"/>
            <path id="Trazado_600856" data-name="Trazado 600856" d="M85.586,177.52l-.719-5.178a5.855,5.855,0,0,1,11.47-2.262l.91,5.821" transform="translate(-19.624 -38.336)" fill="none" stroke="#000" stroke-miterlimit="10" stroke-width="1.572"/>
            <path id="Trazado_600857" data-name="Trazado 600857" d="M90.131,155.391s-10.233-32.8,1.428-34.424" transform="translate(-19.894 -27.99)" fill="none" stroke="#000" stroke-miterlimit="10" stroke-width="1.572"/>
            <path id="Trazado_600858" data-name="Trazado 600858" d="M96.971,178.977s6.652,40.084-13.355,26.2" transform="translate(-19.347 -41.412)" fill="none" stroke="#cfdbf7" stroke-miterlimit="10" stroke-width="1.406"/>
            <path id="Trazado_600859" data-name="Trazado 600859" d="M81.321,212.345a1.73,1.73,0,1,0,1.476-1.952,1.73,1.73,0,0,0-1.476,1.952" transform="translate(-18.813 -48.678)"/>
            <path id="Trazado_600860" data-name="Trazado 600860" d="M85.836,181.082s4.525,40.379,19.989,21.565" transform="translate(-19.861 -41.9)" fill="none" stroke="#cfdbf7" stroke-miterlimit="10" stroke-width="1.406"/>
            <path id="Trazado_600861" data-name="Trazado 600861" d="M112.976,207.949a1.73,1.73,0,1,1-1.952-1.476,1.73,1.73,0,0,1,1.952,1.476" transform="translate(-25.344 -47.771)"/>
            <path id="Trazado_600862" data-name="Trazado 600862" d="M144.011,154.216s-6.472-34.435-20.116-35.736" transform="translate(-28.667 -27.414)" fill="none" stroke="#000" stroke-miterlimit="10" stroke-width="1.572"/>
            <path id="Trazado_600863" data-name="Trazado 600863" d="M144.917,170.629c.32,3.269,2.594,5.722,5.079,5.479s4.241-3.091,3.921-6.36-2.594-5.722-5.08-5.478-4.24,3.09-3.921,6.359" transform="translate(-33.523 -38.006)"/>
            <path id="Trazado_600864" data-name="Trazado 600864" d="M148.746,170.957c.206,2.1,1.425,3.7,2.724,3.574s2.184-1.933,1.978-4.034-1.425-3.7-2.723-3.574-2.185,1.933-1.979,4.034" transform="translate(-34.411 -38.622)" fill="#cfdbf7"/>
            <path id="Trazado_600865" data-name="Trazado 600865" d="M46.105,136.358S19.188,145.069.269,237.865l28.642,10.163L58.84,169.8Z" transform="translate(-0.062 -31.551)" fill="#fff"/>
            <line id="Línea_142" data-name="Línea 142" y1="19.195" x2="6.927" transform="translate(48.904 146.727)" fill="none" stroke="#cfdbf7" stroke-linecap="round" stroke-linejoin="round" stroke-width="1.406"/>
            <path id="Trazado_600866" data-name="Trazado 600866" d="M57.578,254.749l51.809.23,3.622,12.28L61.5,274.368Z" transform="translate(-13.323 -58.945)" fill="#af6f3b"/>
            <path id="Trazado_600867" data-name="Trazado 600867" d="M18.441,246.923l55.888,2.86-2.091,26.552-56.226,4.023c-10.245-.044-17.331-6.809-15.807-16.94,1.371-9.12,9.1-17.789,18.235-16.495" transform="translate(0 -57.104)" fill="#fff"/>
            <path id="Trazado_600868" data-name="Trazado 600868" d="M30.2,247.329l51.115,2.578-.246,3.125" transform="translate(-6.989 -57.228)" fill="none" stroke="#cfdbf7" stroke-linecap="round" stroke-linejoin="round" stroke-width="1.406"/>
            <path id="Trazado_600869" data-name="Trazado 600869" d="M88.751,276.7l-.517,6.558-19.106,1.978" transform="translate(-15.995 -64.023)" fill="none" stroke="#cfdbf7" stroke-linecap="round" stroke-linejoin="round" stroke-width="1.406"/>
            <path id="Trazado_600870" data-name="Trazado 600870" d="M144.307,205.259l-20.424,72.474a4.2,4.2,0,0,0,4.045,5.343h47.465a4.2,4.2,0,0,0,4.019-2.972l22.181-72.474a4.2,4.2,0,0,0-4.019-5.433H148.352a4.2,4.2,0,0,0-4.045,3.063" transform="translate(-28.628 -46.785)"/>
            <path id="Trazado_600871" data-name="Trazado 600871" d="M180.763,197.879s3.376-4.833,11.277-4.239c8.8.662,7.366,8.482,7.366,8.482Z" transform="translate(-41.826 -44.794)"/>
            <path id="Trazado_600872" data-name="Trazado 600872" d="M155.585,201.724,138.553,262.16a3.5,3.5,0,0,0,3.373,4.456h39.581a3.5,3.5,0,0,0,3.351-2.479l18.5-60.437a3.5,3.5,0,0,0-3.351-4.53H158.958a3.505,3.505,0,0,0-3.373,2.554" transform="translate(-32.028 -46.085)"/>
            <path id="Trazado_600873" data-name="Trazado 600873" d="M147.817,205.259l-20.424,72.474a4.2,4.2,0,0,0,4.045,5.343H178.9a4.2,4.2,0,0,0,4.018-2.972L205.1,207.629a4.2,4.2,0,0,0-4.019-5.433H151.862a4.2,4.2,0,0,0-4.045,3.063" transform="translate(-29.44 -46.785)" fill="#eab65b"/>
            <path id="Trazado_600874" data-name="Trazado 600874" d="M117.351,253.284s1.885-7.654,17.7-15.31l-2.33,8.489a71.456,71.456,0,0,0,18-6.056,2.08,2.08,0,0,1,1.776,3.761l-3.659,1.8,6.14-1.535a2,2,0,0,1,1.307,3.757,63.667,63.667,0,0,1-6.684,2.427h0s2.934-.34,5.938-.88a1.957,1.957,0,0,1,2.318,1.529,1.921,1.921,0,0,1-1.117,2.118,76.213,76.213,0,0,1-8.253,3c2.77-.162,5.838-.7,6.267.318s.354,2.038-7.441,4.252-18.311,5.757-25.131,4.074l-8.6-3.559v-9.511Z" transform="translate(-26.28 -55.063)" fill="#af6f3b"/>
            <path id="Trazado_600875" data-name="Trazado 600875" d="M147.7,57.195c.927,3.988-1.845,8.372-6.194,9.789s-8.625-.666-9.552-4.656,1.845-8.371,6.194-9.789,8.625.666,9.552,4.655" transform="translate(-30.49 -12.054)" fill="#965726"/>
            <path id="Trazado_600876" data-name="Trazado 600876" d="M128.14,34.13c.229,16.176-10.861,29.431-28.28,29.679S68.133,51.142,67.9,34.966,81.61,5.476,99.029,5.229s28.881,12.725,29.111,28.9" transform="translate(-15.711 -1.209)"/>
            <path id="Trazado_600877" data-name="Trazado 600877" d="M101.129,74.159l-4.423,38.987,21.159,2.458L116.044,78.74Z" transform="translate(-22.376 -17.159)" fill="#af6f3b"/>
            <path id="Trazado_600878" data-name="Trazado 600878" d="M118.057,106.674,99.773,84.489l17.066-.6Z" transform="translate(-23.086 -19.41)" fill="#965726"/>
            <path id="Trazado_600879" data-name="Trazado 600879" d="M98.7,16.189a34.888,34.888,0,0,1,15.744-.9c7.049,1.3,16.108,5.394,17.348,17.795,2.067,20.667-1.364,36.209-11.91,41.1-8.1,3.752-13.053,2.479-22.457-2.606-3.5-1.892-9.289-8.871-9.413-13l-3.581-10.18S74.284,23.115,98.7,16.189" transform="translate(-19.052 -3.418)" fill="#af6f3b"/>
            <path id="Trazado_600880" data-name="Trazado 600880" d="M130.261,66.882l2.534-2.054-2.932-4.071" transform="translate(-30.048 -14.058)" fill="none" stroke="#000" stroke-linecap="round" stroke-linejoin="round" stroke-width="0.809"/>
            <path id="Trazado_600881" data-name="Trazado 600881" d="M117.753,55.106s-3.32-8.243-14.416-1.911c0,0,5.686,7.457,14.416,1.911" transform="translate(-23.911 -11.755)" fill="#fff"/>
          </g>
        </g>
        <g id="Grupo_160634" data-name="Grupo 160634" transform="translate(79.427 39.048)">
          <g id="Grupo_160633" data-name="Grupo 160633" clip-path="url(#clip-path-14)">
            <path id="Trazado_600882" data-name="Trazado 600882" d="M116.239,52.845a3.916,3.916,0,1,1-4.412-3.485,3.977,3.977,0,0,1,4.412,3.485" transform="translate(-104.519 -50.461)"/>
          </g>
        </g>
        <g id="Grupo_160636" data-name="Grupo 160636">
          <g id="Grupo_160635" data-name="Grupo 160635" clip-path="url(#clip-path-10)">
            <path id="Trazado_600884" data-name="Trazado 600884" d="M103.1,52.846a12.047,12.047,0,0,1,7.877-2.752,8.647,8.647,0,0,1,4.208.907,5.474,5.474,0,0,1,2.743,3.491.507.507,0,0,1-.986.239l0-.017-.012-.058a4.581,4.581,0,0,0-2.169-2.905,7.813,7.813,0,0,0-3.794-.943,11.457,11.457,0,0,0-7.542,2.41.245.245,0,0,1-.347-.026.25.25,0,0,1,.025-.345" transform="translate(-23.837 -11.591)"/>
            <path id="Trazado_600885" data-name="Trazado 600885" d="M134.353,54.737s3.21-8.463,9.422-2.73c0,0-3.464,8.029-9.422,2.73" transform="translate(-31.087 -11.573)" fill="#fff"/>
          </g>
        </g>
        <g id="Grupo_160638" data-name="Grupo 160638" transform="translate(103.266 38.442)">
          <g id="Grupo_160637" data-name="Grupo 160637" clip-path="url(#clip-path-16)">
            <path id="Trazado_600886" data-name="Trazado 600886" d="M137.379,52.515c-.291,1.925.707,3.672,2.231,3.9s3-1.142,3.287-3.067-.707-3.672-2.231-3.9-3,1.142-3.287,3.067" transform="translate(-135.041 -49.878)"/>
          </g>
        </g>
        <g id="Grupo_160646" data-name="Grupo 160646">
          <g id="Grupo_160645" data-name="Grupo 160645" clip-path="url(#clip-path-10)">
            <path id="Trazado_600888" data-name="Trazado 600888" d="M143.533,52.053a3.879,3.879,0,0,0-4.094-1.662l-.041.009a6.229,6.229,0,0,0-4.513,4.038l-.012.029a.428.428,0,1,1-.8-.306l.005-.014A6.95,6.95,0,0,1,139.3,49.8l-.04.008a4.386,4.386,0,0,1,4.61,2.01.208.208,0,0,1-.048.29.219.219,0,0,1-.293-.053" transform="translate(-31.016 -11.5)"/>
            <path id="Trazado_600889" data-name="Trazado 600889" d="M137.425,40.187a2.049,2.049,0,0,0,1.769,2.638,25.563,25.563,0,0,1,4.947.958,1.2,1.2,0,0,0,1.578-.585,1.675,1.675,0,0,0-.006-1.611,8.424,8.424,0,0,0-4.951-2.905c-2.819-.526-3.336,1.506-3.336,1.506" transform="translate(-31.782 -8.93)"/>
            <path id="Trazado_600890" data-name="Trazado 600890" d="M116.624,37.91s.826,2.262-2.571,2.74a53.628,53.628,0,0,0-8.088,2,1.992,1.992,0,0,1-2.234-.554,1.3,1.3,0,0,1,.041-1.645c.829-1.016,5-3.512,8.134-3.989,4.024-.613,4.718,1.447,4.718,1.447" transform="translate(-23.938 -8.411)"/>
            <path id="Trazado_600891" data-name="Trazado 600891" d="M129.535,73.072l-12.245-.3s.012,4.983,5.817,5.106c6.213.131,6.428-4.809,6.428-4.809" transform="translate(-27.139 -16.839)" fill="#fff"/>
            <g id="Grupo_160641" data-name="Grupo 160641" transform="translate(77.878 32.878)" opacity="0.3">
              <g id="Grupo_160640" data-name="Grupo 160640">
                <g id="Grupo_160639" data-name="Grupo 160639" clip-path="url(#clip-path-18)">
                  <path id="Trazado_600892" data-name="Trazado 600892" d="M101.326,52.308a9.77,9.77,0,1,0,10-9.531,9.77,9.77,0,0,0-10,9.531" transform="translate(-101.323 -42.775)" fill="#fff"/>
                </g>
              </g>
            </g>
            <g id="Grupo_160644" data-name="Grupo 160644" transform="translate(102.695 33.478)" opacity="0.3">
              <g id="Grupo_160643" data-name="Grupo 160643">
                <g id="Grupo_160642" data-name="Grupo 160642" clip-path="url(#clip-path-19)">
                  <path id="Trazado_600893" data-name="Trazado 600893" d="M133.614,53.09c-.118,5.394,3.74,9.873,8.618,10s8.927-4.137,9.046-9.531-3.74-9.873-8.618-10-8.927,4.137-9.046,9.531" transform="translate(-133.611 -43.556)" fill="#fff"/>
                </g>
              </g>
            </g>
            <path id="Trazado_600894" data-name="Trazado 600894" d="M101.326,52.308a9.77,9.77,0,1,0,10-9.531A9.77,9.77,0,0,0,101.326,52.308Z" transform="translate(-23.445 -9.897)" fill="none" stroke="#eab65b" stroke-miterlimit="10" stroke-width="1.01"/>
            <path id="Trazado_600895" data-name="Trazado 600895" d="M133.614,53.09c-.118,5.394,3.74,9.873,8.618,10s8.927-4.137,9.046-9.531-3.74-9.873-8.618-10S133.733,47.7,133.614,53.09Z" transform="translate(-30.916 -10.078)" fill="none" stroke="#eab65b" stroke-miterlimit="10" stroke-width="1.01"/>
            <path id="Trazado_600896" data-name="Trazado 600896" d="M132.025,55.728a5.328,5.328,0,0,0-5.283-.128" transform="translate(-29.326 -12.716)" fill="none" stroke="#eab65b" stroke-miterlimit="10" stroke-width="1.01"/>
            <line id="Línea_143" data-name="Línea 143" x1="7.354" y2="4.144" transform="translate(70.537 42.158)" fill="none" stroke="#eab65b" stroke-miterlimit="10" stroke-width="1.01"/>
            <path id="Trazado_600897" data-name="Trazado 600897" d="M76.429,41.807s38.413-11.632,33.985-33.57c0,0-13.957-3.721-25.115,8.726s-8.871,24.844-8.871,24.844" transform="translate(-17.64 -1.785)"/>
            <path id="Trazado_600898" data-name="Trazado 600898" d="M88.941,43.337V63.369L79.677,48.522Z" transform="translate(-18.436 -10.028)"/>
            <path id="Trazado_600899" data-name="Trazado 600899" d="M74.127,61.5c-.927,3.989,1.845,8.372,6.194,9.789s8.625-.666,9.552-4.656-1.845-8.371-6.194-9.789-8.625.667-9.552,4.656" transform="translate(-17.111 -13.05)" fill="#af6f3b"/>
            <path id="Trazado_600900" data-name="Trazado 600900" d="M79.678,63.485s4.736-1.12,7.222,3.989" transform="translate(-18.436 -14.665)" fill="none" stroke="#000" stroke-linecap="round" stroke-linejoin="round" stroke-width="0.961"/>
            <path id="Trazado_600901" data-name="Trazado 600901" d="M118.062,16.832s6.949-2.345,10.528,2.062c4.8,5.9,7.05,11.617,12.628,13.113,0,0,1.842-20.067-20.687-21.879L110.471,13.7Z" transform="translate(-25.561 -2.343)"/>
          </g>
        </g>
      </g>
    </g>
    <rect id="Rectángulo_46649" data-name="Rectángulo 46649" width="235" height="4" rx="2" transform="translate(209 7626)" fill="#69489b"/>
  </g>
</svg>
