<svg xmlns="http://www.w3.org/2000/svg" xmlns:xlink="http://www.w3.org/1999/xlink" width="113" height="97" viewBox="0 0 113 97">
  <defs>
    <clipPath id="clip-path">
      <path id="Trazado_165450" data-name="Trazado 165450" d="M1.735,0A1.694,1.694,0,0,0,0,1.651,1.7,1.7,0,0,0,1.736,3.3,1.694,1.694,0,0,0,3.471,1.651,1.7,1.7,0,0,0,1.735,0Z" fill="#ade65f"/>
    </clipPath>
    <clipPath id="clip-path-10">
      <rect id="Rectángulo_46600" data-name="Rectángulo 46600" width="71.871" height="64.989" fill="#fff"/>
    </clipPath>
  </defs>
  <g id="Grupo_160789" data-name="Grupo 160789" transform="translate(-344 -2240)">
    <g id="Grupo_160663" data-name="Grupo 160663" transform="translate(-49 -123)">
      <g id="Grupo_160534" data-name="Grupo 160534">
        <rect id="Rectángulo_46591" data-name="Rectángulo 46591" width="97" height="97" rx="15" transform="translate(401 2363)" fill="#54397c"/>
        <path id="Unión_8" data-name="Unión 8" d="M2534.676,11735.576l-9.773-10.074a8.183,8.183,0,0,1,.2-11.6l0,0a8.267,8.267,0,0,1,11.655.2l9.771,10.076a8.178,8.178,0,0,1-.2,11.6l0,0a8.264,8.264,0,0,1-11.655-.2Z" transform="translate(-2042.85 -9284.85)" fill="#4462fe"/>
        <g id="Grupo_160533" data-name="Grupo 160533" transform="translate(393 2371.127)">
          <g id="Group_881458" data-name="Group 881458" transform="translate(0 3.471) rotate(-90)">
            <g id="Grupo_108454" data-name="Grupo 108454" transform="translate(0)">
              <path id="Trazado_165449" data-name="Trazado 165449" d="M1.735,0A1.694,1.694,0,0,0,0,1.651,1.7,1.7,0,0,0,1.736,3.3,1.694,1.694,0,0,0,3.471,1.651,1.7,1.7,0,0,0,1.735,0Z" transform="translate(0)" fill="#ade65f"/>
              <g id="Grupo_108453" data-name="Grupo 108453" clip-path="url(#clip-path)">
                <g id="Group_881457" data-name="Group 881457" transform="translate(-0.001 0.001)">
                  <rect id="Rectangle_298911" data-name="Rectangle 298911" width="3.471" height="3.301" fill="#ade65f"/>
                </g>
              </g>
            </g>
          </g>
          <g id="Group_881458-2" data-name="Group 881458" transform="translate(10.73 3.471) rotate(-90)">
            <g id="Grupo_108454-2" data-name="Grupo 108454" transform="translate(0)">
              <path id="Trazado_165449-2" data-name="Trazado 165449" d="M1.735,0A1.694,1.694,0,0,0,0,1.651,1.7,1.7,0,0,0,1.736,3.3,1.694,1.694,0,0,0,3.471,1.651,1.7,1.7,0,0,0,1.735,0Z" transform="translate(0)" fill="#ade65f"/>
              <g id="Grupo_108453-2" data-name="Grupo 108453" clip-path="url(#clip-path)">
                <g id="Group_881457-2" data-name="Group 881457" transform="translate(-0.001 0.001)">
                  <rect id="Rectangle_298911-2" data-name="Rectangle 298911" width="3.471" height="3.301" fill="#ade65f"/>
                </g>
              </g>
            </g>
          </g>
          <g id="Group_881458-3" data-name="Group 881458" transform="translate(10.73 11.433) rotate(-90)">
            <g id="Grupo_108454-3" data-name="Grupo 108454" transform="translate(0)">
              <path id="Trazado_165449-3" data-name="Trazado 165449" d="M1.735,0A1.694,1.694,0,0,0,0,1.651,1.7,1.7,0,0,0,1.736,3.3,1.694,1.694,0,0,0,3.471,1.651,1.7,1.7,0,0,0,1.735,0Z" transform="translate(0)" fill="#ade65f"/>
              <g id="Grupo_108453-3" data-name="Grupo 108453" clip-path="url(#clip-path)">
                <g id="Group_881457-3" data-name="Group 881457" transform="translate(-0.001 0.001)">
                  <rect id="Rectangle_298911-3" data-name="Rectangle 298911" width="3.471" height="3.301" fill="#ade65f"/>
                </g>
              </g>
            </g>
          </g>
          <g id="Group_881458-4" data-name="Group 881458" transform="translate(0 11.433) rotate(-90)">
            <g id="Grupo_108454-4" data-name="Grupo 108454" transform="translate(0)">
              <path id="Trazado_165449-4" data-name="Trazado 165449" d="M1.735,0A1.694,1.694,0,0,0,0,1.651,1.7,1.7,0,0,0,1.736,3.3,1.694,1.694,0,0,0,3.471,1.651,1.7,1.7,0,0,0,1.735,0Z" transform="translate(0)" fill="#ade65f"/>
              <g id="Grupo_108453-4" data-name="Grupo 108453" clip-path="url(#clip-path)">
                <g id="Group_881457-4" data-name="Group 881457" transform="translate(-0.001 0.001)">
                  <rect id="Rectangle_298911-4" data-name="Rectangle 298911" width="3.471" height="3.301" fill="#ade65f"/>
                </g>
              </g>
            </g>
          </g>
          <g id="Group_881458-5" data-name="Group 881458" transform="translate(10.73 19.395) rotate(-90)">
            <g id="Grupo_108454-5" data-name="Grupo 108454" transform="translate(0)">
              <path id="Trazado_165449-5" data-name="Trazado 165449" d="M1.735,0A1.694,1.694,0,0,0,0,1.651,1.7,1.7,0,0,0,1.736,3.3,1.694,1.694,0,0,0,3.471,1.651,1.7,1.7,0,0,0,1.735,0Z" transform="translate(0)" fill="#ade65f"/>
              <g id="Grupo_108453-5" data-name="Grupo 108453" clip-path="url(#clip-path)">
                <g id="Group_881457-5" data-name="Group 881457" transform="translate(-0.001 0.001)">
                  <rect id="Rectangle_298911-5" data-name="Rectangle 298911" width="3.471" height="3.301" fill="#ade65f"/>
                </g>
              </g>
            </g>
          </g>
          <g id="Group_881458-6" data-name="Group 881458" transform="translate(0 19.395) rotate(-90)">
            <g id="Grupo_108454-6" data-name="Grupo 108454" transform="translate(0)">
              <path id="Trazado_165449-6" data-name="Trazado 165449" d="M1.735,0A1.694,1.694,0,0,0,0,1.651,1.7,1.7,0,0,0,1.736,3.3,1.694,1.694,0,0,0,3.471,1.651,1.7,1.7,0,0,0,1.735,0Z" transform="translate(0)" fill="#ade65f"/>
              <g id="Grupo_108453-6" data-name="Grupo 108453" clip-path="url(#clip-path)">
                <g id="Group_881457-6" data-name="Group 881457" transform="translate(-0.001 0.001)">
                  <rect id="Rectangle_298911-6" data-name="Rectangle 298911" width="3.471" height="3.301" fill="#ade65f"/>
                </g>
              </g>
            </g>
          </g>
          <g id="Group_881458-7" data-name="Group 881458" transform="translate(21.302 3.471) rotate(-90)">
            <g id="Grupo_108454-7" data-name="Grupo 108454" transform="translate(0)">
              <path id="Trazado_165449-7" data-name="Trazado 165449" d="M1.735,0A1.694,1.694,0,0,0,0,1.651,1.7,1.7,0,0,0,1.736,3.3,1.694,1.694,0,0,0,3.471,1.651,1.7,1.7,0,0,0,1.735,0Z" transform="translate(0)" fill="#ade65f"/>
              <g id="Grupo_108453-7" data-name="Grupo 108453" clip-path="url(#clip-path)">
                <g id="Group_881457-7" data-name="Group 881457" transform="translate(-0.001 0.001)">
                  <rect id="Rectangle_298911-7" data-name="Rectangle 298911" width="3.471" height="3.301" fill="#ade65f"/>
                </g>
              </g>
            </g>
          </g>
          <g id="Group_881458-8" data-name="Group 881458" transform="translate(21.302 11.433) rotate(-90)">
            <g id="Grupo_108454-8" data-name="Grupo 108454" transform="translate(0)">
              <path id="Trazado_165449-8" data-name="Trazado 165449" d="M1.735,0A1.694,1.694,0,0,0,0,1.651,1.7,1.7,0,0,0,1.736,3.3,1.694,1.694,0,0,0,3.471,1.651,1.7,1.7,0,0,0,1.735,0Z" transform="translate(0)" fill="#ade65f"/>
              <g id="Grupo_108453-8" data-name="Grupo 108453" clip-path="url(#clip-path)">
                <g id="Group_881457-8" data-name="Group 881457" transform="translate(-0.001 0.001)">
                  <rect id="Rectangle_298911-8" data-name="Rectangle 298911" width="3.471" height="3.301" fill="#ade65f"/>
                </g>
              </g>
            </g>
          </g>
          <g id="Group_881458-9" data-name="Group 881458" transform="translate(21.302 19.395) rotate(-90)">
            <g id="Grupo_108454-9" data-name="Grupo 108454" transform="translate(0)">
              <path id="Trazado_165449-9" data-name="Trazado 165449" d="M1.735,0A1.694,1.694,0,0,0,0,1.651,1.7,1.7,0,0,0,1.736,3.3,1.694,1.694,0,0,0,3.471,1.651,1.7,1.7,0,0,0,1.735,0Z" transform="translate(0)" fill="#ade65f"/>
              <g id="Grupo_108453-9" data-name="Grupo 108453" clip-path="url(#clip-path)">
                <g id="Group_881457-9" data-name="Group 881457" transform="translate(-0.001 0.001)">
                  <rect id="Rectangle_298911-9" data-name="Rectangle 298911" width="3.471" height="3.301" fill="#ade65f"/>
                </g>
              </g>
            </g>
          </g>
        </g>
      </g>
      <g id="Grupo_160535" data-name="Grupo 160535" transform="translate(414 2377.19)">
        <g id="Grupo_160531" data-name="Grupo 160531" clip-path="url(#clip-path-10)">
          <path id="Trazado_600748" data-name="Trazado 600748" d="M0,118.145a3.923,3.923,0,0,1,2.026-1.69c2.042-.92,4.072-1.869,6.078-2.864a5.444,5.444,0,0,1,2.882-.669c.264.019.551-.219.82-.353.579-.289,1.153-.588,1.716-.876-1.341-.663-2.794-1.379-4.246-2.1A7.679,7.679,0,0,1,4.87,103.81a7.573,7.573,0,0,1,1.237-5.738A21.655,21.655,0,0,0,8.112,94.74c.934-2.108,2.1-4.114,3.182-6.156a18.015,18.015,0,0,1,10.154-8.762c.766-.277,1.337-.079,1.573.544s-.031,1.156-.821,1.444a15.9,15.9,0,0,0-8.233,6.449c-.676,1.06-1.228,2.2-1.821,3.312-.735,1.379-1.453,2.766-2.2,4.19l11.637,5.875c.115-.2.226-.374.313-.555.739-1.534,1.487-3.064,2.2-4.609a3.339,3.339,0,0,1,2.277-1.908c1.91-.518,3.815-1.056,5.8-1.607L30.558,88.7c-.133-.349-.274-.694-.4-1.047a1.088,1.088,0,0,1,.54-1.467,1.066,1.066,0,0,1,1.445.725c.758,1.932,1.5,3.871,2.24,5.809q1.415,3.69,2.825,7.382c.608,1.583,1.584,2,3.149,1.336q6.157-2.6,12.312-5.2c.211-.089.412-.2.637-.316l-1.938-3.772c-1.26.457-2.5.906-3.739,1.356l-5.652,2.057c-.97.353-1.527.238-1.816-.375-.3-.639-.007-1.136,1.037-1.668-.3-1.384-.6-2.791-.914-4.2-.267-1.206-.528-2.414-.819-3.615A8.64,8.64,0,0,0,27.953,79.58c-.306.113-.6.263-.913.353a1.053,1.053,0,0,1-1.376-.631,1.024,1.024,0,0,1,.633-1.363,11,11,0,0,1,10.413.513,3.311,3.311,0,0,0,1.427.369,10.494,10.494,0,0,0,1.886-.129,1.509,1.509,0,0,0,.676-.3c.99-.745,1.954-1.525,2.945-2.268a10.347,10.347,0,0,1,15.931,4.786,11.626,11.626,0,0,1-.426,9.818,1.431,1.431,0,0,0,.02.879c.132.563.366,1.1.474,1.669.074.389.181.588.613.56.483-.031.969-.007,1.529-.007V90.468q0-.983,0-1.965c0-1.042.36-1.575,1.069-1.59.733-.015,1.106.529,1.107,1.622q0,2.211,0,4.421v.819h4.917V76.5H63.962v3.209c0,1.006.007,2.012,0,3.018-.008.885-.451,1.434-1.115,1.412-.646-.022-1.055-.55-1.057-1.4-.006-1.988,0-3.977-.009-5.965a1.258,1.258,0,0,0-.171-.711,3.389,3.389,0,0,1,1.763-5.2,6.342,6.342,0,0,1,1.526-.147c1.193-.02,2.386-.014,3.579,0a3.253,3.253,0,0,1,3.4,3.394,2.339,2.339,0,0,1-.606,2c-.159.142-.15.517-.15.785q-.011,11.3-.006,22.6,0,10.456,0,20.913c0,1.637-.385,2.021-2.023,2.021-5.193,0-10.386.01-15.579-.017A2.689,2.689,0,0,1,52.083,122c-.512-.347-.491-.937-.312-1.528,1.035-3.412,2.052-6.83,3.071-10.247.085-.283.143-.574.23-.926-1.756,0-3.438-.018-5.12,0a11.092,11.092,0,0,1-9.87-5.114.817.817,0,0,0-.605-.292,4.072,4.072,0,0,1-4.108-2.675c-.818-2.056-1.6-4.128-2.418-6.257-2.1.584-4.186,1.149-6.257,1.755a1.128,1.128,0,0,0-.584.559c-.869,1.755-1.707,3.525-2.586,5.354.245.137.461.26.68.378l11.459,6.195c.123.067.248.131.366.206A1.061,1.061,0,1,1,35,111.266c-1.366-.711-2.708-1.471-4.074-2.183Q20.343,103.564,9.749,98.06c-.225-.117-.457-.221-.675-.326-2.134,2.146-2.736,4.738-1.669,7.1a5.622,5.622,0,0,0,2.739,2.794c2.764,1.36,5.524,2.727,8.3,4.07a2.247,2.247,0,0,0,.94.19c2.48.015,4.959.008,7.439.008.187,0,.375-.006.561,0,.743.04,1.231.469,1.229,1.074a1.138,1.138,0,0,1-1.233,1.077c-.842.017-1.684,0-2.526,0H13.533v6.17c.242.012.488.035.733.035q9.053,0,18.106,0a4.82,4.82,0,0,0,4.905-5.639,1.12,1.12,0,0,1,.9-1.357,1.151,1.151,0,0,1,1.236,1.073,7.007,7.007,0,0,1-5.172,7.845,9.726,9.726,0,0,1-2.222.228c-6.035.018-12.071,0-18.106.021-1.173,0-2.145-.209-2.528-1.491-2.134.434-4.2.9-6.287,1.267a4.434,4.434,0,0,1-4.972-2.637A1.072,1.072,0,0,0,0,119.408v-1.263m41.955-15.056a8.989,8.989,0,0,0,7.805,4.1q9.226.012,18.452,0c.226,0,.451-.02.667-.029V95.986h-13.4a2.446,2.446,0,0,1-1.763,2.138c-1.9.763-3.784,1.583-5.673,2.382-2.012.851-4.024,1.706-6.088,2.581m26.955,6.26a2.111,2.111,0,0,0-.271-.044c-3.6,0-7.205.006-10.808-.016-.438,0-.546.2-.648.544-.718,2.437-1.449,4.871-2.176,7.305-.3,1.018-.607,2.036-.92,3.083H68.91ZM57.2,89.713c.088-.158.158-.275.22-.4a9.179,9.179,0,0,0,.043-7.914A8.174,8.174,0,0,0,45.07,77.738c-.8.572-1.559,1.192-2.333,1.8-.879.685-1.692,1.51-2.962,1.322-.053-.008-.116.058-.061.028l2.2,4.93h1.74c0-.382,0-.707,0-1.032a3.719,3.719,0,0,1,3.465-3.655,3.62,3.62,0,0,1,3.817,3c.164,1.124.05,2.285.142,3.423a1.976,1.976,0,0,1-1.121,2.123,7.438,7.438,0,0,0-1.041.807l.153.26a21.434,21.434,0,0,0,2.564-1.138,4.535,4.535,0,0,1,4.335-.43c.4.169.8.35,1.228.535m-13.95,3.1c1.06-.381,2.018-.744,2.988-1.065A.628.628,0,0,0,46.752,91a2.437,2.437,0,0,1,1.059-2.384A2.188,2.188,0,0,0,48.9,86.171c-.045-.44,0-.888-.016-1.331a1.471,1.471,0,0,0-1.406-1.533,1.5,1.5,0,0,0-1.668,1.344,9.36,9.36,0,0,0-.043,1.119,2.21,2.21,0,0,1-2.09,2.215c-.458.037-.921.006-1.49.006l1.064,4.825M2.157,118.774A2.312,2.312,0,0,0,4.92,120.1c2.008-.393,4.008-.825,6.007-1.26.164-.036.419-.218.423-.338.032-1.133.019-2.268.019-3.618-.811.216-1.5.352-2.156.588-.632.228-1.227.559-1.837.846l-5.219,2.462m67.58-44.492c.035-.717-.184-1.311-.868-1.345-1.6-.079-3.211-.077-4.813-.008a.908.908,0,0,0-.747,1.353ZM57.516,93.829c0-1.876-2.36-3.342-4.236-2.65.428.827.844,1.651,1.288,2.459a.533.533,0,0,0,.4.183c.836.017,1.672.008,2.547.008" transform="translate(0 -57.447)" fill="#fff"/>
          <path id="Trazado_600749" data-name="Trazado 600749" d="M276.679,3.462a9.324,9.324,0,0,0-3.458-1.149c-.735-.112-1.486-.121-2.231-.16s-1.233-.453-1.249-1.061a1.1,1.1,0,0,1,1.2-1.09,13.957,13.957,0,0,1,6.436,1.386,2.4,2.4,0,0,1,1.544,2.629,2.534,2.534,0,0,1-2.62,1.8c-.748,0-1.5-.031-2.243-.011a1.721,1.721,0,0,0-.8.2c-.415.243-.567.582-.06.91,1.981,1.283,1.918,3.273,1.78,5.258a.942.942,0,0,1-1.1.855.957.957,0,0,1-.972-.993c-.022-.49-.013-.981-.013-1.472a2.135,2.135,0,0,0-.937-1.913,2.349,2.349,0,0,1-1.19-2.618,2.916,2.916,0,0,1,2.472-2.281,14.789,14.789,0,0,1,2.366-.055c.35,0,.7,0,1.051,0q.009-.114.018-.228" transform="translate(-219.16 0)" fill="#fff"/>
        </g>
      </g>
    </g>
  </g>
</svg>
