<svg xmlns="http://www.w3.org/2000/svg" xmlns:xlink="http://www.w3.org/1999/xlink" width="113" height="97" viewBox="0 0 113 97">
  <defs>
    <clipPath id="clip-path">
      <path id="Trazado_165450" data-name="Trazado 165450" d="M1.735,0A1.694,1.694,0,0,0,0,1.651,1.7,1.7,0,0,0,1.736,3.3,1.694,1.694,0,0,0,3.471,1.651,1.7,1.7,0,0,0,1.735,0Z" fill="#ade65f"/>
    </clipPath>
    <clipPath id="clip-path-10">
      <rect id="Rectángulo_46606" data-name="Rectángulo 46606" width="63.125" height="69.94" fill="#fff"/>
    </clipPath>
  </defs>
  <g id="Grupo_160790" data-name="Grupo 160790" transform="translate(-768 -2266)">
    <g id="Grupo_160664" data-name="Grupo 160664" transform="translate(16 -97)">
      <g id="Grupo_160536" data-name="Grupo 160536" transform="translate(359)">
        <rect id="Rectángulo_46591" data-name="Rectángulo 46591" width="97" height="97" rx="15" transform="translate(401 2363)" fill="#54397c"/>
        <path id="Unión_8" data-name="Unión 8" d="M2534.676,11735.576l-9.773-10.074a8.183,8.183,0,0,1,.2-11.6l0,0a8.267,8.267,0,0,1,11.655.2l9.771,10.076a8.178,8.178,0,0,1-.2,11.6l0,0a8.264,8.264,0,0,1-11.655-.2Z" transform="translate(-2042.85 -9284.85)" fill="#4462fe"/>
        <g id="Grupo_160533" data-name="Grupo 160533" transform="translate(393 2371.127)">
          <g id="Group_881458" data-name="Group 881458" transform="translate(0 3.471) rotate(-90)">
            <g id="Grupo_108454" data-name="Grupo 108454" transform="translate(0)">
              <path id="Trazado_165449" data-name="Trazado 165449" d="M1.735,0A1.694,1.694,0,0,0,0,1.651,1.7,1.7,0,0,0,1.736,3.3,1.694,1.694,0,0,0,3.471,1.651,1.7,1.7,0,0,0,1.735,0Z" transform="translate(0)" fill="#ade65f"/>
              <g id="Grupo_108453" data-name="Grupo 108453" clip-path="url(#clip-path)">
                <g id="Group_881457" data-name="Group 881457" transform="translate(-0.001 0.001)">
                  <rect id="Rectangle_298911" data-name="Rectangle 298911" width="3.471" height="3.301" fill="#ade65f"/>
                </g>
              </g>
            </g>
          </g>
          <g id="Group_881458-2" data-name="Group 881458" transform="translate(10.73 3.471) rotate(-90)">
            <g id="Grupo_108454-2" data-name="Grupo 108454" transform="translate(0)">
              <path id="Trazado_165449-2" data-name="Trazado 165449" d="M1.735,0A1.694,1.694,0,0,0,0,1.651,1.7,1.7,0,0,0,1.736,3.3,1.694,1.694,0,0,0,3.471,1.651,1.7,1.7,0,0,0,1.735,0Z" transform="translate(0)" fill="#ade65f"/>
              <g id="Grupo_108453-2" data-name="Grupo 108453" clip-path="url(#clip-path)">
                <g id="Group_881457-2" data-name="Group 881457" transform="translate(-0.001 0.001)">
                  <rect id="Rectangle_298911-2" data-name="Rectangle 298911" width="3.471" height="3.301" fill="#ade65f"/>
                </g>
              </g>
            </g>
          </g>
          <g id="Group_881458-3" data-name="Group 881458" transform="translate(10.73 11.433) rotate(-90)">
            <g id="Grupo_108454-3" data-name="Grupo 108454" transform="translate(0)">
              <path id="Trazado_165449-3" data-name="Trazado 165449" d="M1.735,0A1.694,1.694,0,0,0,0,1.651,1.7,1.7,0,0,0,1.736,3.3,1.694,1.694,0,0,0,3.471,1.651,1.7,1.7,0,0,0,1.735,0Z" transform="translate(0)" fill="#ade65f"/>
              <g id="Grupo_108453-3" data-name="Grupo 108453" clip-path="url(#clip-path)">
                <g id="Group_881457-3" data-name="Group 881457" transform="translate(-0.001 0.001)">
                  <rect id="Rectangle_298911-3" data-name="Rectangle 298911" width="3.471" height="3.301" fill="#ade65f"/>
                </g>
              </g>
            </g>
          </g>
          <g id="Group_881458-4" data-name="Group 881458" transform="translate(0 11.433) rotate(-90)">
            <g id="Grupo_108454-4" data-name="Grupo 108454" transform="translate(0)">
              <path id="Trazado_165449-4" data-name="Trazado 165449" d="M1.735,0A1.694,1.694,0,0,0,0,1.651,1.7,1.7,0,0,0,1.736,3.3,1.694,1.694,0,0,0,3.471,1.651,1.7,1.7,0,0,0,1.735,0Z" transform="translate(0)" fill="#ade65f"/>
              <g id="Grupo_108453-4" data-name="Grupo 108453" clip-path="url(#clip-path)">
                <g id="Group_881457-4" data-name="Group 881457" transform="translate(-0.001 0.001)">
                  <rect id="Rectangle_298911-4" data-name="Rectangle 298911" width="3.471" height="3.301" fill="#ade65f"/>
                </g>
              </g>
            </g>
          </g>
          <g id="Group_881458-5" data-name="Group 881458" transform="translate(10.73 19.395) rotate(-90)">
            <g id="Grupo_108454-5" data-name="Grupo 108454" transform="translate(0)">
              <path id="Trazado_165449-5" data-name="Trazado 165449" d="M1.735,0A1.694,1.694,0,0,0,0,1.651,1.7,1.7,0,0,0,1.736,3.3,1.694,1.694,0,0,0,3.471,1.651,1.7,1.7,0,0,0,1.735,0Z" transform="translate(0)" fill="#ade65f"/>
              <g id="Grupo_108453-5" data-name="Grupo 108453" clip-path="url(#clip-path)">
                <g id="Group_881457-5" data-name="Group 881457" transform="translate(-0.001 0.001)">
                  <rect id="Rectangle_298911-5" data-name="Rectangle 298911" width="3.471" height="3.301" fill="#ade65f"/>
                </g>
              </g>
            </g>
          </g>
          <g id="Group_881458-6" data-name="Group 881458" transform="translate(0 19.395) rotate(-90)">
            <g id="Grupo_108454-6" data-name="Grupo 108454" transform="translate(0)">
              <path id="Trazado_165449-6" data-name="Trazado 165449" d="M1.735,0A1.694,1.694,0,0,0,0,1.651,1.7,1.7,0,0,0,1.736,3.3,1.694,1.694,0,0,0,3.471,1.651,1.7,1.7,0,0,0,1.735,0Z" transform="translate(0)" fill="#ade65f"/>
              <g id="Grupo_108453-6" data-name="Grupo 108453" clip-path="url(#clip-path)">
                <g id="Group_881457-6" data-name="Group 881457" transform="translate(-0.001 0.001)">
                  <rect id="Rectangle_298911-6" data-name="Rectangle 298911" width="3.471" height="3.301" fill="#ade65f"/>
                </g>
              </g>
            </g>
          </g>
          <g id="Group_881458-7" data-name="Group 881458" transform="translate(21.302 3.471) rotate(-90)">
            <g id="Grupo_108454-7" data-name="Grupo 108454" transform="translate(0)">
              <path id="Trazado_165449-7" data-name="Trazado 165449" d="M1.735,0A1.694,1.694,0,0,0,0,1.651,1.7,1.7,0,0,0,1.736,3.3,1.694,1.694,0,0,0,3.471,1.651,1.7,1.7,0,0,0,1.735,0Z" transform="translate(0)" fill="#ade65f"/>
              <g id="Grupo_108453-7" data-name="Grupo 108453" clip-path="url(#clip-path)">
                <g id="Group_881457-7" data-name="Group 881457" transform="translate(-0.001 0.001)">
                  <rect id="Rectangle_298911-7" data-name="Rectangle 298911" width="3.471" height="3.301" fill="#ade65f"/>
                </g>
              </g>
            </g>
          </g>
          <g id="Group_881458-8" data-name="Group 881458" transform="translate(21.302 11.433) rotate(-90)">
            <g id="Grupo_108454-8" data-name="Grupo 108454" transform="translate(0)">
              <path id="Trazado_165449-8" data-name="Trazado 165449" d="M1.735,0A1.694,1.694,0,0,0,0,1.651,1.7,1.7,0,0,0,1.736,3.3,1.694,1.694,0,0,0,3.471,1.651,1.7,1.7,0,0,0,1.735,0Z" transform="translate(0)" fill="#ade65f"/>
              <g id="Grupo_108453-8" data-name="Grupo 108453" clip-path="url(#clip-path)">
                <g id="Group_881457-8" data-name="Group 881457" transform="translate(-0.001 0.001)">
                  <rect id="Rectangle_298911-8" data-name="Rectangle 298911" width="3.471" height="3.301" fill="#ade65f"/>
                </g>
              </g>
            </g>
          </g>
          <g id="Group_881458-9" data-name="Group 881458" transform="translate(21.302 19.395) rotate(-90)">
            <g id="Grupo_108454-9" data-name="Grupo 108454" transform="translate(0)">
              <path id="Trazado_165449-9" data-name="Trazado 165449" d="M1.735,0A1.694,1.694,0,0,0,0,1.651,1.7,1.7,0,0,0,1.736,3.3,1.694,1.694,0,0,0,3.471,1.651,1.7,1.7,0,0,0,1.735,0Z" transform="translate(0)" fill="#ade65f"/>
              <g id="Grupo_108453-9" data-name="Grupo 108453" clip-path="url(#clip-path)">
                <g id="Group_881457-9" data-name="Group 881457" transform="translate(-0.001 0.001)">
                  <rect id="Rectangle_298911-9" data-name="Rectangle 298911" width="3.471" height="3.301" fill="#ade65f"/>
                </g>
              </g>
            </g>
          </g>
        </g>
      </g>
      <g id="Grupo_160545" data-name="Grupo 160545" transform="translate(780 2377)">
        <g id="Grupo_160544" data-name="Grupo 160544" clip-path="url(#clip-path-10)">
          <path id="Trazado_600751" data-name="Trazado 600751" d="M20.5,0a11.54,11.54,0,0,1,1.325.626,4.359,4.359,0,0,1,2.1,4.114,4.417,4.417,0,0,1,5.253.58c1.623,1.437,1.436,3.377,1.4,5.287a12.012,12.012,0,0,1,1.907-.472,4.332,4.332,0,0,1,4.744,4.33c.06,2.571.022,5.145.011,7.717,0,.776-.436,1.241-1.072,1.229s-1.032-.474-1.035-1.267c-.011-2.572.015-5.146-.016-7.718a2.241,2.241,0,0,0-3-2.115,2.318,2.318,0,0,0-1.531,2.336q0,8.435,0,16.87a5.035,5.035,0,0,1-.013.682,1.033,1.033,0,0,1-1.089.918.964.964,0,0,1-.955-.968c-.016-.25-.015-.5-.015-.751q0-11.167-.007-22.334a4.475,4.475,0,0,0-.166-1.343,2.21,2.21,0,0,0-2.488-1.451,2.274,2.274,0,0,0-1.92,2.091,6.871,6.871,0,0,0-.015.751q0,11.2,0,22.4a6.82,6.82,0,0,1-.011.683.943.943,0,0,1-1,.918.961.961,0,0,1-1.028-.892,4.55,4.55,0,0,1-.011-.682q0-13.455,0-26.91a2.31,2.31,0,0,0-1.777-2.493A2.229,2.229,0,0,0,17.35,3.924a7.186,7.186,0,0,0-.059,1.089q0,13.182,0,26.364a7.7,7.7,0,0,1-.03.818.947.947,0,0,1-1,.92,1,1,0,0,1-1.041-.892,3.387,3.387,0,0,1-.022-.681q0-10.621,0-21.241a2.272,2.272,0,1,0-4.536.018q.017,7.411.005,14.821c0,1.981.017,3.962-.015,5.942a1.8,1.8,0,0,1-.345,1.054c-.473.571-1.27.388-1.665-.352-.781-1.462-1.52-2.946-2.309-4.4a2.163,2.163,0,0,0-2.349-1.146,2.18,2.18,0,0,0-1.823,1.634,2.564,2.564,0,0,0,.312,1.963C5,34.707,7.511,39.6,10.062,44.464A4.829,4.829,0,0,1,10.673,47c-.05,1.159-.006,2.322-.014,3.483-.006.85-.382,1.3-1.06,1.3s-1.027-.436-1.05-1.309a1.371,1.371,0,0,1,0-.2,12.436,12.436,0,0,0-1.907-7.946C4.475,38.489,2.541,34.525.537,30.6a4.359,4.359,0,0,1,7.512-4.421,1.719,1.719,0,0,0,.5.591v-.709q0-7.786,0-15.572a4.4,4.4,0,0,1,3.286-4.537,4.558,4.558,0,0,1,3.409.493,19.221,19.221,0,0,1,.021-2.677A4.211,4.211,0,0,1,18.494.127,1.234,1.234,0,0,0,18.727,0Z" transform="translate(0)" fill="#fff"/>
          <path id="Trazado_600752" data-name="Trazado 600752" d="M89.414,187.269c-.775-.639-.831-.92-.356-1.789a1.649,1.649,0,0,0-.716-2.382,13.228,13.228,0,0,0-3.209-1.005,14.553,14.553,0,0,1-5.972-2.111c-2.487-1.776-3.114-4.284-2.533-7.124a5.969,5.969,0,0,1,5.036-4.827,13.3,13.3,0,0,1,2.7-.271,5.561,5.561,0,0,0,4.569-2.168,24.235,24.235,0,0,0,2.131-3.234,10.072,10.072,0,0,1,5.276-4.7,1.092,1.092,0,0,0,.494-.607,16.871,16.871,0,0,0,.805-6.568c-.057-1.8-.012-3.6-.011-5.395,0-.159-.007-.319,0-.478a1.118,1.118,0,0,1,1.032-1.149,1.1,1.1,0,0,1,1.072,1.174c.021,1.684.008,3.369.008,5.054,0,.272,0,.543,0,.931.182-.158.3-.24.388-.34,4.068-4.382,9.049-6.034,14.808-4.459,5.714,1.562,9.2,5.5,10.4,11.293a14.52,14.52,0,0,1-24.522,12.967,4.373,4.373,0,0,0-1.079-.514c0,1.161,0,2.087,0,3.014,0,.5.009,1,0,1.5-.019.762-.441,1.268-1.045,1.276s-1.053-.5-1.064-1.255c-.016-1.161,0-2.322-.005-3.483v-.833c-.545.031-1.035.054-1.524.089a1.273,1.273,0,0,1-1.358-.561c-.291-.5-.056-.912.209-1.326.7-1.092,1.4-2.182,2.071-3.287a1.081,1.081,0,0,0,.166-.675c-.225-1.338-.488-2.669-.751-4.067a2.056,2.056,0,0,0-.388.133,7.5,7.5,0,0,0-2.962,2.933c-.63,1.077-1.251,2.167-1.974,3.181a8.123,8.123,0,0,1-6.935,3.659,9.614,9.614,0,0,0-2.292.247,4.057,4.057,0,0,0-3.33,3.67,4.458,4.458,0,0,0,2.023,4.653,12.368,12.368,0,0,0,5.009,1.6,9.811,9.811,0,0,1,3.79,1.219,3.792,3.792,0,0,1,1.786,4.559,8.132,8.132,0,0,1-.937,1.457ZM97.59,167.73c.911-.043,1.7-.041,2.486-.127a2.418,2.418,0,0,1,2.144.863,11.885,11.885,0,0,0,10.99,3.588,12.453,12.453,0,1,0-13.9-8.354,1.721,1.721,0,0,1-.223,1.658c-.51.74-.965,1.519-1.5,2.372" transform="translate(-62.507 -117.328)" fill="#fff"/>
          <path id="Trazado_600753" data-name="Trazado 600753" d="M47.537,315.45a1.7,1.7,0,0,1-.642-1.476c.015-4.136.006-8.272.011-12.409,0-.247-.033-.566.1-.725.237-.285.58-.638.9-.655a1.477,1.477,0,0,1,.965.55c.162.181.142.558.143.847.008,4.136,0,8.272.015,12.409a1.615,1.615,0,0,1-.669,1.459Z" transform="translate(-38.354 -245.51)" fill="#fff"/>
          <path id="Trazado_600754" data-name="Trazado 600754" d="M193.437,342.705a1.652,1.652,0,0,1-.656-1.471c.023-2.094.007-4.188.012-6.282a2.842,2.842,0,0,1,.067-.674,1.021,1.021,0,0,1,1.979,0,2.789,2.789,0,0,1,.065.674c0,2.094-.012,4.188.012,6.282a1.642,1.642,0,0,1-.66,1.469Z" transform="translate(-157.668 -272.765)" fill="#fff"/>
          <path id="Trazado_600755" data-name="Trazado 600755" d="M158.857,282.28a1.09,1.09,0,0,1-1.131,1.1,1.068,1.068,0,0,1-1.053-1.1,1.043,1.043,0,0,1,1.054-1.09,1.061,1.061,0,0,1,1.13,1.091" transform="translate(-128.136 -229.974)" fill="#fff"/>
          <path id="Trazado_600756" data-name="Trazado 600756" d="M167.677,357.838a1.15,1.15,0,0,1,1.134,1.115,1.116,1.116,0,0,1-1.062,1.1,1.131,1.131,0,0,1-1.172-1.065,1.171,1.171,0,0,1,1.1-1.153" transform="translate(-136.236 -292.663)" fill="#fff"/>
          <path id="Trazado_600757" data-name="Trazado 600757" d="M143.737,299.617a1.092,1.092,0,0,1-1.133,1.1,1.064,1.064,0,0,1-1.074-1.08,1.086,1.086,0,0,1,1.05-1.113,1.122,1.122,0,0,1,1.157,1.09" transform="translate(-115.752 -244.154)" fill="#fff"/>
          <path id="Trazado_600758" data-name="Trazado 600758" d="M130.5,326.676a1.056,1.056,0,0,1-1.082,1.069,1.084,1.084,0,0,1-1.113-1.118,1.117,1.117,0,0,1,1.094-1.082,1.086,1.086,0,0,1,1.1,1.131" transform="translate(-104.939 -266.251)" fill="#fff"/>
          <path id="Trazado_600759" data-name="Trazado 600759" d="M168.811,325.013a1.13,1.13,0,0,1-1.162,1.09,1.148,1.148,0,0,1-1.07-1.12,1.116,1.116,0,0,1,2.232.03" transform="translate(-136.239 -264.912)" fill="#fff"/>
          <path id="Trazado_600760" data-name="Trazado 600760" d="M107.686,303.432a1.145,1.145,0,0,1-1.086-1.17,1.111,1.111,0,0,1,1.123-1.051,1.076,1.076,0,0,1,1.07,1.157,1.1,1.1,0,0,1-1.106,1.064" transform="translate(-87.183 -246.35)" fill="#fff"/>
          <path id="Trazado_600761" data-name="Trazado 600761" d="M217.7,172.97a10.965,10.965,0,1,1-10.942,10.961A10.954,10.954,0,0,1,217.7,172.97m.008,2.089a8.885,8.885,0,1,0,8.842,8.912,8.866,8.866,0,0,0-8.842-8.912" transform="translate(-169.102 -141.466)" fill="#fff"/>
          <path id="Trazado_600762" data-name="Trazado 600762" d="M274.317,233.5a3.074,3.074,0,1,1-3.091-3.131,3.107,3.107,0,0,1,3.091,3.131m-3.082-1.01a.992.992,0,1,0,.048,1.982.991.991,0,1,0-.048-1.982" transform="translate(-219.326 -188.413)" fill="#fff"/>
          <path id="Trazado_600763" data-name="Trazado 600763" d="M230.5,225.1a3.113,3.113,0,1,1-3.1,3.074,3.153,3.153,0,0,1,3.1-3.074m-.033,4.1a.962.962,0,0,0,1.027-.945.974.974,0,0,0-.94-1.036.991.991,0,1,0-.087,1.981" transform="translate(-185.975 -184.103)" fill="#fff"/>
          <path id="Trazado_600764" data-name="Trazado 600764" d="M254.678,192.028a3.091,3.091,0,0,1-.02,6.182,3.091,3.091,0,0,1,.02-6.182m1.008,3.112a1.065,1.065,0,0,0-.968-1.036,1.025,1.025,0,0,0-1.055,1,1,1,0,0,0,.954,1.022,1.023,1.023,0,0,0,1.069-.987" transform="translate(-205.766 -157.053)" fill="#fff"/>
        </g>
      </g>
    </g>
  </g>
</svg>
