<svg xmlns="http://www.w3.org/2000/svg" xmlns:xlink="http://www.w3.org/1999/xlink" width="113" height="97" viewBox="0 0 113 97">
  <defs>
    <clipPath id="clip-path">
      <path id="Trazado_165450" data-name="Trazado 165450" d="M1.735,0A1.694,1.694,0,0,0,0,1.651,1.7,1.7,0,0,0,1.736,3.3,1.694,1.694,0,0,0,3.471,1.651,1.7,1.7,0,0,0,1.735,0Z" fill="#ade65f"/>
    </clipPath>
    <clipPath id="clip-path-10">
      <rect id="Rectángulo_46608" data-name="Rectángulo 46608" width="41.596" height="63.434" fill="#fff"/>
    </clipPath>
  </defs>
  <g id="Grupo_160791" data-name="Grupo 160791" transform="translate(-1094 -2312)">
    <g id="Grupo_160665" data-name="Grupo 160665" transform="translate(0 -51)">
      <g id="Grupo_160537" data-name="Grupo 160537" transform="translate(701)">
        <rect id="Rectángulo_46591" data-name="Rectángulo 46591" width="97" height="97" rx="15" transform="translate(401 2363)" fill="#54397c"/>
        <path id="Unión_8" data-name="Unión 8" d="M2534.676,11735.576l-9.773-10.074a8.183,8.183,0,0,1,.2-11.6l0,0a8.267,8.267,0,0,1,11.655.2l9.771,10.076a8.178,8.178,0,0,1-.2,11.6l0,0a8.264,8.264,0,0,1-11.655-.2Z" transform="translate(-2042.85 -9284.85)" fill="#4462fe"/>
        <g id="Grupo_160533" data-name="Grupo 160533" transform="translate(393 2371.127)">
          <g id="Group_881458" data-name="Group 881458" transform="translate(0 3.471) rotate(-90)">
            <g id="Grupo_108454" data-name="Grupo 108454" transform="translate(0)">
              <path id="Trazado_165449" data-name="Trazado 165449" d="M1.735,0A1.694,1.694,0,0,0,0,1.651,1.7,1.7,0,0,0,1.736,3.3,1.694,1.694,0,0,0,3.471,1.651,1.7,1.7,0,0,0,1.735,0Z" transform="translate(0)" fill="#ade65f"/>
              <g id="Grupo_108453" data-name="Grupo 108453" clip-path="url(#clip-path)">
                <g id="Group_881457" data-name="Group 881457" transform="translate(-0.001 0.001)">
                  <rect id="Rectangle_298911" data-name="Rectangle 298911" width="3.471" height="3.301" fill="#ade65f"/>
                </g>
              </g>
            </g>
          </g>
          <g id="Group_881458-2" data-name="Group 881458" transform="translate(10.73 3.471) rotate(-90)">
            <g id="Grupo_108454-2" data-name="Grupo 108454" transform="translate(0)">
              <path id="Trazado_165449-2" data-name="Trazado 165449" d="M1.735,0A1.694,1.694,0,0,0,0,1.651,1.7,1.7,0,0,0,1.736,3.3,1.694,1.694,0,0,0,3.471,1.651,1.7,1.7,0,0,0,1.735,0Z" transform="translate(0)" fill="#ade65f"/>
              <g id="Grupo_108453-2" data-name="Grupo 108453" clip-path="url(#clip-path)">
                <g id="Group_881457-2" data-name="Group 881457" transform="translate(-0.001 0.001)">
                  <rect id="Rectangle_298911-2" data-name="Rectangle 298911" width="3.471" height="3.301" fill="#ade65f"/>
                </g>
              </g>
            </g>
          </g>
          <g id="Group_881458-3" data-name="Group 881458" transform="translate(10.73 11.433) rotate(-90)">
            <g id="Grupo_108454-3" data-name="Grupo 108454" transform="translate(0)">
              <path id="Trazado_165449-3" data-name="Trazado 165449" d="M1.735,0A1.694,1.694,0,0,0,0,1.651,1.7,1.7,0,0,0,1.736,3.3,1.694,1.694,0,0,0,3.471,1.651,1.7,1.7,0,0,0,1.735,0Z" transform="translate(0)" fill="#ade65f"/>
              <g id="Grupo_108453-3" data-name="Grupo 108453" clip-path="url(#clip-path)">
                <g id="Group_881457-3" data-name="Group 881457" transform="translate(-0.001 0.001)">
                  <rect id="Rectangle_298911-3" data-name="Rectangle 298911" width="3.471" height="3.301" fill="#ade65f"/>
                </g>
              </g>
            </g>
          </g>
          <g id="Group_881458-4" data-name="Group 881458" transform="translate(0 11.433) rotate(-90)">
            <g id="Grupo_108454-4" data-name="Grupo 108454" transform="translate(0)">
              <path id="Trazado_165449-4" data-name="Trazado 165449" d="M1.735,0A1.694,1.694,0,0,0,0,1.651,1.7,1.7,0,0,0,1.736,3.3,1.694,1.694,0,0,0,3.471,1.651,1.7,1.7,0,0,0,1.735,0Z" transform="translate(0)" fill="#ade65f"/>
              <g id="Grupo_108453-4" data-name="Grupo 108453" clip-path="url(#clip-path)">
                <g id="Group_881457-4" data-name="Group 881457" transform="translate(-0.001 0.001)">
                  <rect id="Rectangle_298911-4" data-name="Rectangle 298911" width="3.471" height="3.301" fill="#ade65f"/>
                </g>
              </g>
            </g>
          </g>
          <g id="Group_881458-5" data-name="Group 881458" transform="translate(10.73 19.395) rotate(-90)">
            <g id="Grupo_108454-5" data-name="Grupo 108454" transform="translate(0)">
              <path id="Trazado_165449-5" data-name="Trazado 165449" d="M1.735,0A1.694,1.694,0,0,0,0,1.651,1.7,1.7,0,0,0,1.736,3.3,1.694,1.694,0,0,0,3.471,1.651,1.7,1.7,0,0,0,1.735,0Z" transform="translate(0)" fill="#ade65f"/>
              <g id="Grupo_108453-5" data-name="Grupo 108453" clip-path="url(#clip-path)">
                <g id="Group_881457-5" data-name="Group 881457" transform="translate(-0.001 0.001)">
                  <rect id="Rectangle_298911-5" data-name="Rectangle 298911" width="3.471" height="3.301" fill="#ade65f"/>
                </g>
              </g>
            </g>
          </g>
          <g id="Group_881458-6" data-name="Group 881458" transform="translate(0 19.395) rotate(-90)">
            <g id="Grupo_108454-6" data-name="Grupo 108454" transform="translate(0)">
              <path id="Trazado_165449-6" data-name="Trazado 165449" d="M1.735,0A1.694,1.694,0,0,0,0,1.651,1.7,1.7,0,0,0,1.736,3.3,1.694,1.694,0,0,0,3.471,1.651,1.7,1.7,0,0,0,1.735,0Z" transform="translate(0)" fill="#ade65f"/>
              <g id="Grupo_108453-6" data-name="Grupo 108453" clip-path="url(#clip-path)">
                <g id="Group_881457-6" data-name="Group 881457" transform="translate(-0.001 0.001)">
                  <rect id="Rectangle_298911-6" data-name="Rectangle 298911" width="3.471" height="3.301" fill="#ade65f"/>
                </g>
              </g>
            </g>
          </g>
          <g id="Group_881458-7" data-name="Group 881458" transform="translate(21.302 3.471) rotate(-90)">
            <g id="Grupo_108454-7" data-name="Grupo 108454" transform="translate(0)">
              <path id="Trazado_165449-7" data-name="Trazado 165449" d="M1.735,0A1.694,1.694,0,0,0,0,1.651,1.7,1.7,0,0,0,1.736,3.3,1.694,1.694,0,0,0,3.471,1.651,1.7,1.7,0,0,0,1.735,0Z" transform="translate(0)" fill="#ade65f"/>
              <g id="Grupo_108453-7" data-name="Grupo 108453" clip-path="url(#clip-path)">
                <g id="Group_881457-7" data-name="Group 881457" transform="translate(-0.001 0.001)">
                  <rect id="Rectangle_298911-7" data-name="Rectangle 298911" width="3.471" height="3.301" fill="#ade65f"/>
                </g>
              </g>
            </g>
          </g>
          <g id="Group_881458-8" data-name="Group 881458" transform="translate(21.302 11.433) rotate(-90)">
            <g id="Grupo_108454-8" data-name="Grupo 108454" transform="translate(0)">
              <path id="Trazado_165449-8" data-name="Trazado 165449" d="M1.735,0A1.694,1.694,0,0,0,0,1.651,1.7,1.7,0,0,0,1.736,3.3,1.694,1.694,0,0,0,3.471,1.651,1.7,1.7,0,0,0,1.735,0Z" transform="translate(0)" fill="#ade65f"/>
              <g id="Grupo_108453-8" data-name="Grupo 108453" clip-path="url(#clip-path)">
                <g id="Group_881457-8" data-name="Group 881457" transform="translate(-0.001 0.001)">
                  <rect id="Rectangle_298911-8" data-name="Rectangle 298911" width="3.471" height="3.301" fill="#ade65f"/>
                </g>
              </g>
            </g>
          </g>
          <g id="Group_881458-9" data-name="Group 881458" transform="translate(21.302 19.395) rotate(-90)">
            <g id="Grupo_108454-9" data-name="Grupo 108454" transform="translate(0)">
              <path id="Trazado_165449-9" data-name="Trazado 165449" d="M1.735,0A1.694,1.694,0,0,0,0,1.651,1.7,1.7,0,0,0,1.736,3.3,1.694,1.694,0,0,0,3.471,1.651,1.7,1.7,0,0,0,1.735,0Z" transform="translate(0)" fill="#ade65f"/>
              <g id="Grupo_108453-9" data-name="Grupo 108453" clip-path="url(#clip-path)">
                <g id="Group_881457-9" data-name="Group 881457" transform="translate(-0.001 0.001)">
                  <rect id="Rectangle_298911-9" data-name="Rectangle 298911" width="3.471" height="3.301" fill="#ade65f"/>
                </g>
              </g>
            </g>
          </g>
        </g>
      </g>
      <g id="Grupo_160546" data-name="Grupo 160546" transform="translate(1130 2380)">
        <g id="Grupo_160548" data-name="Grupo 160548" clip-path="url(#clip-path-10)">
          <path id="Trazado_600768" data-name="Trazado 600768" d="M176.9,381.494a14.384,14.384,0,0,1-2.518-1.118,5.92,5.92,0,0,1-1.923-7.46,14.091,14.091,0,0,1,4.371-5.487,1.453,1.453,0,0,1,1.819-.084,12.685,12.685,0,0,1,4.856,6.707,5.875,5.875,0,0,1-4.585,7.345,1.067,1.067,0,0,0-.216.1Zm.907-10.639a11.113,11.113,0,0,0-2.244,3.015,3.554,3.554,0,0,0-.378,2.314,2.68,2.68,0,0,0,5.267-.975c-.3-1.786-1.451-3.049-2.644-4.354" transform="translate(-148.94 -318.06)" fill="#fff"/>
          <path id="Trazado_600769" data-name="Trazado 600769" d="M13.475,47.246a11.123,11.123,0,0,1-4.422,1.24c-4.119.247-8-2.606-8.872-6.071a8.481,8.481,0,0,1,.482-4.842,28.6,28.6,0,0,1,2.752-5.578C11.873,14.46,12.023,7.847,13.754,1.335a1.642,1.642,0,0,1,2-1.281,1.628,1.628,0,0,1,1.118,2.124C15.1,8.854,13.122,19.1,6.379,33.32a46.121,46.121,0,0,0-2.707,5.435A10.873,10.873,0,0,0,3.251,40.7,3.266,3.266,0,0,0,4.36,43.421,6.01,6.01,0,0,0,11.5,44.6a4,4,0,0,0-3.538-1.963,1.551,1.551,0,0,1-1.537-1.626A1.532,1.532,0,0,1,7.978,39.46a10.585,10.585,0,0,1,2.121.262A6.972,6.972,0,0,1,13.97,42.48c.637.833,1.244,1.689,1.858,2.541a5.976,5.976,0,0,0,5.705,2.39,5.742,5.742,0,0,0,4.474-2.561c.707-.988,1.4-1.989,2.186-2.917a6.721,6.721,0,0,1,5.445-2.486,1.585,1.585,0,0,1,1.634,1.587,1.562,1.562,0,0,1-1.609,1.606,3.983,3.983,0,0,0-3.456,1.94,5.939,5.939,0,0,0,7.838-2.091,3.719,3.719,0,0,0,.189-3.043,18.2,18.2,0,0,0-2.227-4.938c-6.764-17.232-6.576-18.276-8.444-23.789-.489-1.445-.894-2.919-1.308-4.388A1.621,1.621,0,0,1,27.4,4.221a1.653,1.653,0,0,1,1.983,1.308,157.989,157.989,0,0,0,8.764,26.227,28.376,28.376,0,0,1,3.035,6.267c1.41,4.677-.825,8.74-5.547,10.109a9.705,9.705,0,0,1-6.906-.646c-.151-.068-.3-.142-.5-.238a8.85,8.85,0,0,1-7.363,3.4,8.861,8.861,0,0,1-7.387-3.4" transform="translate(0 -0.001)" fill="#fff"/>
        </g>
      </g>
    </g>
  </g>
</svg>
