<svg xmlns="http://www.w3.org/2000/svg" xmlns:xlink="http://www.w3.org/1999/xlink" width="357" height="164.179" viewBox="0 0 357 164.179">
  <defs>
    <clipPath id="clip-path">
      <rect id="Rectángulo_46492" data-name="Rectángulo 46492" width="272" height="164" transform="translate(328 1375)" fill="#fff" stroke="#707070" stroke-width="1"/>
    </clipPath>
    <clipPath id="clip-path-2">
      <path id="Trazado_165450" data-name="Trazado 165450" d="M3.16,6.013A3.087,3.087,0,0,1,0,3.005,3.087,3.087,0,0,1,3.162,0a3.087,3.087,0,0,1,3.16,3A3.091,3.091,0,0,1,3.16,6.013Z" fill="#ade65f"/>
    </clipPath>
    <clipPath id="clip-path-11">
      <rect id="Rectángulo_46461" data-name="Rectángulo 46461" width="349.351" height="163.88" fill="none"/>
    </clipPath>
    <clipPath id="clip-path-13">
      <path id="Trazado_600520" data-name="Trazado 600520" d="M656.509,234.669c-1.262,1.532-13.884,29.767-8.911,35.557s21.005.52,21.005.52l-2.6-16.774L658.954,249s-.414-9.124-.366-8.979.983-4.471.983-4.471c4.429-1.28,7.782-1.44,12.152.325l.974,4.755,1.341,12.02s-6.083,11.4-2.073,14.374,7.705-.225,8.787-7.66-2.929-21.133-6.489-23.792c-1.925-1.438-6.594-2.032-10.674-2.033-3.463,0-6.5.428-7.08,1.131" transform="translate(-646.443 -233.538)" fill="none"/>
    </clipPath>
  </defs>
  <g id="Grupo_160420" data-name="Grupo 160420" transform="translate(-328 -1375)">
    <g id="Enmascarar_grupo_299" data-name="Enmascarar grupo 299" clip-path="url(#clip-path)">
      <path id="Trazado_600585" data-name="Trazado 600585" d="M335.607,424.741l-.461-.467a79.1,79.1,0,0,0-14.591-14.714L245.82,334.173l-.034.034A78.833,78.833,0,1,0,127.1,437.966l-.068.056,1.288,1.288q1.543,1.636,3.177,3.182l84.04,84.158.039-.028A78.82,78.82,0,0,0,335.539,424.8Z" transform="translate(228.723 1068.989)" fill="#e2e7fe"/>
    </g>
    <g id="Grupo_160419" data-name="Grupo 160419" transform="translate(607.18 1392.465)">
      <g id="Group_881458" data-name="Group 881458" transform="translate(38.807 6.322) rotate(-90)">
        <g id="Grupo_108454" data-name="Grupo 108454" transform="translate(0 0)">
          <path id="Trazado_165449" data-name="Trazado 165449" d="M3.16,6.013A3.087,3.087,0,0,1,0,3.005,3.087,3.087,0,0,1,3.162,0a3.087,3.087,0,0,1,3.16,3A3.091,3.091,0,0,1,3.16,6.013Z" fill="#ade65f"/>
          <g id="Grupo_108453" data-name="Grupo 108453" transform="translate(0)" clip-path="url(#clip-path-2)">
            <g id="Group_881457" data-name="Group 881457" transform="translate(-0.001 -0.001)">
              <rect id="Rectangle_298911" data-name="Rectangle 298911" width="6.324" height="6.013" fill="#ade65f"/>
            </g>
          </g>
        </g>
      </g>
      <g id="Group_881458-2" data-name="Group 881458" transform="translate(19.26 6.322) rotate(-90)">
        <g id="Grupo_108454-2" data-name="Grupo 108454" transform="translate(0 0)">
          <path id="Trazado_165449-2" data-name="Trazado 165449" d="M3.16,6.013A3.087,3.087,0,0,1,0,3.005,3.087,3.087,0,0,1,3.162,0a3.087,3.087,0,0,1,3.16,3A3.091,3.091,0,0,1,3.16,6.013Z" fill="#ade65f"/>
          <g id="Grupo_108453-2" data-name="Grupo 108453" transform="translate(0)" clip-path="url(#clip-path-2)">
            <g id="Group_881457-2" data-name="Group 881457" transform="translate(-0.001 -0.001)">
              <rect id="Rectangle_298911-2" data-name="Rectangle 298911" width="6.324" height="6.013" fill="#ade65f"/>
            </g>
          </g>
        </g>
      </g>
      <g id="Group_881458-3" data-name="Group 881458" transform="translate(19.26 22.62) rotate(-90)">
        <g id="Grupo_108454-3" data-name="Grupo 108454" transform="translate(0 0)">
          <path id="Trazado_165449-3" data-name="Trazado 165449" d="M3.16,6.013A3.087,3.087,0,0,1,0,3.005,3.087,3.087,0,0,1,3.162,0a3.087,3.087,0,0,1,3.16,3A3.091,3.091,0,0,1,3.16,6.013Z" fill="#ade65f"/>
          <g id="Grupo_108453-3" data-name="Grupo 108453" transform="translate(0)" clip-path="url(#clip-path-2)">
            <g id="Group_881457-3" data-name="Group 881457" transform="translate(-0.001 -0.001)">
              <rect id="Rectangle_298911-3" data-name="Rectangle 298911" width="6.324" height="6.013" fill="#ade65f"/>
            </g>
          </g>
        </g>
      </g>
      <g id="Group_881458-4" data-name="Group 881458" transform="translate(38.807 22.62) rotate(-90)">
        <g id="Grupo_108454-4" data-name="Grupo 108454" transform="translate(0 0)">
          <path id="Trazado_165449-4" data-name="Trazado 165449" d="M3.16,6.013A3.087,3.087,0,0,1,0,3.005,3.087,3.087,0,0,1,3.162,0a3.087,3.087,0,0,1,3.16,3A3.091,3.091,0,0,1,3.16,6.013Z" fill="#ade65f"/>
          <g id="Grupo_108453-4" data-name="Grupo 108453" transform="translate(0)" clip-path="url(#clip-path-2)">
            <g id="Group_881457-4" data-name="Group 881457" transform="translate(-0.001 -0.001)">
              <rect id="Rectangle_298911-4" data-name="Rectangle 298911" width="6.324" height="6.013" fill="#ade65f"/>
            </g>
          </g>
        </g>
      </g>
      <g id="Group_881458-5" data-name="Group 881458" transform="translate(19.26 38.915) rotate(-90)">
        <g id="Grupo_108454-5" data-name="Grupo 108454" transform="translate(0 0)">
          <path id="Trazado_165449-5" data-name="Trazado 165449" d="M3.16,6.013A3.087,3.087,0,0,1,0,3.005,3.087,3.087,0,0,1,3.162,0a3.087,3.087,0,0,1,3.16,3A3.091,3.091,0,0,1,3.16,6.013Z" fill="#ade65f"/>
          <g id="Grupo_108453-5" data-name="Grupo 108453" transform="translate(0)" clip-path="url(#clip-path-2)">
            <g id="Group_881457-5" data-name="Group 881457" transform="translate(-0.001 -0.001)">
              <rect id="Rectangle_298911-5" data-name="Rectangle 298911" width="6.324" height="6.013" fill="#ade65f"/>
            </g>
          </g>
        </g>
      </g>
      <g id="Group_881458-6" data-name="Group 881458" transform="translate(38.807 38.915) rotate(-90)">
        <g id="Grupo_108454-6" data-name="Grupo 108454" transform="translate(0 0)">
          <path id="Trazado_165449-6" data-name="Trazado 165449" d="M3.16,6.013A3.087,3.087,0,0,1,0,3.005,3.087,3.087,0,0,1,3.162,0a3.087,3.087,0,0,1,3.16,3A3.091,3.091,0,0,1,3.16,6.013Z" fill="#ade65f"/>
          <g id="Grupo_108453-6" data-name="Grupo 108453" transform="translate(0)" clip-path="url(#clip-path-2)">
            <g id="Group_881457-6" data-name="Group 881457" transform="translate(-0.001 -0.001)">
              <rect id="Rectangle_298911-6" data-name="Rectangle 298911" width="6.324" height="6.013" fill="#ade65f"/>
            </g>
          </g>
        </g>
      </g>
      <g id="Group_881458-7" data-name="Group 881458" transform="translate(0 6.322) rotate(-90)">
        <g id="Grupo_108454-7" data-name="Grupo 108454">
          <path id="Trazado_165449-7" data-name="Trazado 165449" d="M3.16,6.013A3.087,3.087,0,0,1,0,3.005,3.087,3.087,0,0,1,3.162,0a3.087,3.087,0,0,1,3.16,3A3.091,3.091,0,0,1,3.16,6.013Z" fill="#ade65f"/>
          <g id="Grupo_108453-7" data-name="Grupo 108453" transform="translate(0)" clip-path="url(#clip-path-2)">
            <g id="Group_881457-7" data-name="Group 881457" transform="translate(-0.001 -0.001)">
              <rect id="Rectangle_298911-7" data-name="Rectangle 298911" width="6.324" height="6.013" fill="#ade65f"/>
            </g>
          </g>
        </g>
      </g>
      <g id="Group_881458-8" data-name="Group 881458" transform="translate(0 22.62) rotate(-90)">
        <g id="Grupo_108454-8" data-name="Grupo 108454">
          <path id="Trazado_165449-8" data-name="Trazado 165449" d="M3.16,6.013A3.087,3.087,0,0,1,0,3.005,3.087,3.087,0,0,1,3.162,0a3.087,3.087,0,0,1,3.16,3A3.091,3.091,0,0,1,3.16,6.013Z" fill="#ade65f"/>
          <g id="Grupo_108453-8" data-name="Grupo 108453" transform="translate(0)" clip-path="url(#clip-path-2)">
            <g id="Group_881457-8" data-name="Group 881457" transform="translate(-0.001 -0.001)">
              <rect id="Rectangle_298911-8" data-name="Rectangle 298911" width="6.324" height="6.013" fill="#ade65f"/>
            </g>
          </g>
        </g>
      </g>
      <g id="Group_881458-9" data-name="Group 881458" transform="translate(0 38.915) rotate(-90)">
        <g id="Grupo_108454-9" data-name="Grupo 108454">
          <path id="Trazado_165449-9" data-name="Trazado 165449" d="M3.16,6.013A3.087,3.087,0,0,1,0,3.005,3.087,3.087,0,0,1,3.162,0a3.087,3.087,0,0,1,3.16,3A3.091,3.091,0,0,1,3.16,6.013Z" fill="#ade65f"/>
          <g id="Grupo_108453-9" data-name="Grupo 108453" transform="translate(0)" clip-path="url(#clip-path-2)">
            <g id="Group_881457-9" data-name="Group 881457" transform="translate(-0.001 -0.001)">
              <rect id="Rectangle_298911-9" data-name="Rectangle 298911" width="6.324" height="6.013" fill="#ade65f"/>
            </g>
          </g>
        </g>
      </g>
    </g>
    <g id="Grupo_160418" data-name="Grupo 160418" transform="translate(335.649 1375.298)">
      <g id="Grupo_160411" data-name="Grupo 160411" transform="translate(0 0.002)">
        <g id="Grupo_160410" data-name="Grupo 160410" transform="translate(0 0)" clip-path="url(#clip-path-11)">
          <path id="Trazado_600452" data-name="Trazado 600452" d="M348.733,1373.2H.618a.618.618,0,0,1,0-1.236H348.733a.618.618,0,0,1,0,1.236" transform="translate(0 -1209.487)"/>
          <path id="Trazado_600453" data-name="Trazado 600453" d="M2382.7,1035.054h0a14.408,14.408,0,0,0,14.408-14.408V1001h-28.816v19.642a14.408,14.408,0,0,0,14.408,14.408" transform="translate(-2087.812 -882.455)" fill="#6bb2e3"/>
          <rect id="Rectángulo_46457" data-name="Rectángulo 46457" width="1.597" height="30.487" transform="translate(309.292 133.393)" fill="#425899"/>
          <rect id="Rectángulo_46458" data-name="Rectángulo 46458" width="1.597" height="30.487" transform="translate(278.879 133.393)" fill="#425899"/>
          <rect id="Rectángulo_46459" data-name="Rectángulo 46459" width="1.597" height="30.487" transform="translate(291.1 133.393)" fill="#425899"/>
          <rect id="Rectángulo_46460" data-name="Rectángulo 46460" width="30.487" height="1.597" transform="translate(280.402 152.598)" fill="#425899"/>
          <path id="Trazado_600454" data-name="Trazado 600454" d="M2356.485,684.492c2.692,1.433.565,4.952,1.667,8.289s5.532,3.256,3.859,9.227c-1.03,3.678-4.68,1.372-4.6,6.154s1.894,4.664.489,7.122c-2.449,4.285-10.8,1.888-10.865-2.9s3.94-6.412.556-8.638-4.738-3.238-2.51-6.42c2.756-3.939,7.031-3.819,5.835-6.894s2.005-7.838,5.565-5.943" transform="translate(-2066.395 -603.047)" fill="#a3cfff"/>
          <path id="Trazado_600455" data-name="Trazado 600455" d="M2415.885,760.458l-.7.2c-4.764-16.6-.3-32.237-.258-32.393l.7.2c-.045.154-4.445,15.594.259,31.987" transform="translate(-2127.216 -642.018)" fill="#425899"/>
          <path id="Trazado_600456" data-name="Trazado 600456" d="M2520.348,640.56c1.987,3.565-2.96,5.979-4.143,10.532s4.118,5.862-2.1,11.361c-3.829,3.387-4.769,1.444-5.866,8.631-.966,6.327-6.033.62-9.4,4.479-4.341,4.98-12.056-5.049-8.656-10.477s7.758-4.3,5.569-9.258-.093-8.892,4.722-10.853c5.959-2.427,8.409,2.553,9.3-1.772s7.946-7.358,10.573-2.642" transform="translate(-2194.532 -562.599)" fill="#a1d3ff"/>
          <path id="Trazado_600457" data-name="Trazado 600457" d="M2503.859,726.186c6.616-21.862,22.771-36.017,22.934-36.157l-.639-.739c-.165.142-16.532,14.483-23.229,36.613Z" transform="translate(-2206.503 -607.658)" fill="#425899"/>
        </g>
      </g>
      <g id="Grupo_160413" data-name="Grupo 160413" transform="translate(0 0.002)">
        <g id="Grupo_160412" data-name="Grupo 160412" transform="translate(0 0)" clip-path="url(#clip-path-11)">
          <path id="Trazado_600458" data-name="Trazado 600458" d="M438.523,151.465a7.815,7.815,0,0,0,2.663,4.6,7.641,7.641,0,0,0,4.91,1.9H462.93a5.335,5.335,0,0,0,5.058-3.173,5.914,5.914,0,0,0,.367-3.326,7.832,7.832,0,0,0-2.658-4.6,7.652,7.652,0,0,0-4.91-1.9H443.953a5.96,5.96,0,0,0-2.281.439,5.383,5.383,0,0,0-3.149,6.06" transform="translate(-386.511 -127.798)" fill="#61b8ff"/>
          <path id="Trazado_600459" data-name="Trazado 600459" d="M614.167,243.512h0a.951.951,0,0,0,.9-1.242l-2.261-7.016a.95.95,0,0,0-1.809.583l2.261,7.016a.951.951,0,0,0,.9.659" transform="translate(-538.6 -206.812)" fill="#123e80"/>
          <path id="Trazado_600460" data-name="Trazado 600460" d="M520.033,243.512h0a.95.95,0,0,0,.9-1.242l-2.261-7.016a.951.951,0,0,0-1.809.583l2.261,7.016a.951.951,0,0,0,.9.659" transform="translate(-455.614 -206.812)" fill="#123e80"/>
          <path id="Trazado_600461" data-name="Trazado 600461" d="M462.051,148.721a7.841,7.841,0,0,0,2.663,4.6,7.642,7.642,0,0,0,4.91,1.9h16.835a5.926,5.926,0,0,0,2.271-.434,5.914,5.914,0,0,0,.367-3.326,7.833,7.833,0,0,0-2.658-4.6,7.652,7.652,0,0,0-4.91-1.9H464.695a5.963,5.963,0,0,0-2.281.439,5.929,5.929,0,0,0-.363,3.316" transform="translate(-407.253 -127.798)" fill="#9eddff"/>
          <rect id="Rectángulo_46462" data-name="Rectángulo 46462" width="3.172" height="5.904" transform="translate(123.456 153.396)" fill="#0d192b"/>
          <rect id="Rectángulo_46463" data-name="Rectángulo 46463" width="3.172" height="5.904" transform="translate(99.664 153.396)" fill="#0d192b"/>
          <rect id="Rectángulo_46464" data-name="Rectángulo 46464" width="3.172" height="5.904" transform="translate(73.071 153.396)" fill="#0d192b"/>
          <path id="Trazado_600462" data-name="Trazado 600462" d="M621.451,1316.47c0,2.113-1.083,3.826-2.419,3.826s-2.419-1.713-2.419-3.826,1.083-3.826,2.419-3.826,2.419,1.713,2.419,3.826" transform="translate(-543.587 -1157.188)" fill="#0d192b"/>
          <path id="Trazado_600463" data-name="Trazado 600463" d="M641.25,1316.47c0,2.113-1.083,3.826-2.419,3.826s-2.42-1.713-2.42-3.826,1.083-3.826,2.42-3.826,2.419,1.713,2.419,3.826" transform="translate(-561.041 -1157.188)" fill="#0d192b"/>
          <path id="Trazado_600464" data-name="Trazado 600464" d="M633.221,1318.618c-1.007.786-3.82.43-4.214.023l-.018-7.057c.755-.661,3.419-.638,4.23-.036Z" transform="translate(-554.499 -1155.82)" fill="#0d192b"/>
          <path id="Trazado_600465" data-name="Trazado 600465" d="M648.085,1324.557c0,1.448-.742,2.621-1.658,2.621s-1.658-1.174-1.658-2.621.742-2.621,1.658-2.621,1.658,1.174,1.658,2.621" transform="translate(-568.409 -1165.379)" fill="#1e62cc"/>
          <path id="Trazado_600466" data-name="Trazado 600466" d="M650.777,1332.813c0,.882-.452,1.6-1.01,1.6s-1.01-.715-1.01-1.6.452-1.6,1.01-1.6,1.01.715,1.01,1.6" transform="translate(-571.924 -1173.56)" fill="#0d192b"/>
          <path id="Trazado_600467" data-name="Trazado 600467" d="M830.469,1316.47c0,2.113,1.083,3.826,2.419,3.826s2.419-1.713,2.419-3.826-1.083-3.826-2.419-3.826-2.419,1.713-2.419,3.826" transform="translate(-732.117 -1157.188)" fill="#0d192b"/>
          <path id="Trazado_600468" data-name="Trazado 600468" d="M810.67,1316.47c0,2.113,1.083,3.826,2.419,3.826s2.42-1.713,2.42-3.826-1.083-3.826-2.42-3.826-2.419,1.713-2.419,3.826" transform="translate(-714.662 -1157.188)" fill="#0d192b"/>
          <path id="Trazado_600469" data-name="Trazado 600469" d="M823.223,1318.618c1.007.786,3.82.43,4.214.023l.018-7.057c-.755-.661-3.419-.638-4.23-.036Z" transform="translate(-725.729 -1155.82)" fill="#0d192b"/>
          <path id="Trazado_600470" data-name="Trazado 600470" d="M815.173,1324.557c0,1.448.742,2.621,1.658,2.621s1.658-1.174,1.658-2.621-.742-2.621-1.658-2.621-1.658,1.174-1.658,2.621" transform="translate(-718.632 -1165.379)" fill="#1e62cc"/>
          <path id="Trazado_600471" data-name="Trazado 600471" d="M822.124,1332.813c0,.882.452,1.6,1.01,1.6s1.01-.715,1.01-1.6-.452-1.6-1.01-1.6-1.01.715-1.01,1.6" transform="translate(-724.76 -1173.56)" fill="#0d192b"/>
          <path id="Trazado_600472" data-name="Trazado 600472" d="M1034.521,1316.47c0,2.113,1.083,3.826,2.42,3.826s2.42-1.713,2.42-3.826-1.083-3.826-2.42-3.826-2.42,1.713-2.42,3.826" transform="translate(-912.003 -1157.188)" fill="#0d192b"/>
          <path id="Trazado_600473" data-name="Trazado 600473" d="M1014.722,1316.47c0,2.113,1.083,3.826,2.42,3.826s2.42-1.713,2.42-3.826-1.083-3.826-2.42-3.826-2.42,1.713-2.42,3.826" transform="translate(-894.549 -1157.188)" fill="#0d192b"/>
          <path id="Trazado_600474" data-name="Trazado 600474" d="M1027.275,1318.618c1.007.786,3.82.43,4.213.023l.018-7.057c-.755-.661-3.419-.638-4.23-.036Z" transform="translate(-905.615 -1155.82)" fill="#0d192b"/>
          <path id="Trazado_600475" data-name="Trazado 600475" d="M1019.225,1324.557c0,1.448.742,2.621,1.658,2.621s1.658-1.174,1.658-2.621-.742-2.621-1.658-2.621-1.658,1.174-1.658,2.621" transform="translate(-898.518 -1165.379)" fill="#1e62cc"/>
          <path id="Trazado_600476" data-name="Trazado 600476" d="M1026.176,1332.813c0,.882.452,1.6,1.01,1.6s1.01-.715,1.01-1.6-.452-1.6-1.01-1.6-1.01.715-1.01,1.6" transform="translate(-904.646 -1173.56)" fill="#0d192b"/>
          <rect id="Rectángulo_46465" data-name="Rectángulo 46465" width="4.621" height="48.13" transform="translate(99.407 104.247)" fill="#0d192b"/>
          <path id="Trazado_600477" data-name="Trazado 600477" d="M669.189,1264.935c.006-.04.036-.078.036-.118,0-2.547-12.6-4.613-28.137-4.613s-28.137,2.065-28.137,4.613c0,.04.03.079.036.118Z" transform="translate(-540.359 -1110.958)" fill="#1a56b3"/>
          <rect id="Rectángulo_46466" data-name="Rectángulo 46466" width="7.512" height="9.161" transform="translate(97.878 109.373)" fill="#1a56b3"/>
          <rect id="Rectángulo_46467" data-name="Rectángulo 46467" width="7.512" height="9.161" transform="translate(97.878 141.619)" fill="#1a56b3"/>
          <path id="Trazado_600478" data-name="Trazado 600478" d="M737.479,273.309v.01c-.1-.01-.2-.01-.3-.01Z" transform="translate(-649.877 -240.941)" fill="#4a82db"/>
          <path id="Trazado_600479" data-name="Trazado 600479" d="M438.742,276.62a6.18,6.18,0,0,0,.169,1.415l15.571,60.185a6.641,6.641,0,0,0,.263.864,10.105,10.105,0,0,0,10.073,7.645l16.279-.422h32.081a7.092,7.092,0,0,0,4.955-1.986,6.639,6.639,0,0,0,2.06-4.791,5.976,5.976,0,0,0-.3-1.9,7.134,7.134,0,0,0-6.9-4.622s-14.427.392-18.632-3.649-13.695-51.055-13.695-51.055a8.588,8.588,0,0,0-7.645-6.226c-.1-.01-.209-.01-.308-.01,0,0-21.779-.194-28.457-.164-.506,0-.928,0-1.246.01-.293,0-.477.01-.541.015a.078.078,0,0,1-.02.005,4.619,4.619,0,0,0-3.7,4.682m20.481,56.139h.407l.184.8-.258-.347Z" transform="translate(-386.782 -239.704)" fill="#9eddff"/>
          <path id="Trazado_600480" data-name="Trazado 600480" d="M624.349,900.318c-.006.03-.035.059-.035.089,0,1.915,12.011,3.467,26.827,3.467s26.827-1.552,26.827-3.467c0-.03-.029-.059-.035-.089Z" transform="translate(-550.377 -793.694)" fill="#1a56b3"/>
          <path id="Trazado_600481" data-name="Trazado 600481" d="M438.742,276.644a6.181,6.181,0,0,0,.169,1.415l15.571,60.185a6.652,6.652,0,0,0,.263.864,10.105,10.105,0,0,0,10.073,7.645l16.279-.422h32.081a7.092,7.092,0,0,0,4.954-1.986,6.637,6.637,0,0,0,2.06-4.79,5.975,5.975,0,0,0-.3-1.9c-1.837,4.779-55.457,5.115-59.186-1.073-3.644-3.162-11.442-57.022-16.451-64.652-.506,0-.928,0-1.246.01-.293,0-.477.01-.541.015a.078.078,0,0,1-.02.005,4.619,4.619,0,0,0-3.7,4.682" transform="translate(-386.782 -239.728)" fill="#61b8ff"/>
          <path id="Trazado_600482" data-name="Trazado 600482" d="M667.315,305.686c4.953-3.691,21.95-6.556,32.827-1.457,1.728,1.636,4.215,7.578,5.768,13.162l4.3,46.612H673.434Z" transform="translate(-588.285 -265.77)" fill="#aae0ff"/>
          <path id="Trazado_600483" data-name="Trazado 600483" d="M756.862,209.818a10.24,10.24,0,0,1-10.338-4.936l2.353-14.608,4.758,2.123a19.913,19.913,0,0,1,5.559,1.287l1.509,7.791.333,1.689c.759,1.663,1.673,5.8-4.174,6.653" transform="translate(-658.113 -167.74)" fill="#f7a594"/>
          <path id="Trazado_600484" data-name="Trazado 600484" d="M779.244,221.6c.19,1.807,2.568,9.132,10.463,8.371l-1.465-7.62Z" transform="translate(-686.958 -195.354)" fill="#e6836f"/>
          <path id="Trazado_600485" data-name="Trazado 600485" d="M779.134,56.606c-.27,2.374-.929,7.563-1.844,9.734-1.393,3.3-5.7,5.979-8.516,5.525-3.174-.772-6.982-3.2-8.543-6.02a35.121,35.121,0,0,1-1.958-10.031c-.079-7.445,6.362-11.64,12.5-10.944s9.209,4.335,8.366,11.737" transform="translate(-668.471 -39.49)" fill="#f7a594"/>
          <path id="Trazado_600486" data-name="Trazado 600486" d="M752.709,51.645c-.478-2.6,1.47-2.913,2.681-.6.264-1.747.068-7.2,2.279-8.221,2.515-1.2,10.467,2.475,16.5-.6,0,0-.779-8.376-13.086-7.877-14.478,2.223-8.371,17.292-8.371,17.292" transform="translate(-662.439 -30.265)" fill="#73382a"/>
          <path id="Trazado_600487" data-name="Trazado 600487" d="M748.317,151.953c.528,1.5.026,3.065-1.121,3.5s-2.5-.424-3.032-1.921-.026-3.065,1.121-3.5,2.5.424,3.032,1.921" transform="translate(-655.848 -132.163)" fill="#f7a594"/>
          <path id="Trazado_600488" data-name="Trazado 600488" d="M836.412,203.821a9.634,9.634,0,0,0-2.122.914c-1.191.632-2.357,1.351-2.357,1.351s-3.524-2.13-3.427-5.55c.047.053.1.1.145.154,2.737,2.821,7.761,3.131,7.761,3.131" transform="translate(-730.385 -176.787)" fill="#a65b4a"/>
          <path id="Trazado_600489" data-name="Trazado 600489" d="M837.508,204.968a9.634,9.634,0,0,0-2.122.914c-3.572-.818-5.041-2.739-5.639-4.045,2.737,2.821,7.761,3.131,7.761,3.131" transform="translate(-731.48 -177.934)" fill="#fff"/>
          <path id="Trazado_600490" data-name="Trazado 600490" d="M883.709,169.856a2.647,2.647,0,0,1-1.283-.466.146.146,0,0,1,.176-.232,1.859,1.859,0,0,0,2.179.079c.557-.43.412-.717.024-1.486a9.706,9.706,0,0,1-1.116-3.7.146.146,0,1,1,.29-.03,9.449,9.449,0,0,0,1.086,3.6c.4.793.641,1.271-.106,1.848a1.812,1.812,0,0,1-1.251.388" transform="translate(-777.87 -144.48)" fill="#a65b4a"/>
          <path id="Trazado_600491" data-name="Trazado 600491" d="M852.717,145.968c-.034.548-.306.977-.608.958s-.519-.478-.486-1.026.306-.977.608-.958.519.478.486,1.026" transform="translate(-750.763 -127.776)" fill="#1e1e1e"/>
          <path id="Trazado_600492" data-name="Trazado 600492" d="M918.128,149.678c-.031.5-.279.89-.554.873s-.473-.435-.442-.934.279-.89.554-.873.473.435.442.934" transform="translate(-808.513 -131.128)" fill="#1e1e1e"/>
          <path id="Trazado_600493" data-name="Trazado 600493" d="M770.8,12.359s6.037-.589,4.151-6.479a3.336,3.336,0,0,1-3.773.972S773.4,4.072,769.733,0c-.585,2.538-5.621,3.654-8.505,2.907-4.566-1.184-9.187.45-9.677,4.856,0,0-2.988.728-1.947,6.666,4.613-.162,6.655-4.368,10.057-4.977s6.3,3.589,11.142,2.9" transform="translate(-660.635 -0.003)" fill="#73382a"/>
          <path id="Trazado_600494" data-name="Trazado 600494" d="M826.126,262.461a18.133,18.133,0,0,1-3.339.477,17.324,17.324,0,0,1-4.035-.9l4.1,2.195Z" transform="translate(-721.787 -231.003)" fill="#a65b4a"/>
          <path id="Trazado_600495" data-name="Trazado 600495" d="M826.153,350.142l-.581,2.093,4.143,25.958-2.188,4.217-3.9-4.185.645-25.958-.941-1.385,1.1-1.575Z" transform="translate(-725.824 -307.939)" fill="#1951a6"/>
          <path id="Trazado_600496" data-name="Trazado 600496" d="M743.362,286.795c-.08,3.082-2.487,4.833-4.213,6.589-5.117-1.336-9-4.471-10.133-7.375l-2.414,2.4c.43,3.748,3.433,7.622,8,11.574a9.18,9.18,0,0,1,4.808-5.523l6.847,1.949c.387-2.663.689-5.145-.867-8.275Z" transform="translate(-640.551 -252.137)" fill="#61b8ff"/>
          <path id="Trazado_600497" data-name="Trazado 600497" d="M1027.255,1324.958c2.444,0,2.444-3.975,0-3.975,0,0-9.726-2.714-10.009-2.714s-10.67.291-10.67.291c-1.371,1.9-.914,4.59-.77,6.657Z" transform="translate(-886.52 -1162.147)" fill="#73382a"/>
          <path id="Trazado_600498" data-name="Trazado 600498" d="M719.811,1317.9c-.18-2.058-.472-4.252.948-6.123,2.421-.891,7-2.948,11.719-.287,0,0,.091,1.33,3.749,2.842a3.476,3.476,0,0,1,.861,3.568Z" transform="translate(-634.429 -1155.015)" fill="#73382a"/>
          <path id="Trazado_600499" data-name="Trazado 600499" d="M861.341,779.461l10.26-52.738-30.286-5.134v-14.46l23.306.017c-1.038,0,22.22-1.607,25.478,11.02s-16.491,61.141-16.491,61.141c-2.821-.388-9.318,1.57-11.742,2.33-2.071.65-2.64-.528-.527-2.175" transform="translate(-741.678 -623.34)" fill="#0d192b"/>
          <path id="Trazado_600500" data-name="Trazado 600500" d="M680.552,705.193,657.725,723.83l1.883,53.93c-6.022-3.322-12.62,3.012-13.127,2.283,0,0-.729-.349.482-3.236-2.31-11.609-10.727-55.126-8.106-59.965a99.55,99.55,0,0,1,8.107-11.978Z" transform="translate(-562.756 -621.388)" fill="#0d192b"/>
          <path id="Trazado_600501" data-name="Trazado 600501" d="M578.611,301.127c.349,1.4,4.476,42.835,4.127,49.124s-15.672,7.672-15.374,20.615c.316,13.748.732,19.7.732,19.7-5.679-.831-8.726-7.479-9.557-12.05-1.3-7.936-.371-16.958,5.54-28.394,0,0,1.579-43.266,3.546-44.666,3.511-2.5,10.986-4.333,10.986-4.333" transform="translate(-491.936 -265.465)" fill="#fff"/>
          <path id="Trazado_600502" data-name="Trazado 600502" d="M636.966,458.275S635,464.014,635,466.392s11.51,7.375,11.51,7.375h-18.8v-8.9Z" transform="translate(-553.368 -404.002)" fill="#d9f1ff"/>
          <path id="Trazado_600503" data-name="Trazado 600503" d="M794.04,586.781a10.6,10.6,0,0,1,5.833-2.322c3.577-.284,6.714,6.523,6.714,6.523H794.21Z" transform="translate(-700.002 -515.235)" fill="#f7b28a"/>
          <path id="Trazado_600504" data-name="Trazado 600504" d="M849.932,585.241s5.629,1.591,6.415,1.8c.367,1.485-3.506.844-5.3.184-1.975-.727-1.116-1.985-1.116-1.985" transform="translate(-749.111 -515.931)" fill="#f7b28a"/>
          <path id="Trazado_600505" data-name="Trazado 600505" d="M546.041,329.217c-3.438,2.132-12.911,24.47-13,30.482-.04,2.651,1.072,5.278,6.108,5.6,2.781.178,26.385.382,26.385.382l-.3-6.262-17.792-5.078,5.435-9.019c6.5-3.346.933-20.254-6.833-16.106" transform="translate(-469.911 -289.654)" fill="#fff"/>
          <path id="Trazado_600506" data-name="Trazado 600506" d="M1144.4,261.768s-2.179-5.332-1.911-6.784,5.627-3.33,5.892-2.686.822,2.235-2.686,3.193c2.351,2.166,4.989,6.482-1.295,6.277" transform="translate(-1007.163 -222.303)" fill="#f7a594"/>
          <path id="Trazado_600507" data-name="Trazado 600507" d="M1155.462,253.56s-.445-4.808.335-6.743c1.038-2.577,4.107-4.234,4.107-4.234s5.426,4.259,5.593,5.029-4.354,5.486-4.354,5.486-3.368,3.2-5.68.463" transform="translate(-1018.509 -213.854)" fill="#f7a594"/>
          <path id="Trazado_600508" data-name="Trazado 600508" d="M1161.83,195.25s1.327-12,3.218-11.648c.872.161-.356,11.616-.356,11.616Z" transform="translate(-1024.234 -161.851)" fill="#f7a594"/>
          <path id="Trazado_600509" data-name="Trazado 600509" d="M1143.35,259.775a.065.065,0,0,0,.04,0,.064.064,0,0,0,.039-.082c-.559-1.569-1.474-4.327-1.317-5.177.207-1.12,3.716-2.593,5.23-2.751.451-.047.527.048.539.078a1.715,1.715,0,0,1,.048,1.481c-.336.683-1.242,1.23-2.692,1.625l-.112.031.085.079a8.833,8.833,0,0,1,2.489,3.587.064.064,0,1,0,.124-.034,8.855,8.855,0,0,0-2.442-3.57,4.027,4.027,0,0,0,2.662-1.662,1.879,1.879,0,0,0-.044-1.587c-.061-.146-.279-.2-.671-.157-1.534.16-5.12,1.644-5.343,2.856-.162.879.759,3.662,1.322,5.243a.064.064,0,0,0,.043.04" transform="translate(-1006.723 -221.823)" fill="#e6836f"/>
          <path id="Trazado_600510" data-name="Trazado 600510" d="M1187.326,277.092l.054.014.044.01.024-.039a5.041,5.041,0,0,1,2.626-1.711.064.064,0,0,0-.032-.125,5.114,5.114,0,0,0-2.677,1.727l-.005,0c-1.153-.332-2.774-3.059-2.79-3.087a.064.064,0,1,0-.111.065c.068.116,1.664,2.8,2.867,3.145" transform="translate(-1044.176 -241.418)" fill="#e6836f"/>
          <path id="Trazado_600511" data-name="Trazado 600511" d="M1143.547,322.251l-1.964,7.489,6.056,1.944.742-8.551Z" transform="translate(-1006.385 -284.087)" fill="#f7a594"/>
          <path id="Trazado_600512" data-name="Trazado 600512" d="M931.787,339.347l12.385,12.441,5.509-14.305,7.208,2.269s-.088,20.906-6.342,25.408c-9.578,5.851-25.988-12-25.988-12-6.418-8.976,3.389-19.018,7.229-13.811" transform="translate(-813.19 -297.515)" fill="#fff"/>
          <path id="Trazado_600513" data-name="Trazado 600513" d="M885.889,305.493s3.308,45.451,9.248,49.294,26.93,1.226,26.93,1.226-20.943-7.5-21.292-13.094-1.7-32.237-1.7-32.237c-1.944-2.387-8.116-5.215-13.185-5.189" transform="translate(-780.973 -269.313)" fill="#fff"/>
        </g>
      </g>
      <g id="Grupo_160415" data-name="Grupo 160415" transform="translate(76.558 27.66)">
        <g id="Grupo_160414" data-name="Grupo 160414" clip-path="url(#clip-path-13)">
          <path id="Trazado_600514" data-name="Trazado 600514" d="M876.052,458.992c-.357,1.932.237,3.662,1.327,3.863s2.261-1.2,2.618-3.135-.237-3.662-1.326-3.863-2.261,1.2-2.618,3.135" transform="translate(-848.768 -429.511)" fill="#1b658f"/>
          <path id="Trazado_600515" data-name="Trazado 600515" d="M893.685,469.272c-.232,1.259.154,2.385.864,2.516s1.473-.783,1.706-2.042-.155-2.385-.864-2.516-1.473.783-1.706,2.042" transform="translate(-864.344 -439.543)" fill="#2997d6"/>
          <path id="Trazado_600516" data-name="Trazado 600516" d="M740.563,278.233a.305.305,0,0,0,.305-.3A98.212,98.212,0,0,0,740,263.572a11.825,11.825,0,0,0-11.429-10.226c-4.684-.176-8.3,2.385-9.2,6.52-.814,3.722.24,10.071.285,10.34a.305.305,0,1,0,.6-.1c-.011-.065-1.08-6.5-.291-10.108.839-3.832,4.21-6.2,8.581-6.04a11.221,11.221,0,0,1,10.847,9.7,97.586,97.586,0,0,1,.858,14.261.305.305,0,0,0,.3.313h.008" transform="translate(-710.467 -250.993)" fill="#0d192b"/>
          <path id="Trazado_600517" data-name="Trazado 600517" d="M688.449,416.494l1.939-.249a.305.305,0,0,0-.078-.606l-1.467.189c-1.992-5.157-2.107-10.7-.264-13.539a4.732,4.732,0,0,1,3.985-2.222,5.675,5.675,0,0,1,4.263,1.6c3.662,3.435,4.252,11.357,4.337,13.058l-1.111-.042a.305.305,0,1,0-.023.61l1.765.067-.007-.324c-.009-.4-.261-9.8-4.542-13.814a6.271,6.271,0,0,0-4.707-1.763,5.313,5.313,0,0,0-4.471,2.5,11.351,11.351,0,0,0-1.4,6.581,24.159,24.159,0,0,0,1.694,7.736Z" transform="translate(-681.89 -379.8)" fill="#0d192b"/>
          <path id="Trazado_600518" data-name="Trazado 600518" d="M715.528,395.025l-.017,1.507a3.986,3.986,0,0,0-3.418.429c-.437-.6-.745-1.059-.745-1.059a4.429,4.429,0,0,1,4.18-.876" transform="translate(-703.661 -375.773)" fill="#1b658f"/>
          <path id="Trazado_600519" data-name="Trazado 600519" d="M721.048,387.063l-.329-1.714a1.523,1.523,0,0,0-1.657.389l.379,1.668Z" transform="translate(-710.462 -367.28)" fill="#1b658f"/>
        </g>
      </g>
      <g id="Grupo_160417" data-name="Grupo 160417" transform="translate(0 0.002)">
        <g id="Grupo_160416" data-name="Grupo 160416" transform="translate(0 0)" clip-path="url(#clip-path-11)">
          <path id="Trazado_600521" data-name="Trazado 600521" d="M942.848,562.157c1.99-.2,6.173-2.8,7.171-3.662l12.15,9.825H943.344Z" transform="translate(-831.187 -492.353)" fill="#2b7eab"/>
          <path id="Trazado_600522" data-name="Trazado 600522" d="M896.671,572.623c-.51,0-15.724-9.281-15.724-9.281a26.9,26.9,0,0,1-10.38,5.1,8.893,8.893,0,0,0,4.235,4.207Z" transform="translate(-767.466 -496.626)" fill="#69bff0"/>
          <rect id="Rectángulo_46469" data-name="Rectángulo 46469" width="18.771" height="2.917" transform="translate(53.539 73.044)" fill="#bae7ff"/>
          <rect id="Rectángulo_46470" data-name="Rectángulo 46470" width="15.981" height="2.917" transform="translate(37.558 73.044)" fill="#69bff0"/>
          <path id="Trazado_600523" data-name="Trazado 600523" d="M477.276,624.805H462.247l6.976,1.4Z" transform="translate(-407.503 -550.81)" fill="#69bff0"/>
          <rect id="Rectángulo_46471" data-name="Rectángulo 46471" width="3.154" height="82.714" transform="translate(59.333 79.54)" fill="#1951a6"/>
          <rect id="Rectángulo_46472" data-name="Rectángulo 46472" width="3.154" height="7.1" transform="translate(59.333 79.574)" fill="#1951a6"/>
          <rect id="Rectángulo_46473" data-name="Rectángulo 46473" width="3.154" height="14.361" transform="translate(202.166 148.239)" fill="#1951a6"/>
          <rect id="Rectángulo_46474" data-name="Rectángulo 46474" width="3.154" height="14.361" transform="translate(183.181 148.239)" fill="#1951a6"/>
          <path id="Trazado_600524" data-name="Trazado 600524" d="M253.456,664.162v84.061l-3-.476V664.162Z" transform="translate(-220.795 -585.505)" fill="#1951a6"/>
          <rect id="Rectángulo_46475" data-name="Rectángulo 46475" width="3.154" height="14.361" transform="translate(143.637 148.239)" fill="#1951a6"/>
          <rect id="Rectángulo_46476" data-name="Rectángulo 46476" width="3.154" height="14.361" transform="translate(160.198 148.239)" fill="#1951a6"/>
          <rect id="Rectángulo_46477" data-name="Rectángulo 46477" width="152.286" height="3.554" transform="translate(21.036 75.98)" fill="#1951a6"/>
          <rect id="Rectángulo_46478" data-name="Rectángulo 46478" width="19.492" height="69.237" transform="translate(142.485 79.23)" fill="#1951a6"/>
          <rect id="Rectángulo_46479" data-name="Rectángulo 46479" width="47.951" height="69.237" transform="translate(159.271 79.23)" fill="#1951a6"/>
          <rect id="Rectángulo_46480" data-name="Rectángulo 46480" width="44.262" height="66.834" transform="translate(161.657 81.632)" fill="#66a1ff"/>
          <rect id="Rectángulo_46481" data-name="Rectángulo 46481" width="152.286" height="3.554" transform="translate(55.006 75.98)" fill="#66a1ff"/>
          <path id="Trazado_600525" data-name="Trazado 600525" d="M1511.432,534.625h8.4l-1.656-14.366h-8.4Z" transform="translate(-1330.973 -458.645)" fill="#adadad"/>
          <path id="Trazado_600526" data-name="Trazado 600526" d="M1503.121,520.261l.006.058.9,7.76.755,6.547h8.4l-1.54-13.356-.005-.041-.112-.969Z" transform="translate(-1325.107 -458.647)" fill="#474747"/>
          <rect id="Rectángulo_46482" data-name="Rectángulo 46482" width="26.688" height="1.471" transform="translate(168.247 74.482)" fill="#adadad"/>
          <rect id="Rectángulo_46483" data-name="Rectángulo 46483" width="21.358" height="1.471" transform="translate(166.383 74.482)" fill="#474747"/>
          <path id="Trazado_600527" data-name="Trazado 600527" d="M1503.175,520.753l.9,7.76,7.618-6.809.039-.035-.044-.005Z" transform="translate(-1325.154 -459.081)" fill="#2b2b2b"/>
          <path id="Trazado_600528" data-name="Trazado 600528" d="M1310.11,265.563H1355.7a1.989,1.989,0,0,0,1.946-1.8l2.6-31.667a1.631,1.631,0,0,0-1.65-1.8H1313.01a1.988,1.988,0,0,0-1.946,1.8l-2.6,31.667a1.631,1.631,0,0,0,1.65,1.8" transform="translate(-1153.494 -203.026)" fill="#adadad"/>
          <path id="Trazado_600529" data-name="Trazado 600529" d="M1302.979,265.23h45.591a1.989,1.989,0,0,0,1.946-1.8l2.6-31.667a1.631,1.631,0,0,0-1.65-1.8h-45.591a1.989,1.989,0,0,0-1.946,1.8l-2.6,31.667a1.631,1.631,0,0,0,1.65,1.8" transform="translate(-1147.207 -202.732)" fill="#474747"/>
          <path id="Trazado_600530" data-name="Trazado 600530" d="M1323.765,281.02h44.266l2.412-30.2h-44.266Z" transform="translate(-1166.991 -221.113)" fill="#d9f3ff"/>
          <rect id="Rectángulo_46484" data-name="Rectángulo 46484" width="13.954" height="1.471" transform="translate(146.43 74.482)" fill="#adadad"/>
          <path id="Trazado_600531" data-name="Trazado 600531" d="M1113.161,629.816v.566h14.6v-1.471Z" transform="translate(-981.329 -554.429)" fill="#474747"/>
          <path id="Trazado_600532" data-name="Trazado 600532" d="M1373.9,307.817l30.352-.367a2.605,2.605,0,0,0,2.483-2.413l1.131-15.533a2.123,2.123,0,0,0-2.136-2.357l-30.352.367a2.6,2.6,0,0,0-2.484,2.413l-1.131,15.533a2.123,2.123,0,0,0,2.136,2.357" transform="translate(-1209.304 -253.141)" fill="#80b2ff"/>
          <path id="Trazado_600533" data-name="Trazado 600533" d="M1408.52,336.113l8.914-.108a.574.574,0,0,0,.547-.531.467.467,0,0,0-.47-.519l-8.914.108a.574.574,0,0,0-.547.531.467.467,0,0,0,.47.519" transform="translate(-1241.294 -295.287)" fill="#d9f3ff"/>
          <path id="Trazado_600534" data-name="Trazado 600534" d="M1406.758,360.059l11.876-.144a.574.574,0,0,0,.547-.531.467.467,0,0,0-.47-.519l-11.876.144a.573.573,0,0,0-.547.531.467.467,0,0,0,.47.519" transform="translate(-1239.74 -316.365)" fill="#d9f3ff"/>
          <path id="Trazado_600535" data-name="Trazado 600535" d="M1404.682,388.574l11.876-.144a.573.573,0,0,0,.547-.531.467.467,0,0,0-.47-.519l-11.876.144a.573.573,0,0,0-.547.531.467.467,0,0,0,.47.519" transform="translate(-1237.91 -341.503)" fill="#d9f3ff"/>
          <path id="Trazado_600536" data-name="Trazado 600536" d="M1402.606,417.09l11.876-.144a.573.573,0,0,0,.546-.531.467.467,0,0,0-.47-.519l-11.876.144a.573.573,0,0,0-.547.531.467.467,0,0,0,.47.519" transform="translate(-1236.08 -366.642)" fill="#d9f3ff"/>
          <path id="Trazado_600537" data-name="Trazado 600537" d="M1594.221,345.41c-.922.793-1.569,6.528-.373,8.137.548.737,1.493.744,2.314.952.972.246,1.754,1.332,2.158.816.745-.952.926-4.779-.314-7.253-.432-.861-2.864-3.445-3.786-2.652" transform="translate(-1404.515 -304.372)" fill="#d9f3ff"/>
          <path id="Trazado_600538" data-name="Trazado 600538" d="M1534.533,345.41c.922.793,1.569,6.528.373,8.137-.548.737-1.493.744-2.314.952-.972.246-1.754,1.332-2.158.816-.745-.952-.926-4.779.314-7.253.432-.861,2.864-3.445,3.786-2.652" transform="translate(-1348.666 -304.372)" fill="#d9f3ff"/>
          <path id="Trazado_600539" data-name="Trazado 600539" d="M1572.417,319.866v-6.072h.861v5.982h0a1.544,1.544,0,0,0,1.212,1.482l-.143.65a1.547,1.547,0,0,0-3,.045l-.143-.65a1.531,1.531,0,0,0,1.21-1.438" transform="translate(-1385.129 -276.632)" fill="#d9f3ff"/>
          <rect id="Rectángulo_46485" data-name="Rectángulo 46485" width="3.172" height="5.904" transform="translate(209.026 152.264)" fill="#0d192b"/>
          <rect id="Rectángulo_46486" data-name="Rectángulo 46486" width="3.172" height="5.904" transform="translate(232.818 152.264)" fill="#0d192b"/>
          <rect id="Rectángulo_46487" data-name="Rectángulo 46487" width="3.172" height="5.904" transform="translate(259.411 152.264)" fill="#0d192b"/>
          <path id="Trazado_600540" data-name="Trazado 600540" d="M2176.732,1306.916c0,2.113,1.083,3.826,2.42,3.826s2.419-1.713,2.419-3.826-1.083-3.826-2.419-3.826-2.42,1.713-2.42,3.826" transform="translate(-1918.942 -1148.765)" fill="#0d192b"/>
          <path id="Trazado_600541" data-name="Trazado 600541" d="M2156.933,1306.916c0,2.113,1.083,3.826,2.419,3.826s2.42-1.713,2.42-3.826-1.083-3.826-2.42-3.826-2.419,1.713-2.419,3.826" transform="translate(-1901.488 -1148.765)" fill="#0d192b"/>
          <path id="Trazado_600542" data-name="Trazado 600542" d="M2169.485,1309.064c1.006.785,3.82.43,4.213.023l.018-7.057c-.755-.661-3.419-.638-4.23-.036Z" transform="translate(-1912.553 -1147.398)" fill="#0d192b"/>
          <path id="Trazado_600543" data-name="Trazado 600543" d="M2161.436,1315c0,1.448.742,2.622,1.658,2.622s1.658-1.174,1.658-2.622-.742-2.621-1.658-2.621-1.658,1.174-1.658,2.621" transform="translate(-1905.457 -1156.957)" fill="#1e62cc"/>
          <path id="Trazado_600544" data-name="Trazado 600544" d="M2168.386,1323.26c0,.882.452,1.6,1.01,1.6s1.01-.715,1.01-1.6-.452-1.6-1.01-1.6-1.01.715-1.01,1.6" transform="translate(-1911.584 -1165.139)" fill="#0d192b"/>
          <path id="Trazado_600545" data-name="Trazado 600545" d="M1967.714,1306.916c0,2.113-1.083,3.826-2.42,3.826s-2.42-1.713-2.42-3.826,1.083-3.826,2.42-3.826,2.42,1.713,2.42,3.826" transform="translate(-1730.412 -1148.765)" fill="#0d192b"/>
          <path id="Trazado_600546" data-name="Trazado 600546" d="M1987.513,1306.916c0,2.113-1.083,3.826-2.42,3.826s-2.419-1.713-2.419-3.826,1.083-3.826,2.419-3.826,2.42,1.713,2.42,3.826" transform="translate(-1747.866 -1148.765)" fill="#0d192b"/>
          <path id="Trazado_600547" data-name="Trazado 600547" d="M1979.483,1309.064c-1.007.785-3.82.43-4.214.023l-.018-7.057c.755-.661,3.419-.638,4.23-.036Z" transform="translate(-1741.323 -1147.398)" fill="#0d192b"/>
          <path id="Trazado_600548" data-name="Trazado 600548" d="M1994.348,1315c0,1.448-.742,2.622-1.658,2.622s-1.658-1.174-1.658-2.622.742-2.621,1.658-2.621,1.658,1.174,1.658,2.621" transform="translate(-1755.234 -1156.957)" fill="#1e62cc"/>
          <path id="Trazado_600549" data-name="Trazado 600549" d="M1997.039,1323.26c0,.882-.452,1.6-1.01,1.6s-1.01-.715-1.01-1.6.452-1.6,1.01-1.6,1.01.715,1.01,1.6" transform="translate(-1758.748 -1165.139)" fill="#0d192b"/>
          <path id="Trazado_600550" data-name="Trazado 600550" d="M1763.661,1306.916c0,2.113-1.083,3.826-2.42,3.826s-2.42-1.713-2.42-3.826,1.083-3.826,2.42-3.826,2.42,1.713,2.42,3.826" transform="translate(-1550.525 -1148.765)" fill="#0d192b"/>
          <path id="Trazado_600551" data-name="Trazado 600551" d="M1783.46,1306.916c0,2.113-1.083,3.826-2.42,3.826s-2.42-1.713-2.42-3.826,1.083-3.826,2.42-3.826,2.42,1.713,2.42,3.826" transform="translate(-1567.979 -1148.765)" fill="#0d192b"/>
          <path id="Trazado_600552" data-name="Trazado 600552" d="M1775.431,1309.064c-1.006.785-3.82.43-4.213.023l-.018-7.057c.755-.661,3.419-.638,4.23-.036Z" transform="translate(-1561.437 -1147.398)" fill="#0d192b"/>
          <path id="Trazado_600553" data-name="Trazado 600553" d="M1790.3,1315c0,1.448-.742,2.622-1.658,2.622s-1.658-1.174-1.658-2.622.742-2.621,1.658-2.621,1.658,1.174,1.658,2.621" transform="translate(-1575.348 -1156.957)" fill="#1e62cc"/>
          <path id="Trazado_600554" data-name="Trazado 600554" d="M1792.987,1323.26c0,.882-.452,1.6-1.01,1.6s-1.01-.715-1.01-1.6.452-1.6,1.01-1.6,1.01.715,1.01,1.6" transform="translate(-1578.862 -1165.139)" fill="#0d192b"/>
          <rect id="Rectángulo_46488" data-name="Rectángulo 46488" width="4.621" height="48.13" transform="translate(231.626 103.116)" fill="#0d192b"/>
          <path id="Trazado_600555" data-name="Trazado 600555" d="M1746.122,1255.382c-.006-.04-.036-.078-.036-.118,0-2.548,12.6-4.613,28.137-4.613s28.137,2.065,28.137,4.613c0,.04-.03.079-.036.118Z" transform="translate(-1539.297 -1102.537)" fill="#1a56b3"/>
          <rect id="Rectángulo_46489" data-name="Rectángulo 46489" width="7.512" height="9.161" transform="translate(230.264 108.241)" fill="#1a56b3"/>
          <rect id="Rectángulo_46490" data-name="Rectángulo 46490" width="7.512" height="9.161" transform="translate(230.264 140.487)" fill="#1a56b3"/>
          <path id="Trazado_600556" data-name="Trazado 600556" d="M2094.508,263.755v.01a2.979,2.979,0,0,1,.3-.01Z" transform="translate(-1846.456 -232.519)" fill="#4a82db"/>
          <path id="Trazado_600557" data-name="Trazado 600557" d="M1785.459,262.386a.078.078,0,0,1-.02,0c-.064,0-.248-.01-.541-.015-.318-.005-.74-.01-1.246-.01-6.677-.03-28.456.164-28.456.164-.1,0-.2,0-.308.01a8.589,8.589,0,0,0-7.645,6.225s-9.485,47.009-13.695,51.055-18.632,3.649-18.632,3.649a7.134,7.134,0,0,0-6.9,4.622,5.974,5.974,0,0,0-.3,1.9,6.638,6.638,0,0,0,2.06,4.791,7.093,7.093,0,0,0,4.955,1.986h32.081l20.825.422a10.105,10.105,0,0,0,10.073-7.645,6.681,6.681,0,0,0,.263-.864l11.025-60.185a6.181,6.181,0,0,0,.169-1.415,4.619,4.619,0,0,0-3.7-4.682m-12.564,61.272-.258.347.184-.8h.407Z" transform="translate(-1505.468 -231.283)" fill="#9eddff"/>
          <path id="Trazado_600558" data-name="Trazado 600558" d="M1815.008,890.765c.006.03.035.059.035.089,0,1.915-16.557,3.467-31.373,3.467s-26.827-1.552-26.827-3.467c0-.03.029-.059.035-.089Z" transform="translate(-1548.779 -785.272)" fill="#1a56b3"/>
          <path id="Trazado_600559" data-name="Trazado 600559" d="M1789.1,266.661a6.18,6.18,0,0,1-.169,1.415c-.416,1.2-10.711,59.929-11.288,61.047a10.106,10.106,0,0,1-10.073,7.647c-12.329-.4-40.337-.5-52.906-.422-4.48.092-8.132-4.367-6.712-8.673-1.547,7.3,58.616,8.2,64.917-1.373,4.482-3.354,2-67.078,12.525-64.323a4.62,4.62,0,0,1,3.7,4.682" transform="translate(-1505.407 -230.877)" fill="#61b8ff"/>
          <path id="Trazado_600560" data-name="Trazado 600560" d="M1877.395,58.74c5.9,41.55-33.521,35.543-32.381,18.819.983-14.408,9.7-16.093,7.43-25.541-2.494-10.37,1.2-19.442,11.028-19.442,9.626,0,15.388,7.015,13.332,19.213-.408,2.42.34,4.947.59,6.952" transform="translate(-1626.488 -28.717)" fill="#0e0e0e"/>
          <path id="Trazado_600561" data-name="Trazado 600561" d="M1806.652,1221.913c.072.412,1.435,8.378,1.435,8.378l5.479-.47.794-9.761Z" transform="translate(-1592.69 -1075.569)" fill="#ffa599"/>
          <path id="Trazado_600562" data-name="Trazado 600562" d="M1792.873,674.339s4.584,12.882-2.993,15.089-20.256,3.044-20.256,3.044l-4.094,50.958c-1.518.6-3.144,1.142-6.931.37,0,0-9.327-51.3-6.637-57.446s23.736-12.4,23.736-12.4Z" transform="translate(-1544.048 -594.136)" fill="#0d192b"/>
          <path id="Trazado_600563" data-name="Trazado 600563" d="M1749.792,1281.463c-.408,1.047-3.565,2.534-7.1,3.619a30.717,30.717,0,0,1-7.015,1.392,5.574,5.574,0,0,1-2.9-.419s-1.56-4.034,1.906-6.256a19.379,19.379,0,0,1,7.375-2.668,3.2,3.2,0,0,0,2.313,1.3,5.185,5.185,0,0,0,2.234-.27,8.069,8.069,0,0,0,2.02-1.03,5.429,5.429,0,0,1,.642.878c.033.053.065.108.1.165a4.013,4.013,0,0,1,.423,3.291" transform="translate(-1527.261 -1125.88)" fill="#fff"/>
          <path id="Trazado_600564" data-name="Trazado 600564" d="M1773.375,1284.5l-.163.169-6.676,6.91a30.722,30.722,0,0,1-7.015,1.392,6.4,6.4,0,0,1,2.372-5.872c1.511-1.175,4.03-1.819,6.325-2.172.788-.121,1.549-.208,2.234-.27,1.232-.111,2.216-.145,2.662-.153.168,0,.26,0,.26,0" transform="translate(-1551.104 -1132.377)" fill="#dbf2ff"/>
          <path id="Trazado_600565" data-name="Trazado 600565" d="M1850.058,1245.1c.072.412.658,8.373.658,8.373l4.7-.059,1.348-8.477Z" transform="translate(-1630.956 -1097.497)" fill="#ffa599"/>
          <path id="Trazado_600566" data-name="Trazado 600566" d="M1794.463,1273.261s1.651,3.195,2.016,4.007c-1.841,5.376-14.422,9.561-15.723,7.947,0,0-2.346-3.633.6-6.513a20.456,20.456,0,0,1,7.192-4.215c1.4,1.32,5.064.96,5.919-1.226" transform="translate(-1569.08 -1122.469)" fill="#fff"/>
          <path id="Trazado_600567" data-name="Trazado 600567" d="M1889.452,673.878s2.481,11.223-6.968,14.265c-7.513,2.418-20.427,7.353-20.427,7.353l-8.2,45.666c-.345.971-5.807,1.332-6.5.552,0,0-1.9-50.271,1.874-55.819a56.177,56.177,0,0,1,13.665-13.724c7.957-.913,19.56-1.767,26.555,1.707" transform="translate(-1628.152 -591.854)" fill="#0d192b"/>
          <path id="Trazado_600568" data-name="Trazado 600568" d="M1844.884,812.368c-.089-2.021-2.146-49.583,1.9-55.928a39.621,39.621,0,0,1,3.766-4.941l.279.247a39.232,39.232,0,0,0-3.73,4.894c-3.987,6.246-1.867,55.217-1.845,55.711Z" transform="translate(-1625.864 -662.499)" fill="#2a518c"/>
          <path id="Trazado_600569" data-name="Trazado 600569" d="M1913.362,322.236c3.885-4.766,6.781-1.931,6.609,3.426s-3.792,28.7-8.125,27.093-3.361-24.535,1.517-30.518" transform="translate(-1682.994 -281.932)" fill="#ffa599"/>
          <path id="Trazado_600570" data-name="Trazado 600570" d="M1940.383,305.849l-2.606,18.181c.255.935,1.665,1.726,3.775,2.348.333.1.685.193,1.051.283,0,0,0,0,0,0,7.191,1.764,20.423,1.869,26.169-.422a43.719,43.719,0,0,0-2.278-8.018,74.682,74.682,0,0,0-6.992-13.951c-.216-1.593,1.128-4.405,2.474-7.629,2.142-5.134,4.286-11.313.128-15.284-6.769-6.466-24.477-4.632-25.64,8.16-.178,8.275,3.918,16.333,3.918,16.333" transform="translate(-1707.125 -244.832)" fill="#fd5655"/>
          <path id="Trazado_600571" data-name="Trazado 600571" d="M1971.313,403.837c.123-.02.85-.4,2-.988,0,0,0,0,0,0,4.9-2.522,17.462-8.972,23.306-8.45a3.97,3.97,0,0,0,.586.01,74.687,74.687,0,0,0-6.992-13.951c-.216-1.593,1.128-4.405,2.474-7.629l-7.648-8.682s.027.2.074.555c.409,3.128,2.351,18.529,1.3,21.015-.96,2.275-10.969,13.112-14.154,16.85-.691.813-1.062,1.289-.946,1.27" transform="translate(-1737.832 -321.02)" fill="#e64847"/>
          <path id="Trazado_600572" data-name="Trazado 600572" d="M1984.021,240.32a33.386,33.386,0,0,0,2.206,5.63s8.2-5.1,7.911-7.1l-1.331-5.382-.869-3.5-8.358,1.217.289,5.979Z" transform="translate(-1748.665 -202.731)" fill="#ffa599"/>
          <path id="Trazado_600573" data-name="Trazado 600573" d="M1983.869,246.218l5.839-3.909-6.128-2.07Z" transform="translate(-1748.665 -211.788)" fill="#e87c5d"/>
          <path id="Trazado_600574" data-name="Trazado 600574" d="M1921.2,56.766c-.472,7.486,3.765,13.66,9.464,13.79s10.214-5.843,10.086-13.343c-.121-7.065-4.367-12.594-9.489-12.712s-9.616,5.212-10.061,12.264" transform="translate(-1693.637 -39.23)" fill="#ffa599"/>
          <path id="Trazado_600575" data-name="Trazado 600575" d="M1965.906,47.1c7.116,9.122,17.368,5.5,15.006.04,0,0-2.747-7.516-11.051-7.638-10.384-.153-3.955,7.6-3.955,7.6" transform="translate(-1731.349 -34.819)" fill="#0e0e0e"/>
          <path id="Trazado_600576" data-name="Trazado 600576" d="M1991.8,168.782a.856.856,0,0,1-.67-.253c-.361-.454.61-2.672.808-3.112a.109.109,0,1,1,.2.09c-.47,1.044-1.04,2.629-.836,2.886.238.3,1.058.131,1.354.04a.11.11,0,1,1,.064.209,3.251,3.251,0,0,1-.92.14" transform="translate(-1755.247 -145.77)" fill="#bd4a31"/>
          <path id="Trazado_600577" data-name="Trazado 600577" d="M1984.37,207.116a10.5,10.5,0,0,0,7.369-1.2c-2.305,3.324-5.321,5.4-7.369,1.2" transform="translate(-1749.361 -181.531)" fill="#bd4a31"/>
          <path id="Trazado_600578" data-name="Trazado 600578" d="M2033.894,151.95c-.012.552-.244.994-.518.987s-.485-.458-.472-1.01.244-.994.518-.987.485.458.472,1.01" transform="translate(-1792.148 -133.065)" fill="#0e0e0e"/>
          <path id="Trazado_600579" data-name="Trazado 600579" d="M1953.387,148.265c-.013.552-.245.994-.518.987s-.485-.458-.472-1.01.245-.994.518-.987.485.458.472,1.01" transform="translate(-1721.174 -129.816)" fill="#0e0e0e"/>
          <path id="Trazado_600580" data-name="Trazado 600580" d="M1917.186,60.344s-1.264,6.94-7.138,7.4c-3.929.308,1.787-11.491,5.527-11.261,2.206.135,1.611,3.861,1.611,3.861" transform="translate(-1682.674 -49.791)" fill="#0e0e0e"/>
          <path id="Trazado_600581" data-name="Trazado 600581" d="M1976.332,321.338s-3.055-3.323-7.97.372c-4.024,3.025,2.777,22.3,2.777,22.3l-20.062,19.046,1.537,1.937s24.009-10.066,27.066-18.022c1.048-5.037-.989-22.12-3.348-25.636" transform="translate(-1720.011 -282.072)" fill="#ffa599"/>
          <path id="Trazado_600582" data-name="Trazado 600582" d="M1916.69,501.338l1.09,18.829-2.589.433s-5.6-12.923-5.349-20.222c.223-6.4,7.627-4.868,6.849.959" transform="translate(-1683.651 -437.459)" fill="#ffa599"/>
          <path id="Trazado_600583" data-name="Trazado 600583" d="M1951.881,682.809s2.84,1.7,1.473,2.85-6.291,1.084-4.884-1.981,3.411-.869,3.411-.869" transform="translate(-1717.493 -601.272)" fill="#ffa599"/>
          <path id="Trazado_600584" data-name="Trazado 600584" d="M1921.571,675.43c-.222-.044-5.156,3.457-3.669,4.977s8.924-3.039,7.454-4.9-3.785-.08-3.785-.08" transform="translate(-1690.52 -594.764)" fill="#ffa599"/>
        </g>
      </g>
    </g>
  </g>
</svg>
