<svg id="Grupo_160340" data-name="Grupo 160340" xmlns="http://www.w3.org/2000/svg" xmlns:xlink="http://www.w3.org/1999/xlink" width="49.24" height="29.323" viewBox="0 0 49.24 29.323">
  <defs>
    <clipPath id="clip-path">
      <rect id="Rect치ngulo_44494" data-name="Rect치ngulo 44494" width="49.24" height="29.323" fill="none"/>
    </clipPath>
    <clipPath id="clip-path-3">
      <rect id="Rect치ngulo_44492" data-name="Rect치ngulo 44492" width="27.128" height="19.668" fill="none"/>
    </clipPath>
  </defs>
  <g id="Grupo_156620" data-name="Grupo 156620" transform="translate(0 0)" clip-path="url(#clip-path)">
    <g id="Grupo_156619" data-name="Grupo 156619" transform="translate(0 0)">
      <g id="Grupo_156618" data-name="Grupo 156618" clip-path="url(#clip-path)">
        <path id="Trazado_599061" data-name="Trazado 599061" d="M37.221,38.163a1.94,1.94,0,0,0,.1-.385c-.059.159-.121.317-.189.474-.213.5-.042.245.088-.09" transform="translate(-16.364 -21.505)" fill="#4d4d4d"/>
        <path id="Trazado_599062" data-name="Trazado 599062" d="M53.216,59.826c-1.207-1.225-2.483-2.4-3.746-3.594q-.207-.2-.409-.393.378.507.792,1a10.437,10.437,0,0,0,3.363,2.988" transform="translate(-21.68 -31.786)" fill="#4d4d4d"/>
        <path id="Trazado_599063" data-name="Trazado 599063" d="M23.736,59.659a12,12,0,0,0,.468-1.821c.034-.19.064-.381.091-.571a18.925,18.925,0,0,1-1.572,4.284c.593-.376.855-1.438,1.013-1.892" transform="translate(-10.041 -32.599)" fill="#4d4d4d"/>
        <path id="Trazado_599064" data-name="Trazado 599064" d="M5.392,44.21a5.342,5.342,0,0,0,1.267-.741c.034-.031.065-.062.094-.093q-.723.449-1.463.882l.1-.047" transform="translate(-2.338 -24.692)" fill="#4d4d4d"/>
        <path id="Trazado_599065" data-name="Trazado 599065" d="M68.68,32.309a.551.551,0,0,0-.226-.205,2.343,2.343,0,0,1-.172.246,1.665,1.665,0,0,1,.408.339.045.045,0,0,1,.011.041,9.249,9.249,0,0,0,.5-.813c.04-.074.2-.041.156.033a9.443,9.443,0,0,1-.573.926c-.05.071-.19.008-.14-.063.012-.018.023-.036.035-.053a.1.1,0,0,1-.132-.007,1.464,1.464,0,0,0-.357-.3,1.755,1.755,0,0,1-.427.345c.561.08,1.122.163,1.685.231.536.065,2.118.287,1.716-.522-.25-.5-.871-.692-1.384-.974-.359-.2-.63-.436-1-.609a1.469,1.469,0,0,1-.132.8,1.072,1.072,0,0,1,.357.224c.065.062-.05.152-.115.089a.952.952,0,0,0-.3-.194c-.016.033-.033.065-.05.1l-.022.039a.684.684,0,0,1,.3.261c.042.073-.1.137-.14.063m1.005.3c.013-.042.027-.084.041-.125.025-.078.182-.045.156.033l-.04.125c-.026.078-.183.045-.157-.033m-.187.03-.122.094c-.074.057-.189-.031-.115-.089l.122-.094c.074-.057.189.031.115.089" transform="translate(-29.945 -17.604)" fill="#4d4d4d"/>
        <path id="Trazado_599066" data-name="Trazado 599066" d="M39.347,31.188a1.031,1.031,0,0,0-.152.215.175.175,0,0,1,.076.04l.009-.006c.1-.047.185-.127.286-.183l-.069-.215a1.193,1.193,0,0,0-.151.149" transform="translate(-17.32 -17.669)" fill="#4d4d4d"/>
        <path id="Trazado_599067" data-name="Trazado 599067" d="M10.336,39.409a5.331,5.331,0,0,0-.924.965A8.6,8.6,0,0,0,10.738,39.3q-.186.043-.374.082l-.028.029" transform="translate(-4.159 -22.37)" fill="#4d4d4d"/>
        <path id="Trazado_599068" data-name="Trazado 599068" d="M15.372,30.874c.214-.264.423-.53.623-.8.357-.482.689-.975,1-1.474q-.5.67-1.045,1.322-.421.5-.861,1c.061-.009.123-.017.185-.027l.1-.018" transform="translate(-6.669 -16.28)" fill="#4d4d4d"/>
        <path id="Trazado_599069" data-name="Trazado 599069" d="M13.33,34.6q-.468.519-.951,1.031c-.23.244-.464.486-.7.728q.2-.046.4-.1c.207-.212.407-.427.6-.638q.488-.521.939-1.062c-.1.014-.2.026-.3.037" transform="translate(-5.162 -19.673)" fill="#4d4d4d"/>
        <path id="Trazado_599070" data-name="Trazado 599070" d="M23.631,32.906c-.071.091-.144.181-.223.269l.217-.236c0-.011,0-.022.006-.033" transform="translate(-10.344 -18.732)" fill="#4d4d4d"/>
        <path id="Trazado_599071" data-name="Trazado 599071" d="M39.113,29.254c-.021-.069-.041-.139-.062-.208l-.39-.107c-.1-.027-.056-.148.043-.121l.3.083c-.03-.1-.059-.208-.087-.311a.073.073,0,0,1-.014,0l-.2.031a.093.093,0,0,1-.077-.02v.011c-.007.059-.016.118-.024.176a.08.08,0,0,1,0,.023,2.846,2.846,0,0,0,0,.39.1.1,0,0,1,.058-.009l.45.057" transform="translate(-17.056 -16.274)" fill="#4d4d4d"/>
        <path id="Trazado_599072" data-name="Trazado 599072" d="M25.726,25.957l0,0-.027-.022a.8.8,0,0,0-.444.324.552.552,0,0,0-.08.411c.115-.221.24-.439.378-.655a.152.152,0,0,1,.171-.056" transform="translate(-11.121 -14.762)" fill="#333"/>
        <path id="Trazado_599073" data-name="Trazado 599073" d="M42.185,17.812a1.663,1.663,0,0,0-.421-.454c-.047.06-.1.12-.151.179a1.229,1.229,0,0,1,.452.544q.088-.118.163-.24a.064.064,0,0,1-.043-.029" transform="translate(-18.389 -9.881)" fill="#4d4d4d"/>
        <path id="Trazado_599074" data-name="Trazado 599074" d="M41.709,18.516a1.094,1.094,0,0,0-.405-.506c-.059.062-.119.124-.176.186q.3.165.593.338a.062.062,0,0,1-.012-.017" transform="translate(-18.174 -10.252)" fill="#4d4d4d"/>
        <path id="Trazado_599075" data-name="Trazado 599075" d="M42.264,19.28l.006,0v0h-.007" transform="translate(-18.676 -10.975)" fill="#4d4d4d"/>
        <path id="Trazado_599076" data-name="Trazado 599076" d="M25.552,29.137l.406.189a.069.069,0,0,1,.029.024c.04-.03.08-.059.119-.09a1.22,1.22,0,0,1-.926-.785q-.175.23-.365.452a7.179,7.179,0,0,0-.395,1.36,9.534,9.534,0,0,0,1.22-.692,2.29,2.29,0,0,0-.392-.129c-.1-.023-.057-.144.043-.121a2.441,2.441,0,0,1,.475.162c.036-.025.073-.049.108-.075l-.4-.188c-.089-.041-.008-.15.082-.108" transform="translate(-10.791 -16.209)" fill="#4d4d4d"/>
        <path id="Trazado_599077" data-name="Trazado 599077" d="M38.918,27.286q-.1-.39-.193-.782c-.028.273-.034.55-.06.821a.1.1,0,0,1,.025-.008l.2-.031a.123.123,0,0,1,.025,0" transform="translate(-17.086 -15.087)" fill="#4d4d4d"/>
        <path id="Trazado_599078" data-name="Trazado 599078" d="M26.359,27.106a.832.832,0,0,0,1.09.243.182.182,0,0,1,.056-.024c.024-.083.047-.165.072-.247a1.261,1.261,0,0,0-.565-.28.1.1,0,0,1-.019-.008.917.917,0,0,0-.042.1l.528.3c.084.047,0,.156-.082.108l-.476-.267c0,.008,0,.016-.006.025-.009.08-.172.081-.162,0a1.148,1.148,0,0,1,.376-.708c.066-.062.18.027.115.089a1.105,1.105,0,0,0-.193.241h0a1.473,1.473,0,0,1,.564.254l.042-.14a1.894,1.894,0,0,0-.385-.217c-.092-.038-.01-.146.082-.108a2.047,2.047,0,0,1,.346.188c.051-.167.1-.334.156-.5a1.033,1.033,0,0,0-.686-.368.776.776,0,0,0-.9.516.826.826,0,0,0,.087.805m.453-1.036c.076-.055.191.033.115.089a.2.2,0,0,0-.1.176c0,.081-.16.081-.162,0a.315.315,0,0,1,.143-.264" transform="translate(-11.58 -14.671)" fill="#333"/>
        <path id="Trazado_599079" data-name="Trazado 599079" d="M23.6,21.659c.359.332.733.654,1.113.971a.962.962,0,0,1,.136,0,3.876,3.876,0,0,1-.735-.855,3.521,3.521,0,0,0-1.155-1.111c-.65-.26-.12.263.022.4q.3.3.618.588" transform="translate(-10.006 -11.724)" fill="#4d4d4d"/>
        <path id="Trazado_599080" data-name="Trazado 599080" d="M35.634,25.574a2.852,2.852,0,0,0-.1.473l-.057.546q-.056.546-.113,1.092a.111.111,0,0,1-.039.071q.134.206.28.407l.075-1.468a4.268,4.268,0,0,1-.047-1.121" transform="translate(-15.61 -14.558)" fill="#4d4d4d"/>
        <path id="Trazado_599081" data-name="Trazado 599081" d="M25.685,40.167a10.173,10.173,0,0,1-1.13,1.444c.516-.156.9-.89,1.13-1.444" transform="translate(-10.851 -22.865)" fill="#4d4d4d"/>
        <path id="Trazado_599082" data-name="Trazado 599082" d="M36.484,25.5c0,.078,0,.156,0,.233a.5.5,0,0,1,.24-.05c.1,0,.1.129,0,.125a.3.3,0,0,0-.185.047.1.1,0,0,1-.056.016c0,.1.006.206.011.308a.094.094,0,0,1,.026.069c0,.056-.006.112-.009.169,0,.04.006.081.01.121a.088.088,0,0,1,.018-.006l.305-.053c.009-.088.018-.176.028-.264a.077.077,0,0,1-.068.032h-.2c-.1,0-.1-.125,0-.125h.2a.074.074,0,0,1,.074.04q.04-.386.081-.771c.006-.059.011-.121.016-.181-.409-.081-.574.014-.491.289" transform="translate(-16.113 -14.337)" fill="#4d4d4d"/>
        <path id="Trazado_599083" data-name="Trazado 599083" d="M33.963,26.127a1.737,1.737,0,0,0-.589-.241q.179.405.378.8a1.95,1.95,0,0,1,.3-.554.1.1,0,0,1-.093-.009" transform="translate(-14.748 -14.735)" fill="#4d4d4d"/>
        <path id="Trazado_599084" data-name="Trazado 599084" d="M40.746,18.962l.1,0,.008,0-.07-.04-.009-.006-.032.043" transform="translate(-18.005 -10.77)" fill="#4d4d4d"/>
        <path id="Trazado_599085" data-name="Trazado 599085" d="M36.591,28.54a8.162,8.162,0,0,0,.185,1.02q.055-.53.111-1.06l-.249.043a.1.1,0,0,1-.047,0" transform="translate(-16.169 -16.224)" fill="#4d4d4d"/>
        <path id="Trazado_599086" data-name="Trazado 599086" d="M36.974,19.825l0,0a1.79,1.79,0,0,0-.175.187,1.77,1.77,0,0,1,.544.323c.016-.061.031-.121.051-.18a.09.09,0,0,1-.06-.027,2.011,2.011,0,0,0-.355-.3" transform="translate(-16.259 -11.283)" fill="#4d4d4d"/>
        <path id="Trazado_599087" data-name="Trazado 599087" d="M34.288,27.448q.155.295.327.584.049-.471.1-.942c.011-.1.015-.214.02-.323a1.9,1.9,0,0,0-.3.593.147.147,0,0,1-.143.088" transform="translate(-15.152 -15.237)" fill="#4d4d4d"/>
        <path id="Trazado_599088" data-name="Trazado 599088" d="M28.343,24.141a.639.639,0,0,1,.039.093c.024.077-.039.131-.114.149a33.53,33.53,0,0,0-.926,3.493c-.108.538-.2,1.08-.281,1.623a.106.106,0,0,1,0,.026l0,.013c-.213,1.423-.359,2.855-.535,4.28a4.525,4.525,0,0,0,.259-1.119c.119-.572.217-1.146.306-1.721.158-1.017.288-2.036.451-3.053a25.8,25.8,0,0,1,.618-2.939,13.648,13.648,0,0,0,.8-2.7c-.21.617-.418,1.235-.616,1.854" transform="translate(-11.719 -12.687)" fill="#4d4d4d"/>
        <path id="Trazado_599089" data-name="Trazado 599089" d="M30.773,24.417c-.054-.154-.106-.308-.157-.463-.162.61-.437,1.212-.617,1.818-.059.2-.114.4-.166.6a.124.124,0,0,1,.092.063,1.114,1.114,0,0,0,.564.488.749.749,0,0,1-.145-.535,7.016,7.016,0,0,1,.022-1.171c.019-.145.14-.677.407-.8" transform="translate(-13.183 -13.636)" fill="#4d4d4d"/>
        <path id="Trazado_599090" data-name="Trazado 599090" d="M32.637,28.2a.1.1,0,0,1-.02,0c-.085,0-.1-.083-.046-.113a8.022,8.022,0,0,1-.382-.738,3.543,3.543,0,0,0,.147,1.795c.145-.236.292-.471.449-.7l-.09-.146c-.021-.032-.038-.065-.057-.1m-.02.276-.285-.125c-.091-.04-.009-.149.082-.109l.285.125c.091.04.009.148-.082.108" transform="translate(-14.2 -15.572)" fill="#4d4d4d"/>
        <path id="Trazado_599091" data-name="Trazado 599091" d="M31.448,22.085a.113.113,0,0,1,.022.036,16.894,16.894,0,0,0,.76,2.074A6.866,6.866,0,0,0,33.659,26.2a18.758,18.758,0,0,1-2.2-4.406c0,.1,0,.193-.011.29" transform="translate(-13.897 -12.407)" fill="#4d4d4d"/>
        <path id="Trazado_599092" data-name="Trazado 599092" d="M37.7,23.118l.016.02a.1.1,0,0,1-.027.146c-.009.135-.02.268-.033.4q-.142,1.358-.285,2.715c.036-.132.216-.7.229-.762a10.222,10.222,0,0,0,.182-1.157A4.884,4.884,0,0,1,38,23.03a12.814,12.814,0,0,1-.158-1.289,10.183,10.183,0,0,0-.141,1.377" transform="translate(-16.516 -12.376)" fill="#4d4d4d"/>
        <path id="Trazado_599093" data-name="Trazado 599093" d="M31.3,26.714a5.181,5.181,0,0,0-.023.7q.105-.655.21-1.311a.131.131,0,0,1,.078-.094c.01-.037.017-.074.028-.111l0,0c-.03-.077-.058-.154-.087-.231a5.224,5.224,0,0,0-.208,1.055" transform="translate(-13.816 -14.606)" fill="#4d4d4d"/>
        <path id="Trazado_599094" data-name="Trazado 599094" d="M46.5,22.273h0c.4.273.693.615,1.068.905a3.446,3.446,0,0,0,.74.436.8.8,0,0,0,.479.065c-.583-.672-1.2-1.328-1.8-1.99a5.02,5.02,0,0,1-.492.582" transform="translate(-20.549 -12.347)" fill="#4d4d4d"/>
        <path id="Trazado_599095" data-name="Trazado 599095" d="M32.789,16.882a8.394,8.394,0,0,1,.15-1.3.072.072,0,0,1-.04-.019,1.659,1.659,0,0,0-.549-.335,1.514,1.514,0,0,0-.1.165,2.954,2.954,0,0,1,.6.358c.074.057-.041.146-.115.089a2.8,2.8,0,0,0-.565-.336c-.053.025-.136,0-.124-.056-.072-.034-.022-.115.052-.113a1.922,1.922,0,0,1,.665-.711c.079-.052.195.036.115.089a2.1,2.1,0,0,0-.174.129l.015.006a2.14,2.14,0,0,1,.347.292c.018-.049.034-.1.055-.147a.182.182,0,0,1,.217-.078c.141-.082.121-.067.387-.114a.162.162,0,0,1,.206.121q.059.4.124.793a1.732,1.732,0,0,1,.537.086,2.3,2.3,0,0,0-.6-.623c-.076-.055.039-.144.115-.089a2.4,2.4,0,0,1,.645.682.056.056,0,0,1-.028.081l.055.024c.005-.116.01-.232.011-.348a1.022,1.022,0,0,0-.577-.506c-.094-.037-.011-.145.081-.108a1.363,1.363,0,0,1,.273.144l-.038-.088c-.033-.077.124-.109.157-.033l.041.094c.022.051-.039.081-.092.075a1.112,1.112,0,0,1,.15.14q0-.206-.016-.413a.187.187,0,0,1-.04.005l-.362-.006c-.094,0-.2-.081-.157-.159.4-.729,1.15-.888.625-1.851a8.626,8.626,0,0,0-.6-1.019c-.944-1.24-3.135-.159-4.168.432a8.157,8.157,0,0,0-2.792,2.255,1.833,1.833,0,0,0,.935,2.862c.111.04.1.13.033.185l.029.023c.055-.169.11-.339.166-.508a.812.812,0,0,1-.56-.454.045.045,0,0,1,0-.041l-.118.1c-.071.06-.185-.029-.115-.089l.484-.409c.071-.06.185.029.115.088l-.335.284a.092.092,0,0,1,.122.034.657.657,0,0,0,.444.366c.018-.053.036-.105.053-.158a.072.072,0,0,1-.032-.018l-.287-.28c-.064-.063.05-.152.114-.089l.252.246c.021-.062.042-.123.063-.185a.078.078,0,0,1-.014-.008l-.2-.189c-.066-.062.049-.151.115-.089l.15.14q.144-.423.288-.846a.132.132,0,0,1,.111-.084c0-.017-.005-.034-.009-.052-.028-.123.152-.189.252-.14a.185.185,0,0,1,.247.067c.2.5.4,1.008.6,1.511a1.822,1.822,0,0,1,.29-.4c.061-.064.2,0,.141.063a1.685,1.685,0,0,0-.347.523s0,0,0,.006l.095.227a2.947,2.947,0,0,1,.522-.725c.062-.064.2,0,.14.063a2.933,2.933,0,0,0-.431.566l.011,0,.732.343c.089.042.008.15-.082.108L30.53,17.2c-.03.057-.056.115-.082.174l.013.03a1.963,1.963,0,0,1,.767.3.05.05,0,0,1,.027.043,1.248,1.248,0,0,1,.265-.216,1.206,1.206,0,0,1,.041-.16.492.492,0,0,1,.5-.365.517.517,0,0,1,.733-.118m1.66-3.557.164.219c.052.07-.088.133-.141.063l-.164-.219c-.052-.07.088-.133.141-.063m-.031.448c.082.048,0,.157-.082.108l-.323-.19c-.083-.048,0-.157.082-.108l.323.19m-.731-1.066.122.062c.087.044.006.153-.082.109l-.122-.062c-.087-.044-.006-.153.082-.108m-.2.306c.1,0,.1.126,0,.126s-.1-.126,0-.126m-.131.775.645-.63c.065-.063.179.026.115.089l-.542.53a.1.1,0,0,1,.093.007l.569.344c.083.05-.033.138-.114.088l-.57-.344a.044.044,0,0,1-.026-.049l-.055.053c-.065.063-.179-.026-.115-.089m-1.128.51c.1,0,.1.125,0,.125s-.1-.125,0-.125m-4.345,1.693c-.1,0-.1-.125,0-.125s.1.125,0,.125m.2-.5c-.1,0-.1-.125,0-.125s.1.125,0,.125m2.317.6a.6.6,0,0,0-.161.265c-.023.079-.18.045-.157-.033a.737.737,0,0,1,.2-.32c.065-.063.179.026.114.089m1.529-.118h-.054c-.21,0-.209-.251,0-.251h.054c.209,0,.209.251,0,.251m-.39-.717a.846.846,0,0,1,.223-.279c.071-.059.186.03.115.089a.692.692,0,0,0-.182.224c-.037.075-.194.042-.156-.034m-.141,2.13a2.048,2.048,0,0,0-.661-.349c-.1-.031-.053-.152.044-.121a2.268,2.268,0,0,1,.732.382c.073.058-.042.147-.115.089m.5-.883-.006,0a.436.436,0,0,1-.067.057l-.154.134-.328.286c-.139.121-.368-.057-.23-.177.181-.158.353-.334.551-.479a.332.332,0,0,1,.446,0c.1.113-.084.219-.213.172" transform="translate(-11.898 -6.396)" fill="#4d4d4d"/>
        <path id="Trazado_599096" data-name="Trazado 599096" d="M47.665,21.012q.286.318.577.635-.275-.344-.555-.685c-.007.016-.014.033-.022.05" transform="translate(-21.063 -11.933)" fill="#4d4d4d"/>
        <path id="Trazado_599097" data-name="Trazado 599097" d="M44.191,20.564l-.164.2a3.274,3.274,0,0,0-.452.557.13.13,0,0,1-.04.052l-.819,1.013-1.638,2.027a.163.163,0,0,1-.116.057c.02.083.042.166.062.249L42.546,22.9l.853-1.02c.236-.283.714-.669.826-.992q.162-.142-.035-.321" transform="translate(-18.101 -11.706)" fill="#4d4d4d"/>
        <path id="Trazado_599098" data-name="Trazado 599098" d="M63.631,32.072l.138-.128a1.107,1.107,0,0,0-.326-.323q-.074.086-.161.176a.972.972,0,0,1,.348.275" transform="translate(-27.964 -18)" fill="#4d4d4d"/>
        <path id="Trazado_599099" data-name="Trazado 599099" d="M39.127,30.338h-.011l-.487-.062-.009,0a2.4,2.4,0,0,0,.1.475,1.572,1.572,0,0,1,.41-.411" transform="translate(-17.066 -17.233)" fill="#4d4d4d"/>
        <path id="Trazado_599100" data-name="Trazado 599100" d="M58.252,26.758a1.35,1.35,0,0,1,.371.785c.008.081-.154.08-.162,0a1.245,1.245,0,0,0-.343-.715c-.018.031-.037.062-.057.093a1.614,1.614,0,0,1,.385.895,2.824,2.824,0,0,0,.341-.356c.055-.069.2-.006.141.063a3.233,3.233,0,0,1-.967.806.077.077,0,0,1-.115-.04c-.045.01-.108-.009-.115-.057a1.335,1.335,0,0,0-.243-.585,2.019,2.019,0,0,1-.313.246c.481.319,1.265.971,1.94.854a.186.186,0,0,1,.13-.032,3.066,3.066,0,0,0,1.376-1.074A2.318,2.318,0,0,0,61,26.93c.162-.554-.247-.876-.827-1.1q-.81-.317-1.625-.63a1.678,1.678,0,0,1-.129,1.033,4.031,4.031,0,0,1-.241.5.092.092,0,0,1,.079.026m2-.563c.1,0,.1.125,0,.125s-.1-.125,0-.125m-.421.19.119.127c.062.065-.079.128-.14.063l-.119-.127c-.061-.065.079-.128.14-.063m-.716.876c.1,0,.1.125,0,.125s-.1-.125,0-.125m-.1.624a2.579,2.579,0,0,1-.494.516c-.073.058-.188-.031-.115-.089a2.446,2.446,0,0,0,.469-.49c.051-.071.191-.007.14.063m-.143-1.251c.1,0,.1.125,0,.125s-.1-.125,0-.125" transform="translate(-25.265 -14.343)" fill="#4d4d4d"/>
        <path id="Trazado_599101" data-name="Trazado 599101" d="M39.821,25.016c-.073-.031-.117-.1-.059-.167l.013-.016q-.577-2.289-.923-4.607l-.141.05a.1.1,0,0,1,.026.064,11.753,11.753,0,0,0,.153,1.645c.06.023.1.07.068.134-.012.025-.021.05-.031.075a28.964,28.964,0,0,0,1.313,4.514c.352,1,.7,2,.977,3.015a4.639,4.639,0,0,0,.992,2.464,5.688,5.688,0,0,0-.589-1.6q-.29-.743-.555-1.491-.529-1.5-.957-3.014c-.1-.354-.194-.709-.285-1.064" transform="translate(-17.106 -11.514)" fill="#4d4d4d"/>
        <path id="Trazado_599102" data-name="Trazado 599102" d="M79.081,59.111c-1.054-.5-2.157-.928-3.241-1.389-.178-.076-.352-.156-.526-.236q.158.1.319.2a36.112,36.112,0,0,0,3.353,1.82,14.755,14.755,0,0,0,2.952,1.176,12.618,12.618,0,0,0-2.856-1.573" transform="translate(-33.28 -32.724)" fill="#4d4d4d"/>
        <path id="Trazado_599103" data-name="Trazado 599103" d="M60.034,41.174q.65.784,1.333,1.551A4.016,4.016,0,0,0,62.8,44.012a.174.174,0,0,1,.155,0c.046.023.091.047.137.071a1.41,1.41,0,0,0,.156.015,30.952,30.952,0,0,1-4.194-4.144c.321.408.647.815.982,1.217" transform="translate(-26.095 -22.745)" fill="#4d4d4d"/>
        <path id="Trazado_599104" data-name="Trazado 599104" d="M62.853,29.71a1.254,1.254,0,0,1,.349.326l.03-.028c.067-.062.181.027.115.089l-.406.376c-.067.062-.181-.027-.115-.089l.028-.026a.074.074,0,0,1-.037-.025.827.827,0,0,0-.312-.243c-.04.039-.081.078-.124.116l.362.33c.067.061-.047.15-.115.089l-.356-.325a3.47,3.47,0,0,1-.523.366c.463.127.877.317,1.339.478a2.707,2.707,0,0,0,1.505.179,1.369,1.369,0,0,0,.681-.416c-.071-.041,0-.133.087-.1A2.12,2.12,0,0,0,65.5,30.6c-.041-.032-.009-.1.06-.1.035-.064.066-.128.095-.191a.919.919,0,0,0-.113-1.185,2.252,2.252,0,0,0-.96-.35,6.078,6.078,0,0,1-1.168-.317,2.254,2.254,0,0,1-.553,1.247l-.011.013m1.906-.551c.028-.078.185-.045.156.033a.144.144,0,0,0,.021.142c.051.071-.09.134-.141.063a.247.247,0,0,1-.037-.238m-.555.174.2.031c.1.016.059.137-.043.121l-.2-.031c-.1-.016-.059-.137.043-.121m-.619.468.041-.063c.047-.072.187-.009.14.063l-.041.063c-.047.072-.187.009-.14-.063m-.046.687c.056-.068.2,0,.14.063l-.16.19c-.056.068-.2,0-.14-.063l.16-.19m-.194-.079a1.245,1.245,0,0,0-.38.476c-.033.076-.19.043-.157-.034a1.391,1.391,0,0,1,.421-.532c.074-.058.188.031.115.089" transform="translate(-27.286 -16.195)" fill="#4d4d4d"/>
        <path id="Trazado_599105" data-name="Trazado 599105" d="M53.935,25.527c.927.5,1.837-1.56,1.91-1.986.178-1.046-1.173-1.324-2.187-1.638a5.5,5.5,0,0,1-1.165-.482,1.9,1.9,0,0,1-.146,1.144.979.979,0,0,1,.373.286c.039-.044.148-.033.148.034a2.476,2.476,0,0,1-.237,1.022c-.035.075-.192.043-.157-.033a2.4,2.4,0,0,0,.223-.861.068.068,0,0,1-.065-.031.809.809,0,0,0-.335-.3c-.026.058-.054.115-.083.172l.425.271c.081.051-.035.14-.115.088l-.374-.238q-.048.087-.1.173a2.9,2.9,0,0,1,.47.286c.075.057-.04.146-.114.089a2.7,2.7,0,0,0-.426-.26l-.078.121a1.3,1.3,0,0,1,.416.27c.063.063-.051.152-.115.089a1.184,1.184,0,0,0-.323-.223.137.137,0,0,1-.109.078c.184.236.369.471.551.708a7.754,7.754,0,0,1,.8.508,8.363,8.363,0,0,0,.813.711m-.07-2.261.445.068c.1.016.059.137-.043.121l-.445-.068c-.1-.016-.059-.137.043-.121m-.305-.695c.1,0,.1.125,0,.125s-.1-.125,0-.125m-.163.641c.02-.079.176-.045.156.034q-.044.172-.088.344c-.02.079-.177.045-.157-.034l.088-.344m-.52.5a1.072,1.072,0,0,0,.076-.783c-.022-.079.135-.112.157-.033a1.168,1.168,0,0,1-.076.849c-.037.075-.194.042-.157-.033" transform="translate(-22.878 -12.194)" fill="#4d4d4d"/>
        <path id="Trazado_599106" data-name="Trazado 599106" d="M47.762,17.791c-.321-.537-1.09-.755-1.733-1.014A32.288,32.288,0,0,0,42.1,15.43c.008.017.018.034.025.051a.614.614,0,0,1,.014.429l.472.319c.079.053-.037.142-.114.089l-.411-.277a1.165,1.165,0,0,1-.061.106,1.788,1.788,0,0,1,.457.472,2.949,2.949,0,0,0,.169-.364.052.052,0,0,1,0-.084l.065-.056c.056-.048.156,0,.136.061a3.18,3.18,0,0,1-.562.995l.1.062a1.617,1.617,0,0,0,.457-.75c.021-.079.177-.046.156.033a1.735,1.735,0,0,1-.486.793l.174.106.32-.414c.054-.069.194-.006.14.063l-.332.429q.516.324,1.008.671c.263-.412.8-1.3,1.284-.89a.362.362,0,0,1,.089.106.157.157,0,0,1,.053.04c.69.842,1.363,1.691,2.03,2.544a.1.1,0,0,1,.011-.094c.419-.63.88-1.379.46-2.081M43.4,16.808l-.121-.064c-.086-.046,0-.154.082-.109l.121.064c.085.046,0,.154-.082.108m.29-.4c-.105,0-.1-.125,0-.125s.1.125,0,.125" transform="translate(-18.572 -8.783)" fill="#4d4d4d"/>
        <path id="Trazado_599107" data-name="Trazado 599107" d="M53.87,8.612a.552.552,0,0,0,.257-.053l-.257.053" transform="translate(-23.805 -4.872)" fill="#998675"/>
        <path id="Trazado_599108" data-name="Trazado 599108" d="M58.329,30.407A1.5,1.5,0,0,0,58.1,29.8c-.054.068-.111.133-.17.2a1.478,1.478,0,0,1,.3.675,3.3,3.3,0,0,0,.479-.33c-.04,0-.081-.021-.085-.06a1.471,1.471,0,0,0-.309-.771c-.037.056-.076.112-.117.167a1.656,1.656,0,0,1,.3.731c.012.08-.151.079-.162,0" transform="translate(-25.597 -16.798)" fill="#4d4d4d"/>
        <path id="Trazado_599109" data-name="Trazado 599109" d="M62.549,4.456a4.517,4.517,0,0,1-.913.328,6.7,6.7,0,0,0-2.2,1.824,3.449,3.449,0,0,1-.9.732,10.922,10.922,0,0,1,1.252-.494c1.059-.339,2.2-.547,3.3-.8a7.681,7.681,0,0,0,2.9-1.016c.347-.263.512-.628.876-.877.386-.265.8-.508,1.214-.755q-2.753.47-5.493.979a.053.053,0,0,1-.031.075" transform="translate(-25.866 -1.937)" fill="#998675"/>
        <path id="Trazado_599110" data-name="Trazado 599110" d="M41.218,11.364a.163.163,0,0,1,.077-.031c.066-.008.132-.013.2-.02l3.3-1c.394-.119.8-.227,1.187-.373a.08.08,0,0,1,.028-.02c.092-.04.184-.075.277-.106.061-.029.122-.059.181-.091A5.176,5.176,0,0,0,47.543,8.9q-3.485.717-6.95,1.495c.1.157.169.327.255.491a2.513,2.513,0,0,0,.371.475" transform="translate(-17.938 -5.069)" fill="#998675"/>
        <path id="Trazado_599111" data-name="Trazado 599111" d="M40.459,22.962c.006-.056.008-.112.013-.168a.089.089,0,0,1-.023-.006,2,2,0,0,0-.6-.15c.011.059.021.119.031.179a1.052,1.052,0,0,1,.581.146" transform="translate(-17.608 -12.887)" fill="#4d4d4d"/>
        <path id="Trazado_599112" data-name="Trazado 599112" d="M40.3,23.747A.539.539,0,0,0,40,23.679c.026.137.052.274.079.412a.1.1,0,0,1,.066-.012l.243.033h0c.038-.215.07-.43.095-.646a.106.106,0,0,1-.092-.008.835.835,0,0,0-.455-.115c.013.07.025.14.037.21a.724.724,0,0,1,.4.086c.083.047,0,.156-.082.108" transform="translate(-17.65 -13.288)" fill="#4d4d4d"/>
        <path id="Trazado_599113" data-name="Trazado 599113" d="M40.454,22.1a.093.093,0,0,1-.036-.01,1.481,1.481,0,0,0-.665-.161c.01.059.021.117.031.176a2.273,2.273,0,0,1,.659.152c0-.052.009-.1.012-.156" transform="translate(-17.566 -12.485)" fill="#4d4d4d"/>
        <path id="Trazado_599114" data-name="Trazado 599114" d="M70.978,4.512a2.021,2.021,0,0,1-.258.62c-.478.685-1.461,1.058-1.963,1.722a25.1,25.1,0,0,1,4.685-2.2,15.141,15.141,0,0,0,2.618-.968,4.631,4.631,0,0,0,1.08-.918,1.891,1.891,0,0,0,.488-1.06,12.124,12.124,0,0,0-1.223.11c-.807.1-1.606.249-2.406.382-.346.058-.691.118-1.036.177-.529.457-1.058.921-1.533,1.411a1.77,1.77,0,0,0-.452.728" transform="translate(-30.383 -0.97)" fill="#998675"/>
        <path id="Trazado_599115" data-name="Trazado 599115" d="M59.8,1.82a.152.152,0,0,1,.048-.041A5.259,5.259,0,0,0,61.038.95l.178-.161q.16-.275-.12-.164a2.365,2.365,0,0,0-.6.117q-1.412.281-2.811.6c-1.767.406-3.518.853-5.261,1.316-3.008.8-6,1.636-9.022,2.4q5.783-1.275,11.628-2.374,2.381-.448,4.771-.862" transform="translate(-19.181 -0.338)" fill="#998675"/>
        <path id="Trazado_599116" data-name="Trazado 599116" d="M52.358,7.42a5.027,5.027,0,0,1-.664.5c1.188-.247,2.51-.075,3.653-.507a13.516,13.516,0,0,0,1.92-1.038,2.706,2.706,0,0,1,1-.28c.092-.016.182-.035.271-.056.061-.031.121-.063.183-.093a.086.086,0,0,1,.1.015,4.239,4.239,0,0,0,.416-.153q-2.931.547-5.848,1.138a.051.051,0,0,1-.011.072.672.672,0,0,1-.467.164c-.052,0-.183-.05-.222-.042-.124.024-.251.2-.331.276" transform="translate(-22.843 -3.308)" fill="#998675"/>
        <path id="Trazado_599117" data-name="Trazado 599117" d="M52.178,8.842a3.847,3.847,0,0,0,.577-.644,6.15,6.15,0,0,1,1.7-1.411c-.1.012-.2.025-.294.044a2.005,2.005,0,0,0-.681.291,11.022,11.022,0,0,1-1.786.957c-1.349.512-2.955.183-4.282.691-.123.055-.251.106-.386.152-1.24.419-2.519.779-3.786,1.151.645-.019,1.292.022,1.94.041q1.589.045,3.179.04c.582,0,1.163-.009,1.744-.021l1.423-.87a6.631,6.631,0,0,0,.654-.421" transform="translate(-19.107 -3.863)" fill="#998675"/>
        <path id="Trazado_599118" data-name="Trazado 599118" d="M81.365,3.414a5.829,5.829,0,0,1-1.972.956c.419-.05.845-.074,1.271-.106a5.55,5.55,0,0,0,2.493-.682.1.1,0,0,1,.054-.013,3.92,3.92,0,0,0,.555-.723.779.779,0,0,0-.612-1.112,3.644,3.644,0,0,0-.61-.04h-.052a1.94,1.94,0,0,1-.291.863,4.864,4.864,0,0,1-.835.857" transform="translate(-35.083 -0.964)" fill="#998675"/>
        <path id="Trazado_599119" data-name="Trazado 599119" d="M40.5,25.362a.11.11,0,0,1-.024,0l-.067-.009a.075.075,0,0,1-.073.039c-.051,0-.076-.029-.078-.059l-.026,0h0c.043.217.089.434.135.65.052-.205.1-.411.135-.616" transform="translate(-17.778 -14.418)" fill="#4d4d4d"/>
        <path id="Trazado_599120" data-name="Trazado 599120" d="M74,7.557l-.013,0a21.548,21.548,0,0,0-2.537.989c-.736.354-1.437.748-2.131,1.15a21.588,21.588,0,0,0,6.786-1.5,9.293,9.293,0,0,0,2.341-1.447,5.441,5.441,0,0,1-1.785.48A15.38,15.38,0,0,0,74,7.557" transform="translate(-30.631 -3.84)" fill="#998675"/>
        <path id="Trazado_599121" data-name="Trazado 599121" d="M64.978,6.446a5.422,5.422,0,0,0,.334-.846,2.251,2.251,0,0,1,.464-.59c.3-.3.622-.6.945-.886a8.946,8.946,0,0,0-.88.566c-.344.259-.515.617-.868.876a6.861,6.861,0,0,1-2.488.916c-1.193.273-2.426.5-3.585.849a14.379,14.379,0,0,0-2.818,1.279q1.995-.046,3.987-.166c.944-.059,1.917-.115,2.893-.2.5-.711,1.526-1.086,2.018-1.8" transform="translate(-24.782 -2.347)" fill="#998675"/>
        <g id="Grupo_156617" data-name="Grupo 156617" transform="translate(13.496 6.233)" style="mix-blend-mode: multiply;isolation: isolate">
          <g id="Grupo_156616" data-name="Grupo 156616">
            <g id="Grupo_156615" data-name="Grupo 156615" clip-path="url(#clip-path-3)">
              <path id="Trazado_599122" data-name="Trazado 599122" d="M26.754,26.231c-.206.228-.28.5-.477.733a1.327,1.327,0,0,1-.252.284c-.053.034-.544.164-.539.091,0-.055-.1-.078-.136-.028a.178.178,0,0,0,.025.255.151.151,0,0,0-.122.09c-.024.086-.188.17-.233.264a3.392,3.392,0,0,1-.148.35c-.133.219-.431.345-.556.557a.062.062,0,0,0-.007.016.221.221,0,0,0-.126.176c-.012.073.1.121.183.088a.7.7,0,0,0,.113-.075.9.9,0,0,0,.1-.073.1.1,0,0,0,.037-.068,2.908,2.908,0,0,0,.755-.361.808.808,0,0,0,.085-.066.188.188,0,0,0,.19.007c.172-.09.462-.313.342-.494-.053-.08-.2-.12-.266-.193-.037-.039-.066-.075-.1-.108a1.366,1.366,0,0,0,.261.03.134.134,0,0,0,.123.117.649.649,0,0,0,.755-.467c.088-.236.159-.473.224-.713.041-.154.083-.271-.018-.412a.151.151,0,0,0-.219,0" transform="translate(-24.181 -21.139)" fill="#ccc"/>
              <path id="Trazado_599123" data-name="Trazado 599123" d="M31.863,26.237c-.023-.091-.108-.132-.173-.2l-.015-.017a1.924,1.924,0,0,0-.32-.544c-.037-.084-.074-.168-.116-.253a.053.053,0,0,0-.061-.022,2.9,2.9,0,0,0-.186-.578c-.06-.131-.057-.212-.258-.232h-.013c.041-.124.08-.249.113-.377.052-.206-.354-.249-.368-.038-.035.528-.388,1.008-.477,1.534a1.534,1.534,0,0,0-.279.578c-.039.288.2.505.4.732a.288.288,0,0,0,.218.092l.014.019c.03.037.105.022.107-.022v-.024l.011,0a.16.16,0,0,0,.1-.143l0,0a.257.257,0,0,0-.08-.175.987.987,0,0,0,.2.078.323.323,0,0,0,.195-.014,4.241,4.241,0,0,0,.155.553.217.217,0,0,0,.127.129.069.069,0,0,0,.049.015c.154.033.347-.047.363-.2.01-.087.014-.173.016-.259.167-.212.321-.438.275-.627" transform="translate(-26.623 -19.802)" fill="#ccc"/>
              <path id="Trazado_599124" data-name="Trazado 599124" d="M34.127,17.344a.3.3,0,0,0,.335.147c.131-.028.246-.152.191-.259,0,.021,0,.018,0-.009l0-.016s.014-.045.017-.051a.31.31,0,0,1,.06-.108.181.181,0,0,0-.093-.275.312.312,0,0,0-.356.072.545.545,0,0,0-.155.5" transform="translate(-28.567 -15.766)" fill="#ccc"/>
              <path id="Trazado_599125" data-name="Trazado 599125" d="M33.844,16.8c.052-.02.069-.054.1-.09a.3.3,0,0,1,.106-.075c.075-.035.022-.112-.056-.1-.126.015-.315.08-.311.2,0,.066.089.1.162.072" transform="translate(-28.379 -15.646)" fill="#ccc"/>
              <path id="Trazado_599126" data-name="Trazado 599126" d="M33.477,16.385c.118,0,.119-.142,0-.142s-.119.142,0,.142" transform="translate(-28.249 -15.48)" fill="#ccc"/>
              <path id="Trazado_599127" data-name="Trazado 599127" d="M35.272,14.7c.159,0,.16-.191,0-.191s-.16.191,0,.191" transform="translate(-29.029 -14.495)" fill="#ccc"/>
              <path id="Trazado_599128" data-name="Trazado 599128" d="M37.012,15.405c.111,0,.111-.132,0-.132s-.111.132,0,.132" transform="translate(-29.814 -14.928)" fill="#ccc"/>
              <path id="Trazado_599129" data-name="Trazado 599129" d="M39,27.782a3.782,3.782,0,0,0-.042-.552.162.162,0,0,0-.186-.117,5.922,5.922,0,0,0-.1-.7c-.009-.043-.1-.041-.111,0A3.017,3.017,0,0,0,38.55,28.7c.031.05.141.027.136-.028,0-.037,0-.075,0-.114.011.035.076.04.1.01s.029-.047.044-.071c.022.049.044.081.066.081-.319.01-.213.393.055.313s.331-.234.262-.444c-.074-.226-.153-.441-.2-.659" transform="translate(-30.43 -21.254)" fill="#ccc"/>
              <path id="Trazado_599130" data-name="Trazado 599130" d="M25.275,23.7a.341.341,0,0,0,.387,0,.187.187,0,0,0,.071-.093.2.2,0,0,0-.126-.239c-.208-.109-.321-.3-.517-.416a2.957,2.957,0,0,1-.53-.448c-.026-.026-.08,0-.069.031a2.12,2.12,0,0,0,.785,1.164" transform="translate(-24.317 -19.038)" fill="#ccc"/>
              <path id="Trazado_599131" data-name="Trazado 599131" d="M37.845,16.834a5.91,5.91,0,0,1-.649-.617,7.281,7.281,0,0,0-.646-.455c-.38-.282-.594-.691-1.015-.926a.068.068,0,0,0-.1.061c.02.09.033.177.048.262a.156.156,0,0,0-.1.118,1,1,0,0,1-.546.721,1.492,1.492,0,0,0,.174-.453c.07-.425-.227-.637-.488-.977-.052-.067-.213-.063-.232.024-.041.18-.6-.115-.723-.121a.61.61,0,0,0-.428.15c-.238.205-.025.365-.073.568-.08.344-.5.376-.837.545a.893.893,0,0,0-.4.479,3.5,3.5,0,0,1-.271.589c-.111.075-.232.142-.35.211a1.162,1.162,0,0,1-.611-.128c-.056-.025-.047-.127-.137-.142a1.145,1.145,0,0,0-1.077.424.1.1,0,0,0-.112.022c-.045.053-.241.051-.31.086-.139.072-.233.219-.354.307-.316.228-1.2.5-1.531.178a.052.052,0,0,0-.081.026.441.441,0,0,0,.117.331.068.068,0,0,0-.015.04h-.006a1.044,1.044,0,0,0,.358.782.676.676,0,0,0,.328.207c.053.01.156-.017.19-.006.085.029.14.207.165.282a.249.249,0,0,0,.455-.047,3.888,3.888,0,0,1,.209-.949,2.615,2.615,0,0,0,.239-.773.12.12,0,0,0-.087-.114c.107-.064.229-.111.332-.172a.091.091,0,0,0,.105,0,2.511,2.511,0,0,1,.285-.163,3.054,3.054,0,0,0,.411,1.358c.225.5.416,1.012.639,1.514a.23.23,0,0,0,.165.129l0,.01a.155.155,0,0,0,0,.2l.334.421a1.354,1.354,0,0,0,.1.3c.018.039.1.049.117,0,.008-.032.015-.064.021-.1a2.7,2.7,0,0,0,.373.826c.122.2.57.056.464-.151a2.784,2.784,0,0,1-.068-1.545c0-.031.007-.09.008-.167a2.8,2.8,0,0,1,.007.35c0,.043.064.066.107.05,0,.036-.006.073-.009.109-.036.325-.194.8.152,1.051.04.028.115.019.127-.026a7.711,7.711,0,0,0,.192-1.216,2.42,2.42,0,0,0-.047-1.355.147.147,0,0,0-.123-.069.836.836,0,0,0-.03-.1c.194-.005.371-.137.364-.29a4.336,4.336,0,0,1,.1-1.064,1.014,1.014,0,0,1,.866-.79,1.717,1.717,0,0,0,.054.941c.116.717.245,1.439.412,2.15.031.128.306.128.337,0,.251-1.046.722-2.249.07-3.251a.337.337,0,0,0-.188-.137l.054-.1a.2.2,0,0,0,.16.107,6.035,6.035,0,0,1,2.2,1.253.243.243,0,0,0,.315-.031q.087-.1.168-.2a.378.378,0,0,0,.067-.036.59.59,0,0,0,.2-.25.2.2,0,0,0,.023-.087c.073-.044.107-.13.024-.188m-6.171,2.9v0c-.019-.053-.1-.062-.148-.03a.54.54,0,0,0-.153.148c-.008-.011-.016-.021-.025-.031a4.507,4.507,0,0,1,.4-.422c-.025.109-.041.212-.058.289,0,.016-.009.033-.013.05m-1.187-2.265a.185.185,0,0,0,.04-.018c-.009.026-.016.051-.023.077-.005-.02-.012-.039-.017-.059" transform="translate(-25.422 -14.471)" fill="#ccc"/>
              <path id="Trazado_599132" data-name="Trazado 599132" d="M48.934,23.555c.022-.19-.162-.306-.3-.452-.205-.211-.4-.426-.607-.639a3.352,3.352,0,0,0-.823-.739.559.559,0,0,0,0-.069c-.012-.161-.268-.213-.385-.081a1.655,1.655,0,0,0-.374.577c-.013.039.012.068.049.08a.8.8,0,0,0,.313.471,7.267,7.267,0,0,0,1.847.977.2.2,0,0,0,.283-.125" transform="translate(-34.016 -18.472)" fill="#ccc"/>
              <path id="Trazado_599133" data-name="Trazado 599133" d="M54.465,23.759a1.772,1.772,0,0,1-.971-.632,2.293,2.293,0,0,1-.4-.865,2.1,2.1,0,0,0-.66-1.186c-.036-.028-.086,0-.08.036a3.7,3.7,0,0,1-.012,1.018c-.26.512-.8,1.1-.613,1.6.235.641,1.459,1.157,2.09,1.548a.23.23,0,0,0,.26,0c.521-.4,1.409-1.186.39-1.523" transform="translate(-36.336 -18.225)" fill="#ccc"/>
              <path id="Trazado_599134" data-name="Trazado 599134" d="M60.022,27.581a.421.421,0,0,0-.125-.429c-.326-.332-.87-.3-.863-.859s.048-1.018-.5-1.408c-.108-.077-.251.019-.194.116a1.152,1.152,0,0,1,.141.538.151.151,0,0,0-.105.093,3.428,3.428,0,0,1-1.264,1.817.184.184,0,0,0-.044.264c.6.852,2.672,1.042,2.956-.131" transform="translate(-38.696 -20.383)" fill="#ccc"/>
              <path id="Trazado_599135" data-name="Trazado 599135" d="M64.732,29.525a1.9,1.9,0,0,0-.545-.28,1.755,1.755,0,0,1-.825-.99.068.068,0,0,0-.117,0,1.416,1.416,0,0,0-.113.616.19.19,0,0,0-.156.111,2.287,2.287,0,0,1-1.209,1.275c-.258.115-.171.381.077.454a5.659,5.659,0,0,0,1.965.576,1.176,1.176,0,0,0,.944-.707c.161-.332.3-.747-.022-1.056" transform="translate(-40.722 -22.298)" fill="#ccc"/>
              <path id="Trazado_599136" data-name="Trazado 599136" d="M69.5,31.816c-.43-.316-.269-.843-.8-1.118-.071-.037-.189.025-.154.091a1.166,1.166,0,0,1,.111.478c-.074-.014-.156.006-.17.077a1.69,1.69,0,0,1-.873,1.088.2.2,0,0,0,.06.356,4.037,4.037,0,0,0,.79.146c.321.054.63.138.957.173.393.043,1.071-.01,1.04-.436s-.628-.611-.961-.855" transform="translate(-43.337 -23.702)" fill="#ccc"/>
              <path id="Trazado_599137" data-name="Trazado 599137" d="M43.973,45.016a3.134,3.134,0,0,0,.429,1.3c.068.09.277.057.266-.056a3.344,3.344,0,0,0-.619-1.274c-.022-.035-.082-.008-.075.025" transform="translate(-32.927 -31.835)" fill="#ccc"/>
              <path id="Trazado_599138" data-name="Trazado 599138" d="M48.538,54.892c-.042-.042-.122-.007-.093.042a8.39,8.39,0,0,0,.92,1.329,2.532,2.532,0,0,0,1.067.865c.112.037.261-.044.182-.141-.6-.743-1.39-1.4-2.077-2.1" transform="translate(-34.9 -37.47)" fill="#ccc"/>
              <path id="Trazado_599139" data-name="Trazado 599139" d="M65.213,47.594c-.139-.054-.273-.115-.408-.175a3.476,3.476,0,0,1-.438-.2c-.248-.162-.409-.389-.652-.555-.023-.016-.065.005-.045.027a6.133,6.133,0,0,1,.531.761,1.455,1.455,0,0,0,.712.537c.34.138.643-.265.3-.4" transform="translate(-41.628 -32.796)" fill="#ccc"/>
            </g>
          </g>
        </g>
        <path id="Trazado_599140" data-name="Trazado 599140" d="M30.283,15.265c-.325.177-.65.357-.974.536a.324.324,0,0,0-.176.215,1.518,1.518,0,0,0-.874,1.181c-.026.159.2.32.4.309a1.805,1.805,0,0,0,1.25-.586c.34-.36.477-.82.887-1.141.326-.255-.109-.734-.513-.513M29.1,16.659a1.236,1.236,0,0,1,.21-.3.393.393,0,0,0,.041.021,1.48,1.48,0,0,1-.251.283" transform="translate(-12.486 -8.658)" fill="#b3b3b3"/>
        <path id="Trazado_599141" data-name="Trazado 599141" d="M32.673,18.386l.011.011-.011-.011" transform="translate(-14.438 -10.466)" fill="#b3b3b3"/>
        <path id="Trazado_599142" data-name="Trazado 599142" d="M32.994,17.689a.475.475,0,0,0-.075.008H32.9a.7.7,0,0,0-.079.009.488.488,0,0,0-.1.031l-.011.006c-.122.012-.193.119-.13.2a.348.348,0,0,0,.04.043.534.534,0,0,1,.048.047.37.37,0,0,0,.243.058.3.3,0,0,0,.292-.24c.009-.09-.1-.163-.214-.165" transform="translate(-14.388 -10.069)" fill="#b3b3b3"/>
        <path id="Trazado_599143" data-name="Trazado 599143" d="M35.323,14.111a.563.563,0,0,0-.194.067l-.2.091c-.168.077.018.272.165.165l.17-.122a.408.408,0,0,0,.136-.124c.018-.035-.029-.081-.076-.078" transform="translate(-15.406 -8.032)" fill="#b3b3b3"/>
        <path id="Trazado_599144" data-name="Trazado 599144" d="M37.436,13.514l-.147-.109c-.077-.057-.19.031-.117.09l.141.114a.346.346,0,0,0,.142.084c.052.012.107-.029.09-.069a.281.281,0,0,0-.109-.109" transform="translate(-16.416 -7.62)" fill="#b3b3b3"/>
        <path id="Trazado_599145" data-name="Trazado 599145" d="M36.809,17.35c-.081,0-.082.1,0,.1s.082-.1,0-.1" transform="translate(-16.239 -9.876)" fill="#b3b3b3"/>
        <path id="Trazado_599146" data-name="Trazado 599146" d="M26.871,26.876c-.084-.067-.237-.05-.27.047h0a1.143,1.143,0,0,0-.113.438.251.251,0,0,0,.249.218c.129.012.29-.049.315-.159s.127-.215.124-.348a.25.25,0,0,0-.3-.2" transform="translate(-11.704 -15.276)" fill="#b3b3b3"/>
        <path id="Trazado_599147" data-name="Trazado 599147" d="M25.707,30.227c0,.042-.008.084-.013.125-.006.057.12.057.114,0,0-.042-.008-.084-.013-.125s-.084-.044-.089,0" transform="translate(-11.354 -17.188)" fill="#b3b3b3"/>
        <path id="Trazado_599148" data-name="Trazado 599148" d="M50.674,20.766c-.1-.089-.285.05-.17.132.085.06.17.119.261.174s.21-.029.135-.1-.148-.136-.226-.2" transform="translate(-22.301 -11.805)" fill="#b3b3b3"/>
        <path id="Trazado_599149" data-name="Trazado 599149" d="M55.627,23.578a1.736,1.736,0,0,0-.447-.2,1.3,1.3,0,0,0-.48-.05c-.1,0-.133.1-.05.142a2.616,2.616,0,0,1,.59.4c.171.152.273.367.54.432a.184.184,0,0,0,.179-.056c.186-.246-.1-.517-.333-.674" transform="translate(-24.129 -13.28)" fill="#b3b3b3"/>
        <path id="Trazado_599150" data-name="Trazado 599150" d="M57.386,26.089c-.069-.079-.208.027-.1.081l.093.048c.044.023.1-.023.074-.057l-.062-.072" transform="translate(-25.296 -14.835)" fill="#b3b3b3"/>
        <path id="Trazado_599151" data-name="Trazado 599151" d="M61.184,27a3.2,3.2,0,0,0-.358-.124c-.115-.035-.175.1-.081.148a2,2,0,0,0,.7.252.064.064,0,0,0,.059-.109A1.286,1.286,0,0,0,61.184,27" transform="translate(-26.822 -15.295)" fill="#b3b3b3"/>
        <path id="Trazado_599152" data-name="Trazado 599152" d="M66.674,30.178l-.146-.076c-.1-.053-.2.075-.1.127a.751.751,0,0,0,.292.12c.063,0,.088-.05.066-.088a.263.263,0,0,0-.117-.082" transform="translate(-29.337 -17.128)" fill="#b3b3b3"/>
        <path id="Trazado_599153" data-name="Trazado 599153" d="M69.266,31.613c-.081,0-.082.1,0,.1s.082-.1,0-.1" transform="translate(-30.581 -17.996)" fill="#b3b3b3"/>
        <path id="Trazado_599154" data-name="Trazado 599154" d="M71.671,33.357a1.932,1.932,0,0,0-.206-.114c-.121-.063-.272.085-.157.158a1.989,1.989,0,0,0,.2.121.528.528,0,0,0,.219.072c.062,0,.113-.05.094-.1a.376.376,0,0,0-.148-.141" transform="translate(-31.493 -18.915)" fill="#b3b3b3"/>
        <path id="Trazado_599155" data-name="Trazado 599155" d="M49.214,28.109a7.122,7.122,0,0,0-2.258-1.453c-1.122-.556-2.263-1.069-3.443-1.548a24.444,24.444,0,0,1-3.193-1.556c-.8-.6-1.605-1.205-2.476-1.735-.094-.078-.187-.158-.279-.239a.115.115,0,0,0,.051-.2,31.614,31.614,0,0,1-5.74-6.029q-.951-1.29-1.927-2.567c.284.213.547.44.823.68a.774.774,0,0,0,.55.272.939.939,0,0,0,.3-.046c.006,0,.008.01.015.015.526.339,1.415,1.128,2.164,1.016a1.58,1.58,0,0,0,.277-.069c1.015.212,1.943.885,3.043.769a2.014,2.014,0,0,0,.215-.036l.011,0c.69.1,4.05.876,4.342-.037.141-.44-.532-1.025-.926-1.275-.325-.206-.706-.327-1.024-.544A3.6,3.6,0,0,0,38.745,13,.176.176,0,0,0,38.713,13a1.006,1.006,0,0,0-.224-.252c-.612-.5-1.663-.412-2.37-.792a.174.174,0,0,0-.05-.018.786.786,0,0,0-.056-.108,1.822,1.822,0,0,0-.945-.56q-.968-.378-1.938-.752a.185.185,0,0,0-.021,0,1.569,1.569,0,0,0-.478-.4c-.983-.566-2.316-.615-3.173-1.331a.161.161,0,0,0-.076-.034,1.861,1.861,0,0,0-.631-.494,25.105,25.105,0,0,0-4.892-1.785c.94-.065,1.912.028,2.849.049q1.589.035,3.18.021,3.02-.027,6.033-.232c.722-.049,1.458-.1,2.2-.159a.088.088,0,0,0,.074,0l.008,0a21.423,21.423,0,0,0,8.069-1.876,6.242,6.242,0,0,0,2.8-2.44c.41-.915-.533-1.346-1.6-1.345a34.093,34.093,0,0,0-5.625.791l-.522.091A7.525,7.525,0,0,0,42.622.267.1.1,0,0,0,42.6.115C42.228-.109,41.8.05,41.382.133q-1.413.278-2.812.6c-1.817.415-3.617.874-5.408,1.349-3.588.951-7.148,1.962-10.774,2.825a.154.154,0,0,0-.089.054c-1.145-.835-3.009-.033-4.061.539-1.37.744-2.957,1.74-3.427,3.041a1.985,1.985,0,0,0,.713,2.3l-.084-.008a.976.976,0,0,0-.235.014.115.115,0,0,0-.051-.057,3.155,3.155,0,0,1-.766-.861,6.513,6.513,0,0,0-.675-.722c-.227-.209-.885-.946-1.355-.717a.268.268,0,0,0-.17.354l-.011.007a.143.143,0,0,0-.115.082c-.069.168-.141.336-.213.5a27.907,27.907,0,0,1-3.406,4.737q-.23.264-.465.524c-2.013.216-4.023-.116-6.05.016-.207.013-.209.264,0,.251,1.951-.127,3.877.152,5.807,0q-.73.8-1.49,1.588c-.078.081-.157.16-.236.24-.817.168-1.653.3-2.5.417-.205.029-.118.271.087.242.711-.1,1.413-.209,2.1-.341-.17.172-.339.344-.5.518s-.3.292-.328.453Q2.561,19.556.076,20.845c-.172.09-.022.294.164.217,1.008-.42,2-.86,2.978-1.326a8.317,8.317,0,0,0,.978-.518c.288-.189.573-.62.878-.81a.147.147,0,0,0,.075-.02,10.192,10.192,0,0,0,2.067-1.614,14.6,14.6,0,0,0,3.091-1.151A12.613,12.613,0,0,0,13.491,13.3c-.038.129-.073.258-.1.389a.155.155,0,0,0-.108.04A15.027,15.027,0,0,1,6.6,17.651a.125.125,0,1,0,.044.246l.043,0h0a8.208,8.208,0,0,0,3.524-1.266,13.146,13.146,0,0,0,2.774-2.1q-1.285,1.4-2.49,2.837c-.114.136.167.262.281.127q1.021-1.222,2.1-2.413a20.85,20.85,0,0,0-1.913,5.082c-.2.07-.394.137-.6.2s-.11.3.087.242c.15-.044.3-.09.444-.14q-.1.488-.186.979c-.013.081.114.144.205.121.442-.109.415-.509.489-.816.042-.175.09-.35.136-.525a9.815,9.815,0,0,0,2.081-1.148.118.118,0,0,0,.042-.053,1.783,1.783,0,0,0,1.185-1c-.144,1.113-.266,2.228-.406,3.339a.114.114,0,0,0-.071.1,18.293,18.293,0,0,1-2.154,7.724c-.052.1.093.168.2.154.669-.088.88-.608,1.1-1.045a10.2,10.2,0,0,0,.8-2.224,24.1,24.1,0,0,0,.509-4.48,1.087,1.087,0,0,0,.33-.565,16.2,16.2,0,0,0,.391-1.863c.194-1.1.334-2.214.5-3.32.138-.918.294-1.837.512-2.746a1.55,1.55,0,0,0,.771.494.186.186,0,0,0,.184-.058l.08-.1a.143.143,0,0,0,.1-.114l.007-.043a4.083,4.083,0,0,0,.236.706c.04.092.235.136.3.03.165-.282.34-.559.522-.835.329.489.857,1.125,1.366.879a.136.136,0,0,0,.075-.086.127.127,0,0,0,.1-.111c.005-.1.011-.2.016-.3.041.158.085.315.133.472a.121.121,0,0,0,.08.079.1.1,0,0,0,.036.055.1.1,0,0,0,.05.09c.334.236.508,0,.6-.247a11.21,11.21,0,0,1-.436,1.814,8.954,8.954,0,0,0-.6,1.571.076.076,0,0,0,.019.056,9.293,9.293,0,0,1-1.82,1.523c-.161.1.07.28.23.177a9.5,9.5,0,0,0,1.912-1.616l.006-.007c.864-.162,1.029-2.861,1.1-3.422a.429.429,0,0,0,.243.063c.209-.008.319-.172.46-.286.18.544.372,1.087.562,1.629a34.308,34.308,0,0,1,1.041,3.356,3.239,3.239,0,0,0,1.183,2.215.191.191,0,0,0,.039.019,6.9,6.9,0,0,0,.748,1.3,20.393,20.393,0,0,0,2.139,2.986,9.216,9.216,0,0,0,3.966,3.154c.128.043.332-.058.222-.171-1.181-1.228-2.421-2.417-3.693-3.589a17.078,17.078,0,0,1-2.354-2.5,16.347,16.347,0,0,1-.765-1.476l-.006-.007a2.158,2.158,0,0,0-.228-.852c-.218-.531-.43-1.064-.63-1.6q-.578-1.549-1.047-3.12-.272-.91-.5-1.827L25.493,10.4c.054-.064.15-.159.265-.275.521.364.887.835,1.456,1.163a2.814,2.814,0,0,0,.712.32.724.724,0,0,0,.185.021q.362.176.7.38c.177.22.352.441.517.666.92,1.255,1.737,2.552,2.681,3.8q1.369,1.809,2.9,3.539c.5.569,1.058,1.375,1.946,1.558.3.154.58.32.852.495a18.534,18.534,0,0,0,2.054,1.483l.1.075q1.31.96,2.745,1.811,1.528.908,3.18,1.683a12.256,12.256,0,0,0,3.246,1.177c.128.021.269-.087.184-.184M26.624,9.03q.279.342.555.685-.29-.317-.577-.635c.008-.017.015-.034.022-.05m13.214,4.9c.512.283,1.133.472,1.383.974.4.809-1.179.587-1.716.522-.563-.068-1.124-.151-1.685-.231a1.755,1.755,0,0,0,.427-.345,1.464,1.464,0,0,1,.357.3.1.1,0,0,0,.132.007l-.035.053c-.05.071.09.134.14.063a9.445,9.445,0,0,0,.573-.926c.04-.074-.117-.107-.156-.033a9.314,9.314,0,0,1-.5.813.045.045,0,0,0-.011-.041,1.664,1.664,0,0,0-.408-.339,2.343,2.343,0,0,0,.172-.246.551.551,0,0,1,.226.205c.043.074.182.01.14-.063a.684.684,0,0,0-.3-.261l.022-.039c.017-.032.033-.064.05-.1a.961.961,0,0,1,.3.194c.065.063.179-.026.114-.089a1.072,1.072,0,0,0-.357-.224,1.469,1.469,0,0,0,.132-.8c.371.173.642.411,1,.609m-3.707-1.675a6.041,6.041,0,0,0,1.168.317,2.258,2.258,0,0,1,.96.35.919.919,0,0,1,.113,1.185c-.028.062-.06.127-.095.19-.069.005-.1.072-.06.1a2.072,2.072,0,0,1-.143.208c-.085-.03-.157.062-.087.1a1.363,1.363,0,0,1-.681.416,2.7,2.7,0,0,1-1.505-.179c-.463-.161-.877-.351-1.339-.478a3.473,3.473,0,0,0,.523-.366l.356.325c.068.062.183-.027.115-.088l-.362-.331c.043-.038.085-.077.125-.116a.833.833,0,0,1,.311.242.073.073,0,0,0,.037.025l-.028.026c-.066.062.048.151.115.088l.406-.376c.066-.062-.048-.151-.115-.089l-.03.028a1.255,1.255,0,0,0-.349-.325l.011-.014a2.25,2.25,0,0,0,.553-1.247m-.651,1.366a1.112,1.112,0,0,1,.326.323l-.138.128a.972.972,0,0,0-.348-.275c.058-.06.112-.119.161-.176M34.9,11.484c.581.227.989.549.827,1.1a2.319,2.319,0,0,1-.375.711,3.067,3.067,0,0,1-1.376,1.074.188.188,0,0,0-.13.032c-.675.117-1.458-.535-1.94-.854a1.971,1.971,0,0,0,.313-.246,1.335,1.335,0,0,1,.244.586c.007.048.069.067.115.056a.077.077,0,0,0,.115.04,3.233,3.233,0,0,0,.966-.806c.055-.069-.086-.132-.14-.063a2.839,2.839,0,0,1-.342.356,1.614,1.614,0,0,0-.385-.894l.057-.093a1.245,1.245,0,0,1,.343.715c.008.08.171.081.162,0a1.346,1.346,0,0,0-.371-.785.094.094,0,0,0-.079-.026,4.1,4.1,0,0,0,.242-.5,1.683,1.683,0,0,0,.129-1.034q.813.315,1.625.63M32.5,13a1.5,1.5,0,0,1,.233.607c.011.079.174.08.162,0a1.649,1.649,0,0,0-.3-.731q.061-.083.117-.167a1.476,1.476,0,0,1,.309.771.078.078,0,0,0,.084.06,3.23,3.23,0,0,1-.479.329,1.485,1.485,0,0,0-.3-.674c.059-.062.116-.128.17-.2M30.78,9.71c1.015.314,2.366.592,2.187,1.638-.073.426-.983,2.491-1.909,1.986a8.365,8.365,0,0,1-.813-.71,7.553,7.553,0,0,0-.8-.508c-.182-.237-.367-.473-.551-.708A.136.136,0,0,0,29,11.329a1.165,1.165,0,0,1,.323.223c.064.064.179-.026.115-.089a1.292,1.292,0,0,0-.416-.27c.026-.04.052-.081.078-.121a2.706,2.706,0,0,1,.426.261c.075.056.19-.032.115-.089a2.891,2.891,0,0,0-.47-.286q.051-.085.1-.172l.374.238c.08.051.2-.037.115-.089l-.426-.27c.029-.057.057-.115.083-.172a.807.807,0,0,1,.335.3.069.069,0,0,0,.066.031,2.413,2.413,0,0,1-.223.861c-.036.076.121.109.156.034a2.46,2.46,0,0,0,.237-1.022c0-.067-.109-.078-.148-.034a.97.97,0,0,0-.373-.286,1.889,1.889,0,0,0,.146-1.145,5.479,5.479,0,0,0,1.165.482m-1.59-.7c.42.7-.041,1.451-.46,2.081a.1.1,0,0,0-.011.093c-.666-.852-1.339-1.7-2.029-2.543a.15.15,0,0,0-.054-.041.38.38,0,0,0-.089-.106c-.489-.4-1.021.478-1.284.89q-.494-.345-1.008-.671l.332-.429c.054-.069-.087-.132-.14-.063l-.32.414-.175-.106a1.73,1.73,0,0,0,.487-.793c.021-.079-.136-.112-.157-.033a1.608,1.608,0,0,1-.456.75l-.1-.062a3.165,3.165,0,0,0,.561-.994c.02-.058-.08-.109-.136-.061l-.065.056a.052.052,0,0,0,0,.084,2.945,2.945,0,0,1-.169.364,1.788,1.788,0,0,0-.457-.472c.022-.035.043-.071.061-.106l.41.277c.078.053.194-.035.115-.089l-.473-.319a.61.61,0,0,0-.013-.429c-.007-.018-.017-.034-.025-.051a32.213,32.213,0,0,1,3.925,1.347c.643.258,1.412.477,1.733,1.013m-6.338.6a.091.091,0,0,0,.036.01c0,.052-.009.1-.012.156a2.259,2.259,0,0,0-.659-.152c-.01-.059-.021-.117-.031-.176a1.483,1.483,0,0,1,.665.161M35.979,2.657a.085.085,0,0,0-.1-.015c-.062.029-.122.061-.183.092-.089.021-.179.04-.271.056a2.7,2.7,0,0,0-1,.28A13.52,13.52,0,0,1,32.5,4.107c-1.143.431-2.465.26-3.653.507a4.994,4.994,0,0,0,.664-.5c.08-.071.207-.252.331-.276.039-.008.17.04.222.042a.669.669,0,0,0,.467-.164.05.05,0,0,0,.011-.072Q33.463,3.05,36.395,2.5q-.2.086-.416.153M30.065,3.74l.257-.053a.558.558,0,0,1-.257.053M28.53,4.66c-.059.032-.119.062-.181.09-.094.032-.186.067-.277.107a.08.08,0,0,0-.028.021c-.383.146-.793.254-1.187.373l-3.3,1c-.066.006-.132.012-.2.02a.152.152,0,0,0-.077.031,2.533,2.533,0,0,1-.371-.475c-.085-.164-.153-.333-.254-.491q3.463-.779,6.95-1.494a5.2,5.2,0,0,1-1.075.824M23.8,7.931a.064.064,0,0,0,.042.029c-.05.081-.1.161-.163.24a1.222,1.222,0,0,0-.452-.544c.054-.059.1-.118.151-.179a1.674,1.674,0,0,1,.421.454m-.209.374H23.6l0,0-.006,0m-.458-.547a1.094,1.094,0,0,1,.405.506.062.062,0,0,0,.012.017q-.294-.172-.593-.338c.057-.062.117-.124.176-.186m-.89,1.994a2,2,0,0,1,.6.15.089.089,0,0,0,.023.006c-.005.056-.008.112-.013.168a1.053,1.053,0,0,0-.581-.146c-.011-.059-.021-.119-.031-.179m.533-1.6.009.006.07.04h-.007l-.1,0,.032-.043m-.045,2.2a.722.722,0,0,0-.4-.086c-.013-.07-.025-.14-.037-.21a.835.835,0,0,1,.455.115.1.1,0,0,0,.092.008q-.037.324-.095.646h0l-.243-.033a.1.1,0,0,0-.066.012c-.027-.137-.054-.274-.08-.412a.537.537,0,0,1,.291.068c.084.048.165-.061.082-.108m-.271.56.026,0c0,.03.027.059.078.059a.076.076,0,0,0,.073-.038l.067.009a.089.089,0,0,0,.024,0c-.039.206-.083.411-.135.616q-.069-.325-.135-.65h0m.26,1.232a.113.113,0,0,0,.064-.071A10.475,10.475,0,0,0,23.206,8.4q.986.569,1.9,1.209l-2.311,2.86q-.038-.162-.074-.323M29.25,6.291q-1.59,0-3.179-.04c-.648-.018-1.295-.059-1.94-.041,1.267-.372,2.547-.732,3.786-1.151.135-.046.262-.1.386-.151,1.328-.508,2.933-.179,4.282-.691a10.956,10.956,0,0,0,1.786-.957,2.014,2.014,0,0,1,.681-.291c.1-.019.2-.031.294-.044a6.158,6.158,0,0,0-1.7,1.411,3.814,3.814,0,0,1-.577.644,6.554,6.554,0,0,1-.654.421l-1.423.87c-.581.011-1.163.019-1.744.021M35.286,6.1q-1.99.123-3.987.166a14.418,14.418,0,0,1,2.818-1.278c1.159-.351,2.393-.576,3.585-.849a6.86,6.86,0,0,0,2.489-.916c.354-.258.525-.616.868-.876a9.025,9.025,0,0,1,.88-.566c-.324.29-.642.584-.945.886a2.25,2.25,0,0,0-.464.59A5.4,5.4,0,0,1,40.2,4.1c-.491.716-1.521,1.09-2.017,1.8-.977.08-1.949.137-2.894.2M45.473,4.353a21.589,21.589,0,0,1-6.786,1.5c.694-.4,1.4-.8,2.132-1.15a21.5,21.5,0,0,1,2.537-.989l.013,0a15.422,15.422,0,0,1,2.66-.331,5.43,5.43,0,0,0,1.785-.48,9.293,9.293,0,0,1-2.341,1.447M48.071.77a.779.779,0,0,1,.612,1.112,3.9,3.9,0,0,1-.555.722.1.1,0,0,0-.053.013,5.545,5.545,0,0,1-2.493.682c-.426.032-.852.056-1.271.106a5.829,5.829,0,0,0,1.972-.956,4.864,4.864,0,0,0,.835-.857,1.938,1.938,0,0,0,.291-.862h.052a3.69,3.69,0,0,1,.61.04m-2.05.074A12.265,12.265,0,0,1,47.244.735a1.886,1.886,0,0,1-.488,1.06,4.631,4.631,0,0,1-1.08.918,15.169,15.169,0,0,1-2.617.968,25.128,25.128,0,0,0-4.685,2.2c.5-.664,1.485-1.037,1.963-1.722a2.015,2.015,0,0,0,.257-.62,1.766,1.766,0,0,1,.452-.728c.474-.491,1-.955,1.533-1.412.345-.059.691-.119,1.037-.177.8-.134,1.6-.278,2.405-.382m-3.814.622c-.41.246-.828.489-1.214.755-.363.249-.529.613-.875.877a7.677,7.677,0,0,1-2.9,1.016c-1.1.25-2.237.457-3.3.8a10.922,10.922,0,0,0-1.252.494,3.451,3.451,0,0,0,.9-.731,6.684,6.684,0,0,1,2.2-1.824,4.513,4.513,0,0,0,.913-.328.053.053,0,0,0,.031-.076q2.74-.509,5.493-.979m-8.96.858c1.744-.462,3.494-.909,5.261-1.316q1.4-.321,2.811-.6a2.383,2.383,0,0,1,.6-.116q.28-.11.12.164l-.178.161a5.244,5.244,0,0,1-1.185.829.148.148,0,0,0-.048.042q-2.389.417-4.771.862-5.843,1.1-11.627,2.375c3.024-.759,6.014-1.6,9.022-2.4M16.321,10.96A1.833,1.833,0,0,1,15.385,8.1a8.162,8.162,0,0,1,2.792-2.255c1.034-.591,3.225-1.672,4.169-.432a8.622,8.622,0,0,1,.6,1.019c.525.962-.227,1.121-.625,1.851-.043.078.063.157.156.159l.362.006a.186.186,0,0,0,.04-.006q.012.207.016.413a1.09,1.09,0,0,0-.151-.14c.054.006.114-.025.092-.075l-.04-.094c-.033-.076-.19-.044-.157.033l.038.088a1.424,1.424,0,0,0-.273-.144c-.093-.036-.175.072-.082.109a1.018,1.018,0,0,1,.577.505c0,.116-.006.233-.011.348l-.055-.024a.057.057,0,0,0,.029-.081,2.387,2.387,0,0,0-.646-.682c-.076-.055-.191.033-.115.089a2.3,2.3,0,0,1,.6.622,1.742,1.742,0,0,0-.537-.086q-.065-.4-.124-.793a.161.161,0,0,0-.205-.121c-.267.047-.247.031-.387.114a.182.182,0,0,0-.217.078c-.021.048-.037.1-.055.147a2.184,2.184,0,0,0-.347-.292.082.082,0,0,0-.016-.007c.056-.044.112-.089.174-.129.08-.052-.035-.14-.114-.089a1.915,1.915,0,0,0-.665.712c-.074,0-.124.078-.052.113-.012.054.071.081.124.056a2.773,2.773,0,0,1,.565.336c.074.057.189-.031.115-.089a2.953,2.953,0,0,0-.6-.358,1.515,1.515,0,0,1,.1-.165A1.644,1.644,0,0,1,21,9.168a.072.072,0,0,0,.041.019,8.4,8.4,0,0,0-.151,1.3.517.517,0,0,0-.733.118.493.493,0,0,0-.5.366,1.174,1.174,0,0,0-.041.16,1.239,1.239,0,0,0-.266.216.048.048,0,0,0-.026-.043,1.96,1.96,0,0,0-.767-.3l-.013-.03c.025-.059.052-.117.082-.174l.727.341c.089.042.171-.066.081-.108l-.732-.343a.029.029,0,0,0-.011,0,2.939,2.939,0,0,1,.432-.566c.063-.064-.079-.127-.141-.063a2.968,2.968,0,0,0-.521.725c-.032-.075-.064-.151-.095-.227l0-.006a1.69,1.69,0,0,1,.347-.523c.062-.065-.079-.128-.14-.063a1.815,1.815,0,0,0-.29.4c-.205-.5-.4-1.009-.6-1.511a.185.185,0,0,0-.247-.067c-.1-.05-.281.017-.253.139,0,.017.006.034.009.052a.134.134,0,0,0-.112.084q-.144.423-.287.845l-.15-.14c-.067-.062-.181.027-.115.088l.2.189a.083.083,0,0,0,.013.009l-.062.185-.252-.246c-.065-.063-.179.026-.115.088l.287.28a.075.075,0,0,0,.032.018c-.018.053-.036.105-.053.158a.657.657,0,0,1-.444-.366.092.092,0,0,0-.122-.034l.336-.283c.07-.059-.044-.149-.115-.089l-.484.41c-.07.059.044.148.115.089l.118-.1a.045.045,0,0,0,0,.041.813.813,0,0,0,.56.454c-.056.169-.111.339-.165.507l-.029-.023c.065-.055.078-.144-.033-.185m5.331,2.556a2.4,2.4,0,0,1-.1-.475l.009,0,.488.062h.011a1.578,1.578,0,0,0-.41.411m-.047-.852.39.107c.021.069.041.139.062.208l-.45-.057a.1.1,0,0,0-.058.009,2.847,2.847,0,0,1,0-.39.109.109,0,0,0,0-.023c.008-.059.017-.117.024-.176v-.012a.093.093,0,0,0,.077.02l.2-.031.014,0q.043.156.087.311l-.3-.083c-.1-.027-.141.094-.044.121m.2-.465-.2.031a.093.093,0,0,0-.025.008c.027-.271.032-.548.06-.821q.088.392.193.782a.078.078,0,0,0-.025,0m-.961-1.141q-.041.386-.081.771a.075.075,0,0,0-.074-.04h-.2c-.1,0-.1.125,0,.125h.2a.076.076,0,0,0,.068-.032c-.009.088-.019.176-.028.264l-.306.053a.075.075,0,0,0-.018.006c0-.04-.006-.081-.009-.121,0-.056.006-.113.009-.169a.1.1,0,0,0-.026-.069c-.006-.1-.009-.206-.011-.309a.093.093,0,0,0,.055-.015.305.305,0,0,1,.185-.047c.1,0,.1-.122,0-.125a.507.507,0,0,0-.24.05c0-.078,0-.156,0-.233-.084-.275.081-.37.49-.289-.005.06-.009.121-.016.181m-2.22.093a1.728,1.728,0,0,1,.589.241.1.1,0,0,0,.093.009,1.961,1.961,0,0,0-.3.554q-.2-.4-.378-.8m.653.972a1.9,1.9,0,0,1,.3-.593c-.005.109-.009.218-.02.323q-.049.471-.1.942-.172-.289-.328-.584a.147.147,0,0,0,.143-.088m.475,1q.057-.545.113-1.092l.057-.546a2.851,2.851,0,0,1,.1-.473,4.268,4.268,0,0,0,.047,1.121L20,13.6q-.147-.2-.281-.407a.109.109,0,0,0,.039-.071m1.325-4.078a1.77,1.77,0,0,0-.544-.323,1.744,1.744,0,0,1,.175-.187l0,0a2.009,2.009,0,0,1,.355.3.09.09,0,0,0,.06.027c-.02.059-.035.119-.051.18M15.6,11.115a1.035,1.035,0,0,1,.686.368q-.08.251-.156.5a2.082,2.082,0,0,0-.345-.188c-.092-.038-.174.07-.082.108a1.909,1.909,0,0,1,.385.217c-.015.047-.028.094-.042.141a1.466,1.466,0,0,0-.565-.254h0a1.141,1.141,0,0,1,.192-.241c.066-.062-.049-.151-.115-.089a1.151,1.151,0,0,0-.376.708c-.01.08.153.08.162,0,0-.009,0-.016.005-.025l.476.267c.085.047.166-.061.082-.109l-.528-.3a.892.892,0,0,1,.042-.1.077.077,0,0,0,.019.008,1.262,1.262,0,0,1,.565.28c-.025.082-.048.165-.072.247a.193.193,0,0,0-.056.024.832.832,0,0,1-1.176-1.048.776.776,0,0,1,.9-.516m-1.458.38a.8.8,0,0,1,.444-.324l.026.022v0a.153.153,0,0,0-.171.057c-.138.215-.263.434-.378.655a.556.556,0,0,1,.081-.411M12.954,8.944a3.515,3.515,0,0,1,1.155,1.111,3.876,3.876,0,0,0,.735.855,1.109,1.109,0,0,0-.136,0c-.381-.317-.754-.639-1.113-.971q-.315-.29-.618-.588c-.142-.14-.673-.663-.022-.4m-.283.506c.534.528,1.1,1.036,1.683,1.53a1.088,1.088,0,0,0-.425.293.76.76,0,0,0-.065.962.146.146,0,0,0,.022.02c-.028.061-.056.121-.083.183A11.879,11.879,0,0,1,9.165,14.5c.1-.134.2-.267.3-.4a22.517,22.517,0,0,0,2.684-4.581c.072-.131.141-.262.21-.394a4.366,4.366,0,0,0,.308.318M9.284,13.642q.544-.652,1.045-1.322c-.313.5-.645.992-1,1.474-.2.271-.41.537-.623.8l-.1.017c-.061.011-.123.019-.185.028.292-.33.581-.661.861-1M7.218,15.955q.482-.512.95-1.031c.1-.011.2-.023.3-.037q-.452.541-.94,1.062c-.2.211-.4.425-.6.638q-.2.05-.4.1c.234-.242.468-.483.7-.728M3.054,19.519l-.1.048q.741-.432,1.463-.882c-.029.031-.06.063-.094.093a5.341,5.341,0,0,1-1.267.741M5.253,18a5.319,5.319,0,0,1,.924-.965l.028-.029.374-.082A8.654,8.654,0,0,1,5.253,18m4.684-2.493a13.768,13.768,0,0,1-2.369.9c.492-.52.942-1.068,1.359-1.6l.024,0a12.55,12.55,0,0,0,4.244-1.622,12.33,12.33,0,0,1-3.258,2.326m4.453-3.245a1.22,1.22,0,0,0,.926.785l-.119.09a.069.069,0,0,0-.029-.024l-.406-.189c-.09-.042-.171.067-.082.108l.4.188c-.035.025-.071.05-.108.075a2.441,2.441,0,0,0-.475-.162c-.1-.024-.143.1-.043.121a2.29,2.29,0,0,1,.392.129,9.534,9.534,0,0,1-1.22.692,7.221,7.221,0,0,1,.395-1.36q.19-.222.366-.452m-1.1,1.909c0,.011,0,.022-.006.034l-.217.236c.079-.088.152-.178.223-.27m-1.264,4.336a38.688,38.688,0,0,1,1.4-3.785c.066-.118.133-.236.2-.354a9.568,9.568,0,0,0,2.2-1.365c-.218.779-.41,1.563-.559,2.353-.051.273-.1.546-.144.819a.127.127,0,0,0-.023.03,9.732,9.732,0,0,1-1.869,2.619.105.105,0,0,0,.032.157,9.393,9.393,0,0,1-1.631.912c.124-.463.253-.926.4-1.386m1.681.236a10.149,10.149,0,0,0,1.13-1.444c-.226.554-.614,1.289-1.13,1.444m-.009,8.314c-.158.454-.42,1.516-1.013,1.892a18.918,18.918,0,0,0,1.572-4.284c-.027.19-.057.381-.091.571a11.931,11.931,0,0,1-.468,1.821m2.122-11.823c-.163,1.017-.292,2.036-.45,3.053-.09.575-.188,1.149-.307,1.721a4.53,4.53,0,0,1-.258,1.12c.176-1.424.321-2.857.535-4.28l0-.013a.088.088,0,0,0,0-.027c.081-.543.174-1.084.281-1.623a33.245,33.245,0,0,1,.926-3.493c.075-.019.138-.073.114-.149a.639.639,0,0,0-.039-.093c.2-.619.406-1.237.616-1.854a13.614,13.614,0,0,1-.8,2.7,25.916,25.916,0,0,0-.619,2.938m.924-2.437a.122.122,0,0,0-.092-.063c.052-.2.107-.4.166-.6.18-.605.456-1.207.617-1.818q.076.232.157.463c-.267.124-.388.656-.407.8a6.962,6.962,0,0,0-.022,1.172.75.75,0,0,0,.145.534,1.116,1.116,0,0,1-.564-.488m.926-1.307q-.1.656-.21,1.311a5.525,5.525,0,0,1,.231-1.752c.029.078.057.155.087.231l0,0c-.011.037-.018.074-.028.111a.13.13,0,0,0-.078.094m.469,2.085a3.543,3.543,0,0,1-.147-1.795,8.022,8.022,0,0,0,.382.738c-.054.031-.04.113.046.113a.1.1,0,0,0,.02,0c.02.032.037.065.057.1l.09.146c-.156.232-.3.467-.449.7m.2-1.79a16.877,16.877,0,0,1-.761-2.074.122.122,0,0,0-.022-.036,2.788,2.788,0,0,0,.011-.29,18.75,18.75,0,0,0,2.2,4.407,6.871,6.871,0,0,1-1.429-2.006m2.087.528a.1.1,0,0,0,.048,0l.248-.043q-.055.53-.111,1.06a8.16,8.16,0,0,1-.185-1.02m.438,1.706q.142-1.358.285-2.715c.014-.131.024-.264.033-.4a.1.1,0,0,0,.027-.146l-.016-.019a10.177,10.177,0,0,1,.141-1.377,12.653,12.653,0,0,0,.158,1.289,4.864,4.864,0,0,0-.217,1.449,10.236,10.236,0,0,1-.182,1.157c-.014.062-.194.63-.229.762m-.09,2.725c.068-.157.129-.315.189-.474a1.94,1.94,0,0,1-.1.385c-.131.334-.3.588-.088.09m1.192-2.98-.009.006a.169.169,0,0,0-.076-.04,1.032,1.032,0,0,1,.152-.215,1.152,1.152,0,0,1,.151-.149c.023.072.046.143.069.215-.1.056-.186.137-.286.183M27.79,24.447c1.262,1.192,2.538,2.369,3.745,3.594a10.448,10.448,0,0,1-3.363-2.988q-.414-.492-.791-1c.134.132.271.263.409.393M23.957,17.58q.265.748.555,1.491a5.687,5.687,0,0,1,.589,1.6,4.639,4.639,0,0,1-.992-2.464c-.273-1.014-.626-2.016-.977-3.015A28.964,28.964,0,0,1,21.82,10.68c.011-.025.019-.05.031-.075.032-.064-.008-.111-.068-.134a11.746,11.746,0,0,1-.153-1.645.1.1,0,0,0-.026-.064l.141-.05q.35,2.316.924,4.607l-.013.016c-.058.069-.013.136.059.167.091.355.185.71.285,1.064q.427,1.516.957,3.014M25.3,10.173l-.852,1.02-1.523,1.823c-.02-.083-.042-.166-.062-.249a.162.162,0,0,0,.116-.057l1.638-2.027.819-1.013a.13.13,0,0,0,.04-.052,3.26,3.26,0,0,1,.452-.557l.164-.2q.2.179.035.321c-.112.324-.59.71-.827.992m2.467,1.1a3.428,3.428,0,0,1-.74-.436c-.374-.291-.667-.633-1.068-.905l0,0a4.984,4.984,0,0,0,.492-.582c.6.661,1.215,1.318,1.8,1.99a.8.8,0,0,1-.479-.065m7.507,8.713q-.682-.768-1.333-1.552-.5-.6-.981-1.217a30.975,30.975,0,0,0,4.194,4.144A1.522,1.522,0,0,1,37,21.341l-.136-.071a.174.174,0,0,0-.156,0,4.015,4.015,0,0,1-1.432-1.286m10.433,6.8a36.072,36.072,0,0,1-3.353-1.82c-.108-.066-.214-.134-.319-.2.174.08.348.16.526.236,1.084.461,2.188.886,3.241,1.389a12.623,12.623,0,0,1,2.856,1.573A14.73,14.73,0,0,1,45.7,26.785" transform="translate(0 0)" fill="#191614"/>
        <path id="Trazado_599156" data-name="Trazado 599156" d="M34.623,23.594l.328-.286.155-.135a.433.433,0,0,0,.066-.057l.006,0c.129.047.31-.059.214-.172a.332.332,0,0,0-.446,0c-.2.146-.371.322-.552.479-.138.121.091.3.23.177" transform="translate(-15.179 -13.009)" fill="#191614"/>
        <path id="Trazado_599157" data-name="Trazado 599157" d="M35.665,21.894h.054c.209,0,.209-.25,0-.25h-.054c-.209,0-.209.25,0,.25" transform="translate(-15.691 -12.321)" fill="#191614"/>
        <path id="Trazado_599158" data-name="Trazado 599158" d="M27.2,26.7a.2.2,0,0,1,.1-.176c.076-.055-.039-.144-.115-.089a.316.316,0,0,0-.143.264c0,.081.165.081.162,0" transform="translate(-11.946 -15.041)" fill="#191614"/>
        <path id="Trazado_599159" data-name="Trazado 599159" d="M28.571,22.108c.1,0,.1-.125,0-.125s-.1.125,0,.125" transform="translate(-12.591 -12.514)" fill="#191614"/>
        <path id="Trazado_599160" data-name="Trazado 599160" d="M28.935,20.944c.1,0,.1-.125,0-.125s-.1.125,0,.125" transform="translate(-12.751 -11.851)" fill="#191614"/>
        <path id="Trazado_599161" data-name="Trazado 599161" d="M33.752,24.407c-.1-.031-.138.09-.043.121a2.051,2.051,0,0,1,.66.349c.073.058.188-.031.115-.089a2.263,2.263,0,0,0-.732-.382" transform="translate(-14.872 -13.89)" fill="#191614"/>
        <path id="Trazado_599162" data-name="Trazado 599162" d="M32.733,22.619a.6.6,0,0,1,.161-.265c.064-.062-.05-.152-.115-.089a.737.737,0,0,0-.2.32c-.023.078.133.112.157.033" transform="translate(-14.394 -12.662)" fill="#191614"/>
        <path id="Trazado_599163" data-name="Trazado 599163" d="M35.339,20.2a.692.692,0,0,1,.182-.224c.071-.059-.044-.148-.115-.089a.852.852,0,0,0-.224.279c-.037.075.12.108.157.033" transform="translate(-15.544 -11.31)" fill="#191614"/>
        <path id="Trazado_599164" data-name="Trazado 599164" d="M36.357,18.469c.1,0,.1-.125,0-.125s-.1.125,0,.125" transform="translate(-16.031 -10.442)" fill="#191614"/>
        <path id="Trazado_599165" data-name="Trazado 599165" d="M39.6,16.776l.323.19c.083.049.164-.06.082-.109l-.323-.19c-.083-.049-.164.06-.082.108" transform="translate(-17.483 -9.481)" fill="#191614"/>
        <path id="Trazado_599166" data-name="Trazado 599166" d="M40.31,16.327c.052.07.193.007.14-.063l-.164-.219c-.052-.07-.193-.007-.14.063l.164.219" transform="translate(-17.736 -9.116)" fill="#191614"/>
        <path id="Trazado_599167" data-name="Trazado 599167" d="M38.54,16.388l.055-.053a.043.043,0,0,0,.026.049l.569.344c.081.049.2-.039.115-.089l-.569-.344a.106.106,0,0,0-.093-.006l.542-.53c.064-.063-.05-.152-.115-.089l-.645.63c-.064.063.05.152.115.089" transform="translate(-16.971 -8.907)" fill="#191614"/>
        <path id="Trazado_599168" data-name="Trazado 599168" d="M38.613,15.486c.1,0,.1-.125,0-.125s-.1.125,0,.125" transform="translate(-17.028 -8.744)" fill="#191614"/>
        <path id="Trazado_599169" data-name="Trazado 599169" d="M38.866,14.744l.122.062c.088.045.169-.064.082-.108l-.122-.062c-.088-.045-.169.064-.082.108" transform="translate(-17.158 -8.325)" fill="#191614"/>
        <path id="Trazado_599170" data-name="Trazado 599170" d="M32.459,29.521l.285.125c.091.04.173-.068.082-.108l-.285-.125c-.091-.04-.173.068-.082.108" transform="translate(-14.326 -16.738)" fill="#191614"/>
        <path id="Trazado_599171" data-name="Trazado 599171" d="M44.363,18.387c.087.046.167-.063.082-.108l-.121-.064c-.087-.046-.168.063-.082.108l.121.064" transform="translate(-19.534 -10.362)" fill="#191614"/>
        <path id="Trazado_599172" data-name="Trazado 599172" d="M44.945,17.523c.1,0,.1-.125,0-.125s-.105.125,0,.125" transform="translate(-19.826 -9.904)" fill="#191614"/>
        <path id="Trazado_599173" data-name="Trazado 599173" d="M53.9,25.646a1.165,1.165,0,0,0,.076-.849c-.022-.079-.179-.046-.157.033a1.07,1.07,0,0,1-.076.783c-.037.075.121.108.157.033" transform="translate(-23.748 -14.09)" fill="#191614"/>
        <path id="Trazado_599174" data-name="Trazado 599174" d="M54.681,25.9l.088-.344c.02-.079-.136-.113-.156-.034l-.088.344c-.02.079.137.112.157.033" transform="translate(-24.093 -14.502)" fill="#191614"/>
        <path id="Trazado_599175" data-name="Trazado 599175" d="M54.914,24.218c.1,0,.1-.125,0-.125s-.1.125,0,.125" transform="translate(-24.231 -13.715)" fill="#191614"/>
        <path id="Trazado_599176" data-name="Trazado 599176" d="M59.832,31.248a2.446,2.446,0,0,1-.469.49c-.073.058.042.147.115.089a2.579,2.579,0,0,0,.494-.516c.051-.071-.089-.134-.14-.063" transform="translate(-26.222 -17.77)" fill="#191614"/>
        <path id="Trazado_599177" data-name="Trazado 599177" d="M60.591,30.113c.1,0,.1-.125,0-.125s-.105.125,0,.125" transform="translate(-26.74 -17.07)" fill="#191614"/>
        <path id="Trazado_599178" data-name="Trazado 599178" d="M60.154,28.658c.1,0,.1-.125,0-.125s-.1.125,0,.125" transform="translate(-26.547 -16.242)" fill="#191614"/>
        <path id="Trazado_599179" data-name="Trazado 599179" d="M64.066,32.767a1.386,1.386,0,0,0-.421.532c-.033.077.123.109.157.034a1.234,1.234,0,0,1,.38-.476c.073-.058-.042-.146-.115-.089" transform="translate(-28.122 -18.642)" fill="#191614"/>
        <path id="Trazado_599180" data-name="Trazado 599180" d="M64.8,33.4l.16-.19c.057-.068-.084-.131-.141-.063l-.159.19c-.057.068.083.131.14.063" transform="translate(-28.567 -18.85)" fill="#191614"/>
        <path id="Trazado_599181" data-name="Trazado 599181" d="M65.172,31.527l.041-.062c.046-.072-.094-.136-.14-.063l-.041.062c-.047.072.093.136.14.063" transform="translate(-28.733 -17.857)" fill="#191614"/>
        <path id="Trazado_599182" data-name="Trazado 599182" d="M70.542,34.846l.122-.094c.074-.057-.041-.146-.115-.089l-.122.094c-.074.057.041.146.115.089" transform="translate(-31.111 -19.721)" fill="#191614"/>
        <path id="Trazado_599183" data-name="Trazado 599183" d="M71.36,34.632l.041-.125c.025-.078-.131-.112-.157-.033L71.2,34.6c-.025.078.131.112.157.033" transform="translate(-31.463 -19.599)" fill="#191614"/>
        <path id="Trazado_599184" data-name="Trazado 599184" d="M66.026,30.621l.2.031c.1.016.146-.105.043-.121l-.2-.031c-.1-.016-.146.105-.043.121" transform="translate(-29.151 -17.361)" fill="#191614"/>
        <path id="Trazado_599185" data-name="Trazado 599185" d="M67.309,30.214a.142.142,0,0,1-.021-.142c.028-.078-.129-.111-.157-.033a.248.248,0,0,0,.037.238c.05.071.191.007.14-.063" transform="translate(-29.658 -17.074)" fill="#191614"/>
        <path id="Trazado_599186" data-name="Trazado 599186" d="M61.792,28.108c.061.065.2,0,.14-.063l-.119-.127c-.061-.065-.2,0-.141.063l.119.127" transform="translate(-27.246 -15.877)" fill="#191614"/>
        <path id="Trazado_599187" data-name="Trazado 599187" d="M62.628,27.639c.1,0,.1-.125,0-.125s-.1.125,0,.125" transform="translate(-27.64 -15.662)" fill="#191614"/>
        <path id="Trazado_599188" data-name="Trazado 599188" d="M55.4,25.825l.445.068c.1.016.146-.106.043-.121l-.445-.068c-.1-.016-.146.106-.043.121" transform="translate(-24.455 -14.631)" fill="#191614"/>
      </g>
    </g>
  </g>
</svg>
